<svg width="28" height="23" viewBox="0 0 28 23" fill="none" xmlns="http://www.w3.org/2000/svg">
<path d="M25.2 0H2.8C1.26 0 0 1.29375 0 2.875V20.125C0 21.7062 1.26 23 2.8 23H25.2C26.74 23 28 21.7062 28 20.125V2.875C28 1.29375 26.74 0 25.2 0ZM7.896 15.0506C7.896 15.4675 7.56 15.8125 7.154 15.8125H7.028C6.622 15.8125 6.286 15.4675 6.286 15.0506V9.34375L5.656 9.81812C5.49584 9.92402 5.30235 9.96314 5.11504 9.9275C4.92774 9.89186 4.76075 9.78415 4.64817 9.62636C4.5356 9.46857 4.48593 9.27261 4.50932 9.07849C4.5327 8.88437 4.62737 8.70674 4.774 8.58188L6.44 7.36C6.57841 7.25992 6.74095 7.20081 6.90985 7.18912C7.07876 7.17743 7.24755 7.2136 7.39779 7.29371C7.54804 7.37381 7.67396 7.49475 7.76182 7.64333C7.84968 7.79191 7.89609 7.96243 7.896 8.13625V15.0506ZM15.414 15.8125H11.676C11.116 15.8125 10.668 15.3525 10.668 14.7775C10.668 14.5044 10.78 14.2313 10.962 14.0444C12.292 12.6788 13.174 11.7731 13.65 11.2556C14.21 10.6519 14.406 10.2638 14.406 9.73188C14.406 9.15688 13.972 8.69688 13.272 8.69688C12.796 8.69688 12.474 8.92688 12.264 9.22875C12.054 9.51625 11.69 9.6025 11.368 9.45875C11.2575 9.41234 11.1592 9.34012 11.0807 9.24782C11.0022 9.15552 10.9457 9.04569 10.9158 8.92706C10.8859 8.80843 10.8834 8.68427 10.9084 8.56446C10.9334 8.44464 10.9853 8.33247 11.06 8.23687C11.27 7.96375 11.578 7.69062 11.998 7.475C12.964 7.00062 14.07 7.1875 14.728 7.51812C15.932 8.15062 16.002 9.30062 16.002 9.64563C16.002 10.5656 15.568 11.4569 14.714 12.3194C14.364 12.6787 13.706 13.34 12.754 14.3175L12.796 14.3894H15.428C15.806 14.3894 16.114 14.7056 16.114 15.0938C16.114 15.4819 15.792 15.8125 15.414 15.8125ZM23.45 14.5906C23.338 14.7775 22.666 15.8125 20.986 15.8125C20.944 15.8125 19.264 15.8988 18.424 14.4038C18.214 14.03 18.368 13.5413 18.76 13.3831L18.928 13.3113C19.236 13.1819 19.586 13.2969 19.754 13.5844C19.95 13.9294 20.3 14.2887 20.986 14.2887C21.56 14.2887 22.232 13.8863 22.232 13.1819C22.232 12.3912 21.56 12.0463 20.776 12.0463C20.5928 12.0425 20.4183 11.9651 20.2901 11.8307C20.1618 11.6963 20.09 11.5157 20.09 11.3275C20.09 10.9538 20.37 10.6519 20.72 10.6231V10.6088C21.182 10.6088 21.952 10.4075 21.952 9.57375C21.952 9.01312 21.518 8.63938 20.902 8.63938C20.454 8.63938 20.16 8.82625 19.964 9.07063C19.768 9.32938 19.446 9.44437 19.152 9.315L19.04 9.27187C18.62 9.09937 18.48 8.55312 18.76 8.19375C19.138 7.69062 19.824 7.1875 20.916 7.1875C22.442 7.1875 23.072 8.1075 23.184 8.26562C23.646 8.98438 23.576 9.93312 23.212 10.5225C23.002 10.8387 22.764 11.0688 22.484 11.2125V11.3131C22.876 11.4712 23.198 11.7156 23.436 12.0606C23.954 12.8081 23.898 13.8862 23.45 14.5906Z" fill="#95A5A6"/>
</svg>
