<svg width="113" height="80" viewBox="0 0 113 80" fill="none" xmlns="http://www.w3.org/2000/svg">
<path d="M75.0327 28.4949C66.3396 32.782 60.7878 39.5983 58.433 49.0019C56.5444 58.5898 58.6466 67.1981 64.8782 74.8534C64.6087 74.8679 64.417 74.8897 64.2228 74.8897C47.8561 74.8922 31.4895 74.8849 15.1204 74.9043C14.1251 74.9043 13.1395 74.8049 12.1903 74.6012C10.1973 74.172 8.34264 73.3669 6.68218 72.1448C5.31546 71.1409 4.15509 69.9382 3.21562 68.5415C2.52862 67.5206 2.00426 66.4076 1.60614 65.2291C1.07936 63.6675 0.868164 62.0768 0.868164 60.4376C0.877874 49.9816 0.873019 39.528 0.873019 29.072C0.873019 28.8731 0.873019 28.6743 0.873019 28.5191C0.936136 28.4609 0.950701 28.4464 0.967694 28.4367C0.98226 28.4245 1.00168 28.4076 1.01867 28.4076C25.5079 28.3979 49.9972 28.3906 74.4865 28.3857C74.6079 28.3857 74.7293 28.3906 74.8506 28.3979C74.8895 28.4003 74.9307 28.4124 74.9696 28.4245C74.9866 28.4294 75.0036 28.4415 75.0133 28.4561C75.023 28.4658 75.0278 28.4876 75.0327 28.4949ZM27.9938 59.3876C30.5816 59.3876 33.1669 59.3755 35.7547 59.3949C36.4393 59.3997 37.0559 59.2154 37.6361 58.8978C39.2577 58.0054 40.1195 56.0437 39.4155 54.1838C38.845 52.6804 37.4831 51.6426 35.8033 51.6402C30.6083 51.6329 25.4157 51.6402 20.2207 51.6329C19.5847 51.6329 19.0142 51.8148 18.4559 52.096C16.8755 52.889 15.9603 54.8943 16.4774 56.5457C16.9751 58.1364 18.4874 59.4143 20.2935 59.3973C22.8619 59.3706 25.4278 59.3876 27.9938 59.3876Z" fill="#001540"/>
<path d="M101.732 20.5895C68.1098 20.5895 34.5342 20.5895 0.919673 20.5895C0.90268 20.4416 0.875977 20.3082 0.875977 20.1724C0.878404 18.0119 0.888115 15.8538 0.885687 13.6932C0.883259 12.619 1.07504 11.5836 1.33964 10.5433C1.61153 9.47638 2.01451 8.47491 2.52429 7.50496C3.75264 5.1674 5.52234 3.34633 7.77512 1.98356C8.63205 1.46464 9.54724 1.07423 10.4964 0.739603C12.0671 0.186734 13.6717 -0.00240188 15.3273 2.29777e-05C39.2946 0.00972242 63.262 0.00729726 87.2293 0.00729726C87.5716 0.00729726 87.9163 0.0266956 88.2586 0.0218458C89.2491 0.00729667 90.1983 0.220681 91.1523 0.465592C92.0578 0.698379 92.9026 1.04756 93.7474 1.43312C95.3301 2.15573 96.675 3.19599 97.8645 4.43994C99.1366 5.77119 100.093 7.32068 100.765 9.0302C101.411 10.6694 101.707 12.3959 101.746 14.1491C101.792 16.1666 101.758 18.1865 101.756 20.204C101.758 20.3058 101.744 20.4052 101.732 20.5895Z" fill="#001540"/>
<path d="M112.089 53.7159C112.055 52.8333 111.97 51.9434 111.791 51.0801C111.565 49.9889 111.254 48.9099 110.914 47.8478C110.611 46.9021 110.274 45.9588 109.851 45.064C109.038 43.34 108.028 41.7299 106.834 40.2337C105.435 38.4781 103.831 36.948 102.01 35.6337C100.859 34.8044 99.67 34.0382 98.3712 33.4635C97.257 32.9712 96.1233 32.5154 94.9896 32.0668C94.6425 31.9286 94.2662 31.8582 93.8996 31.7758C93.3947 31.6643 92.8776 31.5964 92.3751 31.4703C91.4988 31.252 90.6151 31.0774 89.7145 31.058C88.2604 31.0265 86.8063 31.0508 85.3497 31.0532C85.1483 31.0532 84.9419 31.0532 84.7453 31.0896C84.0389 31.2205 83.3349 31.3587 82.6333 31.5091C81.8371 31.6812 81.0262 31.8097 80.2567 32.0644C79.2153 32.4087 78.1739 32.7918 77.1883 33.2695C75.455 34.1085 73.8139 35.1027 72.3064 36.32C70.8693 37.4815 69.5657 38.7667 68.4053 40.207C67.0435 41.902 65.9244 43.7449 65.0674 45.7381C64.6596 46.6863 64.3489 47.678 64.043 48.6649C63.8245 49.3706 63.6546 50.0932 63.5162 50.8182C63.3511 51.6839 63.1594 52.5593 63.1254 53.4347C63.055 55.3042 62.9409 57.1835 63.3099 59.0434C63.4385 59.6932 63.4628 60.3673 63.6352 61.0026C63.9532 62.1763 64.276 63.3451 64.7397 64.4775C65.3417 65.9542 66.0482 67.3631 66.9075 68.7064C68.1334 70.6221 69.5754 72.3462 71.2844 73.8471C72.7483 75.1347 74.314 76.2793 76.0619 77.1547C77.0256 77.6372 78.0015 78.11 79.0065 78.498C79.8513 78.8254 80.7422 79.0315 81.6161 79.2764C82.0167 79.388 82.4294 79.4704 82.8396 79.548C83.6237 79.6935 84.4054 79.8826 85.1992 79.9505C86.0003 80.0208 86.8136 79.9651 87.6219 79.9651C89.0761 80.0596 90.5229 79.9602 91.9503 79.6983C92.8072 79.5407 93.6375 79.2522 94.4847 79.0485C95.4484 78.8181 96.3515 78.4374 97.2667 78.0688C99.2743 77.2589 101.093 76.1289 102.794 74.8195C104.268 73.6871 105.579 72.3704 106.741 70.9155C108.096 69.2181 109.23 67.3825 110.108 65.3965C110.477 64.5623 110.803 63.7015 111.075 62.831C111.322 62.0308 111.502 61.2063 111.652 60.3795C111.832 59.3925 112.019 58.4008 112.08 57.4042C112.157 56.1796 112.138 54.9453 112.089 53.7159ZM97.6478 60.0739C99.182 61.6064 99.0704 64.0119 97.6478 65.5614C96.2277 67.106 93.5938 66.9993 92.1542 65.5614C90.6346 64.0434 89.1149 62.5255 87.5952 61.0075C86.0756 62.5255 84.5559 64.0434 83.0363 65.5614C81.5021 67.0939 79.0939 66.9823 77.5427 65.5614C75.9963 64.1428 76.1031 61.5119 77.5427 60.0739C79.0623 58.556 80.582 57.038 82.1017 55.52C80.582 54.0021 79.0623 52.4841 77.5427 50.9662C76.0085 49.4336 76.1201 47.0282 77.5427 45.4787C78.9628 43.9341 81.5967 44.0407 83.0363 45.4787C84.5559 46.9967 86.0756 48.5146 87.5952 50.0326C89.1149 48.5146 90.6346 46.9967 92.1542 45.4787C93.6884 43.9462 96.0966 44.0577 97.6478 45.4787C99.1942 46.8972 99.0873 49.5282 97.6478 50.9662C96.1281 52.4841 94.6085 54.0021 93.0888 55.52C94.6085 57.0404 96.1281 58.556 97.6478 60.0739Z" fill="#E74C3C"/>
</svg>
