<svg width="113" height="80" viewBox="0 0 113 80" fill="none" xmlns="http://www.w3.org/2000/svg">
<path d="M64.9163 74.8099C64.4429 74.8317 64.1371 74.8584 63.8288 74.8584C47.656 74.8608 31.4832 74.8802 15.3105 74.8511C8.03247 74.839 2.27659 69.9483 1.06521 62.8292C0.931694 62.0387 0.907417 61.224 0.907417 60.419C0.897707 50.092 0.900134 39.7674 0.902562 29.4405C0.902562 29.1277 0.938977 28.8173 0.960825 28.4487C25.64 28.4487 50.2511 28.4487 75.1414 28.4487C66.3413 32.9054 60.6097 39.6583 58.5341 49.1124C56.4537 58.5859 58.7575 67.1404 64.9163 74.8099ZM28.1064 59.3691C30.6117 59.3691 33.1194 59.3861 35.6247 59.3643C37.9747 59.3449 39.725 57.6572 39.7104 55.4774C39.6958 53.2927 37.9455 51.6366 35.5835 51.6293C30.5704 51.6148 25.5598 51.6148 20.5468 51.6293C18.1386 51.6366 16.4563 53.2248 16.4369 55.4531C16.4174 57.7348 18.1216 59.3521 20.5881 59.3667C23.0934 59.3812 25.6011 59.3691 28.1064 59.3691Z" fill="#001540"/>
<path d="M101.699 20.5788C68.1544 20.5788 34.6169 20.5788 0.904637 20.5788C1.05029 16.8156 0.385128 13.0258 1.73731 9.35954C2.75448 6.59775 4.45381 4.34031 6.86929 2.63572C9.13668 1.03781 11.6468 0.128528 14.4313 0.046087C15.8854 0.00244153 17.342 0.0121407 18.7962 0.0121407C41.4773 0.00971592 64.1561 0.0266903 86.8373 1.80427e-05C92.5228 -0.0072562 96.9993 2.18471 99.8348 7.1312C100.789 8.79457 101.401 10.7926 101.624 12.7008C101.927 15.2711 101.699 17.9068 101.699 20.5788Z" fill="#001540"/>
<path d="M87.6341 30.9928C101.26 31.034 112.192 42.006 112.134 55.5846C112.075 69.1753 101.047 80.0866 87.4544 79.9994C73.8719 79.9145 62.9962 68.9959 63.0157 55.4658C63.0351 41.8823 74.0297 30.9516 87.6341 30.9928ZM85.0584 57.4638C84.3544 56.7388 83.7548 56.0865 83.1163 55.473C81.4291 53.8509 79.0185 53.8194 77.4867 55.3761C75.9767 56.9109 76.0131 59.2678 77.6105 60.902C79.2467 62.5751 80.8999 64.2288 82.5774 65.8582C84.4248 67.655 86.8888 67.575 88.508 65.5745C91.8339 61.4719 95.116 57.3377 98.3641 53.1744C99.7722 51.3704 99.4177 49.0159 97.6771 47.6993C95.9924 46.4263 93.6837 46.7173 92.2684 48.4195C91.3143 49.5664 90.4137 50.7545 89.4839 51.9208C88.0322 53.7418 86.5756 55.5603 85.0584 57.4638Z" fill="#2ECC71"/>
</svg>
