<svg width="28" height="19" viewBox="0 0 28 19" fill="none" xmlns="http://www.w3.org/2000/svg">
<mask id="path-1-inside-1_1053_39347" fill="white">
<path d="M24.2958 0H3.4125C1.54583 0 0 1.51667 0 3.4125V14.9042C0 16.7708 1.51667 18.3167 3.4125 18.3167H24.325C26.1917 18.3167 27.7375 16.8 27.7375 14.9042V3.38333C27.7083 1.51667 26.1917 0 24.2958 0ZM26.6292 14.875C26.6292 16.1583 25.5792 17.1792 24.325 17.1792H3.4125C2.12917 17.1792 1.10833 16.1292 1.10833 14.875V3.38333C1.10833 2.1 2.15833 1.07917 3.4125 1.07917H24.325C25.6083 1.07917 26.6292 2.12917 26.6292 3.38333V14.875Z"/>
</mask>
<path d="M24.2958 0H3.4125C1.54583 0 0 1.51667 0 3.4125V14.9042C0 16.7708 1.51667 18.3167 3.4125 18.3167H24.325C26.1917 18.3167 27.7375 16.8 27.7375 14.9042V3.38333C27.7083 1.51667 26.1917 0 24.2958 0ZM26.6292 14.875C26.6292 16.1583 25.5792 17.1792 24.325 17.1792H3.4125C2.12917 17.1792 1.10833 16.1292 1.10833 14.875V3.38333C1.10833 2.1 2.15833 1.07917 3.4125 1.07917H24.325C25.6083 1.07917 26.6292 2.12917 26.6292 3.38333V14.875Z" fill="#3F3D56"/>
<path d="M27.7375 3.38333H29.7375V3.36771L29.7373 3.35209L27.7375 3.38333ZM24.2958 -2H3.4125V2H24.2958V-2ZM3.4125 -2C0.452405 -2 -2 0.400988 -2 3.4125H2C2 2.63234 2.63926 2 3.4125 2V-2ZM-2 3.4125V14.9042H2V3.4125H-2ZM-2 14.9042C-2 17.8643 0.40099 20.3167 3.4125 20.3167V16.3167C2.63234 16.3167 2 15.6774 2 14.9042H-2ZM3.4125 20.3167H24.325V16.3167H3.4125V20.3167ZM24.325 20.3167C27.2851 20.3167 29.7375 17.9157 29.7375 14.9042H25.7375C25.7375 15.6843 25.0982 16.3167 24.325 16.3167V20.3167ZM29.7375 14.9042V3.38333H25.7375V14.9042H29.7375ZM29.7373 3.35209C29.6911 0.400264 27.2911 -2 24.2958 -2V2C25.0922 2 25.7255 2.63307 25.7377 3.41458L29.7373 3.35209ZM24.6292 14.875C24.6292 15.0373 24.4911 15.1792 24.325 15.1792V19.1792C26.6672 19.1792 28.6292 17.2793 28.6292 14.875H24.6292ZM24.325 15.1792H3.4125V19.1792H24.325V15.1792ZM3.4125 15.1792C3.25017 15.1792 3.10833 15.0411 3.10833 14.875H-0.891667C-0.891667 17.2172 1.00816 19.1792 3.4125 19.1792V15.1792ZM3.10833 14.875V3.38333H-0.891667V14.875H3.10833ZM3.10833 3.38333C3.10833 3.221 3.2464 3.07917 3.4125 3.07917V-0.920834C1.07027 -0.920834 -0.891667 0.978998 -0.891667 3.38333H3.10833ZM3.4125 3.07917H24.325V-0.920834H3.4125V3.07917ZM24.325 3.07917C24.4873 3.07917 24.6292 3.21723 24.6292 3.38333H28.6292C28.6292 1.0411 26.7293 -0.920834 24.325 -0.920834V3.07917ZM24.6292 3.38333V14.875H28.6292V3.38333H24.6292Z" fill="black" mask="url(#path-1-inside-1_1053_39347)"/>
<mask id="path-3-inside-2_1053_39347" fill="white">
<path d="M23.1585 4.2876H15.4585C15.1668 4.2876 14.9043 4.52093 14.9043 4.84176C14.9043 5.1626 15.1376 5.39593 15.4585 5.39593H23.1585C23.4501 5.39593 23.7126 5.1626 23.7126 4.84176C23.7126 4.52093 23.4793 4.2876 23.1585 4.2876Z"/>
</mask>
<path d="M23.1585 4.2876H15.4585C15.1668 4.2876 14.9043 4.52093 14.9043 4.84176C14.9043 5.1626 15.1376 5.39593 15.4585 5.39593H23.1585C23.4501 5.39593 23.7126 5.1626 23.7126 4.84176C23.7126 4.52093 23.4793 4.2876 23.1585 4.2876Z" fill="#3F3D56"/>
<path d="M23.1585 2.2876H15.4585V6.2876H23.1585V2.2876ZM15.4585 2.2876C14.1314 2.2876 12.9043 3.34842 12.9043 4.84176H16.9043C16.9043 5.69344 16.2022 6.2876 15.4585 6.2876V2.2876ZM12.9043 4.84176C12.9043 6.26717 14.0331 7.39593 15.4585 7.39593V3.39593C15.7962 3.39593 16.1765 3.52612 16.4753 3.82495C16.7741 4.12377 16.9043 4.50398 16.9043 4.84176H12.9043ZM15.4585 7.39593H23.1585V3.39593H15.4585V7.39593ZM23.1585 7.39593C24.4855 7.39593 25.7126 6.3351 25.7126 4.84176H21.7126C21.7126 3.99009 22.4147 3.39593 23.1585 3.39593V7.39593ZM25.7126 4.84176C25.7126 3.41636 24.5839 2.2876 23.1585 2.2876V6.2876C22.8207 6.2876 22.4405 6.15741 22.1416 5.85858C21.8428 5.55976 21.7126 5.17955 21.7126 4.84176H25.7126Z" fill="black" mask="url(#path-3-inside-2_1053_39347)"/>
<mask id="path-5-inside-3_1053_39347" fill="white">
<path d="M23.1585 8.5752H15.4585C15.1668 8.5752 14.9043 8.80853 14.9043 9.12936C14.9043 9.4502 15.1376 9.68353 15.4585 9.68353H23.1585C23.4501 9.68353 23.7126 9.4502 23.7126 9.12936C23.7126 8.80853 23.4793 8.5752 23.1585 8.5752Z"/>
</mask>
<path d="M23.1585 8.5752H15.4585C15.1668 8.5752 14.9043 8.80853 14.9043 9.12936C14.9043 9.4502 15.1376 9.68353 15.4585 9.68353H23.1585C23.4501 9.68353 23.7126 9.4502 23.7126 9.12936C23.7126 8.80853 23.4793 8.5752 23.1585 8.5752Z" fill="#3F3D56"/>
<path d="M23.1585 6.5752H15.4585V10.5752H23.1585V6.5752ZM15.4585 6.5752C14.1314 6.5752 12.9043 7.63603 12.9043 9.12936H16.9043C16.9043 9.98103 16.2022 10.5752 15.4585 10.5752V6.5752ZM12.9043 9.12936C12.9043 10.5548 14.0331 11.6835 15.4585 11.6835V7.68353C15.7962 7.68353 16.1765 7.81372 16.4753 8.11254C16.7741 8.41137 16.9043 8.79158 16.9043 9.12936H12.9043ZM15.4585 11.6835H23.1585V7.68353H15.4585V11.6835ZM23.1585 11.6835C24.4855 11.6835 25.7126 10.6227 25.7126 9.12936H21.7126C21.7126 8.27769 22.4147 7.68353 23.1585 7.68353V11.6835ZM25.7126 9.12936C25.7126 7.70396 24.5839 6.5752 23.1585 6.5752V10.5752C22.8207 10.5752 22.4405 10.445 22.1416 10.1462C21.8428 9.84735 21.7126 9.46715 21.7126 9.12936H25.7126Z" fill="black" mask="url(#path-5-inside-3_1053_39347)"/>
<mask id="path-7-inside-4_1053_39347" fill="white">
<path d="M23.1585 12.8916H15.4585C15.1668 12.8916 14.9043 13.1249 14.9043 13.4458C14.9043 13.7374 15.1376 13.9999 15.4585 13.9999H23.1585C23.4501 13.9999 23.7126 13.7666 23.7126 13.4458C23.7126 13.1249 23.4793 12.8916 23.1585 12.8916Z"/>
</mask>
<path d="M23.1585 12.8916H15.4585C15.1668 12.8916 14.9043 13.1249 14.9043 13.4458C14.9043 13.7374 15.1376 13.9999 15.4585 13.9999H23.1585C23.4501 13.9999 23.7126 13.7666 23.7126 13.4458C23.7126 13.1249 23.4793 12.8916 23.1585 12.8916Z" fill="#3F3D56"/>
<path d="M23.7126 13.4458H25.7126H23.7126ZM23.1585 10.8916H15.4585V14.8916H23.1585V10.8916ZM15.4585 10.8916C14.1314 10.8916 12.9043 11.9524 12.9043 13.4458H16.9043C16.9043 14.2974 16.2022 14.8916 15.4585 14.8916V10.8916ZM12.9043 13.4458C12.9043 14.7728 13.9651 15.9999 15.4585 15.9999V11.9999C16.3101 11.9999 16.9043 12.702 16.9043 13.4458H12.9043ZM15.4585 15.9999H23.1585V11.9999H15.4585V15.9999ZM23.1585 15.9999C24.4855 15.9999 25.7126 14.9391 25.7126 13.4458H21.7126C21.7126 12.5941 22.4148 11.9999 23.1585 11.9999V15.9999ZM25.7126 13.4458C25.7126 12.0204 24.5839 10.8916 23.1585 10.8916V14.8916C22.8207 14.8916 22.4405 14.7614 22.1416 14.4626C21.8428 14.1638 21.7126 13.7836 21.7126 13.4458H25.7126Z" fill="black" mask="url(#path-7-inside-4_1053_39347)"/>
<mask id="path-9-inside-5_1053_39347" fill="white">
<path d="M9.74212 8.5459C10.3255 8.05007 10.7046 7.29173 10.7046 6.47507C10.7046 4.9584 9.47962 3.7334 7.96296 3.7334C6.44629 3.7334 5.22129 4.9584 5.22129 6.47507C5.22129 7.3209 5.60046 8.05007 6.18379 8.5459C4.78379 9.27506 3.82129 10.8209 3.82129 12.6292C3.82129 13.0667 4.02546 13.8542 5.27962 14.3792C6.00879 14.6709 6.94212 14.8459 7.96296 14.8459C10.0338 14.8459 12.1046 14.1751 12.1046 12.6584C12.1046 10.8501 11.1421 9.27506 9.74212 8.5459ZM6.32962 6.47507C6.32962 5.5709 7.05879 4.84173 7.96296 4.84173C8.86712 4.84173 9.59629 5.5709 9.59629 6.47507C9.59629 7.37923 8.86712 8.1084 7.96296 8.1084C7.05879 8.1084 6.32962 7.37923 6.32962 6.47507ZM7.96296 13.7376C6.30046 13.7376 4.92962 13.2417 4.92962 12.6292C4.92962 10.7334 6.30046 9.18757 7.96296 9.18757C9.62546 9.18757 10.9963 10.7334 10.9963 12.6292C11.0255 13.2417 9.62546 13.7376 7.96296 13.7376Z"/>
</mask>
<path d="M9.74212 8.5459C10.3255 8.05007 10.7046 7.29173 10.7046 6.47507C10.7046 4.9584 9.47962 3.7334 7.96296 3.7334C6.44629 3.7334 5.22129 4.9584 5.22129 6.47507C5.22129 7.3209 5.60046 8.05007 6.18379 8.5459C4.78379 9.27506 3.82129 10.8209 3.82129 12.6292C3.82129 13.0667 4.02546 13.8542 5.27962 14.3792C6.00879 14.6709 6.94212 14.8459 7.96296 14.8459C10.0338 14.8459 12.1046 14.1751 12.1046 12.6584C12.1046 10.8501 11.1421 9.27506 9.74212 8.5459ZM6.32962 6.47507C6.32962 5.5709 7.05879 4.84173 7.96296 4.84173C8.86712 4.84173 9.59629 5.5709 9.59629 6.47507C9.59629 7.37923 8.86712 8.1084 7.96296 8.1084C7.05879 8.1084 6.32962 7.37923 6.32962 6.47507ZM7.96296 13.7376C6.30046 13.7376 4.92962 13.2417 4.92962 12.6292C4.92962 10.7334 6.30046 9.18757 7.96296 9.18757C9.62546 9.18757 10.9963 10.7334 10.9963 12.6292C11.0255 13.2417 9.62546 13.7376 7.96296 13.7376Z" fill="#3F3D56"/>
<path d="M9.74212 8.5459L8.44683 7.02202L6.18232 8.94685L8.81825 10.3197L9.74212 8.5459ZM6.18379 8.5459L7.10766 10.3197L9.74359 8.94685L7.47909 7.02202L6.18379 8.5459ZM5.27962 14.3792L4.50735 16.2241L4.52205 16.2303L4.53684 16.2362L5.27962 14.3792ZM10.9963 12.6292H8.99629V12.6768L8.99855 12.7244L10.9963 12.6292ZM11.0374 10.0698C12.0459 9.21253 12.7046 7.90657 12.7046 6.47507H8.70462C8.70462 6.67689 8.60497 6.8876 8.44683 7.02202L11.0374 10.0698ZM12.7046 6.47507C12.7046 3.85383 10.5842 1.7334 7.96296 1.7334V5.7334C8.37505 5.7334 8.70462 6.06297 8.70462 6.47507H12.7046ZM7.96296 1.7334C5.34172 1.7334 3.22129 3.85383 3.22129 6.47507H7.22129C7.22129 6.06297 7.55086 5.7334 7.96296 5.7334V1.7334ZM3.22129 6.47507C3.22129 7.94727 3.8892 9.22038 4.88849 10.0698L7.47909 7.02202C7.31171 6.87975 7.22129 6.69453 7.22129 6.47507H3.22129ZM5.25992 6.77207C3.16633 7.86248 1.82129 10.1123 1.82129 12.6292H5.82129C5.82129 11.5295 6.40125 10.6876 7.10766 10.3197L5.25992 6.77207ZM1.82129 12.6292C1.82129 13.1606 1.94748 13.8658 2.40722 14.5675C2.87026 15.2742 3.57863 15.8353 4.50735 16.2241L6.0519 12.5343C5.88475 12.4644 5.79845 12.4049 5.76266 12.3766C5.7288 12.3499 5.73415 12.3465 5.75307 12.3754C5.77171 12.4038 5.79066 12.444 5.80372 12.4924C5.8161 12.5382 5.82129 12.5841 5.82129 12.6292H1.82129ZM4.53684 16.2362C5.53781 16.6366 6.72901 16.8459 7.96296 16.8459V12.8459C7.15523 12.8459 6.47977 12.7052 6.0224 12.5223L4.53684 16.2362ZM7.96296 16.8459C9.17085 16.8459 10.5194 16.6563 11.6463 16.1378C12.7654 15.6229 14.1046 14.5339 14.1046 12.6584H10.1046C10.1046 12.542 10.1572 12.4267 10.2023 12.3718C10.2232 12.3462 10.1793 12.4097 9.9744 12.504C9.54822 12.7001 8.82589 12.8459 7.96296 12.8459V16.8459ZM14.1046 12.6584C14.1046 10.1559 12.7717 7.86882 10.666 6.77207L8.81825 10.3197C9.5125 10.6813 10.1046 11.5443 10.1046 12.6584H14.1046ZM8.32962 6.47507C8.32962 6.67547 8.16336 6.84173 7.96296 6.84173V2.84173C5.95422 2.84173 4.32962 4.46633 4.32962 6.47507H8.32962ZM7.96296 6.84173C7.76255 6.84173 7.59629 6.67547 7.59629 6.47507H11.5963C11.5963 4.46633 9.97169 2.84173 7.96296 2.84173V6.84173ZM7.59629 6.47507C7.59629 6.27466 7.76255 6.1084 7.96296 6.1084V10.1084C9.97169 10.1084 11.5963 8.4838 11.5963 6.47507H7.59629ZM7.96296 6.1084C8.16336 6.1084 8.32962 6.27466 8.32962 6.47507H4.32962C4.32962 8.4838 5.95422 10.1084 7.96296 10.1084V6.1084ZM7.96296 11.7376C7.30446 11.7376 6.78791 11.6361 6.50734 11.5339C6.3588 11.4798 6.37835 11.4624 6.47248 11.5432C6.55918 11.6177 6.92962 11.9776 6.92962 12.6292H2.92962C2.92962 13.5871 3.47142 14.2387 3.8671 14.5784C4.27022 14.9244 4.73639 15.1459 5.13837 15.2923C5.95884 15.5912 6.95895 15.7376 7.96296 15.7376V11.7376ZM6.92962 12.6292C6.92962 12.1616 7.09902 11.7738 7.32202 11.5213C7.54311 11.2709 7.77701 11.1876 7.96296 11.1876V7.18757C4.96935 7.18757 2.92962 9.86987 2.92962 12.6292H6.92962ZM7.96296 11.1876C8.1489 11.1876 8.3828 11.2709 8.6039 11.5213C8.8269 11.7738 8.99629 12.1616 8.99629 12.6292H12.9963C12.9963 9.86987 10.9566 7.18757 7.96296 7.18757V11.1876ZM8.99855 12.7244C8.96541 12.0283 9.36279 11.6324 9.45908 11.549C9.56077 11.4609 9.58633 11.4771 9.43349 11.5324C9.14786 11.6358 8.62253 11.7376 7.96296 11.7376V15.7376C8.96588 15.7376 9.9718 15.5914 10.7945 15.2938C11.1958 15.1485 11.6698 14.9259 12.0778 14.5726C12.4803 14.224 13.0418 13.5364 12.994 12.5341L8.99855 12.7244Z" fill="black" mask="url(#path-9-inside-5_1053_39347)"/>
</svg>
