<svg width="30" height="34" viewBox="0 0 30 34" fill="none" xmlns="http://www.w3.org/2000/svg">
<path d="M8.45895 6.03662L8.73646 6.61498L9.37688 6.70896L8.91436 7.16441L9.02109 7.80783L8.45895 7.5042L7.88969 7.80783L7.99642 7.16441L7.54102 6.70896L8.17432 6.61498L8.45895 6.03662Z" fill="#FCB43C"/>
<path d="M10.1171 4.31592L10.4018 4.9015L11.0351 4.99548L10.5726 5.45094L10.6864 6.08713L10.1171 5.79072L9.54789 6.08713L9.65463 5.45094L9.19922 4.99548L9.83252 4.9015L10.1171 4.31592Z" fill="#FCB43C"/>
<path d="M12.4082 3.42676L12.6928 4.00511L13.3261 4.09909L12.8636 4.55455L12.9774 5.19797L12.4082 4.89433L11.8389 5.19797L11.9456 4.55455L11.4902 4.09909L12.1235 4.00511L12.4082 3.42676Z" fill="#FCB43C"/>
<path d="M14.7793 3.07959L15.0639 3.65794L15.6972 3.75193L15.2347 4.20738L15.3485 4.8508L14.7793 4.54716L14.21 4.8508L14.3167 4.20738L13.8613 3.75193L14.4946 3.65794L14.7793 3.07959Z" fill="#FCB43C"/>
<path d="M17.1406 3.42676L17.4252 4.01234L18.0585 4.10632L17.6031 4.56178L17.7098 5.2052L17.1406 4.90156L16.5713 5.2052L16.6852 4.56178L16.2227 4.10632L16.856 4.01234L17.1406 3.42676Z" fill="#FCB43C"/>
<path d="M19.2968 4.31592L19.5815 4.9015L20.2148 4.99548L19.7594 5.45094L19.8661 6.08713L19.2968 5.79072L18.7347 6.08713L18.8414 5.45094L18.3789 4.99548L19.0122 4.9015L19.2968 4.31592Z" fill="#FCB43C"/>
<path d="M21.0839 5.92773L21.3615 6.51332L22.0019 6.6073L21.5394 7.05553L21.6461 7.69894L21.0839 7.39531L20.5147 7.69894L20.6214 7.05553L20.166 6.6073L20.7993 6.51332L21.0839 5.92773Z" fill="#FCB43C"/>
<path d="M8.45895 19.4108L8.73646 18.8252L9.37688 18.7312L8.91436 18.2757L9.02109 17.6323L8.45895 17.936L7.88969 17.6323L7.99642 18.2757L7.54102 18.7312L8.17432 18.8252L8.45895 19.4108Z" fill="#FCB43C"/>
<path d="M10.1171 21.1242L10.4018 20.5387L11.0351 20.4447L10.5726 19.9964L10.6864 19.353L10.1171 19.6567L9.54789 19.353L9.65463 19.9964L9.19922 20.4447L9.83252 20.5387L10.1171 21.1242Z" fill="#FCB43C"/>
<path d="M12.4082 22.0206L12.6928 21.435L13.3261 21.3411L12.8636 20.8856L12.9774 20.2422L12.4082 20.5458L11.8389 20.2422L11.9456 20.8856L11.4902 21.3411L12.1235 21.435L12.4082 22.0206Z" fill="#FCB43C"/>
<path d="M14.7773 22.3678L15.0619 21.7822L15.6952 21.6882L15.2327 21.2328L15.3466 20.5894L14.7773 20.893L14.208 20.5894L14.3148 21.2328L13.8594 21.6882L14.4927 21.7822L14.7773 22.3678Z" fill="#FCB43C"/>
<path d="M17.1406 22.0134L17.4252 21.4278L18.0585 21.3338L17.6031 20.8784L17.7098 20.2422L17.1406 20.5386L16.5713 20.2422L16.6852 20.8784L16.2227 21.3338L16.856 21.4278L17.1406 22.0134Z" fill="#FCB43C"/>
<path d="M19.2968 21.1242L19.5815 20.5387L20.2148 20.4447L19.7594 19.9964L19.8661 19.353L19.2968 19.6567L18.7347 19.353L18.8414 19.9964L18.3789 20.4447L19.0122 20.5387L19.2968 21.1242Z" fill="#FCB43C"/>
<path d="M21.082 19.5119L21.3595 18.9336L21.9999 18.8396L21.5374 18.3841L21.6441 17.7407L21.082 18.0444L20.5127 17.7407L20.6195 18.3841L20.1641 18.8396L20.7974 18.9336L21.082 19.5119Z" fill="#FCB43C"/>
<path d="M8.10409 14.3361H6.67383V11.5527H8.06852C8.61643 11.5527 8.9651 11.7913 8.9651 12.2757C8.9651 12.6082 8.77297 12.8396 8.50258 12.9119C8.83702 12.9914 9.02203 13.2661 9.02203 13.577C9.02914 14.0613 8.70182 14.3361 8.10409 14.3361ZM7.86216 12.2468H7.52772V12.6371H7.86216C8.0187 12.6371 8.08986 12.5793 8.08986 12.442C8.08986 12.3046 8.0187 12.2468 7.86216 12.2468ZM7.91908 13.2444H7.52772V13.6348H7.91908C8.07563 13.6348 8.14679 13.577 8.14679 13.4396C8.14679 13.3095 8.07563 13.2444 7.91908 13.2444Z" fill="#FCB43C"/>
<path d="M10.594 11.5526C11.2843 11.5526 11.6329 11.9503 11.6329 12.4635C11.6329 12.8322 11.4337 13.1359 11.0423 13.266L11.64 14.3287H10.6937L10.1813 13.3311H10.1742V14.3287H9.32031V11.5454H10.594V11.5526ZM10.5158 12.2828H10.1742V12.7527H10.5158C10.6794 12.7527 10.7648 12.6804 10.7648 12.5142C10.7648 12.3768 10.6794 12.2828 10.5158 12.2828Z" fill="#FCB43C"/>
<path d="M13.6685 13.9168H12.7576L12.6224 14.3361H11.7188L12.7221 11.5527H13.7112L14.7074 14.3361H13.8037L13.6685 13.9168ZM13.2059 12.4853L12.9569 13.2589H13.455L13.2059 12.4853Z" fill="#FCB43C"/>
<path d="M17.5254 11.5527V14.3361H16.6644L15.7536 12.9408V14.3361H14.8926V11.5527H15.7536L16.6644 12.9769V11.5527H17.5254Z" fill="#FCB43C"/>
<path d="M20.4777 12.9335C20.4777 13.7287 19.9298 14.3287 19.0545 14.3287H17.916V11.5454H19.0545C19.9298 11.5526 20.4777 12.1382 20.4777 12.9335ZM18.9763 13.5552C19.3534 13.5552 19.6096 13.3383 19.6096 12.9335C19.6096 12.5286 19.3605 12.3117 18.9763 12.3117H18.7699V13.5552H18.9763Z" fill="#FCB43C"/>
<path d="M21.8579 14.3649C21.2318 14.3649 20.7408 14.0685 20.7052 13.4468H21.616C21.6302 13.6492 21.737 13.6853 21.8224 13.6853C21.9078 13.6853 21.986 13.6492 21.986 13.548C21.9789 13.172 20.691 13.3094 20.7052 12.3551C20.7052 11.7985 21.1677 11.5093 21.7512 11.5093C22.413 11.5093 22.8399 11.8346 22.8613 12.4057H21.9362C21.9291 12.2395 21.8366 12.1888 21.7441 12.1888C21.6729 12.1888 21.6231 12.2395 21.6231 12.3334C21.6231 12.6804 22.8968 12.6226 22.8968 13.4829C22.904 13.989 22.5197 14.3649 21.8579 14.3649Z" fill="#FCB43C"/>
<path d="M14.7874 25.4404C7.88511 25.4404 2.26367 19.7363 2.26367 12.7166C2.26367 5.69679 7.88511 0 14.7874 0C21.6897 0 27.3111 5.70402 27.3111 12.7238C27.3111 19.7436 21.6968 25.4404 14.7874 25.4404ZM14.7874 2.13268C9.04498 2.13268 4.36993 6.88242 4.36993 12.7238C4.36993 18.5652 9.04498 23.3149 14.7945 23.3149C20.544 23.3149 25.212 18.5579 25.212 12.7238C25.212 6.88242 20.5369 2.13268 14.7874 2.13268Z" fill="#FCB43C"/>
<path d="M24.2642 33.9636C23.7804 33.9636 23.3321 33.6817 23.1257 33.2262L18.9417 24.1171C18.6499 23.481 18.9203 22.7146 19.5465 22.4182C20.1727 22.1218 20.927 22.3965 21.2187 23.0327L23.4886 27.9704L23.6381 26.539C23.6808 26.1269 23.9156 25.7655 24.2714 25.563C24.6272 25.3606 25.0541 25.3462 25.4241 25.5197L26.1855 25.8884L23.6808 20.2422C23.3961 19.5988 23.6736 18.8397 24.3069 18.5505C24.9402 18.2613 25.6874 18.5433 25.972 19.1867L29.8786 27.9921C30.092 28.4837 29.9924 29.0548 29.6153 29.4308C29.2382 29.8067 28.676 29.9007 28.1993 29.6766L25.9507 28.5994L25.5095 32.8142C25.4526 33.3853 25.0256 33.848 24.4635 33.9419C24.4066 33.9564 24.3354 33.9636 24.2642 33.9636Z" fill="#FCB43C"/>
<path d="M5.73521 34C5.66406 34 5.60002 33.9928 5.52886 33.9856C4.97383 33.8916 4.54688 33.4289 4.48284 32.8578L4.04167 28.643L1.79309 29.7202C1.31633 29.9516 0.747074 29.8503 0.377055 29.4744C-7.94314e-05 29.0985 -0.106816 28.5274 0.113773 28.0358L4.02032 19.2303C4.30495 18.5869 5.0521 18.2977 5.6854 18.5941C6.31871 18.8833 6.60334 19.6424 6.31159 20.2858L3.80685 25.932L4.56823 25.5633C4.93825 25.3898 5.3652 25.4042 5.72098 25.6067C6.07677 25.8091 6.31159 26.1778 6.35429 26.5826L6.50372 28.0141L8.77364 23.0764C9.06539 22.4402 9.81254 22.1582 10.4458 22.4619C11.072 22.7583 11.3495 23.5174 11.0507 24.1608L6.86662 33.2699C6.66738 33.7181 6.21909 34 5.73521 34Z" fill="#FCB43C"/>
</svg>
