<svg width="113" height="110" viewBox="0 0 113 110" fill="none" xmlns="http://www.w3.org/2000/svg">
<path d="M87.8255 27.4895C87.8255 29.0721 87.8255 30.5814 87.8255 32.04C87.78 32.0983 87.7725 32.1109 87.7598 32.121C87.7472 32.1312 87.7346 32.1438 87.7194 32.1464C87.5653 32.159 87.4111 32.1768 87.257 32.1768C60.7504 32.1742 34.2438 32.1717 7.73725 32.1666C7.69429 32.1666 7.65133 32.1362 7.56037 32.1058C7.56037 30.5991 7.56037 29.0797 7.56037 27.5173C7.35064 27.5072 7.18387 27.492 7.01962 27.492C5.8219 27.4895 4.62418 27.4996 3.42645 27.4869C2.4233 27.4743 1.57428 27.1147 0.998158 26.2588C0.540799 25.5776 0.379082 24.8559 0.593863 24.0151C0.833913 23.0706 1.42772 22.4755 2.24136 22.0728C4.53321 20.9409 6.83516 19.8368 9.13712 18.7251C12.0506 17.3172 14.9665 15.9168 17.88 14.5114C21.0436 12.9844 24.2072 11.4524 27.3708 9.92538C31.0651 8.14264 34.7593 6.35989 38.4561 4.57715C41.4125 3.15146 44.3664 1.72578 47.3228 0.305154C48.1566 -0.0974826 49.0056 -0.105078 49.837 0.302623C51.5603 1.15095 53.276 2.01699 54.9917 2.87798C57.9102 4.34418 60.8262 5.81292 63.7422 7.28166C66.8073 8.82383 69.8698 10.3685 72.9348 11.9082C76.2223 13.5592 79.5147 15.2027 82.8022 16.8512C86.274 18.5935 89.7459 20.3357 93.2128 22.088C93.8318 22.3995 94.3397 22.8553 94.6328 23.4985C95.3429 25.0584 94.5772 26.7779 93.003 27.3021C92.6265 27.4261 92.2121 27.4743 91.8129 27.4819C90.6783 27.5047 89.5413 27.4895 88.4067 27.4895C88.2298 27.4895 88.063 27.4895 87.8255 27.4895ZM47.6538 18.3326C49.1471 18.3326 50.6405 18.3326 52.1313 18.3326C52.5205 18.3326 52.8995 18.2896 53.2735 18.1604C54.7315 17.659 55.6285 15.8484 54.8477 14.3265C54.2968 13.2528 53.4074 12.7312 52.2248 12.7261C49.2078 12.7135 46.1907 12.7312 43.1737 12.716C41.8395 12.7084 40.6367 13.615 40.3285 14.8634C40.1667 15.5167 40.235 16.1017 40.5003 16.6664C41.0259 17.7831 41.9381 18.3301 43.1686 18.3326C44.6696 18.3352 46.1604 18.3326 47.6538 18.3326Z" fill="#001540"/>
<path d="M9.99639 37.8213C16.7986 37.8213 23.5125 37.8213 30.2187 37.8213C30.3223 38.1657 30.3577 74.7752 30.2516 75.4716C30.057 75.4868 29.8473 75.5197 29.6375 75.5197C25.5011 75.5222 21.3621 75.5222 17.2257 75.5222C15.0804 75.5222 12.9326 75.5222 10.7873 75.5222C10.6635 75.5222 10.5371 75.5273 10.4133 75.5197C10.0798 75.4995 10.0141 75.4311 9.99639 75.0943C9.99133 75.0006 9.99639 74.9069 9.99639 74.8132C9.99639 62.7012 9.99639 50.5892 9.99639 38.4772C9.99639 38.2796 9.99639 38.0796 9.99639 37.8213Z" fill="#001540"/>
<path d="M57.6926 75.5222C57.5081 75.5222 57.3388 75.5222 57.1695 75.5222C50.855 75.5222 44.5404 75.5222 38.2233 75.5222C37.5865 75.5222 37.584 75.5196 37.584 74.8789C37.584 62.7214 37.584 50.5612 37.584 38.4036C37.584 38.2213 37.584 38.0364 37.584 37.8237C44.3357 37.8237 51.0293 37.8237 57.7179 37.8237C57.8265 38.2947 57.8164 75.0841 57.6926 75.5222Z" fill="#001540"/>
<path d="M67.2503 92.9774C66.8738 91.0781 66.99 89.1587 67.0633 87.2493C67.0987 86.3554 67.2932 85.4615 67.4625 84.5777C67.604 83.8383 67.7758 83.0989 67.9982 82.3797C68.1271 81.9669 68.2559 81.5516 68.3924 81.1414C48.3697 81.1388 28.347 81.1388 8.3243 81.1388C8.16763 81.1388 8.0135 81.1312 7.85683 81.1414C6.93201 81.2097 6.22449 81.6478 5.70143 82.4075C5.36031 82.9013 5.25924 83.4483 5.26176 84.0383C5.26682 86.9682 5.26176 89.8981 5.26682 92.8305C5.26682 93.142 5.25418 93.4712 5.3502 93.7573C5.64837 94.6512 6.21944 95.3147 7.14679 95.611C7.25797 95.6464 7.35652 95.6768 7.34641 95.8211C27.5005 95.8211 47.6571 95.8211 67.8112 95.8211C67.7329 95.5401 67.6571 95.2615 67.5813 94.9804C67.4069 94.3271 67.3817 93.6408 67.2503 92.9774Z" fill="#001540"/>
<path d="M76.4167 69.7714C77.953 68.528 79.6258 67.5126 81.392 66.6567C82.3952 66.1679 83.4565 65.7779 84.5177 65.426C84.7982 65.3323 85.0863 65.2563 85.3743 65.1879C85.3743 63.314 85.3743 61.4426 85.3743 59.5687C85.3743 52.5391 85.3743 45.5094 85.3743 38.4772C85.3743 38.2644 85.3617 38.0543 85.3567 37.8568C84.7805 37.7403 65.4628 37.7681 65.0661 37.8922C65.0661 38.072 65.0661 38.2695 65.0661 38.4696C65.0661 50.5816 65.0661 62.6936 65.0661 74.8056C65.0661 74.9145 65.0611 75.0234 65.0686 75.1323C65.0863 75.4235 65.1444 75.4893 65.4224 75.5172C65.5159 75.5273 65.6094 75.5223 65.7029 75.5223C67.5171 75.5223 69.3314 75.5223 71.1457 75.5223C71.5525 74.912 71.9846 74.3169 72.447 73.742C73.6245 72.2708 74.9511 70.959 76.4167 69.7714Z" fill="#001540"/>
<path d="M91.9266 68.756C103.371 68.7914 112.551 78.0242 112.5 89.4525C112.452 100.891 103.189 110.073 91.775 110C80.3688 109.929 71.2368 100.739 71.252 89.3512C71.2697 77.9204 80.5027 68.7205 91.9266 68.756ZM89.7636 91.0352C89.1723 90.4249 88.6695 89.8754 88.1338 89.3588C86.7162 87.9939 84.6922 87.966 83.4061 89.2778C82.1376 90.5692 82.1679 92.552 83.5097 93.9271C84.8843 95.335 86.2715 96.7278 87.6815 98.0978C89.233 99.6096 91.3025 99.5437 92.6619 97.8598C95.4541 94.4082 98.2109 90.9288 100.94 87.4241C102.122 85.9047 101.824 83.9245 100.364 82.8153C98.9487 81.7442 97.0106 81.9898 95.8205 83.4205C95.0195 84.3854 94.2639 85.3856 93.4831 86.3681C92.2627 87.9027 91.0397 89.4322 89.7636 91.0352Z" fill="#2ECC71"/>
</svg>
