<svg width="113" height="110" viewBox="0 0 113 110" fill="none" xmlns="http://www.w3.org/2000/svg">
<path d="M87.8256 27.4899C87.8256 29.0726 87.8256 30.5819 87.8256 32.0405C87.7801 32.0988 87.7726 32.1114 87.7599 32.1216C87.7473 32.1317 87.7347 32.1443 87.7195 32.1469C87.5654 32.1595 87.4112 32.1773 87.2571 32.1773C60.7505 32.1747 34.2439 32.1722 7.73726 32.1671C7.6943 32.1671 7.65134 32.1367 7.56038 32.1064C7.56038 30.5996 7.56038 29.0802 7.56038 27.5177C7.35065 27.5076 7.18388 27.4924 7.01963 27.4924C5.82191 27.4899 4.62418 27.5 3.42646 27.4874C2.4233 27.4747 1.57428 27.1151 0.998158 26.2592C0.540799 25.578 0.379081 24.8563 0.593863 24.0155C0.833914 23.071 1.42772 22.4758 2.24137 22.0732C4.53322 20.9412 6.83517 19.8371 9.13713 18.7254C12.0506 17.3175 14.9666 15.9171 17.88 14.5116C21.0436 12.9846 24.2072 11.4525 27.3708 9.92554C31.0651 8.14277 34.7593 6.36 38.4561 4.57723C41.4125 3.15151 44.3664 1.7258 47.3228 0.305159C48.1567 -0.0974841 49.0057 -0.10508 49.837 0.302628C51.5603 1.15096 53.2761 2.01703 54.9918 2.87802C57.9103 4.34425 60.8263 5.81301 63.7423 7.28177C66.8073 8.82397 69.8699 10.3687 72.9349 11.9084C76.2224 13.5595 79.5148 15.2029 82.8023 16.8515C86.2741 18.5938 89.746 20.336 93.2129 22.0884C93.8319 22.3999 94.3398 22.8557 94.6329 23.4989C95.343 25.0588 94.5774 26.7783 93.0031 27.3025C92.6266 27.4266 92.2122 27.4747 91.813 27.4823C90.6784 27.5051 89.5414 27.4899 88.4068 27.4899C88.2299 27.4899 88.0631 27.4899 87.8256 27.4899ZM47.6538 18.3329C49.1472 18.3329 50.6406 18.3329 52.1314 18.3329C52.5205 18.3329 52.8996 18.2899 53.2735 18.1607C54.7315 17.6593 55.6286 15.8487 54.8478 14.3268C54.2969 13.253 53.4075 12.7314 52.2249 12.7263C49.2079 12.7137 46.1908 12.7314 43.1737 12.7162C41.8396 12.7086 40.6368 13.6152 40.3285 14.8636C40.1668 15.517 40.235 16.1019 40.5003 16.6667C41.0259 17.7834 41.9381 18.3304 43.1687 18.3329C44.6696 18.3355 46.1605 18.3329 47.6538 18.3329Z" fill="#001540"/>
<path d="M9.99639 37.822C16.7987 37.822 23.5125 37.822 30.2187 37.822C30.3223 38.1664 30.3577 74.7766 30.2516 75.4729C30.057 75.4881 29.8473 75.5211 29.6376 75.5211C25.5011 75.5236 21.3621 75.5236 17.2257 75.5236C15.0804 75.5236 12.9326 75.5236 10.7873 75.5236C10.6635 75.5236 10.5371 75.5287 10.4133 75.5211C10.0798 75.5008 10.0141 75.4324 9.99639 75.0956C9.99133 75.0019 9.99639 74.9082 9.99639 74.8145C9.99639 62.7023 9.99639 50.5901 9.99639 38.4779C9.99639 38.2804 9.99639 38.0803 9.99639 37.822Z" fill="#001540"/>
<path d="M57.6926 75.5235C57.5082 75.5235 57.3389 75.5235 57.1696 75.5235C50.855 75.5235 44.5404 75.5235 38.2233 75.5235C37.5865 75.5235 37.584 75.521 37.584 74.8803C37.584 62.7225 37.584 50.5622 37.584 38.4044C37.584 38.222 37.584 38.0372 37.584 37.8245C44.3357 37.8245 51.0293 37.8245 57.7179 37.8245C57.8265 38.2955 57.8164 75.0854 57.6926 75.5235Z" fill="#001540"/>
<path d="M67.2503 92.9789C66.8738 91.0796 66.9901 89.1601 67.0634 87.2507C67.0987 86.3568 67.2933 85.4629 67.4626 84.5791C67.6041 83.8397 67.7759 83.1002 67.9983 82.381C68.1272 81.9683 68.256 81.553 68.3925 81.1427C48.3697 81.1402 28.347 81.1402 8.3243 81.1402C8.16764 81.1402 8.0135 81.1326 7.85683 81.1427C6.93201 81.2111 6.22449 81.6492 5.70144 82.4089C5.36031 82.9027 5.25924 83.4497 5.26176 84.0397C5.26682 86.9696 5.26176 89.8996 5.26682 92.832C5.26682 93.1435 5.25418 93.4727 5.3502 93.7589C5.64837 94.6528 6.21944 95.3163 7.14679 95.6125C7.25797 95.648 7.35652 95.6784 7.34641 95.8227C27.5005 95.8227 47.6572 95.8227 67.8113 95.8227C67.733 95.5416 67.6572 95.2631 67.5814 94.982C67.407 94.3287 67.3817 93.6424 67.2503 92.9789Z" fill="#001540"/>
<path d="M76.4167 69.7725C77.953 68.5291 79.6258 67.5137 81.3921 66.6577C82.3952 66.169 83.4565 65.779 84.5178 65.427C84.7982 65.3333 85.0863 65.2573 85.3744 65.189C85.3744 63.315 85.3744 61.4436 85.3744 59.5697C85.3744 52.5399 85.3744 45.5101 85.3744 38.4778C85.3744 38.2651 85.3617 38.0549 85.3567 37.8574C84.7806 37.7409 65.4628 37.7687 65.0661 37.8928C65.0661 38.0726 65.0661 38.2701 65.0661 38.4702C65.0661 50.5824 65.0661 62.6946 65.0661 74.8068C65.0661 74.9157 65.0611 75.0246 65.0686 75.1335C65.0863 75.4247 65.1444 75.4906 65.4224 75.5184C65.5159 75.5285 65.6094 75.5235 65.7029 75.5235C67.5171 75.5235 69.3314 75.5235 71.1457 75.5235C71.5525 74.9132 71.9846 74.3181 72.447 73.7432C73.6245 72.2719 74.9511 70.9602 76.4167 69.7725Z" fill="#001540"/>
<path d="M112.464 87.8571C112.436 87.1135 112.364 86.3638 112.213 85.6365C112.024 84.7173 111.763 83.8082 111.477 82.9135C111.222 82.1168 110.938 81.3221 110.583 80.5684C109.9 79.1159 109.051 77.7595 108.047 76.4991C106.872 75.0201 105.524 73.7311 103.994 72.6239C103.027 71.9253 102.027 71.2797 100.935 70.7956C99.9989 70.3809 99.0461 69.9969 98.0933 69.6189C97.8016 69.5025 97.4854 69.4433 97.1773 69.3738C96.7529 69.2798 96.3184 69.2226 95.8961 69.1164C95.1595 68.9326 94.4169 68.7855 93.66 68.7691C92.4379 68.7426 91.2159 68.763 89.9917 68.765C89.8224 68.765 89.649 68.765 89.4837 68.7957C88.89 68.906 88.2984 69.0224 87.7088 69.1491C87.0396 69.2941 86.3582 69.4024 85.7114 69.6169C84.8362 69.907 83.961 70.2297 83.1326 70.6322C81.6759 71.339 80.2968 72.1765 79.0298 73.202C77.822 74.1805 76.7264 75.2632 75.7512 76.4766C74.6067 77.9045 73.6662 79.4571 72.946 81.1362C72.6032 81.935 72.3421 82.7705 72.085 83.6019C71.9014 84.1964 71.7586 84.8051 71.6423 85.4159C71.5036 86.1452 71.3424 86.8827 71.3138 87.6201C71.2547 89.1951 71.1588 90.7783 71.4689 92.3451C71.577 92.8926 71.5974 93.4605 71.7423 93.9957C72.0095 94.9844 72.2809 95.969 72.6706 96.923C73.1765 98.1671 73.7702 99.354 74.4924 100.486C75.5227 102.099 76.7346 103.552 78.1709 104.816C79.4011 105.901 80.7171 106.865 82.186 107.603C82.9959 108.009 83.8161 108.408 84.6607 108.735C85.3707 109.01 86.1195 109.184 86.8539 109.39C87.1906 109.484 87.5374 109.554 87.8822 109.619C88.5412 109.742 89.1981 109.901 89.8653 109.958C90.5385 110.017 91.222 109.97 91.9014 109.97C93.1234 110.05 94.3394 109.966 95.539 109.746C96.2592 109.613 96.957 109.37 97.669 109.198C98.4789 109.004 99.2379 108.683 100.007 108.373C101.694 107.691 103.222 106.739 104.653 105.636C105.891 104.682 106.993 103.572 107.97 102.347C109.108 100.917 110.061 99.3703 110.8 97.6972C111.11 96.9945 111.383 96.2693 111.612 95.536C111.82 94.8618 111.971 94.1673 112.097 93.4707C112.248 92.6393 112.405 91.8038 112.456 90.9642C112.522 89.9326 112.505 88.8928 112.464 87.8571ZM100.327 93.2133C101.617 94.5044 101.523 96.5308 100.327 97.8362C99.1338 99.1374 96.9202 99.0475 95.7104 97.8362C94.4332 96.5574 93.1561 95.2786 91.8789 93.9998C90.6018 95.2786 89.3246 96.5574 88.0474 97.8362C86.758 99.1272 84.7342 99.0332 83.4305 97.8362C82.1309 96.6411 82.2207 94.4247 83.4305 93.2133C84.7077 91.9345 85.9848 90.6557 87.262 89.3769C85.9848 88.0981 84.7077 86.8193 83.4305 85.5405C82.1411 84.2495 82.235 82.223 83.4305 80.9177C84.624 79.6164 86.8376 79.7063 88.0474 80.9177C89.3246 82.1965 90.6018 83.4753 91.8789 84.7541C93.1561 83.4753 94.4332 82.1965 95.7104 80.9177C96.9998 79.6266 99.0237 79.7206 100.327 80.9177C101.627 82.1127 101.537 84.3292 100.327 85.5405C99.0502 86.8193 97.773 88.0981 96.4959 89.3769C97.773 90.6578 99.0502 91.9345 100.327 93.2133Z" fill="#E74C3C"/>
</svg>
