<svg width="19" height="16" viewBox="0 0 19 16" fill="none" xmlns="http://www.w3.org/2000/svg">
<path d="M6.71107 15.457C6.12329 15.457 5.56659 15.2328 5.20987 14.8464L0.381963 9.63357C0.232698 9.47258 0.123725 9.28913 0.0612743 9.09371C-0.00117685 8.89829 -0.0158814 8.69473 0.018001 8.49466C0.0518834 8.29459 0.133688 8.10194 0.258739 7.92772C0.38379 7.7535 0.549635 7.60113 0.746792 7.47933C0.943879 7.35701 1.16857 7.26768 1.40798 7.21645C1.6474 7.16523 1.89683 7.15312 2.14198 7.18081C2.38713 7.20851 2.62319 7.27547 2.83661 7.37785C3.05004 7.48023 3.23664 7.61603 3.38572 7.77745L6.56244 11.2048L14.5495 0.723999C14.8144 0.377951 15.2364 0.131883 15.723 0.0397696C16.2096 -0.0523437 16.7211 0.0170189 17.1452 0.232643C18.0275 0.680936 18.2991 1.63052 17.7478 2.35265L8.31092 14.7304C8.14982 14.9427 7.92778 15.1196 7.66405 15.2458C7.40033 15.372 7.10289 15.4438 6.79755 15.4548C6.76783 15.457 6.7408 15.457 6.71107 15.457Z" fill="#424C5F"/>
</svg>
