<svg width="20" height="22" viewBox="0 0 20 22" fill="none" xmlns="http://www.w3.org/2000/svg">
<path d="M17.875 0.472656H2.125C1.50625 0.472656 1 0.922348 1 1.47815V20.9513C1 21.5071 1.36563 21.6486 1.82125 21.2595L9.54438 14.6809C9.72438 14.5293 10.0225 14.5293 10.2025 14.6759L18.1731 21.2747C18.6288 21.6537 19 21.5071 19 20.9513V1.47815C19 0.922348 18.4994 0.472656 17.875 0.472656ZM17.3125 18.5058L11.3444 13.5643C10.9281 13.2207 10.405 13.0489 9.87626 13.0489C9.33626 13.0489 8.80188 13.2257 8.38563 13.5794L2.6875 18.4351V1.98847H17.3125V18.5058Z" fill="black" stroke="black" stroke-width="0.588081"/>
</svg>
