<svg width="19" height="24" viewBox="0 0 19 24" fill="none" xmlns="http://www.w3.org/2000/svg">
<path d="M5.31562 0C7.95469 0 10.5984 0 13.2375 0C13.7344 0.215625 13.9594 0.595313 13.9125 1.13438C13.9031 1.26562 13.9219 1.40156 13.9078 1.53281C13.8891 1.74844 13.9781 1.81875 14.1937 1.81875C14.8406 1.80937 15.4922 1.81406 16.1391 1.81406C16.5047 1.81406 16.8562 1.88906 17.1797 2.05312C18.0891 2.5125 18.5437 3.26719 18.5484 4.275C18.5531 8.71875 18.5531 13.1625 18.5531 17.6016C18.5531 18.9375 18.5531 20.2734 18.5531 21.6094C18.5531 22.2188 18.3516 22.7531 17.9531 23.2172C17.5969 23.6297 17.1328 23.85 16.6219 23.9953C11.7328 23.9953 6.83906 23.9953 1.95 23.9953C1.8375 23.9578 1.72969 23.925 1.61719 23.8875C0.670312 23.5875 0 22.6828 0 21.6937C0 15.8437 0 9.99844 0 4.14844C0 4.01719 0.0046875 3.88594 0.0375 3.75469C0.309375 2.56875 1.2375 1.82344 2.46094 1.81875C3.08437 1.81875 3.7125 1.81406 4.33594 1.82344C4.54219 1.82813 4.62187 1.74844 4.60781 1.54688C4.59844 1.39688 4.60781 1.25156 4.60781 1.10156C4.60312 0.576563 4.81406 0.192187 5.31562 0ZM16.6078 12.9422C16.6078 10.0969 16.6078 7.25625 16.6078 4.41094C16.6078 3.8625 16.5 3.75937 15.9469 3.75937C15.3844 3.75937 14.8219 3.75937 14.2594 3.75937C13.9172 3.75937 13.9125 3.76406 13.9125 4.09219C13.9125 4.22344 13.9125 4.35938 13.9125 4.49063C13.9125 5.22656 13.5422 5.59219 12.7969 5.59219C10.7953 5.59219 8.79844 5.59219 6.79687 5.59219C6.39844 5.59219 6 5.59688 5.60156 5.59219C5.08594 5.58281 4.71562 5.25938 4.63125 4.75313C4.58437 4.49531 4.6125 4.2375 4.60312 3.97969C4.59844 3.83906 4.55156 3.75469 4.40156 3.75469C3.7125 3.75937 3.02812 3.75469 2.33906 3.75937C2.1375 3.75937 2.01094 3.88125 1.95 4.07344C1.9125 4.19531 1.9125 4.31719 1.9125 4.44375C1.9125 10.0828 1.9125 15.7219 1.9125 21.3656C1.9125 21.9562 2.05781 22.1016 2.64375 22.1016C7.06406 22.1016 11.4844 22.1016 15.9094 22.1016C16.4766 22.1016 16.6078 21.9703 16.6078 21.3984C16.6078 18.5812 16.6078 15.7641 16.6078 12.9422ZM9.27656 1.89375C8.45625 1.89375 7.63594 1.89844 6.82031 1.88906C6.61406 1.88906 6.54375 1.95937 6.54844 2.16094C6.55781 2.57344 6.55781 2.98594 6.54844 3.40312C6.54375 3.58125 6.61406 3.65625 6.79687 3.65625C8.45156 3.65156 10.1062 3.65156 11.7609 3.65625C11.9391 3.65625 12.0094 3.58125 12.0094 3.40312C12 2.99531 11.9953 2.59219 12.0094 2.18437C12.0187 1.95937 11.9437 1.88438 11.7141 1.88438C10.8984 1.89844 10.0875 1.89375 9.27656 1.89375Z" fill="#001540"/>
<path d="M13.9078 11.6158C13.9125 11.8877 13.8047 12.1174 13.6172 12.3096C11.9906 13.9408 10.364 15.5721 8.72811 17.194C8.30154 17.6158 7.75311 17.6111 7.32654 17.194C6.52029 16.4018 5.72342 15.5955 4.92186 14.794C4.64061 14.5127 4.53748 14.1705 4.66873 13.7861C4.79529 13.4111 5.06717 13.1955 5.45623 13.1393C5.77967 13.0924 6.05623 13.2143 6.28123 13.4393C6.79686 13.9502 7.31717 14.4565 7.81873 14.9815C7.98279 15.1502 8.07186 15.1315 8.22654 14.9768C9.53436 13.6596 10.8515 12.3471 12.164 11.0299C12.4312 10.7627 12.7312 10.594 13.1297 10.6736C13.5937 10.758 13.9125 11.1471 13.9078 11.6158Z" fill="#001540"/>
</svg>
