<svg width="27" height="18" viewBox="0 0 27 18" fill="none" xmlns="http://www.w3.org/2000/svg">
<mask id="path-1-inside-1_490_12767" fill="white">
<path d="M23.6498 0H3.32177C1.50473 0 0 1.49045 0 3.3535V14.6465C0 16.4809 1.47634 18 3.32177 18H23.6782C25.4953 18 27 16.5096 27 14.6465V3.32484C26.9716 1.49045 25.4953 0 23.6498 0ZM25.9211 14.6178C25.9211 15.879 24.8991 16.8822 23.6782 16.8822H3.32177C2.07256 16.8822 1.07886 15.8503 1.07886 14.6178V3.32484C1.07886 2.06369 2.10095 1.06051 3.32177 1.06051H23.6782C24.9274 1.06051 25.9211 2.09236 25.9211 3.32484V14.6178Z"/>
</mask>
<path d="M23.6498 0H3.32177C1.50473 0 0 1.49045 0 3.3535V14.6465C0 16.4809 1.47634 18 3.32177 18H23.6782C25.4953 18 27 16.5096 27 14.6465V3.32484C26.9716 1.49045 25.4953 0 23.6498 0ZM25.9211 14.6178C25.9211 15.879 24.8991 16.8822 23.6782 16.8822H3.32177C2.07256 16.8822 1.07886 15.8503 1.07886 14.6178V3.32484C1.07886 2.06369 2.10095 1.06051 3.32177 1.06051H23.6782C24.9274 1.06051 25.9211 2.09236 25.9211 3.32484V14.6178Z" fill="#3F3D56"/>
<path d="M27 3.32484H28.5V3.31323L28.4998 3.30163L27 3.32484ZM23.6498 -1.5H3.32177V1.5H23.6498V-1.5ZM3.32177 -1.5C0.671206 -1.5 -1.5 0.667127 -1.5 3.3535H1.5C1.5 2.31376 2.33826 1.5 3.32177 1.5V-1.5ZM-1.5 3.3535V14.6465H1.5V3.3535H-1.5ZM-1.5 14.6465C-1.5 17.2874 0.626208 19.5 3.32177 19.5V16.5C2.32647 16.5 1.5 15.6743 1.5 14.6465H-1.5ZM3.32177 19.5H23.6782V16.5H3.32177V19.5ZM23.6782 19.5C26.3288 19.5 28.5 17.3329 28.5 14.6465H25.5C25.5 15.6862 24.6617 16.5 23.6782 16.5V19.5ZM28.5 14.6465V3.32484H25.5V14.6465H28.5ZM28.4998 3.30163C28.459 0.666469 26.333 -1.5 23.6498 -1.5V1.5C24.6575 1.5 25.4842 2.31442 25.5002 3.34805L28.4998 3.30163ZM24.4211 14.6178C24.4211 15.0516 24.0695 15.3822 23.6782 15.3822V18.3822C25.7286 18.3822 27.4211 16.7063 27.4211 14.6178H24.4211ZM23.6782 15.3822H3.32177V18.3822H23.6782V15.3822ZM3.32177 15.3822C2.92666 15.3822 2.57886 15.0478 2.57886 14.6178H-0.421136C-0.421136 16.6528 1.21845 18.3822 3.32177 18.3822V15.3822ZM2.57886 14.6178V3.32484H-0.421136V14.6178H2.57886ZM2.57886 3.32484C2.57886 2.89102 2.93047 2.56051 3.32177 2.56051V-0.439491C1.27142 -0.439491 -0.421136 1.23636 -0.421136 3.32484H2.57886ZM3.32177 2.56051H23.6782V-0.439491H3.32177V2.56051ZM23.6782 2.56051C24.0733 2.56051 24.4211 2.89487 24.4211 3.32484H27.4211C27.4211 1.28984 25.7816 -0.439491 23.6782 -0.439491V2.56051ZM24.4211 3.32484V14.6178H27.4211V3.32484H24.4211Z" fill="#001540" mask="url(#path-1-inside-1_490_12767)"/>
<mask id="path-3-inside-2_490_12767" fill="white">
<path d="M22.5425 4.21289H15.0472C14.7633 4.21289 14.5078 4.44219 14.5078 4.75748C14.5078 5.07276 14.7349 5.30206 15.0472 5.30206H22.5425C22.8264 5.30206 23.0819 5.07276 23.0819 4.75748C23.0819 4.44219 22.8548 4.21289 22.5425 4.21289Z"/>
</mask>
<path d="M22.5425 4.21289H15.0472C14.7633 4.21289 14.5078 4.44219 14.5078 4.75748C14.5078 5.07276 14.7349 5.30206 15.0472 5.30206H22.5425C22.8264 5.30206 23.0819 5.07276 23.0819 4.75748C23.0819 4.44219 22.8548 4.21289 22.5425 4.21289Z" fill="#3F3D56"/>
<path d="M22.5425 2.71289H15.0472V5.71289H22.5425V2.71289ZM15.0472 2.71289C13.9731 2.71289 13.0078 3.57603 13.0078 4.75748H16.0078C16.0078 5.30834 15.5535 5.71289 15.0472 5.71289V2.71289ZM13.0078 4.75748C13.0078 5.88771 13.8931 6.80206 15.0472 6.80206V3.80206C15.2692 3.80206 15.525 3.88938 15.7261 4.0924C15.9264 4.29459 16.0078 4.54591 16.0078 4.75748H13.0078ZM15.0472 6.80206H22.5425V3.80206H15.0472V6.80206ZM22.5425 6.80206C23.6166 6.80206 24.5819 5.93891 24.5819 4.75748H21.5819C21.5819 4.20661 22.0362 3.80206 22.5425 3.80206V6.80206ZM24.5819 4.75748C24.5819 3.62724 23.6967 2.71289 22.5425 2.71289V5.71289C22.3205 5.71289 22.0648 5.62558 21.8637 5.42256C21.6634 5.22036 21.5819 4.96904 21.5819 4.75748H24.5819Z" fill="#001540" mask="url(#path-3-inside-2_490_12767)"/>
<mask id="path-5-inside-3_490_12767" fill="white">
<path d="M22.5425 8.42676H15.0472C14.7633 8.42676 14.5078 8.65606 14.5078 8.97134C14.5078 9.28663 14.7349 9.51593 15.0472 9.51593H22.5425C22.8264 9.51593 23.0819 9.28663 23.0819 8.97134C23.0819 8.65606 22.8548 8.42676 22.5425 8.42676Z"/>
</mask>
<path d="M22.5425 8.42676H15.0472C14.7633 8.42676 14.5078 8.65606 14.5078 8.97134C14.5078 9.28663 14.7349 9.51593 15.0472 9.51593H22.5425C22.8264 9.51593 23.0819 9.28663 23.0819 8.97134C23.0819 8.65606 22.8548 8.42676 22.5425 8.42676Z" fill="#3F3D56"/>
<path d="M22.5425 6.92676H15.0472V9.92676H22.5425V6.92676ZM15.0472 6.92676C13.9731 6.92676 13.0078 7.78991 13.0078 8.97134H16.0078C16.0078 9.52221 15.5535 9.92676 15.0472 9.92676V6.92676ZM13.0078 8.97134C13.0078 10.1016 13.8931 11.0159 15.0472 11.0159V8.01593C15.2692 8.01593 15.525 8.10325 15.7261 8.30626C15.9264 8.50846 16.0078 8.75978 16.0078 8.97134H13.0078ZM15.0472 11.0159H22.5425V8.01593H15.0472V11.0159ZM22.5425 11.0159C23.6166 11.0159 24.5819 10.1528 24.5819 8.97134H21.5819C21.5819 8.42048 22.0362 8.01593 22.5425 8.01593V11.0159ZM24.5819 8.97134C24.5819 7.84111 23.6967 6.92676 22.5425 6.92676V9.92676C22.3205 9.92676 22.0647 9.83944 21.8637 9.63642C21.6634 9.43423 21.5819 9.18291 21.5819 8.97134H24.5819Z" fill="#001540" mask="url(#path-5-inside-3_490_12767)"/>
<mask id="path-7-inside-4_490_12767" fill="white">
<path d="M22.5425 12.6689H15.0472C14.7633 12.6689 14.5078 12.8982 14.5078 13.2135C14.5078 13.5002 14.7349 13.7581 15.0472 13.7581H22.5425C22.8264 13.7581 23.0819 13.5288 23.0819 13.2135C23.0819 12.8982 22.8548 12.6689 22.5425 12.6689Z"/>
</mask>
<path d="M22.5425 12.6689H15.0472C14.7633 12.6689 14.5078 12.8982 14.5078 13.2135C14.5078 13.5002 14.7349 13.7581 15.0472 13.7581H22.5425C22.8264 13.7581 23.0819 13.5288 23.0819 13.2135C23.0819 12.8982 22.8548 12.6689 22.5425 12.6689Z" fill="#3F3D56"/>
<path d="M23.0819 13.2135H24.5819H23.0819ZM22.5425 11.1689H15.0472V14.1689H22.5425V11.1689ZM15.0472 11.1689C13.9731 11.1689 13.0078 12.0321 13.0078 13.2135H16.0078C16.0078 13.7644 15.5535 14.1689 15.0472 14.1689V11.1689ZM13.0078 13.2135C13.0078 14.263 13.8424 15.2581 15.0472 15.2581V12.2581C15.6275 12.2581 16.0078 12.7373 16.0078 13.2135H13.0078ZM15.0472 15.2581H22.5425V12.2581H15.0472V15.2581ZM22.5425 15.2581C23.6166 15.2581 24.5819 14.395 24.5819 13.2135H21.5819C21.5819 12.6627 22.0362 12.2581 22.5425 12.2581V15.2581ZM24.5819 13.2135C24.5819 12.0833 23.6967 11.1689 22.5425 11.1689V14.1689C22.3205 14.1689 22.0647 14.0816 21.8637 13.8786C21.6634 13.6764 21.5819 13.4251 21.5819 13.2135H24.5819Z" fill="#001540" mask="url(#path-7-inside-4_490_12767)"/>
<mask id="path-9-inside-5_490_12767" fill="white">
<path d="M9.48216 8.39824C10.05 7.91098 10.4191 7.16576 10.4191 6.36321C10.4191 4.87277 9.22664 3.66895 7.7503 3.66895C6.27395 3.66895 5.08153 4.87277 5.08153 6.36321C5.08153 7.19442 5.45061 7.91098 6.01843 8.39824C4.65566 9.11481 3.71875 10.6339 3.71875 12.411C3.71875 12.8409 3.91749 13.6148 5.13831 14.1307C5.84809 14.4174 6.7566 14.5893 7.7503 14.5893C9.76607 14.5893 11.7818 13.9301 11.7818 12.4396C11.7818 10.6626 10.8449 9.11481 9.48216 8.39824ZM6.16039 6.36321C6.16039 5.47468 6.87017 4.75812 7.7503 4.75812C8.63042 4.75812 9.3402 5.47468 9.3402 6.36321C9.3402 7.25175 8.63042 7.96831 7.7503 7.96831C6.87017 7.96831 6.16039 7.25175 6.16039 6.36321ZM7.7503 13.5002C6.132 13.5002 4.79761 13.0129 4.79761 12.411C4.79761 10.5479 6.132 9.02882 7.7503 9.02882C9.36859 9.02882 10.703 10.5479 10.703 12.411C10.7314 13.0129 9.36859 13.5002 7.7503 13.5002Z"/>
</mask>
<path d="M9.48216 8.39824C10.05 7.91098 10.4191 7.16576 10.4191 6.36321C10.4191 4.87277 9.22664 3.66895 7.7503 3.66895C6.27395 3.66895 5.08153 4.87277 5.08153 6.36321C5.08153 7.19442 5.45061 7.91098 6.01843 8.39824C4.65566 9.11481 3.71875 10.6339 3.71875 12.411C3.71875 12.8409 3.91749 13.6148 5.13831 14.1307C5.84809 14.4174 6.7566 14.5893 7.7503 14.5893C9.76607 14.5893 11.7818 13.9301 11.7818 12.4396C11.7818 10.6626 10.8449 9.11481 9.48216 8.39824ZM6.16039 6.36321C6.16039 5.47468 6.87017 4.75812 7.7503 4.75812C8.63042 4.75812 9.3402 5.47468 9.3402 6.36321C9.3402 7.25175 8.63042 7.96831 7.7503 7.96831C6.87017 7.96831 6.16039 7.25175 6.16039 6.36321ZM7.7503 13.5002C6.132 13.5002 4.79761 13.0129 4.79761 12.411C4.79761 10.5479 6.132 9.02882 7.7503 9.02882C9.36859 9.02882 10.703 10.5479 10.703 12.411C10.7314 13.0129 9.36859 13.5002 7.7503 13.5002Z" fill="#3F3D56"/>
<path d="M9.48216 8.39824L8.50533 7.25991L6.82936 8.6981L8.78406 9.7259L9.48216 8.39824ZM6.01843 8.39824L6.71653 9.7259L8.67123 8.6981L6.99526 7.25991L6.01843 8.39824ZM5.13831 14.1307L4.5544 15.5124L4.56549 15.5171L4.57664 15.5216L5.13831 14.1307ZM10.703 12.411H9.20298V12.4463L9.20464 12.4817L10.703 12.411ZM10.459 9.53658C11.3448 8.77642 11.9191 7.62155 11.9191 6.36321H8.91907C8.91907 6.70997 8.75513 7.04555 8.50533 7.25991L10.459 9.53658ZM11.9191 6.36321C11.9191 4.05782 10.0685 2.16895 7.7503 2.16895V5.16895C8.38479 5.16895 8.91907 5.68772 8.91907 6.36321H11.9191ZM7.7503 2.16895C5.43211 2.16895 3.58153 4.05782 3.58153 6.36321H6.58153C6.58153 5.68772 7.1158 5.16895 7.7503 5.16895V2.16895ZM3.58153 6.36321C3.58153 7.65882 4.1626 8.78228 5.04161 9.53658L6.99526 7.25991C6.73863 7.03968 6.58153 6.73002 6.58153 6.36321H3.58153ZM5.32034 7.07059C3.43587 8.06146 2.21875 10.1098 2.21875 12.411H5.21875C5.21875 11.158 5.87544 10.1681 6.71653 9.7259L5.32034 7.07059ZM2.21875 12.411C2.21875 12.8577 2.32351 13.4558 2.71247 14.0552C3.10438 14.6591 3.71607 15.1581 4.5544 15.5124L5.72221 12.749C5.33972 12.5874 5.24164 12.4415 5.22898 12.422C5.21336 12.398 5.21875 12.3942 5.21875 12.411H2.21875ZM4.57664 15.5216C5.49156 15.8911 6.59512 16.0893 7.7503 16.0893V13.0893C6.91809 13.0893 6.20461 12.9436 5.69997 12.7399L4.57664 15.5216ZM7.7503 16.0893C8.88902 16.0893 10.1336 15.9077 11.1539 15.4338C12.1719 14.9609 13.2818 14.0149 13.2818 12.4396H10.2818C10.2818 12.4446 10.2895 12.4359 10.2711 12.4585C10.2351 12.5029 10.1294 12.6018 9.89009 12.713C9.39851 12.9413 8.62735 13.0893 7.7503 13.0893V16.0893ZM13.2818 12.4396C13.2818 10.1492 12.0737 8.0662 10.1803 7.07059L8.78406 9.7259C9.61613 10.1634 10.2818 11.1759 10.2818 12.4396H13.2818ZM7.66039 6.36321C7.66039 6.28962 7.71201 6.25812 7.7503 6.25812V3.25812C6.02833 3.25812 4.66039 4.65973 4.66039 6.36321H7.66039ZM7.7503 6.25812C7.78858 6.25812 7.8402 6.28963 7.8402 6.36321H10.8402C10.8402 4.65973 9.47226 3.25812 7.7503 3.25812V6.25812ZM7.8402 6.36321C7.8402 6.4368 7.78858 6.46831 7.7503 6.46831V9.46831C9.47226 9.46831 10.8402 8.0667 10.8402 6.36321H7.8402ZM7.7503 6.46831C7.71201 6.46831 7.66039 6.4368 7.66039 6.36321H4.66039C4.66039 8.0667 6.02833 9.46831 7.7503 9.46831V6.46831ZM7.7503 12.0002C7.07207 12.0002 6.51679 11.8955 6.18478 11.7735C6.01278 11.7102 5.97789 11.6704 6.01376 11.7015C6.0451 11.7287 6.29761 11.9637 6.29761 12.411H3.29761C3.29761 13.1592 3.71693 13.6809 4.04904 13.9687C4.38568 14.2604 4.78553 14.4553 5.14941 14.5891C5.88916 14.8611 6.81023 15.0002 7.7503 15.0002V12.0002ZM6.29761 12.411C6.29761 11.1814 7.14278 10.5288 7.7503 10.5288V7.52882C5.12122 7.52882 3.29761 9.91445 3.29761 12.411H6.29761ZM7.7503 10.5288C8.35781 10.5288 9.20298 11.1814 9.20298 12.411H12.203C12.203 9.91445 10.3794 7.52882 7.7503 7.52882V10.5288ZM9.20464 12.4817C9.182 12.0016 9.45494 11.7399 9.49383 11.7059C9.53566 11.6693 9.50508 11.7082 9.32946 11.7724C8.99284 11.8953 8.42935 12.0002 7.7503 12.0002V15.0002C8.68954 15.0002 9.61659 14.8614 10.3588 14.5902C10.7226 14.4573 11.1286 14.2615 11.4685 13.9643C11.8055 13.6697 12.2382 13.1214 12.2013 12.3403L9.20464 12.4817Z" fill="#001540" mask="url(#path-9-inside-5_490_12767)"/>
</svg>
