<svg width="22" height="22" viewBox="0 0 22 22" fill="none" xmlns="http://www.w3.org/2000/svg">
<mask id="path-1-outside-1_1548_17722" maskUnits="userSpaceOnUse" x="0" y="0" width="22" height="22" fill="black">
<rect fill="white" width="22" height="22"/>
<path fill-rule="evenodd" clip-rule="evenodd" d="M5.60358 1.02793C5.42782 1.08169 5.17905 1.34009 5.12879 1.52112C5.10599 1.60314 5.08726 1.86635 5.08714 2.10598L5.08691 2.54169L4.33406 2.55937C3.65981 2.5752 3.54444 2.58806 3.22922 2.68245C2.22646 2.98268 1.42402 3.78349 1.10919 4.79812L1 5.15V11.7771V18.4042L1.10919 18.7561C1.42336 19.7687 2.21633 20.5615 3.22922 20.8756L3.58121 20.9847H6.967H10.3528L10.5114 20.8798C10.7555 20.7183 10.8555 20.5272 10.8555 20.2223C10.8555 19.9174 10.7555 19.7263 10.5114 19.5648L10.3529 19.4599L7.06482 19.4403L3.77675 19.4208L3.5518 19.33C3.11714 19.1545 2.78803 18.8104 2.63465 18.371C2.56812 18.1804 2.56437 17.8282 2.56437 11.7771C2.56437 5.72607 2.56812 5.37384 2.63465 5.18327C2.78858 4.74225 3.12081 4.3958 3.5518 4.2269C3.74476 4.15128 3.8694 4.13642 4.42792 4.12247L5.07905 4.10616L5.09278 4.62808C5.10506 5.09589 5.11608 5.16548 5.19927 5.29924C5.25031 5.38135 5.36345 5.49571 5.45062 5.55338C5.5827 5.64076 5.65258 5.65828 5.86909 5.65828C6.0856 5.65828 6.15549 5.64076 6.28756 5.55338C6.37473 5.49571 6.48788 5.38135 6.53892 5.29924C6.62198 5.16564 6.63313 5.09573 6.64533 4.63195L6.65894 4.1139H8.41119H10.1634L10.177 4.63489C10.1898 5.1231 10.1973 5.16584 10.2956 5.31429C10.4577 5.55912 10.6481 5.65828 10.9561 5.65828C11.1696 5.65828 11.2402 5.64045 11.3718 5.55338C11.4589 5.49571 11.5721 5.38135 11.6231 5.29924C11.7062 5.16564 11.7173 5.09573 11.7295 4.63195L11.7431 4.1139H13.5149H15.2867L15.3003 4.63489C15.3131 5.1231 15.3206 5.16584 15.4189 5.31429C15.581 5.55912 15.7714 5.65828 16.0794 5.65828C16.2929 5.65828 16.3635 5.64045 16.4951 5.55338C16.5822 5.49571 16.6954 5.38135 16.7464 5.29924C16.8296 5.16548 16.8406 5.09589 16.8529 4.62816L16.8666 4.10632L17.5373 4.12223C18.1072 4.13572 18.2397 4.1507 18.4184 4.22189C18.852 4.39467 19.1584 4.69686 19.3296 5.1206L19.4204 5.34549L19.44 7.86732L19.4595 10.3891L19.5523 10.5384C19.6034 10.6205 19.7165 10.7348 19.8037 10.7925C19.9353 10.8796 20.0059 10.8974 20.2193 10.8974C20.5274 10.8974 20.7178 10.7982 20.8799 10.5533L20.9848 10.3948V7.77243V5.15L20.8756 4.79812C20.5608 3.78356 19.7586 2.98291 18.7556 2.68237C18.4385 2.58732 18.3273 2.57512 17.6349 2.5594L16.8662 2.54197L16.8527 2.02497C16.8401 1.54106 16.8325 1.49789 16.7343 1.34959C16.5727 1.10558 16.3815 1.00561 16.0766 1.00561C15.7717 1.00561 15.5805 1.10558 15.4189 1.34959C15.3206 1.49805 15.3131 1.54078 15.3003 2.029L15.2867 2.54998H13.5149H11.7431L11.7295 2.03193C11.7173 1.56815 11.7062 1.49824 11.6231 1.36465C11.5721 1.28254 11.4589 1.16818 11.3718 1.11051C11.2402 1.02344 11.1696 1.00561 10.9561 1.00561C10.6481 1.00561 10.4577 1.10476 10.2956 1.34959C10.1973 1.49805 10.1898 1.54078 10.177 2.029L10.1634 2.54998H8.41119H6.65894L6.64533 2.029C6.63258 1.54078 6.62511 1.49805 6.52679 1.34959C6.46911 1.26248 6.3594 1.15258 6.28306 1.10543C6.1233 1.0067 5.79522 0.969287 5.60358 1.02793ZM5.60358 8.45656C5.41722 8.51357 5.17788 8.76954 5.12406 8.96937C5.03044 9.31696 5.16955 9.68229 5.4656 9.86628C5.68743 10.0041 6.06937 9.99851 6.28756 9.85416C6.53168 9.69265 6.63172 9.50154 6.63172 9.19665C6.63172 8.89567 6.53188 8.70077 6.29871 8.54653C6.13097 8.43553 5.80863 8.39381 5.60358 8.45656ZM9.00608 8.45656C8.81972 8.51357 8.58037 8.76954 8.52656 8.96937C8.43293 9.31696 8.57204 9.68229 8.8681 9.86628C9.08993 10.0041 9.47187 9.99851 9.69006 9.85416C9.93418 9.69265 10.0342 9.50154 10.0342 9.19665C10.0342 8.89567 9.93437 8.70077 9.7012 8.54653C9.53347 8.43553 9.21113 8.39381 9.00608 8.45656ZM12.4086 8.45656C12.2222 8.51357 11.9829 8.76954 11.9291 8.96937C11.8354 9.31696 11.9745 9.68229 12.2706 9.86628C12.4924 10.0041 12.8744 9.99851 13.0926 9.85416C13.3367 9.69265 13.4367 9.50154 13.4367 9.19665C13.4367 8.89567 13.3369 8.70077 13.1037 8.54653C12.936 8.43553 12.6136 8.39381 12.4086 8.45656ZM15.8111 8.45656C15.6247 8.51357 15.3854 8.76954 15.3316 8.96937C15.2379 9.31696 15.377 9.68229 15.6731 9.86628C15.8949 10.0041 16.2769 9.99851 16.4951 9.85416C16.7392 9.69265 16.8392 9.50154 16.8392 9.19665C16.8392 8.89567 16.7394 8.70077 16.5062 8.54653C16.3385 8.43553 16.0161 8.39381 15.8111 8.45656ZM15.5877 11.5994C14.5559 11.7616 13.6137 12.2432 12.8994 12.9738C12.5273 13.3544 12.2689 13.7235 12.0265 14.2207C11.3835 15.5395 11.3835 17.0073 12.0265 18.326C12.5041 19.3058 13.2402 20.0421 14.2169 20.5172C15.5402 21.1609 17.0041 21.1609 18.3274 20.5172C19.3041 20.0421 20.0401 19.3058 20.5178 18.326C21.1607 17.0073 21.1607 15.5395 20.5178 14.2207C20.0401 13.241 19.3041 12.5047 18.3274 12.0296C17.4604 11.6079 16.4969 11.4566 15.5877 11.5994ZM5.60358 11.8581C5.41722 11.9151 5.17788 12.1711 5.12406 12.3709C5.03044 12.7185 5.16955 13.0838 5.4656 13.2678C5.68743 13.4057 6.06937 13.4 6.28756 13.2557C6.53168 13.0942 6.63172 12.9031 6.63172 12.5982C6.63172 12.2972 6.53188 12.1023 6.29871 11.9481C6.13097 11.8371 5.80863 11.7953 5.60358 11.8581ZM9.00608 11.8581C8.81972 11.9151 8.58037 12.1711 8.52656 12.3709C8.43293 12.7185 8.57204 13.0838 8.8681 13.2678C9.08993 13.4057 9.47187 13.4 9.69006 13.2557C9.93418 13.0942 10.0342 12.9031 10.0342 12.5982C10.0342 12.2972 9.93437 12.1023 9.7012 11.9481C9.53347 11.8371 9.21113 11.7953 9.00608 11.8581ZM16.826 13.1626C18.1649 13.4242 19.1221 14.3812 19.3839 15.7197C19.7531 17.6076 18.2203 19.4403 16.2721 19.4403C15.3572 19.4403 14.4064 18.9898 13.8359 18.286C12.8663 17.0898 12.8663 15.457 13.8359 14.2608C14.5383 13.3942 15.7445 12.9512 16.826 13.1626ZM16.0066 13.9303C15.8232 13.9864 15.5809 14.2434 15.5287 14.4372C15.5004 14.5422 15.4894 14.9393 15.4973 15.5663L15.5095 16.5335L15.6144 16.6919C15.6721 16.779 15.7865 16.892 15.8686 16.943C16.0134 17.033 16.0429 17.0358 16.8392 17.0358C17.6356 17.0358 17.665 17.033 17.8098 16.943C17.8919 16.892 18.0063 16.7789 18.064 16.6917C18.2084 16.4736 18.214 16.0918 18.0761 15.87C17.9225 15.6231 17.7263 15.5203 17.3687 15.4996L17.0616 15.4818L17.0482 14.949C17.0361 14.4694 17.0255 14.4013 16.942 14.267C16.7575 13.9704 16.3523 13.8245 16.0066 13.9303ZM5.60358 15.2596C5.41722 15.3166 5.17788 15.5726 5.12406 15.7724C5.03044 16.12 5.16955 16.4853 5.4656 16.6693C5.68743 16.8072 6.06937 16.8016 6.28756 16.6572C6.53168 16.4957 6.63172 16.3046 6.63172 15.9997C6.63172 15.6987 6.53188 15.5038 6.29871 15.3496C6.13097 15.2386 5.80863 15.1969 5.60358 15.2596ZM9.00608 15.2596C8.81972 15.3166 8.58037 15.5726 8.52656 15.7724C8.43293 16.12 8.57204 16.4853 8.8681 16.6693C9.08993 16.8072 9.47187 16.8016 9.69006 16.6572C9.93418 16.4957 10.0342 16.3046 10.0342 15.9997C10.0342 15.6987 9.93437 15.5038 9.7012 15.3496C9.53347 15.2386 9.21113 15.1969 9.00608 15.2596Z"/>
</mask>
<path fill-rule="evenodd" clip-rule="evenodd" d="M5.60358 1.02793C5.42782 1.08169 5.17905 1.34009 5.12879 1.52112C5.10599 1.60314 5.08726 1.86635 5.08714 2.10598L5.08691 2.54169L4.33406 2.55937C3.65981 2.5752 3.54444 2.58806 3.22922 2.68245C2.22646 2.98268 1.42402 3.78349 1.10919 4.79812L1 5.15V11.7771V18.4042L1.10919 18.7561C1.42336 19.7687 2.21633 20.5615 3.22922 20.8756L3.58121 20.9847H6.967H10.3528L10.5114 20.8798C10.7555 20.7183 10.8555 20.5272 10.8555 20.2223C10.8555 19.9174 10.7555 19.7263 10.5114 19.5648L10.3529 19.4599L7.06482 19.4403L3.77675 19.4208L3.5518 19.33C3.11714 19.1545 2.78803 18.8104 2.63465 18.371C2.56812 18.1804 2.56437 17.8282 2.56437 11.7771C2.56437 5.72607 2.56812 5.37384 2.63465 5.18327C2.78858 4.74225 3.12081 4.3958 3.5518 4.2269C3.74476 4.15128 3.8694 4.13642 4.42792 4.12247L5.07905 4.10616L5.09278 4.62808C5.10506 5.09589 5.11608 5.16548 5.19927 5.29924C5.25031 5.38135 5.36345 5.49571 5.45062 5.55338C5.5827 5.64076 5.65258 5.65828 5.86909 5.65828C6.0856 5.65828 6.15549 5.64076 6.28756 5.55338C6.37473 5.49571 6.48788 5.38135 6.53892 5.29924C6.62198 5.16564 6.63313 5.09573 6.64533 4.63195L6.65894 4.1139H8.41119H10.1634L10.177 4.63489C10.1898 5.1231 10.1973 5.16584 10.2956 5.31429C10.4577 5.55912 10.6481 5.65828 10.9561 5.65828C11.1696 5.65828 11.2402 5.64045 11.3718 5.55338C11.4589 5.49571 11.5721 5.38135 11.6231 5.29924C11.7062 5.16564 11.7173 5.09573 11.7295 4.63195L11.7431 4.1139H13.5149H15.2867L15.3003 4.63489C15.3131 5.1231 15.3206 5.16584 15.4189 5.31429C15.581 5.55912 15.7714 5.65828 16.0794 5.65828C16.2929 5.65828 16.3635 5.64045 16.4951 5.55338C16.5822 5.49571 16.6954 5.38135 16.7464 5.29924C16.8296 5.16548 16.8406 5.09589 16.8529 4.62816L16.8666 4.10632L17.5373 4.12223C18.1072 4.13572 18.2397 4.1507 18.4184 4.22189C18.852 4.39467 19.1584 4.69686 19.3296 5.1206L19.4204 5.34549L19.44 7.86732L19.4595 10.3891L19.5523 10.5384C19.6034 10.6205 19.7165 10.7348 19.8037 10.7925C19.9353 10.8796 20.0059 10.8974 20.2193 10.8974C20.5274 10.8974 20.7178 10.7982 20.8799 10.5533L20.9848 10.3948V7.77243V5.15L20.8756 4.79812C20.5608 3.78356 19.7586 2.98291 18.7556 2.68237C18.4385 2.58732 18.3273 2.57512 17.6349 2.5594L16.8662 2.54197L16.8527 2.02497C16.8401 1.54106 16.8325 1.49789 16.7343 1.34959C16.5727 1.10558 16.3815 1.00561 16.0766 1.00561C15.7717 1.00561 15.5805 1.10558 15.4189 1.34959C15.3206 1.49805 15.3131 1.54078 15.3003 2.029L15.2867 2.54998H13.5149H11.7431L11.7295 2.03193C11.7173 1.56815 11.7062 1.49824 11.6231 1.36465C11.5721 1.28254 11.4589 1.16818 11.3718 1.11051C11.2402 1.02344 11.1696 1.00561 10.9561 1.00561C10.6481 1.00561 10.4577 1.10476 10.2956 1.34959C10.1973 1.49805 10.1898 1.54078 10.177 2.029L10.1634 2.54998H8.41119H6.65894L6.64533 2.029C6.63258 1.54078 6.62511 1.49805 6.52679 1.34959C6.46911 1.26248 6.3594 1.15258 6.28306 1.10543C6.1233 1.0067 5.79522 0.969287 5.60358 1.02793ZM5.60358 8.45656C5.41722 8.51357 5.17788 8.76954 5.12406 8.96937C5.03044 9.31696 5.16955 9.68229 5.4656 9.86628C5.68743 10.0041 6.06937 9.99851 6.28756 9.85416C6.53168 9.69265 6.63172 9.50154 6.63172 9.19665C6.63172 8.89567 6.53188 8.70077 6.29871 8.54653C6.13097 8.43553 5.80863 8.39381 5.60358 8.45656ZM9.00608 8.45656C8.81972 8.51357 8.58037 8.76954 8.52656 8.96937C8.43293 9.31696 8.57204 9.68229 8.8681 9.86628C9.08993 10.0041 9.47187 9.99851 9.69006 9.85416C9.93418 9.69265 10.0342 9.50154 10.0342 9.19665C10.0342 8.89567 9.93437 8.70077 9.7012 8.54653C9.53347 8.43553 9.21113 8.39381 9.00608 8.45656ZM12.4086 8.45656C12.2222 8.51357 11.9829 8.76954 11.9291 8.96937C11.8354 9.31696 11.9745 9.68229 12.2706 9.86628C12.4924 10.0041 12.8744 9.99851 13.0926 9.85416C13.3367 9.69265 13.4367 9.50154 13.4367 9.19665C13.4367 8.89567 13.3369 8.70077 13.1037 8.54653C12.936 8.43553 12.6136 8.39381 12.4086 8.45656ZM15.8111 8.45656C15.6247 8.51357 15.3854 8.76954 15.3316 8.96937C15.2379 9.31696 15.377 9.68229 15.6731 9.86628C15.8949 10.0041 16.2769 9.99851 16.4951 9.85416C16.7392 9.69265 16.8392 9.50154 16.8392 9.19665C16.8392 8.89567 16.7394 8.70077 16.5062 8.54653C16.3385 8.43553 16.0161 8.39381 15.8111 8.45656ZM15.5877 11.5994C14.5559 11.7616 13.6137 12.2432 12.8994 12.9738C12.5273 13.3544 12.2689 13.7235 12.0265 14.2207C11.3835 15.5395 11.3835 17.0073 12.0265 18.326C12.5041 19.3058 13.2402 20.0421 14.2169 20.5172C15.5402 21.1609 17.0041 21.1609 18.3274 20.5172C19.3041 20.0421 20.0401 19.3058 20.5178 18.326C21.1607 17.0073 21.1607 15.5395 20.5178 14.2207C20.0401 13.241 19.3041 12.5047 18.3274 12.0296C17.4604 11.6079 16.4969 11.4566 15.5877 11.5994ZM5.60358 11.8581C5.41722 11.9151 5.17788 12.1711 5.12406 12.3709C5.03044 12.7185 5.16955 13.0838 5.4656 13.2678C5.68743 13.4057 6.06937 13.4 6.28756 13.2557C6.53168 13.0942 6.63172 12.9031 6.63172 12.5982C6.63172 12.2972 6.53188 12.1023 6.29871 11.9481C6.13097 11.8371 5.80863 11.7953 5.60358 11.8581ZM9.00608 11.8581C8.81972 11.9151 8.58037 12.1711 8.52656 12.3709C8.43293 12.7185 8.57204 13.0838 8.8681 13.2678C9.08993 13.4057 9.47187 13.4 9.69006 13.2557C9.93418 13.0942 10.0342 12.9031 10.0342 12.5982C10.0342 12.2972 9.93437 12.1023 9.7012 11.9481C9.53347 11.8371 9.21113 11.7953 9.00608 11.8581ZM16.826 13.1626C18.1649 13.4242 19.1221 14.3812 19.3839 15.7197C19.7531 17.6076 18.2203 19.4403 16.2721 19.4403C15.3572 19.4403 14.4064 18.9898 13.8359 18.286C12.8663 17.0898 12.8663 15.457 13.8359 14.2608C14.5383 13.3942 15.7445 12.9512 16.826 13.1626ZM16.0066 13.9303C15.8232 13.9864 15.5809 14.2434 15.5287 14.4372C15.5004 14.5422 15.4894 14.9393 15.4973 15.5663L15.5095 16.5335L15.6144 16.6919C15.6721 16.779 15.7865 16.892 15.8686 16.943C16.0134 17.033 16.0429 17.0358 16.8392 17.0358C17.6356 17.0358 17.665 17.033 17.8098 16.943C17.8919 16.892 18.0063 16.7789 18.064 16.6917C18.2084 16.4736 18.214 16.0918 18.0761 15.87C17.9225 15.6231 17.7263 15.5203 17.3687 15.4996L17.0616 15.4818L17.0482 14.949C17.0361 14.4694 17.0255 14.4013 16.942 14.267C16.7575 13.9704 16.3523 13.8245 16.0066 13.9303ZM5.60358 15.2596C5.41722 15.3166 5.17788 15.5726 5.12406 15.7724C5.03044 16.12 5.16955 16.4853 5.4656 16.6693C5.68743 16.8072 6.06937 16.8016 6.28756 16.6572C6.53168 16.4957 6.63172 16.3046 6.63172 15.9997C6.63172 15.6987 6.53188 15.5038 6.29871 15.3496C6.13097 15.2386 5.80863 15.1969 5.60358 15.2596ZM9.00608 15.2596C8.81972 15.3166 8.58037 15.5726 8.52656 15.7724C8.43293 16.12 8.57204 16.4853 8.8681 16.6693C9.08993 16.8072 9.47187 16.8016 9.69006 16.6572C9.93418 16.4957 10.0342 16.3046 10.0342 15.9997C10.0342 15.6987 9.93437 15.5038 9.7012 15.3496C9.53347 15.2386 9.21113 15.1969 9.00608 15.2596Z" fill="#FCB43C"/>
<path fill-rule="evenodd" clip-rule="evenodd" d="M5.60358 1.02793C5.42782 1.08169 5.17905 1.34009 5.12879 1.52112C5.10599 1.60314 5.08726 1.86635 5.08714 2.10598L5.08691 2.54169L4.33406 2.55937C3.65981 2.5752 3.54444 2.58806 3.22922 2.68245C2.22646 2.98268 1.42402 3.78349 1.10919 4.79812L1 5.15V11.7771V18.4042L1.10919 18.7561C1.42336 19.7687 2.21633 20.5615 3.22922 20.8756L3.58121 20.9847H6.967H10.3528L10.5114 20.8798C10.7555 20.7183 10.8555 20.5272 10.8555 20.2223C10.8555 19.9174 10.7555 19.7263 10.5114 19.5648L10.3529 19.4599L7.06482 19.4403L3.77675 19.4208L3.5518 19.33C3.11714 19.1545 2.78803 18.8104 2.63465 18.371C2.56812 18.1804 2.56437 17.8282 2.56437 11.7771C2.56437 5.72607 2.56812 5.37384 2.63465 5.18327C2.78858 4.74225 3.12081 4.3958 3.5518 4.2269C3.74476 4.15128 3.8694 4.13642 4.42792 4.12247L5.07905 4.10616L5.09278 4.62808C5.10506 5.09589 5.11608 5.16548 5.19927 5.29924C5.25031 5.38135 5.36345 5.49571 5.45062 5.55338C5.5827 5.64076 5.65258 5.65828 5.86909 5.65828C6.0856 5.65828 6.15549 5.64076 6.28756 5.55338C6.37473 5.49571 6.48788 5.38135 6.53892 5.29924C6.62198 5.16564 6.63313 5.09573 6.64533 4.63195L6.65894 4.1139H8.41119H10.1634L10.177 4.63489C10.1898 5.1231 10.1973 5.16584 10.2956 5.31429C10.4577 5.55912 10.6481 5.65828 10.9561 5.65828C11.1696 5.65828 11.2402 5.64045 11.3718 5.55338C11.4589 5.49571 11.5721 5.38135 11.6231 5.29924C11.7062 5.16564 11.7173 5.09573 11.7295 4.63195L11.7431 4.1139H13.5149H15.2867L15.3003 4.63489C15.3131 5.1231 15.3206 5.16584 15.4189 5.31429C15.581 5.55912 15.7714 5.65828 16.0794 5.65828C16.2929 5.65828 16.3635 5.64045 16.4951 5.55338C16.5822 5.49571 16.6954 5.38135 16.7464 5.29924C16.8296 5.16548 16.8406 5.09589 16.8529 4.62816L16.8666 4.10632L17.5373 4.12223C18.1072 4.13572 18.2397 4.1507 18.4184 4.22189C18.852 4.39467 19.1584 4.69686 19.3296 5.1206L19.4204 5.34549L19.44 7.86732L19.4595 10.3891L19.5523 10.5384C19.6034 10.6205 19.7165 10.7348 19.8037 10.7925C19.9353 10.8796 20.0059 10.8974 20.2193 10.8974C20.5274 10.8974 20.7178 10.7982 20.8799 10.5533L20.9848 10.3948V7.77243V5.15L20.8756 4.79812C20.5608 3.78356 19.7586 2.98291 18.7556 2.68237C18.4385 2.58732 18.3273 2.57512 17.6349 2.5594L16.8662 2.54197L16.8527 2.02497C16.8401 1.54106 16.8325 1.49789 16.7343 1.34959C16.5727 1.10558 16.3815 1.00561 16.0766 1.00561C15.7717 1.00561 15.5805 1.10558 15.4189 1.34959C15.3206 1.49805 15.3131 1.54078 15.3003 2.029L15.2867 2.54998H13.5149H11.7431L11.7295 2.03193C11.7173 1.56815 11.7062 1.49824 11.6231 1.36465C11.5721 1.28254 11.4589 1.16818 11.3718 1.11051C11.2402 1.02344 11.1696 1.00561 10.9561 1.00561C10.6481 1.00561 10.4577 1.10476 10.2956 1.34959C10.1973 1.49805 10.1898 1.54078 10.177 2.029L10.1634 2.54998H8.41119H6.65894L6.64533 2.029C6.63258 1.54078 6.62511 1.49805 6.52679 1.34959C6.46911 1.26248 6.3594 1.15258 6.28306 1.10543C6.1233 1.0067 5.79522 0.969287 5.60358 1.02793ZM5.60358 8.45656C5.41722 8.51357 5.17788 8.76954 5.12406 8.96937C5.03044 9.31696 5.16955 9.68229 5.4656 9.86628C5.68743 10.0041 6.06937 9.99851 6.28756 9.85416C6.53168 9.69265 6.63172 9.50154 6.63172 9.19665C6.63172 8.89567 6.53188 8.70077 6.29871 8.54653C6.13097 8.43553 5.80863 8.39381 5.60358 8.45656ZM9.00608 8.45656C8.81972 8.51357 8.58037 8.76954 8.52656 8.96937C8.43293 9.31696 8.57204 9.68229 8.8681 9.86628C9.08993 10.0041 9.47187 9.99851 9.69006 9.85416C9.93418 9.69265 10.0342 9.50154 10.0342 9.19665C10.0342 8.89567 9.93437 8.70077 9.7012 8.54653C9.53347 8.43553 9.21113 8.39381 9.00608 8.45656ZM12.4086 8.45656C12.2222 8.51357 11.9829 8.76954 11.9291 8.96937C11.8354 9.31696 11.9745 9.68229 12.2706 9.86628C12.4924 10.0041 12.8744 9.99851 13.0926 9.85416C13.3367 9.69265 13.4367 9.50154 13.4367 9.19665C13.4367 8.89567 13.3369 8.70077 13.1037 8.54653C12.936 8.43553 12.6136 8.39381 12.4086 8.45656ZM15.8111 8.45656C15.6247 8.51357 15.3854 8.76954 15.3316 8.96937C15.2379 9.31696 15.377 9.68229 15.6731 9.86628C15.8949 10.0041 16.2769 9.99851 16.4951 9.85416C16.7392 9.69265 16.8392 9.50154 16.8392 9.19665C16.8392 8.89567 16.7394 8.70077 16.5062 8.54653C16.3385 8.43553 16.0161 8.39381 15.8111 8.45656ZM15.5877 11.5994C14.5559 11.7616 13.6137 12.2432 12.8994 12.9738C12.5273 13.3544 12.2689 13.7235 12.0265 14.2207C11.3835 15.5395 11.3835 17.0073 12.0265 18.326C12.5041 19.3058 13.2402 20.0421 14.2169 20.5172C15.5402 21.1609 17.0041 21.1609 18.3274 20.5172C19.3041 20.0421 20.0401 19.3058 20.5178 18.326C21.1607 17.0073 21.1607 15.5395 20.5178 14.2207C20.0401 13.241 19.3041 12.5047 18.3274 12.0296C17.4604 11.6079 16.4969 11.4566 15.5877 11.5994ZM5.60358 11.8581C5.41722 11.9151 5.17788 12.1711 5.12406 12.3709C5.03044 12.7185 5.16955 13.0838 5.4656 13.2678C5.68743 13.4057 6.06937 13.4 6.28756 13.2557C6.53168 13.0942 6.63172 12.9031 6.63172 12.5982C6.63172 12.2972 6.53188 12.1023 6.29871 11.9481C6.13097 11.8371 5.80863 11.7953 5.60358 11.8581ZM9.00608 11.8581C8.81972 11.9151 8.58037 12.1711 8.52656 12.3709C8.43293 12.7185 8.57204 13.0838 8.8681 13.2678C9.08993 13.4057 9.47187 13.4 9.69006 13.2557C9.93418 13.0942 10.0342 12.9031 10.0342 12.5982C10.0342 12.2972 9.93437 12.1023 9.7012 11.9481C9.53347 11.8371 9.21113 11.7953 9.00608 11.8581ZM16.826 13.1626C18.1649 13.4242 19.1221 14.3812 19.3839 15.7197C19.7531 17.6076 18.2203 19.4403 16.2721 19.4403C15.3572 19.4403 14.4064 18.9898 13.8359 18.286C12.8663 17.0898 12.8663 15.457 13.8359 14.2608C14.5383 13.3942 15.7445 12.9512 16.826 13.1626ZM16.0066 13.9303C15.8232 13.9864 15.5809 14.2434 15.5287 14.4372C15.5004 14.5422 15.4894 14.9393 15.4973 15.5663L15.5095 16.5335L15.6144 16.6919C15.6721 16.779 15.7865 16.892 15.8686 16.943C16.0134 17.033 16.0429 17.0358 16.8392 17.0358C17.6356 17.0358 17.665 17.033 17.8098 16.943C17.8919 16.892 18.0063 16.7789 18.064 16.6917C18.2084 16.4736 18.214 16.0918 18.0761 15.87C17.9225 15.6231 17.7263 15.5203 17.3687 15.4996L17.0616 15.4818L17.0482 14.949C17.0361 14.4694 17.0255 14.4013 16.942 14.267C16.7575 13.9704 16.3523 13.8245 16.0066 13.9303ZM5.60358 15.2596C5.41722 15.3166 5.17788 15.5726 5.12406 15.7724C5.03044 16.12 5.16955 16.4853 5.4656 16.6693C5.68743 16.8072 6.06937 16.8016 6.28756 16.6572C6.53168 16.4957 6.63172 16.3046 6.63172 15.9997C6.63172 15.6987 6.53188 15.5038 6.29871 15.3496C6.13097 15.2386 5.80863 15.1969 5.60358 15.2596ZM9.00608 15.2596C8.81972 15.3166 8.58037 15.5726 8.52656 15.7724C8.43293 16.12 8.57204 16.4853 8.8681 16.6693C9.08993 16.8072 9.47187 16.8016 9.69006 16.6572C9.93418 16.4957 10.0342 16.3046 10.0342 15.9997C10.0342 15.6987 9.93437 15.5038 9.7012 15.3496C9.53347 15.2386 9.21113 15.1969 9.00608 15.2596Z" stroke="#FCB43C" stroke-width="0.2" mask="url(#path-1-outside-1_1548_17722)"/>
</svg>
