<svg width="22" height="22" viewBox="0 0 22 22" fill="none" xmlns="http://www.w3.org/2000/svg">
<mask id="path-1-outside-1_1195_21245" maskUnits="userSpaceOnUse" x="0" y="0" width="22" height="22" fill="black">
<rect fill="white" width="22" height="22"/>
<path fill-rule="evenodd" clip-rule="evenodd" d="M5.60708 1.03435C5.43119 1.08814 5.18223 1.34665 5.13194 1.52776C5.10912 1.60982 5.09037 1.87315 5.09025 2.11288L5.09002 2.54879L4.33659 2.56647C3.66184 2.58231 3.54638 2.59518 3.23092 2.6896C2.2274 2.98997 1.42434 3.79113 1.10928 4.80622L1 5.15825V11.7883V18.4184L1.10928 18.7704C1.42368 19.7835 2.21726 20.5766 3.23092 20.8908L3.58317 21H11H18.4168L18.7691 20.8908C20.0645 20.4892 20.981 19.3094 20.9955 18.0246C20.9997 17.659 20.9924 17.6193 20.895 17.472C20.7329 17.2268 20.5423 17.1276 20.2339 17.1276C20.0204 17.1276 19.9497 17.1454 19.818 17.2325C19.5885 17.3843 19.4987 17.5548 19.4519 17.9279C19.3584 18.6734 19.0054 19.1482 18.3835 19.3651C18.1924 19.4317 17.8106 19.4354 11 19.4354C4.18935 19.4354 3.80759 19.4317 3.61648 19.3651C3.17659 19.2117 2.83209 18.8825 2.65648 18.4478L2.56556 18.2228V11.8079C2.56556 5.73532 2.56932 5.38219 2.63589 5.19154C2.78994 4.75032 3.12243 4.40372 3.55374 4.23474C3.74685 4.15909 3.87159 4.14423 4.43053 4.13026L5.08215 4.11395L5.09589 4.6361C5.10818 5.10412 5.11922 5.17374 5.20247 5.30756C5.25354 5.3897 5.36677 5.50411 5.45401 5.56181C5.58618 5.64923 5.65613 5.66675 5.8728 5.66675C6.08947 5.66675 6.15941 5.64923 6.29158 5.56181C6.37883 5.50411 6.49205 5.3897 6.54313 5.30756C6.62626 5.1739 6.63742 5.10396 6.64963 4.63997L6.66325 4.1217H8.41683H10.1704L10.184 4.64291C10.1968 5.13134 10.2043 5.1741 10.3027 5.32262C10.4649 5.56756 10.6555 5.66675 10.9637 5.66675C11.1773 5.66675 11.2479 5.64892 11.3796 5.56181C11.4669 5.50411 11.5801 5.3897 11.6312 5.30756C11.7143 5.1739 11.7255 5.10396 11.7377 4.63997L11.7513 4.1217H13.5245H15.2976L15.3112 4.64291C15.324 5.13134 15.3315 5.1741 15.4299 5.32262C15.5921 5.56756 15.7827 5.66675 16.0909 5.66675C16.3045 5.66675 16.3751 5.64892 16.5068 5.56181C16.5941 5.50411 16.7073 5.3897 16.7584 5.30756C16.8416 5.17374 16.8527 5.10412 16.865 4.63618L16.8787 4.11411L17.5499 4.13003C18.1202 4.14352 18.2528 4.1585 18.4316 4.22973C18.8656 4.40258 19.1723 4.70491 19.3435 5.12884L19.4344 5.35383L19.454 9.79633L19.4736 14.2388L19.5786 14.3973C19.7403 14.6415 19.9316 14.7415 20.2368 14.7415C20.542 14.7415 20.7333 14.6415 20.895 14.3973L21 14.2387V9.6985V5.15825L20.8907 4.80622C20.5757 3.79121 19.7728 2.9902 18.7691 2.68952C18.4518 2.59443 18.3405 2.58223 17.6476 2.56651L16.8783 2.54906L16.8648 2.03184C16.8521 1.5477 16.8446 1.50452 16.7463 1.35616C16.5845 1.11204 16.3932 1.01202 16.0881 1.01202C15.7829 1.01202 15.5916 1.11204 15.4299 1.35616C15.3315 1.50468 15.324 1.54743 15.3112 2.03587L15.2976 2.55708H13.5245H11.7513L11.7377 2.0388C11.7255 1.57481 11.7143 1.50487 11.6312 1.37122C11.5801 1.28907 11.4669 1.17466 11.3796 1.11697C11.2479 1.02986 11.1773 1.01202 10.9637 1.01202C10.6555 1.01202 10.4649 1.11122 10.3027 1.35616C10.2043 1.50468 10.1968 1.54743 10.184 2.03587L10.1704 2.55708H8.41683H6.66325L6.64963 2.0388C6.63742 1.57481 6.62626 1.50487 6.54313 1.37122C6.35855 1.07449 5.95303 0.928547 5.60708 1.03435ZM5.60708 8.46628C5.42059 8.52331 5.18106 8.7794 5.1272 8.97932C5.0335 9.32706 5.17272 9.69255 5.469 9.87663C5.691 10.0146 6.07323 10.0089 6.29158 9.8645C6.53589 9.70292 6.63601 9.51172 6.63601 9.2067C6.63601 8.90559 6.53609 8.7106 6.30274 8.55629C6.13487 8.44524 5.81229 8.4035 5.60708 8.46628ZM9.01217 8.46628C8.82568 8.52331 8.58614 8.7794 8.53229 8.97932C8.43859 9.32706 8.57781 9.69255 8.87409 9.87663C9.09609 10.0146 9.47832 10.0089 9.69667 9.8645C9.94098 9.70292 10.0411 9.51172 10.0411 9.2067C10.0411 8.90559 9.94117 8.7106 9.70783 8.55629C9.53996 8.44524 9.21738 8.4035 9.01217 8.46628ZM12.4173 8.46628C12.2308 8.52331 11.9912 8.7794 11.9374 8.97932C11.8437 9.32706 11.9829 9.69255 12.2792 9.87663C12.5012 10.0146 12.8834 10.0089 13.1018 9.8645C13.3461 9.70292 13.4462 9.51172 13.4462 9.2067C13.4462 8.90559 13.3463 8.7106 13.1129 8.55629C12.945 8.44524 12.6225 8.4035 12.4173 8.46628ZM15.8223 8.46628C15.6359 8.52331 15.3963 8.7794 15.3425 8.97932C15.2488 9.32706 15.388 9.69255 15.6843 9.87663C15.9063 10.0146 16.2885 10.0089 16.5068 9.8645C16.7512 9.70292 16.8513 9.51172 16.8513 9.2067C16.8513 8.90559 16.7513 8.7106 16.518 8.55629C16.3501 8.44524 16.0276 8.4035 15.8223 8.46628ZM5.60708 11.8693C5.42059 11.9264 5.18106 12.1824 5.1272 12.3824C5.0335 12.7301 5.17272 13.0956 5.469 13.2797C5.691 13.4176 6.07323 13.412 6.29158 13.2675C6.53589 13.106 6.63601 12.9148 6.63601 12.6097C6.63601 12.3086 6.53609 12.1136 6.30274 11.9593C6.13487 11.8483 5.81229 11.8065 5.60708 11.8693ZM9.01217 11.8693C8.82568 11.9264 8.58614 12.1824 8.53229 12.3824C8.43859 12.7301 8.57781 13.0956 8.87409 13.2797C9.09609 13.4176 9.47832 13.412 9.69667 13.2675C9.94098 13.106 10.0411 12.9148 10.0411 12.6097C10.0411 12.3086 9.94117 12.1136 9.70783 11.9593C9.53996 11.8483 9.21738 11.8065 9.01217 11.8693ZM12.4173 11.8693C12.2308 11.9264 11.9912 12.1824 11.9374 12.3824C11.8437 12.7301 11.9829 13.0956 12.2792 13.2797C12.5012 13.4176 12.8834 13.412 13.1018 13.2675C13.3461 13.106 13.4462 12.9148 13.4462 12.6097C13.4462 12.3086 13.3463 12.1136 13.1129 11.9593C12.945 11.8483 12.6225 11.8065 12.4173 11.8693ZM15.8223 11.8693C15.6359 11.9264 15.3963 12.1824 15.3425 12.3824C15.2488 12.7301 15.388 13.0956 15.6843 13.2797C15.9063 13.4176 16.2885 13.412 16.5068 13.2675C16.7512 13.106 16.8513 12.9148 16.8513 12.6097C16.8513 12.3086 16.7513 12.1136 16.518 11.9593C16.3501 11.8483 16.0276 11.8065 15.8223 11.8693ZM5.60708 15.2724C5.42059 15.3294 5.18106 15.5855 5.1272 15.7854C5.0335 16.1331 5.17272 16.4986 5.469 16.6827C5.691 16.8206 6.07323 16.815 6.29158 16.6706C6.53589 16.509 6.63601 16.3178 6.63601 16.0128C6.63601 15.7117 6.53609 15.5167 6.30274 15.3624C6.13487 15.2513 5.81229 15.2096 5.60708 15.2724ZM9.01217 15.2724C8.82568 15.3294 8.58614 15.5855 8.53229 15.7854C8.43859 16.1331 8.57781 16.4986 8.87409 16.6827C9.09609 16.8206 9.47832 16.815 9.69667 16.6706C9.94098 16.509 10.0411 16.3178 10.0411 16.0128C10.0411 15.7117 9.94117 15.5167 9.70783 15.3624C9.53996 15.2513 9.21738 15.2096 9.01217 15.2724ZM12.4173 15.2724C12.2308 15.3294 11.9912 15.5855 11.9374 15.7854C11.8437 16.1331 11.9829 16.4986 12.2792 16.6827C12.5012 16.8206 12.8834 16.815 13.1018 16.6706C13.3461 16.509 13.4462 16.3178 13.4462 16.0128C13.4462 15.7117 13.3463 15.5167 13.1129 15.3624C12.945 15.2513 12.6225 15.2096 12.4173 15.2724Z"/>
</mask>
<path fill-rule="evenodd" clip-rule="evenodd" d="M5.60708 1.03435C5.43119 1.08814 5.18223 1.34665 5.13194 1.52776C5.10912 1.60982 5.09037 1.87315 5.09025 2.11288L5.09002 2.54879L4.33659 2.56647C3.66184 2.58231 3.54638 2.59518 3.23092 2.6896C2.2274 2.98997 1.42434 3.79113 1.10928 4.80622L1 5.15825V11.7883V18.4184L1.10928 18.7704C1.42368 19.7835 2.21726 20.5766 3.23092 20.8908L3.58317 21H11H18.4168L18.7691 20.8908C20.0645 20.4892 20.981 19.3094 20.9955 18.0246C20.9997 17.659 20.9924 17.6193 20.895 17.472C20.7329 17.2268 20.5423 17.1276 20.2339 17.1276C20.0204 17.1276 19.9497 17.1454 19.818 17.2325C19.5885 17.3843 19.4987 17.5548 19.4519 17.9279C19.3584 18.6734 19.0054 19.1482 18.3835 19.3651C18.1924 19.4317 17.8106 19.4354 11 19.4354C4.18935 19.4354 3.80759 19.4317 3.61648 19.3651C3.17659 19.2117 2.83209 18.8825 2.65648 18.4478L2.56556 18.2228V11.8079C2.56556 5.73532 2.56932 5.38219 2.63589 5.19154C2.78994 4.75032 3.12243 4.40372 3.55374 4.23474C3.74685 4.15909 3.87159 4.14423 4.43053 4.13026L5.08215 4.11395L5.09589 4.6361C5.10818 5.10412 5.11922 5.17374 5.20247 5.30756C5.25354 5.3897 5.36677 5.50411 5.45401 5.56181C5.58618 5.64923 5.65613 5.66675 5.8728 5.66675C6.08947 5.66675 6.15941 5.64923 6.29158 5.56181C6.37883 5.50411 6.49205 5.3897 6.54313 5.30756C6.62626 5.1739 6.63742 5.10396 6.64963 4.63997L6.66325 4.1217H8.41683H10.1704L10.184 4.64291C10.1968 5.13134 10.2043 5.1741 10.3027 5.32262C10.4649 5.56756 10.6555 5.66675 10.9637 5.66675C11.1773 5.66675 11.2479 5.64892 11.3796 5.56181C11.4669 5.50411 11.5801 5.3897 11.6312 5.30756C11.7143 5.1739 11.7255 5.10396 11.7377 4.63997L11.7513 4.1217H13.5245H15.2976L15.3112 4.64291C15.324 5.13134 15.3315 5.1741 15.4299 5.32262C15.5921 5.56756 15.7827 5.66675 16.0909 5.66675C16.3045 5.66675 16.3751 5.64892 16.5068 5.56181C16.5941 5.50411 16.7073 5.3897 16.7584 5.30756C16.8416 5.17374 16.8527 5.10412 16.865 4.63618L16.8787 4.11411L17.5499 4.13003C18.1202 4.14352 18.2528 4.1585 18.4316 4.22973C18.8656 4.40258 19.1723 4.70491 19.3435 5.12884L19.4344 5.35383L19.454 9.79633L19.4736 14.2388L19.5786 14.3973C19.7403 14.6415 19.9316 14.7415 20.2368 14.7415C20.542 14.7415 20.7333 14.6415 20.895 14.3973L21 14.2387V9.6985V5.15825L20.8907 4.80622C20.5757 3.79121 19.7728 2.9902 18.7691 2.68952C18.4518 2.59443 18.3405 2.58223 17.6476 2.56651L16.8783 2.54906L16.8648 2.03184C16.8521 1.5477 16.8446 1.50452 16.7463 1.35616C16.5845 1.11204 16.3932 1.01202 16.0881 1.01202C15.7829 1.01202 15.5916 1.11204 15.4299 1.35616C15.3315 1.50468 15.324 1.54743 15.3112 2.03587L15.2976 2.55708H13.5245H11.7513L11.7377 2.0388C11.7255 1.57481 11.7143 1.50487 11.6312 1.37122C11.5801 1.28907 11.4669 1.17466 11.3796 1.11697C11.2479 1.02986 11.1773 1.01202 10.9637 1.01202C10.6555 1.01202 10.4649 1.11122 10.3027 1.35616C10.2043 1.50468 10.1968 1.54743 10.184 2.03587L10.1704 2.55708H8.41683H6.66325L6.64963 2.0388C6.63742 1.57481 6.62626 1.50487 6.54313 1.37122C6.35855 1.07449 5.95303 0.928547 5.60708 1.03435ZM5.60708 8.46628C5.42059 8.52331 5.18106 8.7794 5.1272 8.97932C5.0335 9.32706 5.17272 9.69255 5.469 9.87663C5.691 10.0146 6.07323 10.0089 6.29158 9.8645C6.53589 9.70292 6.63601 9.51172 6.63601 9.2067C6.63601 8.90559 6.53609 8.7106 6.30274 8.55629C6.13487 8.44524 5.81229 8.4035 5.60708 8.46628ZM9.01217 8.46628C8.82568 8.52331 8.58614 8.7794 8.53229 8.97932C8.43859 9.32706 8.57781 9.69255 8.87409 9.87663C9.09609 10.0146 9.47832 10.0089 9.69667 9.8645C9.94098 9.70292 10.0411 9.51172 10.0411 9.2067C10.0411 8.90559 9.94117 8.7106 9.70783 8.55629C9.53996 8.44524 9.21738 8.4035 9.01217 8.46628ZM12.4173 8.46628C12.2308 8.52331 11.9912 8.7794 11.9374 8.97932C11.8437 9.32706 11.9829 9.69255 12.2792 9.87663C12.5012 10.0146 12.8834 10.0089 13.1018 9.8645C13.3461 9.70292 13.4462 9.51172 13.4462 9.2067C13.4462 8.90559 13.3463 8.7106 13.1129 8.55629C12.945 8.44524 12.6225 8.4035 12.4173 8.46628ZM15.8223 8.46628C15.6359 8.52331 15.3963 8.7794 15.3425 8.97932C15.2488 9.32706 15.388 9.69255 15.6843 9.87663C15.9063 10.0146 16.2885 10.0089 16.5068 9.8645C16.7512 9.70292 16.8513 9.51172 16.8513 9.2067C16.8513 8.90559 16.7513 8.7106 16.518 8.55629C16.3501 8.44524 16.0276 8.4035 15.8223 8.46628ZM5.60708 11.8693C5.42059 11.9264 5.18106 12.1824 5.1272 12.3824C5.0335 12.7301 5.17272 13.0956 5.469 13.2797C5.691 13.4176 6.07323 13.412 6.29158 13.2675C6.53589 13.106 6.63601 12.9148 6.63601 12.6097C6.63601 12.3086 6.53609 12.1136 6.30274 11.9593C6.13487 11.8483 5.81229 11.8065 5.60708 11.8693ZM9.01217 11.8693C8.82568 11.9264 8.58614 12.1824 8.53229 12.3824C8.43859 12.7301 8.57781 13.0956 8.87409 13.2797C9.09609 13.4176 9.47832 13.412 9.69667 13.2675C9.94098 13.106 10.0411 12.9148 10.0411 12.6097C10.0411 12.3086 9.94117 12.1136 9.70783 11.9593C9.53996 11.8483 9.21738 11.8065 9.01217 11.8693ZM12.4173 11.8693C12.2308 11.9264 11.9912 12.1824 11.9374 12.3824C11.8437 12.7301 11.9829 13.0956 12.2792 13.2797C12.5012 13.4176 12.8834 13.412 13.1018 13.2675C13.3461 13.106 13.4462 12.9148 13.4462 12.6097C13.4462 12.3086 13.3463 12.1136 13.1129 11.9593C12.945 11.8483 12.6225 11.8065 12.4173 11.8693ZM15.8223 11.8693C15.6359 11.9264 15.3963 12.1824 15.3425 12.3824C15.2488 12.7301 15.388 13.0956 15.6843 13.2797C15.9063 13.4176 16.2885 13.412 16.5068 13.2675C16.7512 13.106 16.8513 12.9148 16.8513 12.6097C16.8513 12.3086 16.7513 12.1136 16.518 11.9593C16.3501 11.8483 16.0276 11.8065 15.8223 11.8693ZM5.60708 15.2724C5.42059 15.3294 5.18106 15.5855 5.1272 15.7854C5.0335 16.1331 5.17272 16.4986 5.469 16.6827C5.691 16.8206 6.07323 16.815 6.29158 16.6706C6.53589 16.509 6.63601 16.3178 6.63601 16.0128C6.63601 15.7117 6.53609 15.5167 6.30274 15.3624C6.13487 15.2513 5.81229 15.2096 5.60708 15.2724ZM9.01217 15.2724C8.82568 15.3294 8.58614 15.5855 8.53229 15.7854C8.43859 16.1331 8.57781 16.4986 8.87409 16.6827C9.09609 16.8206 9.47832 16.815 9.69667 16.6706C9.94098 16.509 10.0411 16.3178 10.0411 16.0128C10.0411 15.7117 9.94117 15.5167 9.70783 15.3624C9.53996 15.2513 9.21738 15.2096 9.01217 15.2724ZM12.4173 15.2724C12.2308 15.3294 11.9912 15.5855 11.9374 15.7854C11.8437 16.1331 11.9829 16.4986 12.2792 16.6827C12.5012 16.8206 12.8834 16.815 13.1018 16.6706C13.3461 16.509 13.4462 16.3178 13.4462 16.0128C13.4462 15.7117 13.3463 15.5167 13.1129 15.3624C12.945 15.2513 12.6225 15.2096 12.4173 15.2724Z" fill="#FCB43C"/>
<path fill-rule="evenodd" clip-rule="evenodd" d="M5.60708 1.03435C5.43119 1.08814 5.18223 1.34665 5.13194 1.52776C5.10912 1.60982 5.09037 1.87315 5.09025 2.11288L5.09002 2.54879L4.33659 2.56647C3.66184 2.58231 3.54638 2.59518 3.23092 2.6896C2.2274 2.98997 1.42434 3.79113 1.10928 4.80622L1 5.15825V11.7883V18.4184L1.10928 18.7704C1.42368 19.7835 2.21726 20.5766 3.23092 20.8908L3.58317 21H11H18.4168L18.7691 20.8908C20.0645 20.4892 20.981 19.3094 20.9955 18.0246C20.9997 17.659 20.9924 17.6193 20.895 17.472C20.7329 17.2268 20.5423 17.1276 20.2339 17.1276C20.0204 17.1276 19.9497 17.1454 19.818 17.2325C19.5885 17.3843 19.4987 17.5548 19.4519 17.9279C19.3584 18.6734 19.0054 19.1482 18.3835 19.3651C18.1924 19.4317 17.8106 19.4354 11 19.4354C4.18935 19.4354 3.80759 19.4317 3.61648 19.3651C3.17659 19.2117 2.83209 18.8825 2.65648 18.4478L2.56556 18.2228V11.8079C2.56556 5.73532 2.56932 5.38219 2.63589 5.19154C2.78994 4.75032 3.12243 4.40372 3.55374 4.23474C3.74685 4.15909 3.87159 4.14423 4.43053 4.13026L5.08215 4.11395L5.09589 4.6361C5.10818 5.10412 5.11922 5.17374 5.20247 5.30756C5.25354 5.3897 5.36677 5.50411 5.45401 5.56181C5.58618 5.64923 5.65613 5.66675 5.8728 5.66675C6.08947 5.66675 6.15941 5.64923 6.29158 5.56181C6.37883 5.50411 6.49205 5.3897 6.54313 5.30756C6.62626 5.1739 6.63742 5.10396 6.64963 4.63997L6.66325 4.1217H8.41683H10.1704L10.184 4.64291C10.1968 5.13134 10.2043 5.1741 10.3027 5.32262C10.4649 5.56756 10.6555 5.66675 10.9637 5.66675C11.1773 5.66675 11.2479 5.64892 11.3796 5.56181C11.4669 5.50411 11.5801 5.3897 11.6312 5.30756C11.7143 5.1739 11.7255 5.10396 11.7377 4.63997L11.7513 4.1217H13.5245H15.2976L15.3112 4.64291C15.324 5.13134 15.3315 5.1741 15.4299 5.32262C15.5921 5.56756 15.7827 5.66675 16.0909 5.66675C16.3045 5.66675 16.3751 5.64892 16.5068 5.56181C16.5941 5.50411 16.7073 5.3897 16.7584 5.30756C16.8416 5.17374 16.8527 5.10412 16.865 4.63618L16.8787 4.11411L17.5499 4.13003C18.1202 4.14352 18.2528 4.1585 18.4316 4.22973C18.8656 4.40258 19.1723 4.70491 19.3435 5.12884L19.4344 5.35383L19.454 9.79633L19.4736 14.2388L19.5786 14.3973C19.7403 14.6415 19.9316 14.7415 20.2368 14.7415C20.542 14.7415 20.7333 14.6415 20.895 14.3973L21 14.2387V9.6985V5.15825L20.8907 4.80622C20.5757 3.79121 19.7728 2.9902 18.7691 2.68952C18.4518 2.59443 18.3405 2.58223 17.6476 2.56651L16.8783 2.54906L16.8648 2.03184C16.8521 1.5477 16.8446 1.50452 16.7463 1.35616C16.5845 1.11204 16.3932 1.01202 16.0881 1.01202C15.7829 1.01202 15.5916 1.11204 15.4299 1.35616C15.3315 1.50468 15.324 1.54743 15.3112 2.03587L15.2976 2.55708H13.5245H11.7513L11.7377 2.0388C11.7255 1.57481 11.7143 1.50487 11.6312 1.37122C11.5801 1.28907 11.4669 1.17466 11.3796 1.11697C11.2479 1.02986 11.1773 1.01202 10.9637 1.01202C10.6555 1.01202 10.4649 1.11122 10.3027 1.35616C10.2043 1.50468 10.1968 1.54743 10.184 2.03587L10.1704 2.55708H8.41683H6.66325L6.64963 2.0388C6.63742 1.57481 6.62626 1.50487 6.54313 1.37122C6.35855 1.07449 5.95303 0.928547 5.60708 1.03435ZM5.60708 8.46628C5.42059 8.52331 5.18106 8.7794 5.1272 8.97932C5.0335 9.32706 5.17272 9.69255 5.469 9.87663C5.691 10.0146 6.07323 10.0089 6.29158 9.8645C6.53589 9.70292 6.63601 9.51172 6.63601 9.2067C6.63601 8.90559 6.53609 8.7106 6.30274 8.55629C6.13487 8.44524 5.81229 8.4035 5.60708 8.46628ZM9.01217 8.46628C8.82568 8.52331 8.58614 8.7794 8.53229 8.97932C8.43859 9.32706 8.57781 9.69255 8.87409 9.87663C9.09609 10.0146 9.47832 10.0089 9.69667 9.8645C9.94098 9.70292 10.0411 9.51172 10.0411 9.2067C10.0411 8.90559 9.94117 8.7106 9.70783 8.55629C9.53996 8.44524 9.21738 8.4035 9.01217 8.46628ZM12.4173 8.46628C12.2308 8.52331 11.9912 8.7794 11.9374 8.97932C11.8437 9.32706 11.9829 9.69255 12.2792 9.87663C12.5012 10.0146 12.8834 10.0089 13.1018 9.8645C13.3461 9.70292 13.4462 9.51172 13.4462 9.2067C13.4462 8.90559 13.3463 8.7106 13.1129 8.55629C12.945 8.44524 12.6225 8.4035 12.4173 8.46628ZM15.8223 8.46628C15.6359 8.52331 15.3963 8.7794 15.3425 8.97932C15.2488 9.32706 15.388 9.69255 15.6843 9.87663C15.9063 10.0146 16.2885 10.0089 16.5068 9.8645C16.7512 9.70292 16.8513 9.51172 16.8513 9.2067C16.8513 8.90559 16.7513 8.7106 16.518 8.55629C16.3501 8.44524 16.0276 8.4035 15.8223 8.46628ZM5.60708 11.8693C5.42059 11.9264 5.18106 12.1824 5.1272 12.3824C5.0335 12.7301 5.17272 13.0956 5.469 13.2797C5.691 13.4176 6.07323 13.412 6.29158 13.2675C6.53589 13.106 6.63601 12.9148 6.63601 12.6097C6.63601 12.3086 6.53609 12.1136 6.30274 11.9593C6.13487 11.8483 5.81229 11.8065 5.60708 11.8693ZM9.01217 11.8693C8.82568 11.9264 8.58614 12.1824 8.53229 12.3824C8.43859 12.7301 8.57781 13.0956 8.87409 13.2797C9.09609 13.4176 9.47832 13.412 9.69667 13.2675C9.94098 13.106 10.0411 12.9148 10.0411 12.6097C10.0411 12.3086 9.94117 12.1136 9.70783 11.9593C9.53996 11.8483 9.21738 11.8065 9.01217 11.8693ZM12.4173 11.8693C12.2308 11.9264 11.9912 12.1824 11.9374 12.3824C11.8437 12.7301 11.9829 13.0956 12.2792 13.2797C12.5012 13.4176 12.8834 13.412 13.1018 13.2675C13.3461 13.106 13.4462 12.9148 13.4462 12.6097C13.4462 12.3086 13.3463 12.1136 13.1129 11.9593C12.945 11.8483 12.6225 11.8065 12.4173 11.8693ZM15.8223 11.8693C15.6359 11.9264 15.3963 12.1824 15.3425 12.3824C15.2488 12.7301 15.388 13.0956 15.6843 13.2797C15.9063 13.4176 16.2885 13.412 16.5068 13.2675C16.7512 13.106 16.8513 12.9148 16.8513 12.6097C16.8513 12.3086 16.7513 12.1136 16.518 11.9593C16.3501 11.8483 16.0276 11.8065 15.8223 11.8693ZM5.60708 15.2724C5.42059 15.3294 5.18106 15.5855 5.1272 15.7854C5.0335 16.1331 5.17272 16.4986 5.469 16.6827C5.691 16.8206 6.07323 16.815 6.29158 16.6706C6.53589 16.509 6.63601 16.3178 6.63601 16.0128C6.63601 15.7117 6.53609 15.5167 6.30274 15.3624C6.13487 15.2513 5.81229 15.2096 5.60708 15.2724ZM9.01217 15.2724C8.82568 15.3294 8.58614 15.5855 8.53229 15.7854C8.43859 16.1331 8.57781 16.4986 8.87409 16.6827C9.09609 16.8206 9.47832 16.815 9.69667 16.6706C9.94098 16.509 10.0411 16.3178 10.0411 16.0128C10.0411 15.7117 9.94117 15.5167 9.70783 15.3624C9.53996 15.2513 9.21738 15.2096 9.01217 15.2724ZM12.4173 15.2724C12.2308 15.3294 11.9912 15.5855 11.9374 15.7854C11.8437 16.1331 11.9829 16.4986 12.2792 16.6827C12.5012 16.8206 12.8834 16.815 13.1018 16.6706C13.3461 16.509 13.4462 16.3178 13.4462 16.0128C13.4462 15.7117 13.3463 15.5167 13.1129 15.3624C12.945 15.2513 12.6225 15.2096 12.4173 15.2724Z" stroke="#FCB43C" stroke-width="0.2" mask="url(#path-1-outside-1_1195_21245)"/>
</svg>
