<svg width="17" height="12" viewBox="0 0 17 12" fill="none" xmlns="http://www.w3.org/2000/svg">
<path fill-rule="evenodd" clip-rule="evenodd" d="M15.9998 0.688477H14.9998C14.4475 0.688477 13.9998 1.13674 13.9998 1.68971V10.3671C13.9998 10.92 14.4475 11.3683 14.9998 11.3683H15.9998C16.5521 11.3683 16.9998 10.92 16.9998 10.3671V1.68971C16.9998 1.13674 16.5521 0.688477 15.9998 0.688477ZM10.3335 3.02497H11.3335C11.8858 3.02497 12.3335 3.47324 12.3335 4.0262V10.3673C12.3335 10.9203 11.8858 11.3686 11.3335 11.3686H10.3335C9.78122 11.3686 9.33351 10.9203 9.33351 10.3673V4.0262C9.33351 3.47324 9.78122 3.02497 10.3335 3.02497ZM6.66725 5.36147H5.66725C5.11496 5.36147 4.66724 5.80973 4.66724 6.3627V10.3676C4.66724 10.9206 5.11496 11.3689 5.66725 11.3689H6.66725C7.21954 11.3689 7.66726 10.9206 7.66726 10.3676V6.3627C7.66726 5.80973 7.21954 5.36147 6.66725 5.36147ZM1.99999 7.36348H0.999997C0.447714 7.36348 0 7.81175 0 8.36471V10.3672C0 10.9201 0.447714 11.3684 0.999997 11.3684H1.99999C2.55228 11.3684 2.99999 10.9201 2.99999 10.3672V8.36471C2.99999 7.81175 2.55228 7.36348 1.99999 7.36348Z" fill="white"/>
</svg>
