<svg width="20" height="18" viewBox="0 0 20 18" fill="none" xmlns="http://www.w3.org/2000/svg">
<path fill-rule="evenodd" clip-rule="evenodd" d="M16.9828 0.32906C15.4361 1.36305 13.8716 2.68167 12.0192 4.51279C10.6261 5.88975 9.34455 7.31026 8.15246 8.79867C7.99693 8.99286 7.87078 9.11206 7.83503 9.09849C7.80241 9.08608 6.90798 8.47613 5.84739 7.74298C4.17846 6.58931 3.89713 6.40987 3.75633 6.40939C3.60783 6.4089 3.53594 6.46289 2.93282 7.02805C2.23519 7.68177 2.08327 7.8782 2.13072 8.06517C2.1463 8.12673 2.53379 8.69026 2.99171 9.31747C4.7831 11.771 6.45656 14.1773 7.2515 15.4428C7.46761 15.7868 7.67567 16.0939 7.71382 16.1253C7.82471 16.2163 8.15349 16.1972 8.25084 16.0941C8.2966 16.0457 8.59048 15.5801 8.904 15.0594C10.793 11.9216 13.2228 8.3638 15.1572 5.90296C16.5819 4.09064 17.5065 3.043 18.8835 1.68097C19.4891 1.08194 19.9784 0.562392 19.9937 0.502199C20.0087 0.443018 19.996 0.334741 19.9653 0.261601C19.858 0.005196 19.8307 0 18.5995 0H17.4751L16.9828 0.32906ZM6.69796 2.4866C3.77115 2.9578 1.38595 4.93141 0.43041 7.67265C-0.709465 10.9428 0.467045 14.544 3.34035 16.5796C3.82097 16.9201 4.83447 17.4286 5.388 17.607C7.99021 18.4455 10.8294 17.9227 12.8886 16.2257C14.5682 14.8417 15.5516 12.9697 15.7434 10.7916C15.7997 10.1529 15.7492 9.25583 15.6279 8.73958C15.5367 8.35182 15.2949 8.19775 14.9976 8.338C14.7504 8.45464 14.7346 8.5402 14.8249 9.2745C15.0044 10.7335 14.7768 12.0688 14.1349 13.3231C13.7727 14.0308 13.436 14.4816 12.8034 15.1059C11.9937 15.905 11.2111 16.3952 10.1758 16.7516C9.34037 17.0393 8.93293 17.1026 7.90305 17.1049C7.11097 17.1066 6.92659 17.0934 6.50629 17.0044C5.14317 16.7158 3.96079 16.0937 2.9914 15.155C1.92284 14.1203 1.25348 12.8701 0.971658 11.3826C0.863533 10.8118 0.865447 9.59004 0.975397 9.00479C1.33129 7.11048 2.4299 5.46514 4.03869 4.41706C5.75845 3.29668 7.86588 2.98017 9.83946 3.54591C10.3152 3.68228 10.4414 3.68272 10.5879 3.54842C10.7539 3.39624 10.7841 3.23142 10.681 3.04093C10.607 2.90412 10.5508 2.86916 10.24 2.76612C9.50708 2.5231 9.07017 2.45868 8.03659 2.44129C7.35949 2.42988 6.96794 2.44314 6.69796 2.4866Z" fill="#FCB43C"/>
</svg>
