<svg width="24" height="24" viewBox="0 0 24 24" fill="none" xmlns="http://www.w3.org/2000/svg">
<path fill-rule="evenodd" clip-rule="evenodd" d="M10.917 0.035172C8.0497 0.313046 5.45854 1.53826 3.4581 3.56208C1.55267 5.48982 0.417468 7.82264 0.0569995 10.5514C-0.0189998 11.1267 -0.0189998 12.8872 0.0569995 13.4626C0.417468 16.1913 1.55267 18.5242 3.4581 20.4519C4.46168 21.4672 5.40226 22.1423 6.70777 22.7845C8.42801 23.6306 10.0185 23.9983 11.9653 24C13.0165 24.0009 13.4972 23.9577 14.3593 23.7848C17.1897 23.2172 19.6839 21.6681 21.5173 19.3393C22.1786 18.4993 22.8873 17.2045 23.2736 16.1304C25.7577 9.22435 21.6365 1.78454 14.4767 0.24994C13.4977 0.0401492 11.8757 -0.05775 10.917 0.035172ZM13.1951 1.9355C13.935 2.02978 14.5503 2.16214 15.1398 2.35371C18.4642 3.43417 21.0183 6.18465 21.8399 9.56919C23.4303 16.1201 18.4069 22.3495 11.7071 22.1347C10.5543 22.0978 9.75337 21.96 8.73384 21.6232C5.955 20.7052 3.6369 18.4956 2.53569 15.7151C2.03585 14.4531 1.82212 13.1869 1.86221 11.7253C1.89056 10.6901 1.98491 10.0542 2.24192 9.16627C2.74101 7.44156 3.6315 5.98166 4.97715 4.68188C6.56633 3.14686 8.47011 2.23811 10.7213 1.93986C11.3878 1.85159 12.5208 1.84957 13.1951 1.9355ZM8.33295 7.83602C8.10331 7.94974 7.88705 8.24471 7.83677 8.51277C7.81785 8.61339 7.83377 8.77392 7.87723 8.9223C7.94375 9.14904 8.0467 9.26408 9.33469 10.5508L10.7206 11.9352L9.36479 13.2976C8.61911 14.0469 7.9768 14.724 7.93746 14.8024C7.70022 15.2748 7.88005 15.8365 8.34595 16.0785C8.54278 16.1807 8.96474 16.1763 9.17223 16.0698C9.26259 16.0234 9.94973 15.376 10.6992 14.6312L12.0619 13.2769L13.3984 14.6172C14.1555 15.3765 14.8161 15.9998 14.9222 16.0549C15.3238 16.2638 15.8596 16.1293 16.1052 15.7581C16.2688 15.5109 16.308 15.1017 16.1906 14.867C16.1466 14.7789 15.4952 14.0892 14.7431 13.3342L13.3756 11.9615L14.7457 10.586C15.6413 9.6868 16.1409 9.1504 16.1882 9.03724C16.5135 8.25842 15.7226 7.47119 14.9696 7.82428C14.8485 7.88105 14.3069 8.38914 13.4443 9.25535C12.7086 9.99403 12.0859 10.5984 12.0605 10.5984C12.0351 10.5984 11.4012 9.98665 10.6519 9.23896C9.75135 8.34035 9.23044 7.85489 9.11505 7.80686C8.87091 7.70516 8.57494 7.71619 8.33295 7.83602Z" fill="#EB5757"/>
</svg>
