<svg width="21" height="21" viewBox="0 0 21 21" fill="none" xmlns="http://www.w3.org/2000/svg">
<path fill-rule="evenodd" clip-rule="evenodd" d="M19.9852 3.09302C20.1017 2.97661 20.1942 2.83837 20.2574 2.68621C20.3205 2.53405 20.3531 2.37095 20.3532 2.20621C20.3533 2.04147 20.3209 1.87832 20.258 1.72608C20.195 1.57385 20.1027 1.4355 19.9863 1.31894C19.8699 1.20238 19.7316 1.10989 19.5795 1.04675C19.4273 0.983616 19.2642 0.951068 19.0995 0.950966C18.9347 0.950865 18.7716 0.983213 18.6194 1.04616C18.4671 1.10911 18.3288 1.20143 18.2122 1.31785L10.6471 8.88307L3.0842 1.31785C2.8488 1.08244 2.52953 0.950195 2.19663 0.950195C1.86372 0.950195 1.54445 1.08244 1.30905 1.31785C1.07365 1.55325 0.941406 1.87253 0.941406 2.20544C0.941406 2.53835 1.07365 2.85762 1.30905 3.09302L8.87415 10.6561L1.30905 18.2191C1.19249 18.3357 1.10003 18.474 1.03695 18.6263C0.973873 18.7786 0.941406 18.9419 0.941406 19.1067C0.941406 19.2715 0.973873 19.4348 1.03695 19.5871C1.10003 19.7393 1.19249 19.8777 1.30905 19.9943C1.54445 20.2297 1.86372 20.3619 2.19663 20.3619C2.36146 20.3619 2.52469 20.3295 2.67698 20.2664C2.82927 20.2033 2.96764 20.1108 3.0842 19.9943L10.6471 12.4291L18.2122 19.9943C18.4476 20.2294 18.7668 20.3614 19.0995 20.3612C19.4322 20.361 19.7512 20.2286 19.9863 19.9932C20.2214 19.7578 20.3534 19.4386 20.3532 19.1059C20.3529 18.7732 20.2206 18.4542 19.9852 18.2191L12.4201 10.6561L19.9852 3.09302Z" fill="#001540"/>
</svg>
