<svg width="20" height="20" viewBox="0 0 20 20" fill="none" xmlns="http://www.w3.org/2000/svg">
<path fill-rule="evenodd" clip-rule="evenodd" d="M19.295 18.3023L18.2341 14.3432C18.1733 14.1214 18.2037 13.8821 18.308 13.6733C19.2341 11.8156 19.5428 9.59677 18.9732 7.28227C18.1994 4.14986 15.756 1.63523 12.6344 0.804276C11.7823 0.582397 10.9432 0.473633 10.1302 0.473633C4.29567 0.473633 -0.260631 5.951 1.31321 12.0461C2.04361 14.8653 5.05216 17.7845 7.88246 18.4719C8.64764 18.659 9.39978 18.746 10.1302 18.746C11.6997 18.746 13.1692 18.3414 14.4604 17.6453C14.6039 17.567 14.7647 17.5235 14.9213 17.5235C14.9995 17.5235 15.0778 17.5322 15.156 17.554L19.008 18.585C19.0298 18.5894 19.0515 18.5938 19.0689 18.5938C19.2167 18.5938 19.3341 18.4545 19.295 18.3023ZM17.0168 14.6695L17.6168 16.9101L15.4821 16.3402C15.2995 16.2923 15.1125 16.2662 14.9213 16.2662C14.5561 16.2662 14.1865 16.3619 13.8561 16.5403C12.6953 17.1668 11.4432 17.4844 10.1302 17.4844C9.48238 17.4844 8.82589 17.4017 8.1781 17.2451C5.78256 16.6621 3.14355 14.0866 2.53489 11.7286C1.90014 9.26613 2.40011 6.73845 3.90439 4.79375C5.40866 2.84904 7.67812 1.7353 10.1302 1.7353C10.8519 1.7353 11.5866 1.83101 12.3127 2.02679C14.9952 2.74028 17.0777 4.87206 17.7516 7.58681C18.2254 9.50106 18.0298 11.411 17.182 13.112C16.9385 13.5993 16.8777 14.1518 17.0168 14.6695Z" fill="black" stroke="black" stroke-width="0.588081"/>
</svg>
