<svg width="23" height="22" viewBox="0 0 23 22" fill="none" xmlns="http://www.w3.org/2000/svg">
<path fill-rule="evenodd" clip-rule="evenodd" d="M22.1729 20.99L20.9558 16.44C20.886 16.185 20.9209 15.91 21.0406 15.67C22.1031 13.535 22.4572 10.985 21.8038 8.325C20.9159 4.725 18.1126 1.835 14.5311 0.88C13.5535 0.625 12.5908 0.5 11.658 0.5C4.96395 0.5 -0.263585 6.795 1.54211 13.8C2.38011 17.04 5.83188 20.395 9.07914 21.185C9.95704 21.4 10.82 21.5 11.658 21.5C13.4587 21.5 15.1447 21.035 16.6261 20.235C16.7907 20.145 16.9753 20.095 17.1549 20.095C17.2447 20.095 17.3345 20.105 17.4242 20.13L21.8437 21.315C21.8686 21.32 21.8936 21.325 21.9135 21.325C22.0831 21.325 22.2178 21.165 22.1729 20.99ZM19.5591 16.815L20.2475 19.39L17.7983 18.735C17.5888 18.68 17.3744 18.65 17.1549 18.65C16.7359 18.65 16.3119 18.76 15.9328 18.965C14.601 19.685 13.1644 20.05 11.658 20.05C10.9148 20.05 10.1616 19.955 9.41833 19.775C6.66988 19.105 3.6421 16.145 2.94377 13.435C2.2155 10.605 2.78914 7.7 4.51502 5.465C6.24091 3.23 8.8447 1.95 11.658 1.95C12.486 1.95 13.329 2.06 14.162 2.285C17.2397 3.105 19.629 5.555 20.4021 8.675C20.9458 10.875 20.7214 13.07 19.7487 15.025C19.4694 15.585 19.3995 16.22 19.5591 16.815Z" fill="white" stroke="white"/>
</svg>
