<svg width="25" height="20" viewBox="0 0 25 20" fill="none" xmlns="http://www.w3.org/2000/svg">
<path d="M0 5.93624C0.180471 5.54307 0.496294 5.39483 0.915243 5.40127C1.44376 5.40772 1.97873 5.40127 2.50725 5.40127C2.84241 5.40127 2.84886 5.39483 2.84886 5.06611C2.84886 4.92432 2.84886 4.77607 2.86175 4.63427C2.90686 4.17665 3.10667 3.95106 3.5514 3.85438C4.55688 3.64169 5.5688 3.42899 6.57428 3.21629C9.1331 2.68133 11.6919 2.14636 14.2507 1.61139C14.4119 1.57917 14.4892 1.48893 14.5537 1.34713C14.8953 0.573688 15.4947 0.122512 16.339 0.00649489C17.4863 -0.148194 18.6142 0.721932 18.756 1.86921C18.7818 2.07546 18.7947 2.28816 18.7947 2.49441C18.7947 6.32296 18.7947 10.1451 18.7947 13.9736C18.7947 14.7986 18.5111 15.4883 17.815 15.9652C16.6871 16.7387 15.1273 16.294 14.5794 15.0436C14.4892 14.8373 14.3732 14.7471 14.1605 14.7084C13.6255 14.6053 13.0841 14.4957 12.5556 14.3732C12.388 14.3346 12.3107 14.3732 12.2527 14.5408C11.7628 15.8879 10.8025 16.6871 9.38447 16.9385C9.24911 16.9643 9.11376 16.9707 8.97841 16.9643C8.81083 16.9578 8.75927 17.0287 8.75927 17.1963C8.75282 17.5637 8.79149 17.9375 8.72059 18.3049C8.53368 19.2846 7.63777 20.0581 6.57428 19.9872C5.39478 19.9034 4.58266 19.0332 4.57622 17.9053C4.56977 16.2811 4.56977 14.6504 4.57622 13.0262C4.57622 12.7877 4.50532 12.6781 4.26684 12.6459C3.99613 12.6072 3.73187 12.5428 3.46117 12.4783C3.11312 12.3881 2.90686 12.1689 2.86175 11.808C2.82952 11.5437 2.83597 11.2795 2.84241 11.0088C2.84886 10.8089 2.77796 10.738 2.57815 10.7445C2.00451 10.7574 1.43087 10.7316 0.86368 10.7509C0.464067 10.7638 0.180471 10.6091 0 10.2418C0 8.80443 0 7.37356 0 5.93624ZM14.3925 8.19857C14.3925 6.60656 14.3925 5.00811 14.399 3.4161C14.399 3.2034 14.3603 3.1325 14.1218 3.18407C12.5749 3.51922 11.0216 3.83505 9.46826 4.16376C7.84402 4.50537 6.22623 4.84053 4.602 5.18213C4.46665 5.20791 4.36352 5.24659 4.36352 5.42061C4.36996 7.26399 4.36996 9.10737 4.36352 10.9507C4.36352 11.099 4.42797 11.1506 4.55688 11.1699C4.78891 11.215 5.0145 11.2666 5.24009 11.3117C8.18563 11.9304 11.1312 12.5492 14.0703 13.168C14.3861 13.2324 14.3861 13.2324 14.3861 12.9037C14.3925 11.3375 14.3925 9.76479 14.3925 8.19857ZM15.9072 8.18568C15.9072 10.1 15.9072 12.0207 15.9072 13.935C15.9072 14.0445 15.9072 14.1605 15.9201 14.2701C15.9652 14.6633 16.3713 14.934 16.7515 14.8309C17.1189 14.7342 17.2994 14.4764 17.2994 14.0252C17.2994 10.1193 17.2994 6.21339 17.2994 2.31394C17.2994 2.24949 17.2994 2.18503 17.2929 2.12058C17.2543 1.8112 17.0029 1.54694 16.7 1.50827C16.3906 1.46315 16.0812 1.64362 15.9588 1.93366C15.9007 2.07546 15.9136 2.21726 15.9136 2.3655C15.9007 4.30556 15.9072 6.24562 15.9072 8.18568ZM6.09733 15.5914C6.09733 16.3649 6.09733 17.1383 6.10377 17.9117C6.10377 18.2534 6.36159 18.4983 6.68385 18.4918C7.00612 18.4918 7.25105 18.2662 7.25105 17.9246C7.25749 16.4358 7.25749 14.9469 7.25749 13.458C7.25749 13.3162 7.19948 13.2582 7.06413 13.2324C6.8321 13.1937 6.60651 13.1357 6.38092 13.0906C6.12955 13.039 6.10377 13.0519 6.10377 13.3226C6.09733 14.0768 6.09733 14.8309 6.09733 15.5914ZM1.46955 8.09544C1.46955 8.41771 1.47599 8.73998 1.46955 9.06225C1.46955 9.20405 1.51466 9.2685 1.66291 9.26205C1.99162 9.25561 2.32034 9.25561 2.64905 9.26205C2.81018 9.2685 2.8553 9.18471 2.8553 9.03647C2.8553 8.40482 2.8553 7.76673 2.8553 7.13508C2.8553 6.98039 2.79729 6.91594 2.6426 6.92238C2.32034 6.92883 1.99807 6.92883 1.6758 6.92238C1.52111 6.91594 1.4631 6.97395 1.4631 7.13508C1.47599 7.4509 1.46955 7.77317 1.46955 8.09544ZM8.76571 14.5473C8.76571 14.8051 8.76571 15.0629 8.76571 15.3207C8.76571 15.4367 8.80438 15.5012 8.93329 15.4947C9.73896 15.4496 10.448 15.0113 10.7896 14.2121C10.8476 14.0768 10.8025 14.0187 10.6735 13.993C10.0999 13.8769 9.52627 13.7609 8.95263 13.632C8.79149 13.5933 8.75282 13.6578 8.75927 13.7996C8.77216 14.051 8.76571 14.2959 8.76571 14.5473Z" fill="#E8ECEF"/>
<path d="M22.4879 7.32849C22.9713 7.32849 23.4547 7.32849 23.9381 7.32849C24.4344 7.33494 24.7631 7.63142 24.7696 8.07616C24.7696 8.52089 24.4473 8.83671 23.951 8.84315C22.9778 8.8496 22.0045 8.8496 21.0248 8.84315C20.5478 8.84315 20.1933 8.508 20.1998 8.0826C20.2062 7.65721 20.5543 7.33494 21.0377 7.33494C21.5211 7.32849 22.0045 7.32849 22.4879 7.32849Z" fill="#E8ECEF"/>
<path d="M21.5598 3.30005C21.2505 3.2936 21.0249 3.1518 20.8895 2.86821C20.7542 2.57816 20.7993 2.24301 21.0507 2.02386C21.5598 1.57913 22.0819 1.14729 22.6169 0.734787C22.9263 0.496308 23.3774 0.586544 23.6095 0.889476C23.848 1.19885 23.8286 1.63714 23.5321 1.89495C23.0358 2.32679 22.5202 2.7393 22.0046 3.15825C21.8886 3.26137 21.7339 3.30649 21.5598 3.30005Z" fill="#E8ECEF"/>
<path d="M21.6177 12.8844C21.7853 12.8715 21.9464 12.9553 22.0818 13.0713C22.5459 13.4516 23.0164 13.8318 23.4804 14.225C23.822 14.515 23.8736 14.9598 23.6222 15.282C23.3515 15.6237 22.9133 15.6881 22.5523 15.4045C22.0496 15.0113 21.5662 14.6053 21.0828 14.1928C20.825 13.9736 20.7605 13.6385 20.8894 13.3355C21.0054 13.0391 21.2697 12.8779 21.6177 12.8844Z" fill="#E8ECEF"/>
</svg>
