<svg width="328" height="151" viewBox="0 0 328 151" fill="none" xmlns="http://www.w3.org/2000/svg">
<rect width="328" height="151" rx="10" fill="url(#paint0_linear_517_4773)"/>
<g clip-path="url(#clip0_517_4773)">
<path d="M308 20.0071C308 24.9207 308 29.8414 308 34.7551C307.88 34.7621 307.768 34.7621 307.648 34.7621C299.878 34.7621 292.115 34.7621 284.345 34.7621C284.225 34.7621 284.113 34.7551 283.993 34.7551C283.993 29.8414 283.993 24.9207 283.993 20.0071C284.12 20.0071 284.232 20 284.352 20C292.122 20 299.885 20 307.655 20C307.768 20 307.887 20.0071 308 20.0071ZM303.556 24.3748C303.401 24.3748 303.246 24.3748 303.085 24.3748C302.719 24.3748 302.459 24.5307 302.318 24.8782C301.587 26.6437 300.856 28.4021 300.124 30.1676C300.061 30.3236 300.075 30.4087 300.265 30.4087C300.645 30.4087 301.031 30.4087 301.411 30.4087C301.545 30.4087 301.629 30.3519 301.671 30.2243C301.728 30.047 301.798 29.8698 301.861 29.6925C301.903 29.5649 301.981 29.5011 302.121 29.5011C302.677 29.5082 303.232 29.5082 303.781 29.5011C303.907 29.5011 303.985 29.5578 304.013 29.6854C304.041 29.8343 304.083 29.9761 304.104 30.125C304.132 30.3378 304.231 30.4228 304.442 30.4157C304.723 30.4016 305.004 30.4016 305.286 30.4157C305.518 30.4299 305.546 30.3307 305.504 30.1321C305.124 28.3099 304.744 26.4877 304.372 24.6584C304.329 24.4527 304.245 24.3535 304.027 24.3748C303.865 24.3889 303.711 24.3748 303.556 24.3748ZM286.532 24.3748C286.524 24.396 286.517 24.4173 286.51 24.4386C286.911 24.7364 287.298 25.0554 287.713 25.332C288.036 25.5447 288.198 25.8212 288.289 26.197C288.613 27.5087 288.972 28.8133 289.309 30.125C289.365 30.3378 289.464 30.4228 289.682 30.4157C290.04 30.4016 290.399 30.4016 290.758 30.4157C290.941 30.4228 291.039 30.3448 291.102 30.1747C291.208 29.8769 291.334 29.5933 291.454 29.2955C292.08 27.7498 292.706 26.2041 293.324 24.6584C293.437 24.3818 293.437 24.3818 293.127 24.3818C292.79 24.3818 292.452 24.396 292.122 24.3748C291.904 24.3606 291.805 24.4527 291.735 24.6513C291.306 25.8425 290.863 27.0266 290.427 28.2177C290.399 28.3028 290.392 28.4021 290.294 28.4588C290.23 28.395 290.223 28.317 290.209 28.239C289.977 27.0407 289.738 25.8496 289.513 24.6513C289.478 24.4527 289.401 24.3748 289.19 24.3748C288.634 24.3889 288.079 24.3818 287.523 24.3818C287.2 24.3748 286.862 24.3748 286.532 24.3748ZM297.326 30.4937C298.162 30.5008 298.866 30.359 299.47 29.8698C300.18 29.2884 300.546 27.8845 299.337 27.1116C299.091 26.9556 298.837 26.8209 298.584 26.6862C298.423 26.594 298.254 26.5019 298.113 26.3742C297.86 26.1473 297.881 25.8566 298.162 25.6581C298.338 25.5305 298.549 25.495 298.76 25.4809C299.161 25.4596 299.555 25.5163 299.927 25.6794C300.103 25.7574 300.159 25.7077 300.18 25.5305C300.216 25.2681 300.251 24.9987 300.307 24.7364C300.342 24.5591 300.279 24.4811 300.117 24.4315C299.548 24.2613 298.964 24.2329 298.38 24.3109C297.783 24.396 297.248 24.6158 296.826 25.0696C296.243 25.7007 296.102 26.7642 297.002 27.452C297.262 27.6505 297.544 27.7994 297.825 27.9483C298.015 28.0405 298.197 28.1468 298.352 28.2957C298.619 28.5652 298.584 28.9126 298.268 29.1111C298.071 29.2387 297.853 29.2813 297.621 29.2955C297.101 29.3167 296.608 29.2175 296.144 28.9977C295.968 28.9197 295.905 28.9693 295.877 29.1466C295.842 29.4089 295.807 29.6783 295.75 29.9407C295.708 30.1463 295.779 30.2456 295.975 30.3023C296.44 30.4228 296.918 30.5079 297.326 30.4937ZM294.892 24.3748C294.731 24.3748 294.562 24.3818 294.4 24.3748C294.203 24.3606 294.119 24.4457 294.091 24.6371C294.013 25.1831 293.922 25.7219 293.831 26.2679C293.627 27.5583 293.416 28.8488 293.205 30.1321C293.17 30.3307 293.24 30.4087 293.437 30.4087C293.76 30.4016 294.077 30.4016 294.4 30.4087C294.604 30.4157 294.689 30.3378 294.717 30.1321C294.892 28.9977 295.082 27.8632 295.265 26.7288C295.378 26.041 295.49 25.3461 295.596 24.6584C295.638 24.396 295.624 24.3748 295.35 24.3748C295.202 24.3748 295.047 24.3748 294.892 24.3748Z" fill="white"/>
<path d="M303.028 28.296C302.867 28.296 302.698 28.296 302.536 28.296C302.417 28.296 302.381 28.2392 302.417 28.1329C302.656 27.4664 302.902 26.807 303.141 26.1405C303.155 26.105 303.162 26.0625 303.218 26.0625C303.268 26.0696 303.275 26.1121 303.282 26.1476C303.415 26.807 303.556 27.4664 303.689 28.1329C303.711 28.2463 303.654 28.2889 303.549 28.2889C303.373 28.296 303.204 28.296 303.028 28.296Z" fill="white"/>
</g>
<path d="M217.63 100.86H224.546V99.236H220.416C222.04 97.864 224.322 96.016 224.322 93.65C224.322 91.872 223.216 90.57 221.018 90.57C219.184 90.57 217.686 91.648 217.616 93.986H219.52C219.534 92.908 220.052 92.236 220.99 92.236C221.956 92.236 222.362 92.852 222.362 93.762C222.362 95.638 219.94 97.444 217.63 99.404V100.86ZM225.809 93.482H227.727C227.797 92.838 228.203 92.222 229.155 92.222C230.051 92.222 230.541 92.698 230.541 93.496C230.541 94.504 229.701 94.826 228.553 94.826H228.147V96.436H228.553C230.009 96.436 230.737 96.856 230.737 98.004C230.737 98.816 230.233 99.432 229.253 99.432C228.203 99.432 227.615 98.802 227.573 97.92H225.669C225.753 100.062 227.279 101.07 229.295 101.07C231.437 101.07 232.613 99.838 232.613 98.172C232.613 96.786 231.927 95.946 230.891 95.624V95.568C231.633 95.316 232.431 94.532 232.431 93.258C232.431 91.746 231.311 90.556 229.211 90.556C227.251 90.556 225.907 91.592 225.809 93.482ZM238.978 101H240.938V99.012H242.17V97.304H240.938V90.92H238.656L234.078 97.472V99.012H238.978V101ZM236.234 97.304L239.104 93.02V97.304H236.234ZM243.95 90.766V96.758H245.826C246.036 96.128 246.554 95.68 247.366 95.68C248.472 95.68 249.046 96.31 249.046 97.458C249.046 98.536 248.528 99.348 247.38 99.348C246.428 99.348 245.854 98.83 245.686 98.116H243.782C243.95 99.782 245.21 101 247.408 101C249.732 101 250.936 99.516 250.936 97.43C250.936 95.848 250.124 94.056 247.744 94.056C246.89 94.056 246.12 94.42 245.742 94.882V92.488H250.278V90.766H243.95Z" fill="white"/>
<path d="M24.408 120.696V129H23.316V122.808L20.556 129H19.788L17.016 122.796V129H15.924V120.696H17.1L20.172 127.56L23.244 120.696H24.408ZM25.8519 125.688C25.8519 125.016 25.9879 124.428 26.2599 123.924C26.5319 123.412 26.9039 123.016 27.3759 122.736C27.8559 122.456 28.3879 122.316 28.9719 122.316C29.5479 122.316 30.0479 122.44 30.4719 122.688C30.8959 122.936 31.2119 123.248 31.4199 123.624V122.424H32.5239V129H31.4199V127.776C31.2039 128.16 30.8799 128.48 30.4479 128.736C30.0239 128.984 29.5279 129.108 28.9599 129.108C28.3759 129.108 27.8479 128.964 27.3759 128.676C26.9039 128.388 26.5319 127.984 26.2599 127.464C25.9879 126.944 25.8519 126.352 25.8519 125.688ZM31.4199 125.7C31.4199 125.204 31.3199 124.772 31.1199 124.404C30.9199 124.036 30.6479 123.756 30.3039 123.564C29.9679 123.364 29.5959 123.264 29.1879 123.264C28.7799 123.264 28.4079 123.36 28.0719 123.552C27.7359 123.744 27.4679 124.024 27.2679 124.392C27.0679 124.76 26.9679 125.192 26.9679 125.688C26.9679 126.192 27.0679 126.632 27.2679 127.008C27.4679 127.376 27.7359 127.66 28.0719 127.86C28.4079 128.052 28.7799 128.148 29.1879 128.148C29.5959 128.148 29.9679 128.052 30.3039 127.86C30.6479 127.66 30.9199 127.376 31.1199 127.008C31.3199 126.632 31.4199 126.196 31.4199 125.7ZM37.5733 122.304C38.3733 122.304 39.0213 122.548 39.5173 123.036C40.0133 123.516 40.2613 124.212 40.2613 125.124V129H39.1813V125.28C39.1813 124.624 39.0173 124.124 38.6893 123.78C38.3613 123.428 37.9133 123.252 37.3453 123.252C36.7693 123.252 36.3093 123.432 35.9653 123.792C35.6293 124.152 35.4613 124.676 35.4613 125.364V129H34.3693V122.424H35.4613V123.36C35.6773 123.024 35.9693 122.764 36.3373 122.58C36.7133 122.396 37.1253 122.304 37.5733 122.304ZM41.6371 125.688C41.6371 125.016 41.7731 124.428 42.0451 123.924C42.3171 123.412 42.6891 123.016 43.1611 122.736C43.6411 122.456 44.1731 122.316 44.7571 122.316C45.3331 122.316 45.8331 122.44 46.2571 122.688C46.6811 122.936 46.9971 123.248 47.2051 123.624V122.424H48.3091V129H47.2051V127.776C46.9891 128.16 46.6651 128.48 46.2331 128.736C45.8091 128.984 45.3131 129.108 44.7451 129.108C44.1611 129.108 43.6331 128.964 43.1611 128.676C42.6891 128.388 42.3171 127.984 42.0451 127.464C41.7731 126.944 41.6371 126.352 41.6371 125.688ZM47.2051 125.7C47.2051 125.204 47.1051 124.772 46.9051 124.404C46.7051 124.036 46.4331 123.756 46.0891 123.564C45.7531 123.364 45.3811 123.264 44.9731 123.264C44.5651 123.264 44.1931 123.36 43.8571 123.552C43.5211 123.744 43.2531 124.024 43.0531 124.392C42.8531 124.76 42.7531 125.192 42.7531 125.688C42.7531 126.192 42.8531 126.632 43.0531 127.008C43.2531 127.376 43.5211 127.66 43.8571 127.86C44.1931 128.052 44.5651 128.148 44.9731 128.148C45.3811 128.148 45.7531 128.052 46.0891 127.86C46.4331 127.66 46.7051 127.376 46.9051 127.008C47.1051 126.632 47.2051 126.196 47.2051 125.7ZM53.3585 122.304C54.1585 122.304 54.8065 122.548 55.3025 123.036C55.7985 123.516 56.0465 124.212 56.0465 125.124V129H54.9665V125.28C54.9665 124.624 54.8025 124.124 54.4745 123.78C54.1465 123.428 53.6985 123.252 53.1305 123.252C52.5545 123.252 52.0945 123.432 51.7505 123.792C51.4145 124.152 51.2465 124.676 51.2465 125.364V129H50.1545V122.424H51.2465V123.36C51.4625 123.024 51.7545 122.764 52.1225 122.58C52.4985 122.396 52.9105 122.304 53.3585 122.304ZM63.6815 129.084C63.1295 129.084 62.6335 128.988 62.1935 128.796C61.7615 128.596 61.4215 128.324 61.1735 127.98C60.9255 127.628 60.7975 127.224 60.7895 126.768H61.9535C61.9935 127.16 62.1535 127.492 62.4335 127.764C62.7215 128.028 63.1375 128.16 63.6815 128.16C64.2015 128.16 64.6095 128.032 64.9055 127.776C65.2095 127.512 65.3615 127.176 65.3615 126.768C65.3615 126.448 65.2735 126.188 65.0975 125.988C64.9215 125.788 64.7015 125.636 64.4375 125.532C64.1735 125.428 63.8175 125.316 63.3695 125.196C62.8175 125.052 62.3735 124.908 62.0375 124.764C61.7095 124.62 61.4255 124.396 61.1855 124.092C60.9535 123.78 60.8375 123.364 60.8375 122.844C60.8375 122.388 60.9535 121.984 61.1855 121.632C61.4175 121.28 61.7415 121.008 62.1575 120.816C62.5815 120.624 63.0655 120.528 63.6095 120.528C64.3935 120.528 65.0335 120.724 65.5295 121.116C66.0335 121.508 66.3175 122.028 66.3815 122.676H65.1815C65.1415 122.356 64.9735 122.076 64.6775 121.836C64.3815 121.588 63.9895 121.464 63.5015 121.464C63.0455 121.464 62.6735 121.584 62.3855 121.824C62.0975 122.056 61.9535 122.384 61.9535 122.808C61.9535 123.112 62.0375 123.36 62.2055 123.552C62.3815 123.744 62.5935 123.892 62.8415 123.996C63.0975 124.092 63.4535 124.204 63.9095 124.332C64.4615 124.484 64.9055 124.636 65.2415 124.788C65.5775 124.932 65.8655 125.16 66.1055 125.472C66.3455 125.776 66.4655 126.192 66.4655 126.72C66.4655 127.128 66.3575 127.512 66.1415 127.872C65.9255 128.232 65.6055 128.524 65.1815 128.748C64.7575 128.972 64.2575 129.084 63.6815 129.084ZM71.3364 122.304C71.8324 122.304 72.2804 122.412 72.6804 122.628C73.0804 122.836 73.3924 123.152 73.6164 123.576C73.8484 124 73.9644 124.516 73.9644 125.124V129H72.8844V125.28C72.8844 124.624 72.7204 124.124 72.3924 123.78C72.0644 123.428 71.6164 123.252 71.0484 123.252C70.4724 123.252 70.0124 123.432 69.6684 123.792C69.3324 124.152 69.1644 124.676 69.1644 125.364V129H68.0724V120.12H69.1644V123.36C69.3804 123.024 69.6764 122.764 70.0524 122.58C70.4364 122.396 70.8644 122.304 71.3364 122.304ZM75.3402 125.688C75.3402 125.016 75.4762 124.428 75.7482 123.924C76.0202 123.412 76.3922 123.016 76.8642 122.736C77.3442 122.456 77.8762 122.316 78.4602 122.316C79.0362 122.316 79.5362 122.44 79.9602 122.688C80.3842 122.936 80.7002 123.248 80.9082 123.624V122.424H82.0122V129H80.9082V127.776C80.6922 128.16 80.3682 128.48 79.9362 128.736C79.5122 128.984 79.0162 129.108 78.4482 129.108C77.8642 129.108 77.3362 128.964 76.8642 128.676C76.3922 128.388 76.0202 127.984 75.7482 127.464C75.4762 126.944 75.3402 126.352 75.3402 125.688ZM80.9082 125.7C80.9082 125.204 80.8082 124.772 80.6082 124.404C80.4082 124.036 80.1362 123.756 79.7922 123.564C79.4562 123.364 79.0842 123.264 78.6762 123.264C78.2682 123.264 77.8962 123.36 77.5602 123.552C77.2242 123.744 76.9562 124.024 76.7562 124.392C76.5562 124.76 76.4562 125.192 76.4562 125.688C76.4562 126.192 76.5562 126.632 76.7562 127.008C76.9562 127.376 77.2242 127.66 77.5602 127.86C77.8962 128.052 78.2682 128.148 78.6762 128.148C79.0842 128.148 79.4562 128.052 79.7922 127.86C80.1362 127.66 80.4082 127.376 80.6082 127.008C80.8082 126.632 80.9082 126.196 80.9082 125.7ZM84.9496 123.492C85.1416 123.116 85.4136 122.824 85.7656 122.616C86.1256 122.408 86.5616 122.304 87.0736 122.304V123.432H86.7856C85.5616 123.432 84.9496 124.096 84.9496 125.424V129H83.8576V122.424H84.9496V123.492ZM96.2422 122.304C96.7542 122.304 97.2102 122.412 97.6102 122.628C98.0102 122.836 98.3262 123.152 98.5582 123.576C98.7902 124 98.9062 124.516 98.9062 125.124V129H97.8262V125.28C97.8262 124.624 97.6622 124.124 97.3342 123.78C97.0142 123.428 96.5782 123.252 96.0262 123.252C95.4582 123.252 95.0062 123.436 94.6702 123.804C94.3342 124.164 94.1662 124.688 94.1662 125.376V129H93.0862V125.28C93.0862 124.624 92.9222 124.124 92.5942 123.78C92.2742 123.428 91.8382 123.252 91.2862 123.252C90.7182 123.252 90.2662 123.436 89.9302 123.804C89.5942 124.164 89.4262 124.688 89.4262 125.376V129H88.3342V122.424H89.4262V123.372C89.6422 123.028 89.9302 122.764 90.2902 122.58C90.6582 122.396 91.0622 122.304 91.5022 122.304C92.0542 122.304 92.5422 122.428 92.9662 122.676C93.3902 122.924 93.7062 123.288 93.9142 123.768C94.0982 123.304 94.4022 122.944 94.8262 122.688C95.2502 122.432 95.7222 122.304 96.2422 122.304ZM100.289 125.688C100.289 125.016 100.425 124.428 100.697 123.924C100.969 123.412 101.341 123.016 101.813 122.736C102.293 122.456 102.825 122.316 103.409 122.316C103.985 122.316 104.485 122.44 104.909 122.688C105.333 122.936 105.649 123.248 105.857 123.624V122.424H106.961V129H105.857V127.776C105.641 128.16 105.317 128.48 104.885 128.736C104.461 128.984 103.965 129.108 103.397 129.108C102.813 129.108 102.285 128.964 101.813 128.676C101.341 128.388 100.969 127.984 100.697 127.464C100.425 126.944 100.289 126.352 100.289 125.688ZM105.857 125.7C105.857 125.204 105.757 124.772 105.557 124.404C105.357 124.036 105.085 123.756 104.741 123.564C104.405 123.364 104.033 123.264 103.625 123.264C103.217 123.264 102.845 123.36 102.509 123.552C102.173 123.744 101.905 124.024 101.705 124.392C101.505 124.76 101.405 125.192 101.405 125.688C101.405 126.192 101.505 126.632 101.705 127.008C101.905 127.376 102.173 127.66 102.509 127.86C102.845 128.052 103.217 128.148 103.625 128.148C104.033 128.148 104.405 128.052 104.741 127.86C105.085 127.66 105.357 127.376 105.557 127.008C105.757 126.632 105.857 126.196 105.857 125.7Z" fill="white"/>
<circle cx="20" cy="96" r="4" fill="white"/>
<circle cx="88" cy="96" r="4" fill="white"/>
<circle cx="156" cy="96" r="4" fill="white"/>
<circle cx="33" cy="96" r="4" fill="white"/>
<circle cx="101" cy="96" r="4" fill="white"/>
<circle cx="169" cy="96" r="4" fill="white"/>
<circle cx="46" cy="96" r="4" fill="white"/>
<circle cx="114" cy="96" r="4" fill="white"/>
<circle cx="182" cy="96" r="4" fill="white"/>
<circle cx="59" cy="96" r="4" fill="white"/>
<circle cx="127" cy="96" r="4" fill="white"/>
<circle cx="195" cy="96" r="4" fill="white"/>
<defs>
<linearGradient id="paint0_linear_517_4773" x1="164" y1="5.8168e-06" x2="269.577" y2="203.514" gradientUnits="userSpaceOnUse">
<stop stop-color="#3E2A77"/>
<stop offset="1" stop-color="#8673FF"/>
</linearGradient>
<clipPath id="clip0_517_4773">
<rect width="24" height="14.7692" fill="white" transform="translate(284 20)"/>
</clipPath>
</defs>
</svg>
