<svg width="100" height="100" viewBox="0 0 100 100" fill="none" xmlns="http://www.w3.org/2000/svg">
<g filter="url(#filter0_d_426_5842)">
<rect x="8" width="84" height="84" rx="26" fill="#FCB43C"/>
<g clip-path="url(#clip0_426_5842)">
<path d="M26 33.8724C26.3498 33.086 26.962 32.7895 27.7741 32.8024C28.7985 32.8153 29.8355 32.8024 30.86 32.8024C31.5096 32.8024 31.5221 32.7895 31.5221 32.1321C31.5221 31.8485 31.5221 31.552 31.5471 31.2684C31.6346 30.3532 32.0219 29.902 32.8839 29.7086C34.8329 29.2833 36.7944 28.8579 38.7434 28.4325C43.7033 27.3625 48.6632 26.2926 53.6231 25.2227C53.9355 25.1582 54.0854 24.9777 54.2103 24.6941C54.8725 23.1473 56.0344 22.2449 57.671 22.0129C59.8948 21.7035 62.0812 23.4437 62.3561 25.7383C62.406 26.1508 62.431 26.5762 62.431 26.9887C62.431 34.6458 62.431 42.29 62.431 49.9471C62.431 51.5971 61.8813 52.9765 60.532 53.9304C58.3457 55.4773 55.3222 54.5878 54.2603 52.087C54.0854 51.6745 53.8605 51.494 53.4482 51.4167C52.4112 51.2104 51.3618 50.9913 50.3373 50.7464C50.0125 50.669 49.8626 50.7464 49.7501 51.0815C48.8006 53.7757 46.9391 55.3741 44.1905 55.8769C43.9282 55.9284 43.6658 55.9413 43.4034 55.9284C43.0786 55.9155 42.9787 56.0573 42.9787 56.3925C42.9662 57.1273 43.0411 57.8749 42.9037 58.6097C42.5414 60.5691 40.8048 62.116 38.7434 61.9742C36.4571 61.8066 34.8829 60.0664 34.8704 57.8105C34.8579 54.562 34.8579 51.3007 34.8704 48.0522C34.8704 47.5752 34.733 47.3561 34.2707 47.2916C33.746 47.2143 33.2337 47.0854 32.709 46.9565C32.0344 46.776 31.6346 46.3377 31.5471 45.6158C31.4846 45.0873 31.4971 44.5588 31.5096 44.0174C31.5221 43.6178 31.3847 43.476 30.9974 43.4889C29.8855 43.5146 28.7736 43.4631 27.6741 43.5018C26.8995 43.5275 26.3498 43.2182 26 42.4834C26 39.6087 26 36.747 26 33.8724ZM53.898 38.397C53.898 35.213 53.898 32.0161 53.9105 28.8321C53.9105 28.4067 53.8355 28.2649 53.3732 28.368C50.3748 29.0383 47.3639 29.67 44.3529 30.3274C41.2046 31.0106 38.0687 31.6809 34.9204 32.3641C34.658 32.4157 34.4581 32.493 34.4581 32.8411C34.4706 36.5279 34.4706 40.2146 34.4581 43.9014C34.4581 44.1979 34.583 44.301 34.8329 44.3397C35.2827 44.4299 35.7199 44.533 36.1572 44.6232C41.8667 45.8608 47.5763 47.0983 53.2733 48.3358C53.8855 48.4647 53.8855 48.4647 53.8855 47.8073C53.898 44.6748 53.898 41.5295 53.898 38.397ZM56.8339 38.3712C56.8339 42.1998 56.8339 46.0412 56.8339 49.8698C56.8339 50.0889 56.8339 50.321 56.8589 50.5401C56.9464 51.3264 57.7335 51.8679 58.4706 51.6616C59.1827 51.4682 59.5325 50.9526 59.5325 50.0503C59.5325 42.2385 59.5325 34.4267 59.5325 26.6278C59.5325 26.4988 59.5325 26.3699 59.52 26.241C59.4451 25.6223 58.9578 25.0938 58.3706 25.0164C57.771 24.9262 57.1713 25.2871 56.9339 25.8672C56.8214 26.1508 56.8464 26.4344 56.8464 26.7309C56.8214 30.611 56.8339 34.4911 56.8339 38.3712ZM37.8188 53.1827C37.8188 54.7296 37.8188 56.2765 37.8313 57.8234C37.8313 58.5066 38.3311 58.9964 38.9558 58.9835C39.5804 58.9835 40.0552 58.5324 40.0552 57.8492C40.0677 54.8714 40.0677 51.8936 40.0677 48.9159C40.0677 48.6323 39.9552 48.5163 39.6929 48.4647C39.2431 48.3873 38.8058 48.2713 38.3686 48.1811C37.8813 48.078 37.8313 48.1038 37.8313 48.6452C37.8188 50.1534 37.8188 51.6616 37.8188 53.1827ZM28.8485 38.1908C28.8485 38.8353 28.861 39.4798 28.8485 40.1244C28.8485 40.408 28.936 40.5369 29.2233 40.524C29.8605 40.5111 30.4977 40.5111 31.1348 40.524C31.4472 40.5369 31.5346 40.3693 31.5346 40.0728C31.5346 38.8095 31.5346 37.5333 31.5346 36.27C31.5346 35.9607 31.4222 35.8318 31.1223 35.8446C30.4977 35.8575 29.873 35.8575 29.2483 35.8446C28.9485 35.8318 28.836 35.9478 28.836 36.27C28.861 36.9017 28.8485 37.5462 28.8485 38.1908ZM42.9912 51.0944C42.9912 51.61 42.9912 52.1257 42.9912 52.6413C42.9912 52.8733 43.0661 53.0022 43.316 52.9893C44.8777 52.8991 46.252 52.0225 46.9141 50.4241C47.0265 50.1534 46.9391 50.0374 46.6892 49.9858C45.5773 49.7538 44.4654 49.5217 43.3535 49.2639C43.0411 49.1866 42.9662 49.3155 42.9787 49.5991C43.0036 50.1018 42.9912 50.5917 42.9912 51.0944Z" fill="white"/>
<path d="M69.5899 36.6567C70.5269 36.6567 71.4639 36.6567 72.4009 36.6567C73.3629 36.6696 74.0001 37.2626 74.0126 38.1521C74.0126 39.0415 73.3879 39.6732 72.4259 39.6861C70.5394 39.699 68.6529 39.699 66.7539 39.6861C65.8294 39.6861 65.1422 39.0157 65.1547 38.165C65.1672 37.3142 65.8419 36.6696 66.7789 36.6696C67.7159 36.6567 68.6529 36.6567 69.5899 36.6567Z" fill="white"/>
<path d="M67.7908 28.6001C67.1911 28.5872 66.7538 28.3036 66.4915 27.7364C66.2291 27.1563 66.3166 26.486 66.8038 26.0477C67.7908 25.1583 68.8028 24.2946 69.8397 23.4696C70.4394 22.9926 71.314 23.1731 71.7637 23.779C72.226 24.3977 72.1885 25.2743 71.6138 25.7899C70.6518 26.6536 69.6523 27.4786 68.6529 28.3165C68.428 28.5227 68.1281 28.613 67.7908 28.6001Z" fill="white"/>
<path d="M67.9032 47.7686C68.228 47.7428 68.5403 47.9104 68.8027 48.1424C69.7022 48.903 70.6142 49.6635 71.5138 50.4499C72.1759 51.03 72.2759 51.9194 71.7886 52.564C71.2639 53.2472 70.4143 53.3761 69.7147 52.8089C68.7402 52.0226 67.8032 51.2104 66.8662 50.3854C66.3665 49.9471 66.2415 49.2768 66.4914 48.671C66.7163 48.078 67.2285 47.7557 67.9032 47.7686Z" fill="white"/>
</g>
</g>
<defs>
<filter id="filter0_d_426_5842" x="0" y="0" width="100" height="100" filterUnits="userSpaceOnUse" color-interpolation-filters="sRGB">
<feFlood flood-opacity="0" result="BackgroundImageFix"/>
<feColorMatrix in="SourceAlpha" type="matrix" values="0 0 0 0 0 0 0 0 0 0 0 0 0 0 0 0 0 0 127 0" result="hardAlpha"/>
<feMorphology radius="3" operator="erode" in="SourceAlpha" result="effect1_dropShadow_426_5842"/>
<feOffset dy="8"/>
<feGaussianBlur stdDeviation="5.5"/>
<feColorMatrix type="matrix" values="0 0 0 0 0 0 0 0 0 0 0 0 0 0 0 0 0 0 0.08 0"/>
<feBlend mode="normal" in2="BackgroundImageFix" result="effect1_dropShadow_426_5842"/>
<feBlend mode="normal" in="SourceGraphic" in2="effect1_dropShadow_426_5842" result="shape"/>
</filter>
<clipPath id="clip0_426_5842">
<rect width="48" height="40" fill="white" transform="translate(26 22)"/>
</clipPath>
</defs>
</svg>
