<svg width="22" height="22" viewBox="0 0 22 22" fill="none" xmlns="http://www.w3.org/2000/svg">
<path d="M22 11.5586C21.8023 12.2633 21.3597 12.7102 20.625 12.8391C20.5218 12.8562 20.4101 12.8605 20.3027 12.8605C18.0683 12.8605 15.8382 12.8605 13.6039 12.8605C12.5898 12.8605 11.8894 12.1602 11.8894 11.1461C11.8894 8.03945 11.8894 4.93281 11.8894 1.82617C11.8894 0.829297 12.2546 0.317969 13.1914 0C15.7136 0 18.2316 0 20.7539 0C21.3898 0.193359 21.8066 0.610156 22 1.24609C22 4.68359 22 8.12109 22 11.5586ZM13.3246 6.41094C13.3246 7.94922 13.3246 9.4918 13.3246 11.0301C13.3246 11.4039 13.3417 11.4211 13.7113 11.4211C15.8726 11.4211 18.0382 11.4211 20.1996 11.4211C20.5691 11.4211 20.6121 11.3781 20.6121 11.0172C20.6121 7.94492 20.6121 4.87266 20.6121 1.80039C20.6121 1.44375 20.5562 1.38789 20.2039 1.38789C18.0468 1.38789 15.8941 1.38789 13.7371 1.38789C13.3675 1.38789 13.3246 1.43086 13.3246 1.7918C13.3246 3.33438 13.3246 4.87266 13.3246 6.41094Z" fill="#FCB43C"/>
<path d="M0 10.4415C0.201953 9.73677 0.640234 9.28989 1.375 9.16099C1.47812 9.1438 1.58984 9.1438 1.69727 9.1438C3.93164 9.1438 6.16172 9.1438 8.39609 9.1438C9.41016 9.1438 10.1105 9.84419 10.1105 10.8583C10.1105 13.9649 10.1105 17.0715 10.1105 20.1782C10.1105 21.175 9.74961 21.6821 8.80859 22.0043C6.28633 22.0043 3.76836 22.0043 1.24609 22.0043C0.610156 21.811 0.193359 21.3942 0 20.7583C0 17.3165 0 13.879 0 10.4415ZM8.67539 15.5891C8.67539 14.0508 8.67539 12.5083 8.67539 10.97C8.67539 10.5918 8.6582 10.5747 8.29297 10.5747C6.12305 10.5747 3.95312 10.5747 1.7832 10.5747C1.43516 10.5747 1.39219 10.6219 1.38789 10.9743C1.38789 14.0551 1.38789 17.1317 1.38789 20.2125C1.38789 20.5477 1.45234 20.6079 1.7918 20.6079C3.95312 20.6079 6.11875 20.6079 8.28008 20.6079C8.62383 20.6079 8.67109 20.5606 8.67109 20.2083C8.67539 18.67 8.67539 17.1274 8.67539 15.5891Z" fill="#FCB43C"/>
<path d="M13.1914 22C12.4867 21.798 12.0399 21.3597 11.9109 20.625C11.8938 20.5218 11.8938 20.4101 11.8938 20.3027C11.8938 18.9878 11.8895 17.6687 11.8938 16.3539C11.8938 15.3398 12.5941 14.6394 13.6082 14.6394C15.7996 14.6394 17.9867 14.6394 20.1781 14.6394C21.175 14.6394 21.6777 14.996 22 15.9414C22 17.5441 22 19.1511 22 20.7539C21.8066 21.3898 21.3898 21.8066 20.7539 22C18.2316 22 15.7137 22 13.1914 22ZM16.9555 16.0746C15.8598 16.0746 14.7641 16.0746 13.6684 16.0746C13.3633 16.0746 13.3246 16.1089 13.3246 16.4011C13.3246 17.6902 13.3246 18.9792 13.3246 20.2683C13.3246 20.5433 13.3891 20.6078 13.6684 20.6078C15.8598 20.6078 18.0512 20.6078 20.2426 20.6078C20.5348 20.6078 20.6078 20.5347 20.6078 20.2382C20.6078 18.9707 20.6078 17.7031 20.6078 16.4355C20.6078 16.1304 20.5477 16.0746 20.2383 16.0746C19.1469 16.0746 18.0512 16.0746 16.9555 16.0746Z" fill="#FCB43C"/>
<path d="M8.80859 0C9.51328 0.197656 9.96016 0.640234 10.0891 1.375C10.1062 1.47812 10.1105 1.58984 10.1105 1.69727C10.1105 3.01211 10.1148 4.33125 10.1105 5.64609C10.1105 6.66016 9.41016 7.36055 8.39609 7.36055C6.20469 7.36055 4.01758 7.36055 1.82617 7.36055C0.829297 7.36055 0.326562 6.99961 0 6.05859C0 4.45586 0 2.84883 0 1.24609C0.193359 0.610156 0.610156 0.193359 1.24609 0C3.76836 0 6.28633 0 8.80859 0ZM5.04023 5.92539C6.12734 5.92539 7.21875 5.92539 8.30586 5.92539C8.64961 5.92539 8.67539 5.89961 8.67539 5.56016C8.67539 4.30117 8.67539 3.03789 8.67539 1.77891C8.67539 1.43945 8.62383 1.38789 8.29297 1.38789C6.12305 1.38789 3.95312 1.38789 1.7832 1.38789C1.45664 1.38789 1.39219 1.45234 1.39219 1.77461C1.39219 3.0293 1.39219 4.27969 1.39219 5.53438C1.39219 5.87383 1.44375 5.92539 1.77461 5.92539C2.86172 5.92539 3.94883 5.92539 5.04023 5.92539Z" fill="#FCB43C"/>
</svg>
