<svg width="26" height="26" viewBox="0 0 26 26" fill="none" xmlns="http://www.w3.org/2000/svg">
<mask id="path-1-outside-1_1570_401" maskUnits="userSpaceOnUse" x="0" y="0" width="26" height="26" fill="black">
<rect fill="white" width="26" height="26"/>
<path fill-rule="evenodd" clip-rule="evenodd" d="M21.559 1.08682C21.3849 1.17675 21.2359 1.44982 21.2362 1.67841C21.2365 1.90639 21.417 2.19472 21.6029 2.26429C21.6965 2.29935 22.0378 2.38806 22.3614 2.46153C22.685 2.53493 22.9685 2.61477 22.9914 2.63896C23.0412 2.69139 15.7177 8.69309 15.6383 8.6649C15.608 8.6542 14.2929 7.95014 12.7157 7.10025C11.1385 6.25041 9.78837 5.5551 9.71537 5.5551C9.63117 5.5551 8.03661 6.65668 5.3525 8.56914C1.50557 11.3102 1.11562 11.6023 1.04794 11.7948C0.903171 12.2064 1.15992 12.6644 1.53535 12.6644C1.68835 12.6644 2.41271 12.1709 5.73105 9.80585C9.34931 7.22706 9.75487 6.95296 9.87462 7.00497C9.94767 7.03663 11.2275 7.7241 12.7186 8.53262C14.2098 9.34113 15.497 10.0267 15.579 10.0561C15.661 10.0855 15.782 10.0936 15.8478 10.0739C15.9136 10.0543 17.6855 8.63221 19.7853 6.9137C21.885 5.19526 23.611 3.79868 23.6207 3.81016C23.6304 3.82171 23.5773 4.19881 23.5028 4.64815C23.3556 5.53566 23.364 5.71855 23.5633 5.95529C23.7082 6.12737 24.0619 6.15787 24.2357 6.01326C24.3979 5.8783 24.4371 5.71582 24.7391 3.92446C24.9974 2.3925 25.0137 2.2477 24.9479 2.06073C24.9086 1.94923 24.8228 1.81683 24.7572 1.76658C24.6691 1.69913 21.8589 0.985225 21.7406 1.00023C21.7304 1.00157 21.6487 1.04052 21.559 1.08682ZM20.1873 8.26872C19.9493 8.41747 19.7487 8.66113 19.6449 8.92746C19.5543 9.15969 19.5501 9.49401 19.549 16.4469L19.5479 23.7233H19.0107H18.4736V18.8284C18.4736 15.4257 18.4562 13.8513 18.4165 13.664C18.3829 13.5054 18.2759 13.282 18.1565 13.1209C17.8308 12.6813 17.6918 12.6542 15.8803 12.6762C14.236 12.6962 14.1999 12.703 13.8776 13.0513C13.574 13.3793 13.5906 13.0854 13.5627 18.6192L13.5371 23.6929H13H12.4629L12.4373 17.647C12.4094 11.0427 12.4283 11.4374 12.1224 11.1069C11.8014 10.76 11.7592 10.7519 10.1609 10.7303C8.42764 10.7069 8.25714 10.7344 7.91507 11.092C7.50613 11.5196 7.52639 11.1676 7.52639 17.8403V23.7233H6.98926H6.45213V19.6895V15.6556L6.3092 15.3307C6.2051 15.094 6.09839 14.9558 5.91674 14.8224L5.66726 14.6392H3.99668H2.3261L2.07662 14.8224C1.89497 14.9558 1.78826 15.094 1.68416 15.3307L1.54123 15.6556V19.6895C1.54123 23.5855 1.53796 23.7233 1.44583 23.7233C1.29891 23.7233 1.09449 23.9457 1.03085 24.1748C0.985429 24.3383 0.989163 24.4258 1.04871 24.5951C1.20335 25.0348 0.155025 24.9993 13 24.9993C25.845 24.9993 24.7966 25.0348 24.9513 24.5951C25.0108 24.4258 25.0146 24.3383 24.9691 24.1748C24.9055 23.9457 24.7011 23.7233 24.5542 23.7233C24.4616 23.7233 24.4588 23.5077 24.4588 16.4601C24.4588 8.50655 24.4761 8.96568 24.1619 8.57248C23.8425 8.17278 23.815 8.16767 21.9926 8.17035C20.5893 8.17241 20.3177 8.18724 20.1873 8.26872ZM23.3719 16.5684L23.3589 23.6929H22.0033H20.6477L20.6347 16.5684L20.6217 9.44394H22.0033H23.3849L23.3719 16.5684ZM11.363 17.89V23.7233H10.0074H8.65181V17.89V12.0568H10.0074H11.363V17.89ZM17.3482 18.8622V23.7233H15.9926H14.637V18.8622V14.0012H15.9926H17.3482V18.8622ZM5.36544 19.8193L5.35229 23.6929H3.99668H2.64107L2.62792 19.8193L2.61472 15.9456H3.99668H5.37864L5.36544 19.8193Z"/>
</mask>
<path fill-rule="evenodd" clip-rule="evenodd" d="M21.559 1.08682C21.3849 1.17675 21.2359 1.44982 21.2362 1.67841C21.2365 1.90639 21.417 2.19472 21.6029 2.26429C21.6965 2.29935 22.0378 2.38806 22.3614 2.46153C22.685 2.53493 22.9685 2.61477 22.9914 2.63896C23.0412 2.69139 15.7177 8.69309 15.6383 8.6649C15.608 8.6542 14.2929 7.95014 12.7157 7.10025C11.1385 6.25041 9.78837 5.5551 9.71537 5.5551C9.63117 5.5551 8.03661 6.65668 5.3525 8.56914C1.50557 11.3102 1.11562 11.6023 1.04794 11.7948C0.903171 12.2064 1.15992 12.6644 1.53535 12.6644C1.68835 12.6644 2.41271 12.1709 5.73105 9.80585C9.34931 7.22706 9.75487 6.95296 9.87462 7.00497C9.94767 7.03663 11.2275 7.7241 12.7186 8.53262C14.2098 9.34113 15.497 10.0267 15.579 10.0561C15.661 10.0855 15.782 10.0936 15.8478 10.0739C15.9136 10.0543 17.6855 8.63221 19.7853 6.9137C21.885 5.19526 23.611 3.79868 23.6207 3.81016C23.6304 3.82171 23.5773 4.19881 23.5028 4.64815C23.3556 5.53566 23.364 5.71855 23.5633 5.95529C23.7082 6.12737 24.0619 6.15787 24.2357 6.01326C24.3979 5.8783 24.4371 5.71582 24.7391 3.92446C24.9974 2.3925 25.0137 2.2477 24.9479 2.06073C24.9086 1.94923 24.8228 1.81683 24.7572 1.76658C24.6691 1.69913 21.8589 0.985225 21.7406 1.00023C21.7304 1.00157 21.6487 1.04052 21.559 1.08682ZM20.1873 8.26872C19.9493 8.41747 19.7487 8.66113 19.6449 8.92746C19.5543 9.15969 19.5501 9.49401 19.549 16.4469L19.5479 23.7233H19.0107H18.4736V18.8284C18.4736 15.4257 18.4562 13.8513 18.4165 13.664C18.3829 13.5054 18.2759 13.282 18.1565 13.1209C17.8308 12.6813 17.6918 12.6542 15.8803 12.6762C14.236 12.6962 14.1999 12.703 13.8776 13.0513C13.574 13.3793 13.5906 13.0854 13.5627 18.6192L13.5371 23.6929H13H12.4629L12.4373 17.647C12.4094 11.0427 12.4283 11.4374 12.1224 11.1069C11.8014 10.76 11.7592 10.7519 10.1609 10.7303C8.42764 10.7069 8.25714 10.7344 7.91507 11.092C7.50613 11.5196 7.52639 11.1676 7.52639 17.8403V23.7233H6.98926H6.45213V19.6895V15.6556L6.3092 15.3307C6.2051 15.094 6.09839 14.9558 5.91674 14.8224L5.66726 14.6392H3.99668H2.3261L2.07662 14.8224C1.89497 14.9558 1.78826 15.094 1.68416 15.3307L1.54123 15.6556V19.6895C1.54123 23.5855 1.53796 23.7233 1.44583 23.7233C1.29891 23.7233 1.09449 23.9457 1.03085 24.1748C0.985429 24.3383 0.989163 24.4258 1.04871 24.5951C1.20335 25.0348 0.155025 24.9993 13 24.9993C25.845 24.9993 24.7966 25.0348 24.9513 24.5951C25.0108 24.4258 25.0146 24.3383 24.9691 24.1748C24.9055 23.9457 24.7011 23.7233 24.5542 23.7233C24.4616 23.7233 24.4588 23.5077 24.4588 16.4601C24.4588 8.50655 24.4761 8.96568 24.1619 8.57248C23.8425 8.17278 23.815 8.16767 21.9926 8.17035C20.5893 8.17241 20.3177 8.18724 20.1873 8.26872ZM23.3719 16.5684L23.3589 23.6929H22.0033H20.6477L20.6347 16.5684L20.6217 9.44394H22.0033H23.3849L23.3719 16.5684ZM11.363 17.89V23.7233H10.0074H8.65181V17.89V12.0568H10.0074H11.363V17.89ZM17.3482 18.8622V23.7233H15.9926H14.637V18.8622V14.0012H15.9926H17.3482V18.8622ZM5.36544 19.8193L5.35229 23.6929H3.99668H2.64107L2.62792 19.8193L2.61472 15.9456H3.99668H5.37864L5.36544 19.8193Z" fill="white"/>
<path fill-rule="evenodd" clip-rule="evenodd" d="M21.559 1.08682C21.3849 1.17675 21.2359 1.44982 21.2362 1.67841C21.2365 1.90639 21.417 2.19472 21.6029 2.26429C21.6965 2.29935 22.0378 2.38806 22.3614 2.46153C22.685 2.53493 22.9685 2.61477 22.9914 2.63896C23.0412 2.69139 15.7177 8.69309 15.6383 8.6649C15.608 8.6542 14.2929 7.95014 12.7157 7.10025C11.1385 6.25041 9.78837 5.5551 9.71537 5.5551C9.63117 5.5551 8.03661 6.65668 5.3525 8.56914C1.50557 11.3102 1.11562 11.6023 1.04794 11.7948C0.903171 12.2064 1.15992 12.6644 1.53535 12.6644C1.68835 12.6644 2.41271 12.1709 5.73105 9.80585C9.34931 7.22706 9.75487 6.95296 9.87462 7.00497C9.94767 7.03663 11.2275 7.7241 12.7186 8.53262C14.2098 9.34113 15.497 10.0267 15.579 10.0561C15.661 10.0855 15.782 10.0936 15.8478 10.0739C15.9136 10.0543 17.6855 8.63221 19.7853 6.9137C21.885 5.19526 23.611 3.79868 23.6207 3.81016C23.6304 3.82171 23.5773 4.19881 23.5028 4.64815C23.3556 5.53566 23.364 5.71855 23.5633 5.95529C23.7082 6.12737 24.0619 6.15787 24.2357 6.01326C24.3979 5.8783 24.4371 5.71582 24.7391 3.92446C24.9974 2.3925 25.0137 2.2477 24.9479 2.06073C24.9086 1.94923 24.8228 1.81683 24.7572 1.76658C24.6691 1.69913 21.8589 0.985225 21.7406 1.00023C21.7304 1.00157 21.6487 1.04052 21.559 1.08682ZM20.1873 8.26872C19.9493 8.41747 19.7487 8.66113 19.6449 8.92746C19.5543 9.15969 19.5501 9.49401 19.549 16.4469L19.5479 23.7233H19.0107H18.4736V18.8284C18.4736 15.4257 18.4562 13.8513 18.4165 13.664C18.3829 13.5054 18.2759 13.282 18.1565 13.1209C17.8308 12.6813 17.6918 12.6542 15.8803 12.6762C14.236 12.6962 14.1999 12.703 13.8776 13.0513C13.574 13.3793 13.5906 13.0854 13.5627 18.6192L13.5371 23.6929H13H12.4629L12.4373 17.647C12.4094 11.0427 12.4283 11.4374 12.1224 11.1069C11.8014 10.76 11.7592 10.7519 10.1609 10.7303C8.42764 10.7069 8.25714 10.7344 7.91507 11.092C7.50613 11.5196 7.52639 11.1676 7.52639 17.8403V23.7233H6.98926H6.45213V19.6895V15.6556L6.3092 15.3307C6.2051 15.094 6.09839 14.9558 5.91674 14.8224L5.66726 14.6392H3.99668H2.3261L2.07662 14.8224C1.89497 14.9558 1.78826 15.094 1.68416 15.3307L1.54123 15.6556V19.6895C1.54123 23.5855 1.53796 23.7233 1.44583 23.7233C1.29891 23.7233 1.09449 23.9457 1.03085 24.1748C0.985429 24.3383 0.989163 24.4258 1.04871 24.5951C1.20335 25.0348 0.155025 24.9993 13 24.9993C25.845 24.9993 24.7966 25.0348 24.9513 24.5951C25.0108 24.4258 25.0146 24.3383 24.9691 24.1748C24.9055 23.9457 24.7011 23.7233 24.5542 23.7233C24.4616 23.7233 24.4588 23.5077 24.4588 16.4601C24.4588 8.50655 24.4761 8.96568 24.1619 8.57248C23.8425 8.17278 23.815 8.16767 21.9926 8.17035C20.5893 8.17241 20.3177 8.18724 20.1873 8.26872ZM23.3719 16.5684L23.3589 23.6929H22.0033H20.6477L20.6347 16.5684L20.6217 9.44394H22.0033H23.3849L23.3719 16.5684ZM11.363 17.89V23.7233H10.0074H8.65181V17.89V12.0568H10.0074H11.363V17.89ZM17.3482 18.8622V23.7233H15.9926H14.637V18.8622V14.0012H15.9926H17.3482V18.8622ZM5.36544 19.8193L5.35229 23.6929H3.99668H2.64107L2.62792 19.8193L2.61472 15.9456H3.99668H5.37864L5.36544 19.8193Z" stroke="white" stroke-width="0.2" mask="url(#path-1-outside-1_1570_401)"/>
</svg>
