<svg width="21" height="23" viewBox="0 0 21 23" fill="none" xmlns="http://www.w3.org/2000/svg">
<path d="M10.0074 22.0025C7.0782 22.0025 4.14902 22.0025 1.21985 22.0025C0.41588 22.0025 0.0232456 21.5974 0.00454868 20.7934C-0.0328451 19.1917 0.154124 17.6212 0.79605 16.1317C1.85554 13.6761 3.60681 11.8999 6.04987 10.8155C6.22438 10.7407 6.27424 10.7096 6.09973 10.5538C4.27367 8.87727 3.58812 6.80815 4.24251 4.42118C4.90313 2.03421 6.53599 0.563387 8.97905 0.102198C12.3383 -0.527264 15.5479 1.82231 15.9717 5.18775C16.2397 7.31919 15.5479 9.1141 13.9524 10.5538C13.7904 10.6971 13.8091 10.7283 13.996 10.8155C17.2431 12.3113 19.2062 14.8166 19.8793 18.3254C20.0476 19.1917 20.0538 20.0767 20.0227 20.9555C19.9978 21.6036 19.5615 21.9962 18.9133 21.9962C15.9405 22.0025 12.974 22.0025 10.0074 22.0025ZM10.0198 19.9645C11.2476 19.9645 12.4816 19.9645 13.7094 19.9645C15.0306 19.9645 16.3581 19.9583 17.6793 19.9708C17.8975 19.9708 17.9598 19.9022 17.9536 19.6903C17.9411 19.3538 17.9037 19.0234 17.8538 18.6931C17.3179 15.147 14.2329 12.2926 10.6493 12.0557C8.91673 11.9373 7.27764 12.2863 5.81305 13.2399C3.50087 14.7356 2.24194 16.8671 2.0799 19.628C2.06121 19.9645 2.07367 19.9645 2.40398 19.9645C4.94676 19.9645 7.4833 19.9645 10.0198 19.9645ZM10.0074 9.96792C12.2074 9.96792 13.9711 8.21665 13.9774 6.04157C13.9836 3.99738 12.4068 2.06537 10.0261 2.05914C7.67027 2.05291 6.04987 3.96622 6.05611 6.04157C6.06234 8.21041 7.83231 9.97415 10.0074 9.96792Z" fill="#FCB43C"/>
</svg>
