<svg width="20" height="20" viewBox="0 0 20 20" fill="none" xmlns="http://www.w3.org/2000/svg">
<path d="M20 6.86785C19.797 7.35172 19.4379 7.57544 19.006 7.4922C18.5948 7.41415 18.3138 7.06556 18.3138 6.6025C18.3086 5.45786 18.3138 4.31322 18.3138 3.16857C18.3138 3.09573 18.3138 3.0281 18.3138 2.95526C18.2357 2.92924 18.2149 2.99168 18.1837 3.02289C16.6328 4.57336 15.0819 6.12383 13.5311 7.6691C13.4166 7.78356 13.427 7.8616 13.5207 7.97607C14.2493 8.9334 14.7228 10.0104 14.9206 11.2019C15.2537 13.2466 14.8321 15.1301 13.6352 16.8262C12.6724 18.1894 11.3869 19.1207 9.79961 19.6358C8.64947 20.0104 7.4733 20.0937 6.27632 19.8855C4.4236 19.563 2.89875 18.6733 1.70697 17.2321C0.832655 16.1811 0.296616 14.9636 0.0936494 13.6056C-0.187381 11.7066 0.202939 9.94277 1.25941 8.34547C2.14934 6.99272 3.37234 6.03018 4.89198 5.45265C5.92243 5.06244 6.99451 4.90635 8.0874 4.9948C9.50297 5.10406 10.7988 5.57752 11.949 6.4256C12.2248 6.62851 12.1623 6.63892 12.4174 6.38918C13.9266 4.88033 15.4358 3.37149 16.9399 1.86264C16.9867 1.81582 17.0439 1.7846 17.0648 1.71176C16.9971 1.66493 16.9243 1.69095 16.8566 1.69095C15.7065 1.69095 14.5563 1.69095 13.401 1.68574C12.8389 1.68574 12.4486 1.27471 12.5058 0.738814C12.5423 0.353798 12.7817 0.12487 13.1303 0C15.212 0 17.2938 0 19.3755 0C19.6825 0.109261 19.8959 0.312175 20 0.62435C20 2.70552 20 4.78668 20 6.86785ZM13.3177 12.487C13.3177 9.2872 10.7208 6.69095 7.52534 6.68574C4.32472 6.68054 1.70697 9.2872 1.70697 12.487C1.70697 15.6764 4.30911 18.2882 7.49932 18.2934C10.6999 18.2934 13.3177 15.6868 13.3177 12.487Z" fill="#FCB43C"/>
</svg>
