<svg width="24" height="24" viewBox="0 0 24 24" fill="none" xmlns="http://www.w3.org/2000/svg">
<path fill-rule="evenodd" clip-rule="evenodd" d="M10.9236 0.0283987C8.60448 0.255454 6.46107 1.10982 4.58176 2.55625C3.66658 3.26061 2.47809 4.58435 1.79127 5.66418C1.49465 6.13054 0.917244 7.3123 0.710401 7.87628C0.479128 8.50693 0.232635 9.47065 0.111338 10.2184C-0.0371126 11.1337 -0.0371126 12.8715 0.111338 13.7867C0.321235 15.0806 0.653275 16.1266 1.22161 17.2846C1.84257 18.5497 2.48823 19.4464 3.52217 20.4798C4.55616 21.5132 5.45343 22.1585 6.71926 22.7791C7.87792 23.3471 8.92449 23.6789 10.2191 23.8887C11.1349 24.0371 12.8736 24.0371 13.7894 23.8887C15.0841 23.6789 16.1306 23.3471 17.2893 22.7791C18.5551 22.1585 19.4524 21.5132 20.4864 20.4798C21.5203 19.4464 22.166 18.5497 22.7869 17.2846C23.1994 16.4442 23.4068 15.8935 23.629 15.049C23.9249 13.9243 24 13.3078 24 12.0026C24 10.6973 23.9249 10.0808 23.629 8.95616C23.4068 8.11165 23.1994 7.56091 22.7869 6.72058C22.166 5.45548 21.5203 4.55871 20.4864 3.52532C19.4524 2.49197 18.5551 1.84668 17.2893 1.22608C16.1318 0.658577 15.0645 0.320012 13.8129 0.12324C13.1224 0.014689 11.5805 -0.0359243 10.9236 0.0283987ZM13.5283 2.0703C15.6373 2.39971 17.5705 3.38639 19.0979 4.91296C20.6376 6.45174 21.612 8.36847 21.9502 10.5236C22.0619 11.2353 22.0619 12.7699 21.9502 13.4815C21.612 15.6367 20.6376 17.5534 19.0979 19.0922C17.5583 20.631 15.6405 21.6048 13.4841 21.9428C12.772 22.0544 11.2365 22.0544 10.5245 21.9428C8.36809 21.6048 6.45026 20.631 4.9106 19.0922C3.37095 17.5534 2.39658 15.6367 2.05834 13.4815C1.94667 12.7699 1.94667 11.2353 2.05834 10.5236C2.62658 6.90279 5.0965 3.86229 8.50442 2.58841C9.11739 2.35924 10.0813 2.11801 10.6419 2.0534C10.8874 2.02509 11.1516 1.99307 11.2291 1.98218C11.5242 1.94086 13.0815 2.00053 13.5283 2.0703ZM17.5007 7.19366C17.3946 7.23901 16.0502 8.54871 13.7082 10.8881L10.0801 14.5123L8.3997 12.8408C7.47546 11.9216 6.64527 11.1307 6.55483 11.0832C6.34456 10.973 5.88192 10.9675 5.68475 11.0729C5.34853 11.2526 5.13915 11.5784 5.13384 11.9301C5.12713 12.3741 5.11519 12.3597 7.34735 14.598C8.72531 15.9798 9.50946 16.7322 9.63499 16.793C9.88458 16.9139 10.2608 16.9147 10.4911 16.7947C10.7123 16.6795 18.6854 8.70107 18.7915 8.48885C18.9578 8.15597 18.8557 7.63157 18.5734 7.36841C18.3165 7.12891 17.8354 7.0505 17.5007 7.19366Z" fill="#27AE60"/>
</svg>
