<svg width="20" height="20" viewBox="0 0 20 20" fill="none" xmlns="http://www.w3.org/2000/svg">
<path d="M10.8246 19.9997C10.2782 19.9997 9.73173 19.9997 9.18528 19.9997C8.82619 19.9477 8.46189 19.9061 8.108 19.8384C3.06506 18.86 -0.41659 14.2386 0.0413855 9.11761C0.25476 6.72365 1.20194 4.65235 2.90373 2.97137C5.2977 0.60343 8.19647 -0.359359 11.5324 0.119433C15.4356 0.681494 18.6623 3.59589 19.6823 7.40541C19.8384 7.99349 19.9217 8.58678 20.005 9.18527C20.005 9.73172 20.005 10.2782 20.005 10.8246C19.9685 11.0692 19.9373 11.3138 19.9009 11.5584C19.3128 15.498 16.2735 18.808 12.3859 19.7343C11.8655 19.8592 11.3451 19.9217 10.8246 19.9997ZM2.90373 10.0544C2.89332 10.4135 3.02343 10.7153 3.26283 10.9755C3.6011 11.3346 3.93418 11.6989 4.27245 12.058C5.41739 13.2862 6.56754 14.5092 7.70727 15.7374C7.82697 15.8675 7.91024 15.878 8.03514 15.7531C8.32137 15.472 8.62322 15.2014 8.91987 14.9256C10.3614 13.5829 11.8082 12.2402 13.2446 10.8975C14.3167 9.89825 15.3836 8.89903 16.4504 7.89981C16.7263 7.6448 16.8772 7.32734 16.8928 6.95264C16.9136 6.4218 16.617 5.94301 16.1278 5.71923C15.6334 5.49024 15.0765 5.58391 14.6446 5.98464C13.2706 7.25969 11.9019 8.53473 10.5332 9.81499C9.73173 10.5592 8.93548 11.3034 8.13923 12.0528C8.02473 12.1621 7.94667 12.1673 7.83738 12.0424C7.66564 11.8394 7.47828 11.6521 7.29093 11.4543C6.56754 10.6789 5.84935 9.89825 5.11034 9.13843C4.70961 8.72729 4.21 8.65964 3.68958 8.8522C3.20038 9.03955 2.90373 9.50793 2.90373 10.0544Z" fill="#2ECC71"/>
</svg>
