<svg width="31" height="36" viewBox="0 0 31 36" fill="none" xmlns="http://www.w3.org/2000/svg">
<path d="M29.0383 12.8783H28.1976V8.70667C28.1969 8.68017 28.1944 8.65375 28.1902 8.6276C28.1913 8.46002 28.1331 8.29773 28.0265 8.17104L21.2784 0.242312L21.2734 0.237211C21.233 0.192311 21.1872 0.152885 21.137 0.119881L21.0924 0.0918231C21.0495 0.0673088 21.0042 0.0476392 20.9572 0.033158L20.92 0.020405C20.8685 0.00719388 20.8157 0.000344096 20.7626 0H4.17508C3.41744 0 2.8024 0.633839 2.8024 1.41179V12.877H1.96168C0.87792 12.877 0 13.7799 0 14.8946V25.388C0 26.5013 0.87916 27.4056 1.96168 27.4056H2.8024V34.5882C2.8024 35.3662 3.41744 36 4.17508 36H26.8249C27.5813 36 28.1976 35.3662 28.1976 34.5882V27.4056H29.0383C30.1208 27.4056 31 26.5026 31 25.388V14.8946C31 13.7812 30.1221 12.8783 29.0383 12.8783ZM4.17508 1.41179H20.0756V8.63526C20.0756 9.02551 20.3831 9.34051 20.7626 9.34051H26.8262V12.877H4.17508V1.41179ZM14.4448 20.756C12.7782 20.1438 11.6783 19.195 11.6783 17.6965C11.6783 15.9378 13.1217 14.6076 15.4715 14.6076C16.6172 14.6076 17.4344 14.8372 18.0296 15.1267L17.5237 16.9925C16.8753 16.6677 16.1629 16.5006 15.4417 16.504C14.4596 16.504 13.9835 16.9772 13.9835 17.4975C13.9835 18.1556 14.5328 18.4451 15.8422 18.9501C17.613 19.6235 18.4301 20.5711 18.4301 22.0249C18.4301 23.7543 17.1517 25.2222 14.4001 25.2222C13.2544 25.2222 12.1247 24.9008 11.5593 24.5794L12.0206 22.6677C12.7992 23.0766 13.6586 23.2965 14.5328 23.3105C15.5744 23.3105 16.125 22.8654 16.125 22.1933C16.125 21.5505 15.65 21.1845 14.4448 20.756ZM2.63252 20.052C2.63252 16.5487 5.0716 14.6063 8.10464 14.6063C9.28016 14.6063 10.1717 14.8499 10.5735 15.0502L10.0973 16.9007C9.49499 16.6405 8.84716 16.5103 8.19392 16.5181C6.40956 16.5181 5.01208 17.634 5.01208 19.9283C5.01208 21.9778 6.20124 23.2786 8.2088 23.2786C8.90816 23.2786 9.65216 23.1421 10.1122 22.9419L10.4408 24.7771C10.039 24.9748 9.08672 25.2209 7.88268 25.2209C4.41688 25.2222 2.63252 22.9891 2.63252 20.052ZM26.8249 34.2082H4.17508V27.4068H26.8249V34.2082ZM24.9922 25.0692H22.3448L19.1332 14.7594H21.6169L22.8358 19.1197C23.1768 20.3581 23.4893 21.5212 23.7274 22.8054H23.772C24.0256 21.5799 24.328 20.3656 24.6785 19.1657L25.9582 14.7607H28.3662L24.9922 25.0692Z" fill="#FCB43C"/>
</svg>
