<svg width="110" height="90" viewBox="0 0 110 90" fill="none" xmlns="http://www.w3.org/2000/svg">
<path d="M110 54.6151C109.599 55.0709 109.198 55.5267 108.769 55.9541C97.8032 66.8658 86.8662 77.749 75.9006 88.6606C74.0968 90.4555 73.1234 90.4555 71.291 88.6322C54.5419 71.9655 37.7928 55.2988 21.0437 38.6322C19.2113 36.8088 19.2113 35.8401 21.0151 34.0453C31.9807 23.1051 42.975 12.1934 53.9693 1.28173C55.6871 -0.427673 56.7178 -0.427673 58.4071 1.25324C64.4768 7.29312 70.5466 13.333 76.6163 19.3729C76.9313 19.6863 77.2176 19.9997 77.4466 20.3416C78.0765 21.3102 77.9334 22.3928 77.1031 23.1621C76.33 23.9028 75.1848 24.0168 74.24 23.3615C73.8964 23.1051 73.5815 22.7917 73.2951 22.5068C68.886 18.1193 64.4768 13.7604 60.0963 9.3729C59.81 9.088 59.5809 8.71763 59.3233 8.37575C58.7506 8.8031 58.9224 9.17347 58.9224 9.51535C58.9224 21.3957 58.9224 33.3045 58.9224 45.1849C58.9224 48.6606 61.2129 50.9398 64.7059 50.9398C76.645 50.9398 88.6127 50.9398 100.552 50.9398C100.867 50.9398 101.182 51.0253 101.497 50.8259C101.439 50.3416 101.039 50.1421 100.752 49.8572C96.1712 45.2988 91.5903 40.7404 87.0094 36.182C86.6658 35.8401 86.2936 35.4698 86.0073 35.0709C85.3774 34.1592 85.5206 33.0196 86.3222 32.2504C87.0666 31.5096 88.1546 31.3957 89.0708 31.994C89.443 32.2504 89.7866 32.5638 90.1301 32.9057C96.3717 39.1165 102.642 45.3273 108.883 51.5666C109.256 51.937 109.599 52.3643 109.971 52.7347C110 53.333 110 53.9598 110 54.6151ZM71.2624 81.7091C71.2624 81.7376 71.291 81.5951 71.291 81.4527C71.291 73.1336 71.291 64.786 71.3196 56.4669C71.3196 55.6977 70.976 55.4983 70.2603 55.4983C68.342 55.5267 66.3951 55.5267 64.4768 55.4983C59.4092 55.4128 55.3149 51.88 54.5133 46.8943C54.1411 44.6151 54.3987 42.3359 54.3415 40.0567C54.3128 38.6037 54.3415 38.6037 52.9386 38.6037C44.9219 38.6037 36.9052 38.6037 28.8886 38.6037C28.545 38.6037 28.1728 38.4897 28.001 38.6322C42.431 52.9911 56.861 67.3501 71.2624 81.7091ZM27.8865 33.9883C28.0297 34.0168 28.1728 34.0453 28.316 34.0453C36.6476 34.0453 44.9792 34.0453 53.3394 34.0738C54.3701 34.0738 54.3701 33.5324 54.3701 32.7917C54.3701 24.7575 54.3701 16.6948 54.3415 8.66065C54.3415 8.34726 54.5133 7.9484 54.2556 7.77745C45.4659 16.4954 36.7048 25.2134 27.8865 33.9883ZM102.384 55.5552C102.155 55.5267 101.926 55.4983 101.697 55.4983C93.5086 55.4983 85.3201 55.4982 77.1031 55.4698C76.1296 55.4698 75.9006 55.8401 75.9292 56.7233C75.9578 64.7575 75.9292 72.8202 75.9578 80.8544C75.9578 81.1963 75.8147 81.5666 76.0437 81.7661C84.7761 73.0766 93.5372 64.3586 102.384 55.5552Z" fill="#FCB43C"/>
<path d="M23.1624 74.3305C18.381 74.3305 13.5711 74.3305 8.78969 74.3305C8.38886 74.3305 7.98802 74.359 7.61582 74.302C6.55648 74.1311 5.81207 73.2194 5.81207 72.1083C5.81207 70.9972 6.58511 70.114 7.64445 69.943C7.90213 69.9146 8.13118 69.9146 8.38886 69.9146C18.2379 69.9146 28.0583 69.9146 37.9073 69.9146C38.3082 69.9146 38.709 69.943 39.0812 70.057C40.1119 70.3989 40.6845 71.4245 40.4841 72.5356C40.3123 73.5898 39.4534 74.3305 38.2795 74.3305C35.6741 74.359 33.0687 74.3305 30.4347 74.3305C28.0297 74.359 25.596 74.3305 23.1624 74.3305Z" fill="#FCB43C"/>
<path d="M8.53201 44.5014C10.5362 44.5014 12.5403 44.5014 14.5445 44.5014C16.0619 44.5014 17.0354 45.3846 17.064 46.6952C17.0927 47.9772 16.0906 48.9174 14.6018 48.9174C10.5648 48.9174 6.52785 48.9174 2.49089 48.9174C0.94482 48.9174 0.0286309 48.0627 0 46.7237C0 45.3276 0.916189 44.5014 2.54815 44.5014C4.55232 44.4729 6.55648 44.5014 8.53201 44.5014Z" fill="#FCB43C"/>
<path d="M22.9048 60.6552C20.9865 60.6552 19.0396 60.6552 17.1213 60.6552C15.6039 60.6552 14.6304 59.7435 14.6591 58.433C14.6591 57.1225 15.6325 56.2393 17.15 56.2393C20.9865 56.2393 24.7944 56.2393 28.631 56.2393C30.1198 56.2393 31.1505 57.1225 31.1791 58.4045C31.2077 59.715 30.1484 60.6552 28.6023 60.6552C26.684 60.6837 24.7944 60.6552 22.9048 60.6552Z" fill="#FCB43C"/>
<path d="M20.1276 26.4669C18.8678 26.4669 17.6367 26.4669 16.3769 26.4669C14.8881 26.4384 13.8574 25.5553 13.8574 24.3017C13.8288 23.0481 14.8595 22.0795 16.3197 22.0795C18.8964 22.051 21.4732 22.051 24.0214 22.0795C25.4815 22.0795 26.5123 23.0196 26.4836 24.3017C26.455 25.5837 25.4529 26.4669 23.9641 26.4954C22.7043 26.4954 21.416 26.4669 20.1276 26.4669Z" fill="#FCB43C"/>
<path d="M5.66892 26.4671C4.52369 26.4671 3.37845 26.4956 2.23321 26.4671C0.887559 26.4386 0 25.5269 0 24.2449C0 22.9628 0.887559 22.0796 2.26184 22.0512C4.52369 22.0227 6.7569 22.0227 9.01874 22.0512C10.393 22.0796 11.2806 22.9343 11.3092 24.2164C11.3378 25.5269 10.4217 26.4386 8.99011 26.4671C7.8735 26.4956 6.7569 26.4671 5.66892 26.4671Z" fill="#FCB43C"/>
<path d="M84.2894 27.9488C84.3181 29.1454 83.2587 30.228 82.0562 30.228C80.8537 30.228 79.7944 29.2023 79.7658 28.0058C79.7371 26.8092 80.8251 25.7551 81.999 25.7266C83.2301 25.7266 84.2608 26.7237 84.2894 27.9488Z" fill="#FCB43C"/>
<path d="M21.2727 44.5011C22.4752 44.5296 23.4773 45.5268 23.4487 46.6949C23.4487 47.9769 22.3894 48.9456 21.0723 48.9171C19.8412 48.8886 18.8391 47.8345 18.8964 46.6094C18.9823 45.3843 20.013 44.4726 21.2727 44.5011Z" fill="#FCB43C"/>
</svg>
