<svg width="20" height="20" viewBox="0 0 20 20" fill="none" xmlns="http://www.w3.org/2000/svg">
<path fill-rule="evenodd" clip-rule="evenodd" d="M1.875 10C1.875 7.84511 2.73102 5.77849 4.25476 4.25476C5.77849 2.73102 7.84511 1.875 10 1.875C12.1549 1.875 14.2215 2.73102 15.7452 4.25476C17.269 5.77849 18.125 7.84511 18.125 10C18.125 12.1549 17.269 14.2215 15.7452 15.7452C14.2215 17.269 12.1549 18.125 10 18.125C7.84511 18.125 5.77849 17.269 4.25476 15.7452C2.73102 14.2215 1.875 12.1549 1.875 10ZM10 0C7.34784 0 4.8043 1.05357 2.92894 2.92894C1.05357 4.8043 0 7.34784 0 10C0 12.6521 1.05357 15.1958 2.92894 17.0711C4.8043 18.9464 7.34784 20 10 20C12.6521 20 15.1958 18.9464 17.0711 17.0711C18.9464 15.1958 20 12.6521 20 10C20 7.34784 18.9464 4.8043 17.0711 2.92894C15.1958 1.05357 12.6521 0 10 0ZM6.25 10C6.58152 10 6.89946 9.8683 7.13389 9.63389C7.3683 9.39946 7.5 9.08152 7.5 8.75C7.5 8.41848 7.3683 8.10054 7.13389 7.86611C6.89946 7.6317 6.58152 7.5 6.25 7.5C5.91848 7.5 5.60054 7.6317 5.36611 7.86611C5.1317 8.10054 5 8.41848 5 8.75C5 9.08152 5.1317 9.39946 5.36611 9.63389C5.60054 9.8683 5.91848 10 6.25 10ZM15 8.75C15 9.08152 14.8682 9.39946 14.6339 9.63389C14.3995 9.8683 14.0815 10 13.75 10C13.4185 10 13.1005 9.8683 12.8661 9.63389C12.6318 9.39946 12.5 9.08152 12.5 8.75C12.5 8.41848 12.6318 8.10054 12.8661 7.86611C13.1005 7.6317 13.4185 7.5 13.75 7.5C14.0815 7.5 14.3995 7.6317 14.6339 7.86611C14.8682 8.10054 15 8.41848 15 8.75ZM6.65 12.045C6.85168 11.9038 7.1008 11.8476 7.34357 11.8885C7.58635 11.9294 7.80327 12.0642 7.9475 12.2638L7.95625 12.275C8.08481 12.4224 8.23186 12.5526 8.39375 12.6625C8.72375 12.885 9.2475 13.125 10 13.125C10.7525 13.125 11.275 12.885 11.6062 12.6612C11.7681 12.5514 11.9152 12.4212 12.0438 12.2738L12.0525 12.2638C12.1967 12.0612 12.4155 11.9242 12.6606 11.883C12.9059 11.8417 13.1575 11.8995 13.36 12.0438C13.5625 12.188 13.6995 12.4067 13.7408 12.6519C13.782 12.8971 13.7243 13.1487 13.58 13.3512L12.8125 12.8125C13.58 13.35 13.58 13.3512 13.5787 13.3512V13.3525L13.5775 13.355L13.575 13.3588L13.5687 13.3675L13.5512 13.3913C13.481 13.4854 13.4041 13.5742 13.3212 13.6575C13.1204 13.8655 12.8984 14.0519 12.6587 14.2138C11.8715 14.7368 10.9451 15.0107 10 15C8.8175 15 7.935 14.615 7.3425 14.2125C7.02899 14.0004 6.74595 13.7464 6.50125 13.4575C6.48338 13.4358 6.46587 13.4136 6.44875 13.3913L6.43125 13.3663L6.425 13.3588L6.4225 13.355V13.3525H6.42125L7.1875 12.8125L6.42 13.35C6.27745 13.1465 6.22147 12.8949 6.26436 12.6501C6.30726 12.4055 6.4455 12.1878 6.64875 12.045H6.65Z" fill="#2C2C2E"/>
</svg>
