<svg width="22" height="22" viewBox="0 0 22 22" fill="none" xmlns="http://www.w3.org/2000/svg">
<path d="M0.446352 21.9999C0.120129 21.8397 -0.00578142 21.5878 -5.82141e-05 21.2216C0.0113882 18.732 0.00566499 16.2424 0.00566499 13.7528C0.00566499 13.2091 0.240316 12.9687 0.789744 12.9687C2.62117 12.9687 4.4526 12.963 6.28402 12.9744C6.49578 12.9744 6.5988 12.9 6.69609 12.7226C7.90369 10.5878 9.39744 8.68774 11.2804 7.09669C11.4177 6.98222 11.4349 6.89065 11.3548 6.73613C10.6279 5.28243 9.91826 3.82874 9.18569 2.37504C9.00254 2.01448 9.03688 1.70543 9.30015 1.40782C9.80379 0.841225 10.3475 0.326136 11.0915 0.0914849C11.6524 -0.0859344 12.1789 0.01136 12.6826 0.286074C12.9573 0.434877 13.2205 0.612297 13.4437 0.835502C13.5468 0.938519 13.6154 0.932796 13.7242 0.835502C14.1248 0.469216 14.5655 0.17161 15.1035 0.0514225C15.5155 -0.0401488 15.9104 0.00563685 16.2996 0.17161C16.9807 0.469216 17.5015 0.961412 17.9594 1.53373C18.1597 1.78555 18.1425 2.06027 17.9994 2.3407C17.2668 3.80585 16.5457 5.27671 15.8132 6.74185C15.733 6.9021 15.7388 6.98795 15.8818 7.11386C18.2226 9.22572 20.0769 11.6924 21.3418 14.5941C21.6623 15.3324 21.8683 16.105 21.9942 16.9005C21.9942 17.3183 21.9942 17.7304 21.9942 18.1482C21.9828 18.2054 21.9713 18.2569 21.9599 18.3142C21.7825 19.4588 21.2273 20.3574 20.2372 20.9755C19.4474 21.4677 18.566 21.6966 17.6618 21.8568C17.2039 21.937 16.7403 21.9599 16.2825 22.0171C11.0057 21.9999 5.72887 21.9999 0.446352 21.9999ZM14.245 17.0379C14.245 18.1596 14.245 19.2814 14.245 20.4089C14.245 20.695 14.245 20.695 14.5254 20.695C15.2981 20.695 16.0707 20.6779 16.8376 20.6092C17.5244 20.5462 18.1997 20.4318 18.8465 20.1857C20.3631 19.6076 20.7122 18.5545 20.6836 17.4042C20.6664 16.5686 20.4089 15.7845 20.0769 15.029C18.9724 12.5108 17.3813 10.3417 15.3954 8.44736C15.1779 8.24133 14.9375 8.05819 14.7086 7.86932C14.5827 7.77203 14.4339 7.7892 14.2965 7.82926C14.2107 7.85787 14.245 7.96662 14.2507 8.04102C14.308 9.01396 14.6571 9.861 15.3267 10.5707C15.6071 10.8626 15.5957 11.2746 15.3324 11.5322C15.0577 11.7954 14.6513 11.7725 14.3537 11.4749C14.1019 11.2174 13.8787 10.9427 13.6956 10.6279C13.5983 10.4562 13.5468 10.4905 13.4609 10.6336C13.2721 10.9484 13.0488 11.2346 12.7856 11.4921C12.6711 11.6066 12.5395 11.6867 12.3735 11.7039C12.0816 11.7382 11.8241 11.6009 11.6982 11.349C11.5665 11.0915 11.6066 10.8053 11.8241 10.5764C12.5109 9.85527 12.8543 8.99107 12.9115 8.00668C12.9229 7.8636 12.8886 7.80637 12.7283 7.79492C12.4708 7.77775 12.322 7.94372 12.156 8.0868C10.5764 9.40886 9.3116 10.9942 8.22419 12.734C8.18412 12.797 8.09828 12.8657 8.14979 12.9401C8.18985 13.003 8.28142 12.963 8.3501 12.963C10.0327 12.963 11.7096 12.9801 13.3922 12.9573C13.9417 12.9515 14.2564 13.2262 14.2393 13.8157C14.2221 14.8917 14.245 15.9677 14.245 17.0379ZM7.12533 14.285C5.28246 14.285 3.43386 14.2908 1.59099 14.2793C1.39068 14.2793 1.322 14.3308 1.322 14.5426C1.32773 16.4999 1.32773 18.463 1.322 20.4203C1.322 20.6435 1.39068 20.695 1.60244 20.695C5.28818 20.6893 8.9682 20.6893 12.6539 20.695C12.8657 20.695 12.9344 20.6435 12.9344 20.4203C12.9287 18.4687 12.9287 16.5171 12.9287 14.5597C12.9287 14.2793 12.9287 14.2793 12.6425 14.2793C10.7996 14.285 8.96248 14.285 7.12533 14.285ZM13.5983 6.48431C13.8272 6.48431 14.0561 6.47858 14.2851 6.48431C14.411 6.49003 14.4796 6.43852 14.5312 6.32978C15.1321 5.11074 15.7388 3.89742 16.3397 2.67837C16.7003 1.95153 16.6945 1.92863 15.9906 1.49939C15.9734 1.48795 15.9562 1.4765 15.9333 1.46505C15.6472 1.29336 15.3667 1.29336 15.0863 1.47078C14.7486 1.67681 14.4568 1.94008 14.2049 2.24341C13.7929 2.74133 13.3751 2.74133 12.963 2.24341C12.7112 1.93436 12.4193 1.67681 12.0816 1.47078C11.8012 1.29908 11.515 1.29336 11.2346 1.46505C11.0171 1.60241 10.8111 1.75694 10.6222 1.93436C10.5306 2.02021 10.5364 2.09461 10.5879 2.19762C11.2747 3.56547 11.9557 4.93904 12.6311 6.30689C12.694 6.4328 12.7684 6.49003 12.9115 6.48431C13.1404 6.47858 13.3693 6.48431 13.5983 6.48431Z" fill="#FCB43C"/>
<path d="M9.09368 17.5013C9.09368 18.5887 8.22948 19.4357 7.13635 19.4357C6.04894 19.4357 5.2019 18.5715 5.2019 17.4784C5.2019 16.391 6.06611 15.5439 7.15924 15.5439C8.24093 15.5439 9.09368 16.4081 9.09368 17.5013ZM7.14207 18.1137C7.46257 18.1137 7.76018 17.8161 7.77162 17.4956C7.77735 17.1693 7.46257 16.8546 7.13635 16.8603C6.81585 16.866 6.51824 17.1693 6.51824 17.4898C6.52396 17.8161 6.82157 18.1137 7.14207 18.1137Z" fill="#FCB43C"/>
<path d="M3.93719 17.4903C3.93719 17.868 3.6453 18.1542 3.26757 18.1485C2.90129 18.1427 2.62085 17.8566 2.62085 17.4903C2.62085 17.1126 2.91273 16.8264 3.29046 16.8321C3.65675 16.8378 3.94291 17.124 3.93719 17.4903Z" fill="#FCB43C"/>
<path d="M11.0003 18.1485C10.6283 18.1427 10.3422 17.8508 10.3536 17.4674C10.3593 17.1011 10.6512 16.8264 11.0232 16.8321C11.3952 16.8378 11.6814 17.1297 11.6699 17.5132C11.6585 17.8737 11.3666 18.1542 11.0003 18.1485Z" fill="#FCB43C"/>
</svg>
