<svg width="22" height="18" viewBox="0 0 22 18" fill="none" xmlns="http://www.w3.org/2000/svg">
<path d="M21.3399 9.24552C20.5206 10.4165 19.5174 11.4179 18.4418 12.3591C17.2212 13.4262 15.8836 14.3181 14.3788 14.9583C13.1749 15.4672 11.9209 15.7792 10.6056 15.7463C9.16764 15.7135 7.79659 15.3742 6.50356 14.7449C6.05769 14.5261 6.2026 14.4987 5.83475 14.8544C4.85941 15.8065 3.88964 16.7587 2.91987 17.7108C2.58546 18.0336 2.19532 18.0884 1.86649 17.864C1.44849 17.5795 1.39276 17.0487 1.75503 16.6766C2.17303 16.2498 2.60776 15.8339 3.03133 15.418C3.54409 14.9146 4.05684 14.4057 4.58074 13.9022C4.70893 13.7764 4.70335 13.7162 4.55844 13.6122C2.92544 12.485 1.49865 11.1388 0.266931 9.59573C-0.0786197 9.16343 -0.0953399 8.84606 0.255784 8.41923C1.81633 6.47665 3.63326 4.81315 5.84032 3.59288C7.05533 2.92529 8.34278 2.46563 9.73613 2.30147C10.8842 2.17014 12.0045 2.31242 13.108 2.60244C13.7713 2.77754 14.4122 3.01831 15.0197 3.34116C15.1758 3.42324 15.2705 3.40136 15.3931 3.28097C16.3852 2.30147 17.3828 1.32197 18.3805 0.347946C18.4529 0.276809 18.5309 0.205672 18.6145 0.145479C18.9378 -0.0788754 19.3447 -0.0405703 19.6178 0.238505C19.8964 0.51758 19.9187 0.933456 19.6735 1.24536C19.6122 1.32197 19.5453 1.38764 19.4728 1.4533C18.5755 2.3343 17.6782 3.2153 16.7809 4.09631C16.6583 4.21669 16.6471 4.27688 16.8032 4.38632C18.4306 5.51357 19.8574 6.84875 21.078 8.3864C21.1727 8.50679 21.2508 8.63264 21.3399 8.75303C21.3399 8.92266 21.3399 9.08135 21.3399 9.24552ZM6.86026 8.98833C6.89927 7.96505 7.23925 7.06216 8.0028 6.33438C8.83881 5.53546 9.84202 5.1743 11.0124 5.26733C11.5809 5.3111 12.1104 5.47527 12.6009 5.75981C12.7012 5.82 12.7848 5.86378 12.8907 5.75434C13.2362 5.40413 13.5929 5.05939 13.9496 4.71465C14.0499 4.62162 14.0221 4.57238 13.9106 4.5286C12.6454 3.97045 11.3301 3.69137 9.94792 3.83912C8.60473 3.98139 7.37301 4.48482 6.22489 5.16883C4.56959 6.1538 3.17624 7.42879 1.91666 8.86247C1.80519 8.9938 1.84977 9.07041 1.94452 9.17438C3.05363 10.4548 4.30764 11.5711 5.71771 12.5178C5.86262 12.6163 5.93507 12.5944 6.04654 12.485C6.47012 12.0582 6.8937 11.6423 7.32842 11.2264C7.45104 11.106 7.47333 11.0239 7.37858 10.8652C7.02746 10.2907 6.87698 9.65592 6.86026 8.98833ZM14.5181 9.05399C14.4735 9.9733 14.1837 10.8762 13.4034 11.6423C12.6399 12.3974 11.7035 12.7586 10.6334 12.7586C9.96464 12.7586 9.32927 12.5835 8.75521 12.2333C8.64374 12.1621 8.56014 12.1676 8.46539 12.2661C8.12542 12.6054 7.77987 12.9446 7.43432 13.2784C7.34514 13.366 7.32285 13.4207 7.46218 13.4809C8.72734 14.039 10.0427 14.3181 11.4249 14.1649C12.7848 14.0171 14.0221 13.5082 15.1813 12.8133C16.8143 11.8338 18.1965 10.5698 19.4394 9.15796C19.5564 9.02663 19.5286 8.94455 19.4227 8.82964C18.3136 7.55465 17.0596 6.43288 15.6495 5.48621C15.5213 5.39866 15.4489 5.39318 15.3374 5.5081C14.9082 5.94039 14.4679 6.37268 14.0276 6.79403C13.9162 6.90347 13.8939 6.98008 13.9831 7.12236C14.3453 7.70239 14.4958 8.34263 14.5181 9.05399ZM8.4431 9.03211C8.43753 9.21816 8.47097 9.45345 8.54342 9.67781C8.62145 9.90763 8.64374 9.91858 8.81652 9.74894C9.69154 8.88983 10.5721 8.02525 11.4472 7.16613C11.6199 6.9965 11.6144 6.97461 11.3803 6.898C9.93677 6.4274 8.45425 7.47804 8.4431 9.03211ZM12.9353 8.95002C12.9464 8.77492 12.9074 8.53962 12.8294 8.30979C12.7569 8.09091 12.729 8.08544 12.5674 8.24413C11.6924 9.10324 10.8118 9.96783 9.93677 10.8269C9.75285 11.0075 9.76399 11.0239 10.0092 11.106C11.4583 11.5657 12.9297 10.515 12.9353 8.95002Z" fill="#001540"/>
</svg>
