<svg width="17" height="16" viewBox="0 0 17 16" fill="none" xmlns="http://www.w3.org/2000/svg">
<path d="M3.4209 7.68781V15.9985L3.42727 7.68781H3.4209ZM14.8577 5.97325H8.17665L8.38065 2.12083C8.3934 1.88976 8.28077 1.67228 8.0704 1.5286C7.94077 1.44122 7.7814 1.39656 7.62202 1.3985C7.20552 1.40044 6.8379 1.65869 6.72527 2.02568C5.9369 4.63539 5.34615 6.59267 4.9509 7.89946V14.6024H13.4382C13.6506 14.5154 13.8309 14.3742 13.9576 14.1957C14.0843 14.0173 14.1518 13.8092 14.1522 13.5965C14.1522 13.4082 14.1033 13.2296 14.0055 13.0664L13.7102 12.5732L14.1755 12.2043C14.3065 12.1006 14.4115 11.9724 14.4834 11.8283C14.5553 11.6842 14.5923 11.5277 14.592 11.3694C14.592 11.181 14.5431 11.0024 14.4454 10.8393L14.15 10.3461L14.6154 9.97713C14.7464 9.87346 14.8514 9.74522 14.9233 9.60114C14.9951 9.45706 15.0322 9.30052 15.0319 9.14218C15.0319 8.95383 14.983 8.77519 14.8853 8.61208L14.5878 8.11694L15.0532 7.748C15.1841 7.64434 15.2891 7.5161 15.361 7.37202C15.4329 7.22794 15.4699 7.0714 15.4697 6.91305C15.4697 6.54218 15.2359 6.1849 14.8577 5.97325Z" fill="white"/>
<path d="M0 8.31069V15.3786C0 15.7223 0.303875 16 0.68 16H2.06125V7.68933H0.68C0.303875 7.68933 0 7.967 0 8.31069ZM16.4454 8.42137C16.8024 7.9903 17 7.46215 17 6.91263C17 6.04079 16.4666 5.21361 15.6081 4.7573C15.3871 4.63884 15.1355 4.5765 14.8793 4.57671H9.78137L9.90887 2.19031C9.94075 1.61361 9.71762 1.06604 9.282 0.648565C9.06943 0.442592 8.8128 0.278738 8.52804 0.167174C8.24327 0.0556094 7.93646 -0.00128494 7.62662 2.20164e-05C6.52162 2.20164e-05 5.54413 0.679633 5.25088 1.65245L3.42762 7.68739L3.42125 15.9981H13.4534C13.651 15.9981 13.8401 15.9631 14.0165 15.8932C15.028 15.499 15.6804 14.5961 15.6804 13.5942C15.6804 13.3495 15.6421 13.1087 15.5656 12.8757C15.9226 12.4447 16.1202 11.9165 16.1202 11.367C16.1202 11.1223 16.082 10.8816 16.0055 10.6486C16.3625 10.2175 16.5601 9.68933 16.5601 9.13981C16.5601 8.89516 16.5219 8.65438 16.4454 8.42137ZM15.0535 7.74758L14.5881 8.11652L14.8856 8.61166C14.9829 8.77413 15.0334 8.95655 15.0323 9.14176C15.0323 9.46214 14.8814 9.767 14.6157 9.97671L14.1504 10.3456L14.4457 10.8388C14.5431 11.0013 14.5935 11.1837 14.5924 11.3689C14.5924 11.6893 14.4415 11.9942 14.1759 12.2039L13.7105 12.5728L14.0059 13.066C14.1032 13.2285 14.1536 13.4109 14.1525 13.5961C14.1525 14.0311 13.872 14.4233 13.4385 14.6019H4.95125V7.89904C5.3465 6.59419 5.93725 4.63691 6.72563 2.02526C6.78071 1.84614 6.89789 1.68817 7.05959 1.57508C7.22128 1.46199 7.41876 1.39988 7.62238 1.39808C7.78175 1.39614 7.94112 1.4408 8.07075 1.52818C8.28112 1.67186 8.39375 1.88934 8.381 2.12041L8.177 5.97283H14.858C15.2363 6.18448 15.47 6.54176 15.47 6.91263C15.47 7.23302 15.3191 7.53788 15.0535 7.74758Z" fill="white"/>
</svg>
