<svg width="21" height="20" viewBox="0 0 21 20" fill="none" xmlns="http://www.w3.org/2000/svg">
<path d="M19.3712 10.6583L19.3727 10.66C19.4378 10.7317 19.4806 10.8207 19.4959 10.9163C19.5113 11.012 19.4985 11.11 19.4591 11.1984C19.4198 11.2869 19.3556 11.3619 19.2744 11.4144C19.1933 11.4669 19.0987 11.4946 19.0021 11.4942H19H17H16.5V11.9942V18.9993C16.5 19.1322 16.4472 19.2596 16.3534 19.3535C16.2596 19.4473 16.1325 19.5 16 19.5H13C12.8675 19.5 12.7404 19.4473 12.6466 19.3535C12.5528 19.2596 12.5 19.1322 12.5 18.9993V14.9964V14.4964H12H7.99998H7.49998V14.9964V18.9993C7.49998 19.1322 7.44722 19.2596 7.35341 19.3535C7.25961 19.4473 7.13248 19.5 6.99998 19.5H3.99998C3.86749 19.5 3.74035 19.4473 3.64656 19.3535C3.55275 19.2596 3.49998 19.1322 3.49998 18.9993V11.9942V11.4942H2.99998H0.999984C0.802126 11.4942 0.623763 11.378 0.544155 11.1983L0.54346 11.1967C0.504011 11.1085 0.491028 11.0106 0.506111 10.9151C0.521193 10.8196 0.56368 10.7305 0.628356 10.6588L0.628751 10.6583L9.62875 0.651078L9.6291 0.650688C9.80942 0.449771 10.1906 0.449771 10.3709 0.650688L10.3712 0.651078L19.3712 10.6583Z" stroke="#999999"/>
</svg>
