<svg width="14" height="20" viewBox="0 0 14 20" fill="none" xmlns="http://www.w3.org/2000/svg">
<path d="M7.30866 0C7.87953 0.0927055 8.44552 0.200049 8.99199 0.404977C10.1825 0.858746 11.1633 1.59063 11.9391 2.60063C12.7197 3.6204 13.1637 4.7719 13.276 6.04538C13.3931 7.35789 13.1393 8.61186 12.5099 9.778C11.8707 10.9636 10.9486 11.8809 9.75315 12.5152C9.09934 12.8617 8.40648 13.1008 7.66972 13.1983C7.49407 13.2227 7.43064 13.2862 7.43064 13.4716C7.4404 14.0425 7.4404 14.6182 7.43064 15.1891C7.42576 15.355 7.47455 15.4184 7.6502 15.4135C8.06494 15.4038 8.48455 15.4038 8.89929 15.4135C9.42137 15.4233 9.76291 15.7355 9.77267 16.1893C9.78243 16.6577 9.45064 17.0139 8.97736 17.0237C8.52847 17.0334 8.07958 17.0334 7.63069 17.0237C7.47943 17.0188 7.42576 17.0725 7.42576 17.2237C7.43064 17.8678 7.43064 18.5118 7.42576 19.1559C7.42576 19.6536 7.09397 19.9951 6.62068 19.9951C6.16203 19.9902 5.84 19.6438 5.83513 19.1559C5.83513 18.5167 5.83025 17.8824 5.84 17.2432C5.84 17.0725 5.78633 17.0188 5.61556 17.0237C5.16667 17.0334 4.71778 17.0334 4.26889 17.0237C3.87367 17.0139 3.55164 16.7212 3.49797 16.3503C3.4443 15.96 3.64923 15.6087 4.00541 15.4818C4.14203 15.433 4.28353 15.4184 4.42503 15.4184C4.82024 15.4184 5.22034 15.4135 5.61556 15.4184C5.76682 15.4233 5.84 15.3842 5.83513 15.2135C5.82537 14.6231 5.82537 14.0278 5.83513 13.4374C5.83513 13.2862 5.77657 13.2325 5.63508 13.213C3.69314 12.9105 2.18058 11.9297 1.07787 10.3196C0.502117 9.44133 0.145933 8.46548 0.0385896 7.41156C-0.195614 5.05489 0.585064 3.08368 2.37575 1.53696C3.36623 0.673335 4.54213 0.19517 5.84976 0.0292754C5.89368 0.0243962 5.93759 0.00975848 5.9815 0C6.42551 0 6.86465 0 7.30866 0ZM6.6402 11.6711C9.37745 11.6907 11.7 9.49012 11.6902 6.63089C11.6805 3.75701 9.42625 1.58087 6.63532 1.58575C3.81024 1.59551 1.6097 3.80093 1.59507 6.62601C1.58531 9.4706 3.88831 11.6907 6.6402 11.6711Z" fill="black"/>
</svg>
