<svg width="104" height="104" viewBox="0 0 104 104" fill="none" xmlns="http://www.w3.org/2000/svg">
<path d="M52 104C80.7188 104 104 80.7188 104 52C104 23.2812 80.7188 0 52 0C23.2812 0 0 23.2812 0 52C0 80.7188 23.2812 104 52 104Z" fill="#FCB43C"/>
<path d="M52 102.266C79.7609 102.266 102.266 79.7609 102.266 52C102.266 24.2391 79.7609 1.73438 52 1.73438C24.2391 1.73438 1.73438 24.2391 1.73438 52C1.73438 79.7609 24.2391 102.266 52 102.266Z" fill="url(#paint0_linear_690_6062)"/>
<path opacity="0.58" d="M5.66041 50.0765C5.64465 50.0765 5.64464 50.0765 5.62888 50.0765C5.3293 50.0608 5.10856 49.8085 5.12433 49.5247C5.2347 47.5538 5.45544 45.5671 5.80232 43.6278C5.84962 43.344 6.13343 43.1548 6.41723 43.2021C6.70104 43.2494 6.89025 43.5332 6.84295 43.817C6.49607 45.709 6.27533 47.6484 6.18073 49.572C6.18073 49.8558 5.94422 50.0765 5.66041 50.0765Z" fill="#001540"/>
<path opacity="0.58" d="M10.5482 31.6444C10.4694 31.6444 10.3906 31.6287 10.3117 31.5814C10.0437 31.4552 9.9491 31.1241 10.0752 30.8718C18.1165 14.947 34.1832 5.06104 52 5.06104C54.8381 5.06104 57.692 5.31331 60.467 5.81786C60.7508 5.86516 60.94 6.14897 60.8927 6.43278C60.8454 6.71658 60.5616 6.92156 60.2778 6.85849C57.5658 6.36971 54.7751 6.11743 52 6.11743C34.5774 6.11743 18.8733 15.7827 11.0213 31.3448C10.9267 31.5341 10.7375 31.6444 10.5482 31.6444Z" fill="#001540"/>
<path d="M52.8526 95.4083C76.3554 95.4083 95.4081 76.3556 95.4081 52.8529C95.4081 29.3501 76.3554 10.2974 52.8526 10.2974C29.3499 10.2974 10.2971 29.3501 10.2971 52.8529C10.2971 76.3556 29.3499 95.4083 52.8526 95.4083Z" fill="#FCB43C"/>
<g clip-path="url(#clip0_690_6062)">
<path d="M39.7591 56.4305C39.7591 55.7146 39.179 55.1226 38.4469 55.1226H32.2034C31.4851 55.1226 30.8911 55.7008 30.8911 56.4305V68.7256C30.8911 69.4416 31.4713 70.0336 32.2034 70.0336H38.4607C39.179 70.0336 39.7729 69.4554 39.7729 68.7256V56.4305H39.7591Z" fill="white"/>
<path d="M51.9147 49.9179C51.9147 49.2019 51.3345 48.6099 50.6024 48.6099H44.3451C43.6268 48.6099 43.0328 49.1881 43.0328 49.9179V68.7254C43.0328 69.4413 43.613 70.0334 44.3451 70.0334H50.6024C51.3207 70.0334 51.9147 69.4551 51.9147 68.7254V49.9179Z" fill="white"/>
<path d="M64.0564 42.9237C64.0564 42.2078 63.4762 41.6157 62.7441 41.6157H56.4868C55.7685 41.6157 55.1746 42.194 55.1746 42.9237V68.2574C55.1746 68.9734 55.7547 69.5654 56.4868 69.5654H62.7441C63.4624 69.5654 64.0564 68.9871 64.0564 68.2574V42.9237Z" fill="white"/>
<path d="M76.1981 37.3475C76.1981 36.6316 75.6179 36.0396 74.8859 36.0396H68.6285C67.9102 36.0396 67.3163 36.6178 67.3163 37.3475V68.2574C67.3163 68.9734 67.8964 69.5654 68.6285 69.5654H74.8859C75.6041 69.5654 76.1981 68.9871 76.1981 68.2574V37.3475Z" fill="white"/>
</g>
<defs>
<linearGradient id="paint0_linear_690_6062" x1="35.6571" y1="109.307" x2="-87.4896" y2="541.119" gradientUnits="userSpaceOnUse">
<stop stop-color="#F4EEEE"/>
<stop offset="1" stop-color="#FF928E"/>
</linearGradient>
<clipPath id="clip0_690_6062">
<rect width="45.3069" height="33.9802" fill="white" transform="translate(30.8911 36.0396)"/>
</clipPath>
</defs>
</svg>
