<svg width="104" height="104" viewBox="0 0 104 104" fill="none" xmlns="http://www.w3.org/2000/svg">
<path d="M52 104C80.7188 104 104 80.7188 104 52C104 23.2812 80.7188 0 52 0C23.2812 0 0 23.2812 0 52C0 80.7188 23.2812 104 52 104Z" fill="#FCB43C"/>
<path d="M52 102.266C79.7609 102.266 102.266 79.7609 102.266 52C102.266 24.2391 79.7609 1.73438 52 1.73438C24.2391 1.73438 1.73438 24.2391 1.73438 52C1.73438 79.7609 24.2391 102.266 52 102.266Z" fill="url(#paint0_linear_690_5938)"/>
<path opacity="0.58" d="M5.66041 50.0765C5.64465 50.0765 5.64464 50.0765 5.62888 50.0765C5.3293 50.0608 5.10856 49.8085 5.12433 49.5247C5.2347 47.5538 5.45544 45.5671 5.80232 43.6278C5.84962 43.344 6.13343 43.1548 6.41723 43.2021C6.70104 43.2494 6.89025 43.5332 6.84295 43.817C6.49607 45.709 6.27533 47.6484 6.18073 49.572C6.18073 49.8558 5.94422 50.0765 5.66041 50.0765Z" fill="#001540"/>
<path opacity="0.58" d="M10.5482 31.6444C10.4694 31.6444 10.3906 31.6287 10.3117 31.5814C10.0437 31.4552 9.9491 31.1241 10.0752 30.8718C18.1165 14.947 34.1832 5.06104 52 5.06104C54.8381 5.06104 57.692 5.31331 60.467 5.81786C60.7508 5.86516 60.94 6.14897 60.8927 6.43278C60.8454 6.71658 60.5616 6.92156 60.2778 6.85849C57.5658 6.36971 54.7751 6.11743 52 6.11743C34.5774 6.11743 18.8733 15.7827 11.0213 31.3448C10.9267 31.5341 10.7375 31.6444 10.5482 31.6444Z" fill="#001540"/>
<path d="M53.088 95.6432C76.5907 95.6432 95.6434 76.5905 95.6434 53.0877C95.6434 29.585 76.5907 10.5322 53.088 10.5322C29.5852 10.5322 10.5325 29.585 10.5325 53.0877C10.5325 76.5905 29.5852 95.6432 53.088 95.6432Z" fill="#FCB43C"/>
<path d="M73.6956 34.2305V74.957C73.6956 77.6532 71.8035 80.4282 69.0916 80.4282H34.8927C32.1965 80.4282 29.453 77.6532 29.453 74.957V30.9825C29.453 28.2863 32.1965 26.0474 34.8927 26.0474H65.8593L73.6956 34.2305Z" fill="white"/>
<path d="M40.2535 42.9181C40.2535 44.4475 39.0079 45.6931 37.4785 45.6931C35.9491 45.6931 34.7035 44.4475 34.7035 42.9181C34.7035 41.3887 35.9491 40.1431 37.4785 40.1431C39.0079 40.1431 40.2535 41.3887 40.2535 42.9181Z" fill="#FCB43C"/>
<path d="M68.9024 43.99C68.9024 45.2672 67.8617 46.292 66.6004 46.292H45.094C43.8169 46.292 42.792 45.2514 42.792 43.99V43.2805C42.792 42.0034 43.8326 40.9785 45.094 40.9785H66.6004C67.8775 40.9785 68.9024 42.0191 68.9024 43.2805V43.99Z" fill="#FCB43C"/>
<path d="M40.2535 52.6935C40.2535 54.2229 39.0079 55.4685 37.4785 55.4685C35.9491 55.4685 34.7035 54.2229 34.7035 52.6935C34.7035 51.1641 35.9491 49.9185 37.4785 49.9185C39.0079 49.9185 40.2535 51.1641 40.2535 52.6935Z" fill="#FCB43C"/>
<path d="M68.9024 54.1282C68.9024 55.4054 67.8617 56.4302 66.6004 56.4302H45.094C43.8169 56.4302 42.792 55.3896 42.792 54.1282V53.4187C42.792 52.1416 43.8326 51.1167 45.094 51.1167H66.6004C67.8775 51.1167 68.9024 52.1573 68.9024 53.4187V54.1282Z" fill="#FCB43C"/>
<path d="M40.2535 62.4694C40.2535 63.9988 39.0079 65.2444 37.4785 65.2444C35.9491 65.2444 34.7035 63.9988 34.7035 62.4694C34.7035 60.9399 35.9491 59.6943 37.4785 59.6943C39.0079 59.6943 40.2535 60.9399 40.2535 62.4694Z" fill="#FCB43C"/>
<path d="M68.9024 63.1946C68.9024 64.4718 67.8617 65.4966 66.6004 65.4966H45.094C43.8169 65.4966 42.792 64.456 42.792 63.1946V62.4851C42.792 61.208 43.8326 60.1831 45.094 60.1831H66.6004C67.8775 60.1831 68.9024 61.2237 68.9024 62.4851V63.1946Z" fill="#FCB43C"/>
<path d="M73.9952 34.5776H69.1074C67.3099 34.5776 66.2378 32.7801 66.2378 30.9827V26.0791L66.0643 26.2683L73.9952 34.5776Z" fill="#E39005"/>
<defs>
<linearGradient id="paint0_linear_690_5938" x1="35.6571" y1="109.307" x2="-87.4896" y2="541.119" gradientUnits="userSpaceOnUse">
<stop stop-color="#F4EEEE"/>
<stop offset="1" stop-color="#FF928E"/>
</linearGradient>
</defs>
</svg>
