<svg width="104" height="104" viewBox="0 0 104 104" fill="none" xmlns="http://www.w3.org/2000/svg">
<path d="M52 104C80.7188 104 104 80.7188 104 52C104 23.2812 80.7188 0 52 0C23.2812 0 0 23.2812 0 52C0 80.7188 23.2812 104 52 104Z" fill="#FCB43C"/>
<path d="M52 102.266C79.7609 102.266 102.266 79.7609 102.266 52C102.266 24.2391 79.7609 1.73438 52 1.73438C24.2391 1.73438 1.73438 24.2391 1.73438 52C1.73438 79.7609 24.2391 102.266 52 102.266Z" fill="url(#paint0_linear_690_6145)"/>
<path opacity="0.58" d="M5.66041 50.0765C5.64465 50.0765 5.64464 50.0765 5.62888 50.0765C5.3293 50.0608 5.10856 49.8085 5.12433 49.5247C5.2347 47.5538 5.45544 45.5671 5.80232 43.6278C5.84962 43.344 6.13343 43.1548 6.41723 43.2021C6.70104 43.2494 6.89025 43.5332 6.84295 43.817C6.49607 45.709 6.27533 47.6484 6.18073 49.572C6.18073 49.8558 5.94422 50.0765 5.66041 50.0765Z" fill="#001540"/>
<path opacity="0.58" d="M10.5482 31.6444C10.4694 31.6444 10.3906 31.6287 10.3117 31.5814C10.0437 31.4552 9.9491 31.1241 10.0752 30.8718C18.1165 14.947 34.1832 5.06104 52 5.06104C54.8381 5.06104 57.692 5.31331 60.467 5.81786C60.7508 5.86516 60.94 6.14897 60.8927 6.43278C60.8454 6.71658 60.5616 6.92156 60.2778 6.85849C57.5658 6.36971 54.7751 6.11743 52 6.11743C34.5774 6.11743 18.8733 15.7827 11.0213 31.3448C10.9267 31.5341 10.7375 31.6444 10.5482 31.6444Z" fill="#001540"/>
<path d="M52.8526 95.4083C76.3554 95.4083 95.4081 76.3556 95.4081 52.8529C95.4081 29.3501 76.3554 10.2974 52.8526 10.2974C29.3499 10.2974 10.2971 29.3501 10.2971 52.8529C10.2971 76.3556 29.3499 95.4083 52.8526 95.4083Z" fill="#FCB43C"/>
<g clip-path="url(#clip0_690_6145)">
<path d="M52.0062 35.1527C46.8522 30.4805 38.8279 30.944 34.1606 36.1298C29.5058 41.303 29.8428 49.3698 35.0092 54.042C39.5517 58.163 46.5277 58.0503 50.9205 54.8562L54.3898 58.0127C54.4272 58.9522 54.6893 60.0795 55.4879 60.806L67.0688 71.3028C68.5289 72.6306 70.7378 72.1546 72.0606 70.6891L72.1355 70.6014C73.4583 69.1358 73.4209 67.1943 71.9608 65.8665L60.3799 55.3697C59.5937 54.6558 58.4331 54.5054 57.9464 54.067L54.4771 50.898C57.2101 46.1882 56.5487 39.2738 52.0062 35.1527ZM37.3554 52.3009C33.3744 48.6934 33.0625 42.5306 36.6565 38.5348C40.2506 34.539 46.3905 34.2258 50.3714 37.8333C54.3523 41.4408 54.6643 47.6036 51.0702 51.5994C47.4762 55.5952 41.3363 55.9084 37.3554 52.3009Z" fill="white"/>
<path d="M39.6143 49.1693C39.5893 49.2069 39.5519 49.2319 39.5144 49.2695C39.0901 49.6202 38.4662 49.5701 38.1167 49.1568C35.7956 46.401 35.8704 42.305 38.279 39.6245C38.6533 39.2111 39.2773 39.186 39.6891 39.5493C40.101 39.9251 40.1259 40.5514 39.764 40.9647C38.0169 42.9063 37.967 45.8749 39.6392 47.8666C39.9637 48.2424 39.9512 48.806 39.6143 49.1693Z" fill="white"/>
</g>
<defs>
<linearGradient id="paint0_linear_690_6145" x1="35.6571" y1="109.307" x2="-87.4896" y2="541.119" gradientUnits="userSpaceOnUse">
<stop stop-color="#F4EEEE"/>
<stop offset="1" stop-color="#FF928E"/>
</linearGradient>
<clipPath id="clip0_690_6145">
<rect width="42.2178" height="40.1584" fill="white" transform="translate(30.8911 31.9209)"/>
</clipPath>
</defs>
</svg>
