<svg width="15" height="20" viewBox="0 0 15 20" fill="none" xmlns="http://www.w3.org/2000/svg">
<path d="M8.30866 0C8.87953 0.0927055 9.44552 0.200049 9.99199 0.404977C11.1825 0.858746 12.1633 1.59063 12.9391 2.60063C13.7197 3.6204 14.1637 4.7719 14.276 6.04538C14.3931 7.35789 14.1393 8.61186 13.5099 9.778C12.8707 10.9636 11.9486 11.8809 10.7532 12.5152C10.0993 12.8617 9.40648 13.1008 8.66972 13.1983C8.49407 13.2227 8.43064 13.2862 8.43064 13.4716C8.4404 14.0425 8.4404 14.6182 8.43064 15.1891C8.42576 15.355 8.47455 15.4184 8.6502 15.4135C9.06494 15.4038 9.48455 15.4038 9.89929 15.4135C10.4214 15.4233 10.7629 15.7355 10.7727 16.1893C10.7824 16.6577 10.4506 17.0139 9.97736 17.0237C9.52847 17.0334 9.07958 17.0334 8.63069 17.0237C8.47943 17.0188 8.42576 17.0725 8.42576 17.2237C8.43064 17.8678 8.43064 18.5118 8.42576 19.1559C8.42576 19.6536 8.09397 19.9951 7.62068 19.9951C7.16203 19.9902 6.84 19.6438 6.83513 19.1559C6.83513 18.5167 6.83025 17.8824 6.84 17.2432C6.84 17.0725 6.78633 17.0188 6.61556 17.0237C6.16667 17.0334 5.71778 17.0334 5.26889 17.0237C4.87367 17.0139 4.55164 16.7212 4.49797 16.3503C4.4443 15.96 4.64923 15.6087 5.00541 15.4818C5.14203 15.433 5.28353 15.4184 5.42503 15.4184C5.82024 15.4184 6.22034 15.4135 6.61556 15.4184C6.76682 15.4233 6.84 15.3842 6.83513 15.2135C6.82537 14.6231 6.82537 14.0278 6.83513 13.4374C6.83513 13.2862 6.77657 13.2325 6.63508 13.213C4.69314 12.9105 3.18058 11.9297 2.07787 10.3196C1.50212 9.44133 1.14593 8.46548 1.03859 7.41156C0.804386 5.05489 1.58506 3.08368 3.37575 1.53696C4.36623 0.673335 5.54213 0.19517 6.84976 0.0292754C6.89368 0.0243962 6.93759 0.00975848 6.9815 0C7.42551 0 7.86465 0 8.30866 0ZM7.6402 11.6711C10.3775 11.6907 12.7 9.49012 12.6902 6.63089C12.6805 3.75701 10.4262 1.58087 7.63532 1.58575C4.81024 1.59551 2.6097 3.80093 2.59507 6.62601C2.58531 9.4706 4.88831 11.6907 7.6402 11.6711Z" fill="#FCB43C"/>
</svg>
