<svg width="22" height="18" viewBox="0 0 22 18" fill="none" xmlns="http://www.w3.org/2000/svg">
<mask id="path-1-outside-1_1195_21207" maskUnits="userSpaceOnUse" x="0" y="0" width="22" height="18" fill="black">
<rect fill="white" width="22" height="18"/>
<path fill-rule="evenodd" clip-rule="evenodd" d="M10.2115 1.11576C9.0064 1.49872 8.05779 2.65741 7.74851 4.1241C7.47767 5.40875 7.80791 6.85858 8.59617 7.84547L8.9269 8.2596L8.55462 8.41327L8.18229 8.56693L7.88855 8.2371C7.70861 8.03504 7.42448 7.80624 7.15524 7.64657L6.71566 7.38593L6.90755 7.11577C7.78911 5.87454 7.75721 4.11501 6.83126 2.90531C6.19854 2.0787 5.17929 1.70963 4.30684 1.99131C3.40698 2.28179 2.60663 3.26589 2.40434 4.33059C2.33804 4.67958 2.33819 5.4344 2.40464 5.7843C2.48153 6.18921 2.72672 6.75422 2.97491 7.0983L3.19424 7.40242L2.90981 7.54305C1.99511 7.99526 1.27714 9.03158 1.0744 10.1921C0.986359 10.6961 0.972109 12.6412 1.05511 12.8293C1.2063 13.172 3.21879 14.0316 3.86986 14.0316C4.08795 14.0316 4.25029 13.8205 4.25029 13.5369C4.25029 13.2324 4.13845 13.1414 3.59727 13.0053C3.0077 12.8571 2.51813 12.6744 2.10765 12.4491L1.78992 12.2748L1.81137 11.3188C1.82942 10.5129 1.85036 10.3083 1.94471 10.0156C2.1888 9.25862 2.69162 8.66317 3.32534 8.38058C3.59317 8.26118 3.74477 8.24426 4.73942 8.22255C5.45278 8.20696 5.9743 8.22364 6.18934 8.26882C6.57067 8.34899 7.0465 8.61381 7.29023 8.88161L7.45538 9.06293L7.08609 9.50653C6.39798 10.333 6.002 11.327 5.89776 12.4895C5.86796 12.8212 5.85071 13.5898 5.85941 14.1974C5.87801 15.4988 5.82906 15.3889 6.57517 15.8051C9.42197 17.3932 12.5811 17.3984 15.4005 15.8197C16.1744 15.3864 16.1218 15.5016 16.1405 14.1974C16.1492 13.5898 16.1319 12.8212 16.1021 12.4895C15.9976 11.3243 15.602 10.3331 14.9092 9.50107L14.5354 9.05201L14.7051 8.87688C14.9664 8.60708 15.4397 8.3468 15.8105 8.26882C16.0256 8.22364 16.5471 8.20696 17.2605 8.22255C18.2551 8.24426 18.4067 8.26118 18.6745 8.38058C19.3083 8.66317 19.8111 9.25862 20.0552 10.0156C20.1494 10.3079 20.1705 10.5131 20.1885 11.3135L20.2098 12.2642L20.0171 12.3831C19.6775 12.5927 18.9895 12.8614 18.453 12.9941C17.8582 13.1412 17.7496 13.2263 17.7496 13.5454C17.7496 13.8342 17.9142 14.0321 18.1528 14.0303C18.3872 14.0286 19.0993 13.8327 19.579 13.6382C20.1492 13.407 20.8812 12.9734 20.9448 12.8293C21.0282 12.6404 21.0135 10.696 20.9249 10.1887C20.7239 9.03794 19.9987 7.99229 19.0901 7.54305L18.8056 7.40242L19.0222 7.10224C19.4365 6.52784 19.6487 5.83349 19.6477 5.0566C19.6464 4.14963 19.423 3.50598 18.8811 2.84813C18.3358 2.1861 17.78 1.90387 17.0246 1.9055C15.6323 1.90842 14.4498 3.35558 14.4498 5.0566C14.4498 5.78746 14.6856 6.543 15.0923 7.11577L15.2842 7.38593L14.8446 7.64657C14.5754 7.80624 14.2913 8.03504 14.1113 8.2371L13.8176 8.56693L13.4329 8.40817L13.0483 8.24941L13.2237 8.07403C13.6715 7.62631 14.1392 6.64664 14.2742 5.87351C14.5842 4.09869 13.8279 2.24231 12.4597 1.41909C11.7638 1.00042 10.9288 0.887807 10.2115 1.11576ZM11.51 2.03085C12.4551 2.2699 13.2975 3.2916 13.4946 4.43799C13.6709 5.46351 13.4199 6.43821 12.7795 7.21498C11.7466 8.46778 10.2533 8.46778 9.22044 7.21498C8.18754 5.96223 8.18754 4.14915 9.22044 2.89913C9.86345 2.12097 10.6647 1.81709 11.51 2.03085ZM5.66277 3.04091C5.9915 3.21944 6.42153 3.73084 6.58712 4.14017C6.70791 4.43884 6.72476 4.55102 6.72491 5.0566C6.72506 5.57309 6.70996 5.6689 6.57912 5.98236C6.40538 6.39867 5.9923 6.89175 5.66277 7.07629C5.47103 7.18362 5.33359 7.20934 4.95025 7.20934C4.53048 7.2094 4.44193 7.18957 4.18834 7.03851C3.13755 6.41262 2.82066 4.82391 3.52378 3.70694C3.70452 3.41986 4.0565 3.11477 4.37898 2.96571C4.66537 2.83333 5.35478 2.87372 5.66277 3.04091ZM17.8105 3.07408C18.1871 3.2984 18.5249 3.70506 18.6905 4.13362C18.8064 4.43356 18.8245 4.55842 18.8245 5.0566C18.8245 5.56569 18.8081 5.67315 18.6836 5.98072C18.5041 6.4242 18.1772 6.82074 17.8115 7.03851C17.558 7.18957 17.4694 7.2094 17.0496 7.20934C16.6663 7.20934 16.5289 7.18362 16.3371 7.07629C16.0054 6.89054 15.5772 6.37933 15.4128 5.97302C15.2913 5.67272 15.2754 5.56496 15.277 5.0566C15.2791 4.36661 15.3738 4.06249 15.7303 3.60021C16.1577 3.046 16.5068 2.86814 17.1246 2.88979C17.4466 2.90107 17.5804 2.93703 17.8105 3.07408ZM12.8248 9.21053C13.9643 9.49973 14.9384 10.6318 15.2251 12.0001C15.3363 12.5309 15.3905 14.705 15.2948 14.7959C15.148 14.9353 14.2009 15.3855 13.6498 15.5778C12.7108 15.9054 12.1085 16.0017 10.9999 16.0017C9.8914 16.0017 9.28908 15.9054 8.35008 15.5778C7.79896 15.3855 6.85191 14.9353 6.70511 14.7959C6.60942 14.705 6.66362 12.5309 6.77481 12.0001C7.05845 10.6462 8.031 9.50543 9.15004 9.21393C9.62401 9.09046 12.3418 9.08797 12.8248 9.21053Z"/>
</mask>
<path fill-rule="evenodd" clip-rule="evenodd" d="M10.2115 1.11576C9.0064 1.49872 8.05779 2.65741 7.74851 4.1241C7.47767 5.40875 7.80791 6.85858 8.59617 7.84547L8.9269 8.2596L8.55462 8.41327L8.18229 8.56693L7.88855 8.2371C7.70861 8.03504 7.42448 7.80624 7.15524 7.64657L6.71566 7.38593L6.90755 7.11577C7.78911 5.87454 7.75721 4.11501 6.83126 2.90531C6.19854 2.0787 5.17929 1.70963 4.30684 1.99131C3.40698 2.28179 2.60663 3.26589 2.40434 4.33059C2.33804 4.67958 2.33819 5.4344 2.40464 5.7843C2.48153 6.18921 2.72672 6.75422 2.97491 7.0983L3.19424 7.40242L2.90981 7.54305C1.99511 7.99526 1.27714 9.03158 1.0744 10.1921C0.986359 10.6961 0.972109 12.6412 1.05511 12.8293C1.2063 13.172 3.21879 14.0316 3.86986 14.0316C4.08795 14.0316 4.25029 13.8205 4.25029 13.5369C4.25029 13.2324 4.13845 13.1414 3.59727 13.0053C3.0077 12.8571 2.51813 12.6744 2.10765 12.4491L1.78992 12.2748L1.81137 11.3188C1.82942 10.5129 1.85036 10.3083 1.94471 10.0156C2.1888 9.25862 2.69162 8.66317 3.32534 8.38058C3.59317 8.26118 3.74477 8.24426 4.73942 8.22255C5.45278 8.20696 5.9743 8.22364 6.18934 8.26882C6.57067 8.34899 7.0465 8.61381 7.29023 8.88161L7.45538 9.06293L7.08609 9.50653C6.39798 10.333 6.002 11.327 5.89776 12.4895C5.86796 12.8212 5.85071 13.5898 5.85941 14.1974C5.87801 15.4988 5.82906 15.3889 6.57517 15.8051C9.42197 17.3932 12.5811 17.3984 15.4005 15.8197C16.1744 15.3864 16.1218 15.5016 16.1405 14.1974C16.1492 13.5898 16.1319 12.8212 16.1021 12.4895C15.9976 11.3243 15.602 10.3331 14.9092 9.50107L14.5354 9.05201L14.7051 8.87688C14.9664 8.60708 15.4397 8.3468 15.8105 8.26882C16.0256 8.22364 16.5471 8.20696 17.2605 8.22255C18.2551 8.24426 18.4067 8.26118 18.6745 8.38058C19.3083 8.66317 19.8111 9.25862 20.0552 10.0156C20.1494 10.3079 20.1705 10.5131 20.1885 11.3135L20.2098 12.2642L20.0171 12.3831C19.6775 12.5927 18.9895 12.8614 18.453 12.9941C17.8582 13.1412 17.7496 13.2263 17.7496 13.5454C17.7496 13.8342 17.9142 14.0321 18.1528 14.0303C18.3872 14.0286 19.0993 13.8327 19.579 13.6382C20.1492 13.407 20.8812 12.9734 20.9448 12.8293C21.0282 12.6404 21.0135 10.696 20.9249 10.1887C20.7239 9.03794 19.9987 7.99229 19.0901 7.54305L18.8056 7.40242L19.0222 7.10224C19.4365 6.52784 19.6487 5.83349 19.6477 5.0566C19.6464 4.14963 19.423 3.50598 18.8811 2.84813C18.3358 2.1861 17.78 1.90387 17.0246 1.9055C15.6323 1.90842 14.4498 3.35558 14.4498 5.0566C14.4498 5.78746 14.6856 6.543 15.0923 7.11577L15.2842 7.38593L14.8446 7.64657C14.5754 7.80624 14.2913 8.03504 14.1113 8.2371L13.8176 8.56693L13.4329 8.40817L13.0483 8.24941L13.2237 8.07403C13.6715 7.62631 14.1392 6.64664 14.2742 5.87351C14.5842 4.09869 13.8279 2.24231 12.4597 1.41909C11.7638 1.00042 10.9288 0.887807 10.2115 1.11576ZM11.51 2.03085C12.4551 2.2699 13.2975 3.2916 13.4946 4.43799C13.6709 5.46351 13.4199 6.43821 12.7795 7.21498C11.7466 8.46778 10.2533 8.46778 9.22044 7.21498C8.18754 5.96223 8.18754 4.14915 9.22044 2.89913C9.86345 2.12097 10.6647 1.81709 11.51 2.03085ZM5.66277 3.04091C5.9915 3.21944 6.42153 3.73084 6.58712 4.14017C6.70791 4.43884 6.72476 4.55102 6.72491 5.0566C6.72506 5.57309 6.70996 5.6689 6.57912 5.98236C6.40538 6.39867 5.9923 6.89175 5.66277 7.07629C5.47103 7.18362 5.33359 7.20934 4.95025 7.20934C4.53048 7.2094 4.44193 7.18957 4.18834 7.03851C3.13755 6.41262 2.82066 4.82391 3.52378 3.70694C3.70452 3.41986 4.0565 3.11477 4.37898 2.96571C4.66537 2.83333 5.35478 2.87372 5.66277 3.04091ZM17.8105 3.07408C18.1871 3.2984 18.5249 3.70506 18.6905 4.13362C18.8064 4.43356 18.8245 4.55842 18.8245 5.0566C18.8245 5.56569 18.8081 5.67315 18.6836 5.98072C18.5041 6.4242 18.1772 6.82074 17.8115 7.03851C17.558 7.18957 17.4694 7.2094 17.0496 7.20934C16.6663 7.20934 16.5289 7.18362 16.3371 7.07629C16.0054 6.89054 15.5772 6.37933 15.4128 5.97302C15.2913 5.67272 15.2754 5.56496 15.277 5.0566C15.2791 4.36661 15.3738 4.06249 15.7303 3.60021C16.1577 3.046 16.5068 2.86814 17.1246 2.88979C17.4466 2.90107 17.5804 2.93703 17.8105 3.07408ZM12.8248 9.21053C13.9643 9.49973 14.9384 10.6318 15.2251 12.0001C15.3363 12.5309 15.3905 14.705 15.2948 14.7959C15.148 14.9353 14.2009 15.3855 13.6498 15.5778C12.7108 15.9054 12.1085 16.0017 10.9999 16.0017C9.8914 16.0017 9.28908 15.9054 8.35008 15.5778C7.79896 15.3855 6.85191 14.9353 6.70511 14.7959C6.60942 14.705 6.66362 12.5309 6.77481 12.0001C7.05845 10.6462 8.031 9.50543 9.15004 9.21393C9.62401 9.09046 12.3418 9.08797 12.8248 9.21053Z" fill="#FCB43C"/>
<path fill-rule="evenodd" clip-rule="evenodd" d="M10.2115 1.11576C9.0064 1.49872 8.05779 2.65741 7.74851 4.1241C7.47767 5.40875 7.80791 6.85858 8.59617 7.84547L8.9269 8.2596L8.55462 8.41327L8.18229 8.56693L7.88855 8.2371C7.70861 8.03504 7.42448 7.80624 7.15524 7.64657L6.71566 7.38593L6.90755 7.11577C7.78911 5.87454 7.75721 4.11501 6.83126 2.90531C6.19854 2.0787 5.17929 1.70963 4.30684 1.99131C3.40698 2.28179 2.60663 3.26589 2.40434 4.33059C2.33804 4.67958 2.33819 5.4344 2.40464 5.7843C2.48153 6.18921 2.72672 6.75422 2.97491 7.0983L3.19424 7.40242L2.90981 7.54305C1.99511 7.99526 1.27714 9.03158 1.0744 10.1921C0.986359 10.6961 0.972109 12.6412 1.05511 12.8293C1.2063 13.172 3.21879 14.0316 3.86986 14.0316C4.08795 14.0316 4.25029 13.8205 4.25029 13.5369C4.25029 13.2324 4.13845 13.1414 3.59727 13.0053C3.0077 12.8571 2.51813 12.6744 2.10765 12.4491L1.78992 12.2748L1.81137 11.3188C1.82942 10.5129 1.85036 10.3083 1.94471 10.0156C2.1888 9.25862 2.69162 8.66317 3.32534 8.38058C3.59317 8.26118 3.74477 8.24426 4.73942 8.22255C5.45278 8.20696 5.9743 8.22364 6.18934 8.26882C6.57067 8.34899 7.0465 8.61381 7.29023 8.88161L7.45538 9.06293L7.08609 9.50653C6.39798 10.333 6.002 11.327 5.89776 12.4895C5.86796 12.8212 5.85071 13.5898 5.85941 14.1974C5.87801 15.4988 5.82906 15.3889 6.57517 15.8051C9.42197 17.3932 12.5811 17.3984 15.4005 15.8197C16.1744 15.3864 16.1218 15.5016 16.1405 14.1974C16.1492 13.5898 16.1319 12.8212 16.1021 12.4895C15.9976 11.3243 15.602 10.3331 14.9092 9.50107L14.5354 9.05201L14.7051 8.87688C14.9664 8.60708 15.4397 8.3468 15.8105 8.26882C16.0256 8.22364 16.5471 8.20696 17.2605 8.22255C18.2551 8.24426 18.4067 8.26118 18.6745 8.38058C19.3083 8.66317 19.8111 9.25862 20.0552 10.0156C20.1494 10.3079 20.1705 10.5131 20.1885 11.3135L20.2098 12.2642L20.0171 12.3831C19.6775 12.5927 18.9895 12.8614 18.453 12.9941C17.8582 13.1412 17.7496 13.2263 17.7496 13.5454C17.7496 13.8342 17.9142 14.0321 18.1528 14.0303C18.3872 14.0286 19.0993 13.8327 19.579 13.6382C20.1492 13.407 20.8812 12.9734 20.9448 12.8293C21.0282 12.6404 21.0135 10.696 20.9249 10.1887C20.7239 9.03794 19.9987 7.99229 19.0901 7.54305L18.8056 7.40242L19.0222 7.10224C19.4365 6.52784 19.6487 5.83349 19.6477 5.0566C19.6464 4.14963 19.423 3.50598 18.8811 2.84813C18.3358 2.1861 17.78 1.90387 17.0246 1.9055C15.6323 1.90842 14.4498 3.35558 14.4498 5.0566C14.4498 5.78746 14.6856 6.543 15.0923 7.11577L15.2842 7.38593L14.8446 7.64657C14.5754 7.80624 14.2913 8.03504 14.1113 8.2371L13.8176 8.56693L13.4329 8.40817L13.0483 8.24941L13.2237 8.07403C13.6715 7.62631 14.1392 6.64664 14.2742 5.87351C14.5842 4.09869 13.8279 2.24231 12.4597 1.41909C11.7638 1.00042 10.9288 0.887807 10.2115 1.11576ZM11.51 2.03085C12.4551 2.2699 13.2975 3.2916 13.4946 4.43799C13.6709 5.46351 13.4199 6.43821 12.7795 7.21498C11.7466 8.46778 10.2533 8.46778 9.22044 7.21498C8.18754 5.96223 8.18754 4.14915 9.22044 2.89913C9.86345 2.12097 10.6647 1.81709 11.51 2.03085ZM5.66277 3.04091C5.9915 3.21944 6.42153 3.73084 6.58712 4.14017C6.70791 4.43884 6.72476 4.55102 6.72491 5.0566C6.72506 5.57309 6.70996 5.6689 6.57912 5.98236C6.40538 6.39867 5.9923 6.89175 5.66277 7.07629C5.47103 7.18362 5.33359 7.20934 4.95025 7.20934C4.53048 7.2094 4.44193 7.18957 4.18834 7.03851C3.13755 6.41262 2.82066 4.82391 3.52378 3.70694C3.70452 3.41986 4.0565 3.11477 4.37898 2.96571C4.66537 2.83333 5.35478 2.87372 5.66277 3.04091ZM17.8105 3.07408C18.1871 3.2984 18.5249 3.70506 18.6905 4.13362C18.8064 4.43356 18.8245 4.55842 18.8245 5.0566C18.8245 5.56569 18.8081 5.67315 18.6836 5.98072C18.5041 6.4242 18.1772 6.82074 17.8115 7.03851C17.558 7.18957 17.4694 7.2094 17.0496 7.20934C16.6663 7.20934 16.5289 7.18362 16.3371 7.07629C16.0054 6.89054 15.5772 6.37933 15.4128 5.97302C15.2913 5.67272 15.2754 5.56496 15.277 5.0566C15.2791 4.36661 15.3738 4.06249 15.7303 3.60021C16.1577 3.046 16.5068 2.86814 17.1246 2.88979C17.4466 2.90107 17.5804 2.93703 17.8105 3.07408ZM12.8248 9.21053C13.9643 9.49973 14.9384 10.6318 15.2251 12.0001C15.3363 12.5309 15.3905 14.705 15.2948 14.7959C15.148 14.9353 14.2009 15.3855 13.6498 15.5778C12.7108 15.9054 12.1085 16.0017 10.9999 16.0017C9.8914 16.0017 9.28908 15.9054 8.35008 15.5778C7.79896 15.3855 6.85191 14.9353 6.70511 14.7959C6.60942 14.705 6.66362 12.5309 6.77481 12.0001C7.05845 10.6462 8.031 9.50543 9.15004 9.21393C9.62401 9.09046 12.3418 9.08797 12.8248 9.21053Z" stroke="#FCB43C" stroke-width="0.6" mask="url(#path-1-outside-1_1195_21207)"/>
</svg>
