<svg width="23" height="20" viewBox="0 0 23 20" fill="none" xmlns="http://www.w3.org/2000/svg">
<path d="M11.4995 18.747C11.1062 18.747 10.7307 18.6222 10.4133 18.386C8.2588 16.7859 3.10938 12.8059 1.81755 10.3947C0.127895 7.24368 1.14258 3.19681 4.07489 1.37393C5.02253 0.785617 6.09533 0.473633 7.18601 0.473633C8.81755 0.473633 10.3508 1.14217 11.4995 2.33217C12.6483 1.14217 14.1815 0.473633 15.8131 0.473633C16.9038 0.473633 17.9766 0.785617 18.9242 1.37393C21.8565 3.19681 22.8712 7.24368 21.186 10.3947C19.8942 12.8059 14.7448 16.7859 12.5902 18.386C12.2684 18.6222 11.8929 18.747 11.4995 18.747ZM7.18601 1.81071C6.34565 1.81071 5.5187 2.05138 4.78562 2.50599C2.43888 3.96785 1.63428 7.2214 2.99763 9.76184C4.19558 11.9992 9.58639 16.1085 11.209 17.3118C11.3789 17.4366 11.6158 17.4366 11.7856 17.3118C13.4082 16.104 18.799 11.9948 19.997 9.76184C21.3603 7.2214 20.5557 3.9634 18.209 2.50599C17.4804 2.05138 16.6534 1.81071 15.8131 1.81071C14.3425 1.81071 12.9657 2.52381 12.0359 3.76283L11.4995 4.48485L10.9631 3.76283C10.0334 2.52381 8.6611 1.81071 7.18601 1.81071Z" fill="black" stroke="black" stroke-width="0.588081"/>
</svg>
