<svg width="26" height="22" viewBox="0 0 26 22" fill="none" xmlns="http://www.w3.org/2000/svg">
<path d="M13.1164 21.5C12.6739 21.5 12.2515 21.3566 11.8945 21.0851C9.47067 19.2463 3.67769 14.6724 2.22441 11.9015C0.32359 8.28024 1.46509 3.62951 4.76387 1.53463C5.82994 0.858537 7.03681 0.5 8.2638 0.5C10.0992 0.5 11.8241 1.26829 13.1164 2.63585C14.4088 1.26829 16.1336 0.5 17.9691 0.5C19.196 0.5 20.4029 0.858537 21.469 1.53463C24.7678 3.62951 25.9093 8.28024 24.0135 11.9015C22.5602 14.6724 16.7672 19.2463 14.3434 21.0851C13.9813 21.3566 13.5589 21.5 13.1164 21.5ZM8.2638 2.03659C7.31841 2.03659 6.38812 2.31317 5.56342 2.83561C2.92339 4.51561 2.01824 8.25463 3.55197 11.1741C4.89964 13.7454 10.9642 18.4678 12.7896 19.8507C12.9807 19.9941 13.2472 19.9941 13.4383 19.8507C15.2636 18.4627 21.3282 13.7402 22.6758 11.1741C24.2096 8.25463 23.3044 4.51049 20.6644 2.83561C19.8447 2.31317 18.9144 2.03659 17.9691 2.03659C16.3146 2.03659 14.7658 2.8561 13.7199 4.28L13.1164 5.10976L12.513 4.28C11.467 2.8561 9.92324 2.03659 8.2638 2.03659Z" fill="white" stroke="white"/>
</svg>
