<svg width="24" height="25" viewBox="0 0 24 25" fill="none" xmlns="http://www.w3.org/2000/svg">
<path d="M12 14.3802C10.1591 14.3802 8.66667 15.8726 8.66667 17.7135V22.6133H2V12.5587L12 2.61328L22 12.5587V22.6133H15.3333V17.7135C15.3333 15.8726 13.8409 14.3802 12 14.3802V14.3802Z" fill="#A8A8A8"/>
<path d="M8.66667 22.6133V23.6133C9.21895 23.6133 9.66667 23.1656 9.66667 22.6133H8.66667ZM2 22.6133H1C1 23.1656 1.44772 23.6133 2 23.6133V22.6133ZM2 12.5587L1.29483 11.8496C1.10611 12.0373 1 12.2925 1 12.5587H2ZM12 2.61328L12.7052 1.90424C12.3151 1.51629 11.6849 1.51629 11.2948 1.90424L12 2.61328ZM22 12.5587H23C23 12.2925 22.8939 12.0373 22.7052 11.8496L22 12.5587ZM22 22.6133V23.6133C22.5523 23.6133 23 23.1656 23 22.6133H22ZM15.3333 22.6133H14.3333C14.3333 23.1656 14.781 23.6133 15.3333 23.6133V22.6133ZM7.66667 17.7135V22.6133H9.66667V17.7135H7.66667ZM8.66667 21.6133H2V23.6133H8.66667V21.6133ZM3 22.6133V12.5587H1V22.6133H3ZM2.70517 13.2677L12.7052 3.32232L11.2948 1.90424L1.29483 11.8496L2.70517 13.2677ZM11.2948 3.32232L21.2948 13.2677L22.7052 11.8496L12.7052 1.90424L11.2948 3.32232ZM21 12.5587V22.6133H23V12.5587H21ZM22 21.6133H15.3333V23.6133H22V21.6133ZM16.3333 22.6133V17.7135H14.3333V22.6133H16.3333ZM16.3333 17.7135C16.3333 15.3203 14.3932 13.3802 12 13.3802V15.3802C13.2887 15.3802 14.3333 16.4248 14.3333 17.7135H16.3333ZM9.66667 17.7135C9.66667 16.4248 10.7113 15.3802 12 15.3802V13.3802C9.60676 13.3802 7.66667 15.3203 7.66667 17.7135H9.66667Z" fill="#A8A8A8"/>
</svg>
