<svg width="25" height="25" viewBox="0 0 25 25" fill="none" xmlns="http://www.w3.org/2000/svg">
<path d="M9.3291 6.46366V5.80399C9.3291 4.27382 10.5358 2.77086 12.0358 2.62804C13.8224 2.45122 15.3291 3.88618 15.3291 5.67478V6.61328" stroke="#A8A8A8" stroke-width="2" stroke-miterlimit="10" stroke-linecap="round" stroke-linejoin="round"/>
<path d="M15.3291 10.6133L15.3291 11.4226C15.3291 12.9527 14.1224 14.4557 12.6224 14.5985C10.8358 14.7753 9.3291 13.3404 9.3291 11.5518L9.3291 10.6133" stroke="#A8A8A8" stroke-width="2" stroke-miterlimit="10" stroke-linecap="round" stroke-linejoin="round"/>
<path d="M3.3291 9.61328C3.3291 7.95643 4.67225 6.61328 6.3291 6.61328H18.3291C19.986 6.61328 21.3291 7.95643 21.3291 9.61328V17.6133C21.3291 20.3747 19.0905 22.6133 16.3291 22.6133H8.3291C5.56768 22.6133 3.3291 20.3747 3.3291 17.6133V9.61328Z" stroke="#A8A8A8" stroke-width="2"/>
</svg>
