<svg width="25" height="25" viewBox="0 0 25 25" fill="none" xmlns="http://www.w3.org/2000/svg">
<path d="M22.8867 15.6133V9.61328C22.8867 4.61328 20.8867 2.61328 15.8867 2.61328H9.88672C4.88672 2.61328 2.88672 4.61328 2.88672 9.61328V15.6133C2.88672 20.6133 4.88672 22.6133 9.88672 22.6133H15.8867C20.8867 22.6133 22.8867 20.6133 22.8867 15.6133Z" stroke="#A8A8A8" stroke-width="2" stroke-linecap="round" stroke-linejoin="round"/>
<path d="M3.40625 7.72363H22.3662" stroke="#A8A8A8" stroke-width="2" stroke-linecap="round" stroke-linejoin="round"/>
<path d="M7.88672 3.11328L10.8867 7.61328" stroke="#A8A8A8" stroke-width="2" stroke-linecap="round" stroke-linejoin="round"/>
<path d="M13.8867 2.61328L16.8867 7.61328" stroke="#A8A8A8" stroke-width="2" stroke-linecap="round" stroke-linejoin="round"/>
<path d="M16.313 13.97C17.0267 14.3446 17.0267 15.3663 16.313 15.7409L11.2147 18.4168C10.5489 18.7663 9.75 18.2834 9.75 17.5314L9.75 12.1796C9.75 11.4276 10.5489 10.9446 11.2147 11.2941L16.313 13.97Z" fill="#A8A8A8"/>
</svg>
