<svg width="20" height="20" viewBox="0 0 20 20" fill="none" xmlns="http://www.w3.org/2000/svg">
<path d="M20 19.3608C19.7951 19.839 19.5609 20 19.0437 20C13.0178 20 6.99683 20 0.970969 20C0.326909 20 0 19.678 0 19.029C0 16.887 0 14.7499 0 12.6079C0 12.4225 0.0243962 12.2469 0.0878263 12.0761C0.892901 9.939 1.6931 7.80189 2.49817 5.66478C2.68846 5.15734 2.94706 4.98169 3.48378 4.98169C4.24982 4.98169 5.02074 4.98169 5.78678 4.98169C6.32349 4.98169 6.70407 5.34275 6.70407 5.83556C6.69919 6.3186 6.31861 6.67966 5.79654 6.68454C5.25006 6.68942 4.70359 6.68942 4.15711 6.68454C4.00586 6.68454 3.92291 6.72358 3.86924 6.87483C3.29837 8.39228 2.72749 9.90484 2.1615 11.4223C2.08831 11.6175 2.09319 11.6272 2.30788 11.6272C3.44474 11.6272 4.58648 11.6272 5.72335 11.6272C6.24055 11.6272 6.59673 11.8956 6.68456 12.3396C6.70407 12.4518 6.70407 12.5738 6.70407 12.6909C6.70407 13.1007 6.70895 13.5106 6.70407 13.9205C6.69919 14.0668 6.74311 14.1303 6.90412 14.1303C8.9778 14.1254 11.0564 14.1254 13.13 14.1303C13.291 14.1303 13.3301 14.0668 13.3252 13.9205C13.3203 13.4862 13.3203 13.0471 13.3252 12.6128C13.3252 11.9834 13.6716 11.6321 14.3059 11.6321C15.4233 11.6272 16.5455 11.6321 17.6628 11.6321C17.9458 11.6321 17.9458 11.6321 17.8434 11.3686C17.2871 9.88532 16.726 8.39716 16.1747 6.90899C16.1112 6.7431 16.0332 6.67966 15.8526 6.67966C15.2915 6.68942 14.7353 6.68942 14.1742 6.67966C13.7253 6.66991 13.3789 6.343 13.3301 5.90874C13.2813 5.49889 13.5594 5.10367 13.9741 5.00609C14.0668 4.98169 14.1693 4.98169 14.262 4.98169C15.0281 4.98169 15.799 4.98169 16.565 4.98169C17.0725 4.98169 17.3408 5.1671 17.5213 5.65015C18.019 6.9773 18.5167 8.30445 19.0144 9.6316C19.3462 10.5099 19.678 11.3833 20.0098 12.2566C20 14.6231 20 16.9944 20 19.3608ZM10.0073 18.2971C12.6958 18.2971 15.3794 18.2971 18.0678 18.2971C18.2093 18.2971 18.3167 18.302 18.3167 18.102C18.3118 16.5845 18.3118 15.072 18.3167 13.5545C18.3167 13.3984 18.263 13.3496 18.1117 13.3496C17.1505 13.3545 16.1844 13.3545 15.2232 13.3496C15.0573 13.3496 15.0134 13.4179 15.0183 13.5692C15.0232 14.0522 15.0232 14.5304 15.0183 15.0134C15.0134 15.3745 14.8231 15.6282 14.5011 15.7697C14.3401 15.8429 14.1596 15.8478 13.9839 15.8478C11.3345 15.8478 8.68993 15.8478 6.0405 15.8478C5.97707 15.8478 5.90876 15.8478 5.84533 15.8429C5.29885 15.7843 5.0061 15.4623 5.00122 14.9158C5.00122 14.4718 4.99146 14.0327 5.0061 13.5887C5.01098 13.3935 4.94267 13.3447 4.75726 13.3496C3.82532 13.3593 2.89827 13.3545 1.96633 13.3545C1.70773 13.3545 1.70773 13.3545 1.70773 13.6131C1.70773 15.0817 1.70773 16.5552 1.70773 18.0239C1.70773 18.2971 1.70773 18.2971 1.99073 18.2971C4.65967 18.2971 7.3335 18.2971 10.0073 18.2971Z" fill="#E8ECEF"/>
<path d="M10.2416 0C10.7051 0.180532 10.871 0.536716 10.871 1.01488C10.8662 3.49354 10.871 5.96731 10.871 8.44596C10.871 8.52403 10.871 8.6021 10.871 8.68017C10.9735 8.6948 11.0077 8.61674 11.0516 8.56794C11.3394 8.28495 11.6176 7.99707 11.9103 7.71896C12.1689 7.47012 12.4812 7.41156 12.813 7.53842C13.1399 7.66041 13.3155 7.919 13.3497 8.26543C13.3692 8.46548 13.3155 8.65089 13.1984 8.81678C13.1496 8.88509 13.096 8.94852 13.0325 9.01195C12.2519 9.79263 11.4712 10.5782 10.6856 11.3589C10.3538 11.6907 10.0172 11.7638 9.66099 11.6126C9.53413 11.5589 9.42678 11.4711 9.3292 11.3735C8.53876 10.5831 7.74344 9.79751 6.95789 9.0022C6.44069 8.47524 6.61634 7.6848 7.2848 7.51403C7.61658 7.43108 7.89958 7.52379 8.13866 7.76287C8.4119 8.03611 8.68026 8.30447 8.9535 8.5777C8.99741 8.62162 9.03156 8.68017 9.11451 8.69968C9.15354 8.62162 9.13403 8.53379 9.13403 8.45572C9.13403 5.97707 9.13891 3.50329 9.13403 1.02464C9.13403 0.546475 9.3048 0.19029 9.76345 0.00975848C9.92934 0 10.0855 0 10.2416 0Z" fill="#E8ECEF"/>
</svg>
