<svg width="22" height="22" viewBox="0 0 22 22" fill="none" xmlns="http://www.w3.org/2000/svg">
<path d="M16 1H6C3.23858 1 1 3.23858 1 6V16C1 18.7614 3.23858 21 6 21H16C18.7614 21 21 18.7614 21 16V6C21 3.23858 18.7614 1 16 1Z" stroke="#001540" stroke-width="2" stroke-linecap="round" stroke-linejoin="round"/>
<path d="M15.0017 10.3698C15.1251 11.2021 14.9829 12.052 14.5954 12.7988C14.2079 13.5456 13.5948 14.1512 12.8433 14.5295C12.0918 14.9077 11.2401 15.0394 10.4094 14.9057C9.57879 14.7721 8.81142 14.3799 8.2165 13.785C7.62158 13.1901 7.22939 12.4227 7.09573 11.592C6.96206 10.7614 7.09373 9.90971 7.47199 9.15819C7.85025 8.40667 8.45585 7.79355 9.20265 7.40605C9.94944 7.01856 10.7994 6.8764 11.6317 6.99981C12.4806 7.1257 13.2665 7.52128 13.8734 8.12812C14.4802 8.73496 14.8758 9.52089 15.0017 10.3698Z" stroke="#001540" stroke-width="2" stroke-linecap="round" stroke-linejoin="round"/>
<path d="M16.498 5.49951H16.5112" stroke="#001540" stroke-width="2" stroke-linecap="round" stroke-linejoin="round"/>
</svg>
