<svg width="22" height="22" viewBox="0 0 22 22" fill="none" xmlns="http://www.w3.org/2000/svg">
<g clip-path="url(#clip0_1053_40056)">
<path d="M10.9636 22C7.59437 22 4.22517 22 0.862031 22C0.218543 22 0 21.7876 0 21.1441C0 19.5657 0 17.9873 0 16.409C0 15.8383 0.18819 15.6319 0.75883 15.5773C0.862031 15.5652 0.971303 15.5652 1.0745 15.5652C2.87748 15.5652 4.68653 15.5652 6.48951 15.5652C6.83554 15.5652 6.83554 15.5652 6.83554 15.207C6.83554 14.5392 6.83554 13.8715 6.83554 13.2037C6.83554 12.6027 7.08444 12.3599 7.67936 12.3599C9.88907 12.3599 12.0927 12.3599 14.3024 12.3599C14.8791 12.3599 15.128 12.6088 15.1341 13.1976C15.1402 14.1628 15.1341 15.122 15.1341 16.0872C15.1341 16.4636 15.1341 16.4636 15.4983 16.4636C17.356 16.4636 19.2136 16.4636 21.0712 16.4636C21.1623 16.4636 21.2533 16.4636 21.3444 16.4697C21.7268 16.5183 21.9636 16.7671 21.9696 17.1557C21.9757 18.5337 21.9757 19.9178 21.9696 21.2958C21.9696 21.7511 21.6965 21.994 21.1987 21.994C17.793 22 14.3813 22 10.9636 22ZM13.7075 17.18C13.7075 16.1358 13.7014 15.0856 13.7136 14.0414C13.7136 13.8532 13.6529 13.7865 13.4647 13.7925C11.8195 13.7986 10.1744 13.7986 8.52318 13.7925C8.32285 13.7925 8.26821 13.8593 8.26821 14.0596C8.27428 16.1479 8.27428 18.2302 8.26821 20.3185C8.26821 20.5127 8.32892 20.5856 8.52925 20.5856C10.1683 20.5795 11.8074 20.5795 13.4465 20.5856C13.6589 20.5856 13.7196 20.5127 13.7136 20.3063C13.7014 19.2622 13.7075 18.2241 13.7075 17.18ZM4.15839 16.9918C3.33278 16.9918 2.50717 16.9978 1.68157 16.9857C1.49945 16.9857 1.42053 17.0282 1.4266 17.2285C1.43267 18.2605 1.43267 19.2925 1.4266 20.3185C1.4266 20.5067 1.49338 20.5734 1.68157 20.5734C3.32064 20.5674 4.95364 20.5674 6.59272 20.5734C6.77483 20.5734 6.84768 20.5188 6.84768 20.3245C6.84161 19.2925 6.84161 18.2605 6.84768 17.2346C6.84768 17.0464 6.78698 16.9857 6.59879 16.9857C5.77925 16.9978 4.97185 16.9918 4.15839 16.9918ZM17.8416 17.8963C17.0221 17.8963 16.2025 17.9024 15.383 17.8902C15.1948 17.8902 15.128 17.9449 15.128 18.1391C15.1341 18.8615 15.1402 19.5779 15.128 20.3003C15.128 20.5067 15.1948 20.5734 15.4012 20.5734C17.0221 20.5674 18.649 20.5674 20.2699 20.5734C20.4763 20.5734 20.5491 20.5067 20.5491 20.3003C20.537 19.59 20.537 18.8737 20.5491 18.1634C20.5491 17.9509 20.4763 17.8902 20.2699 17.8963C19.4625 17.9024 18.6551 17.8963 17.8416 17.8963Z" fill="#FCB43C"/>
<path d="M14.1384 11.0303C14.0231 11.0424 13.9078 10.9939 13.7863 10.9332C12.9425 10.4961 12.0987 10.0711 11.261 9.62797C11.1153 9.55512 11.006 9.55512 10.8603 9.62797C10.0468 10.0529 9.22729 10.4657 8.41383 10.8907C8.19529 11.006 7.97674 11.0667 7.73392 11.006C7.36968 10.921 7.13292 10.5993 7.19363 10.2229C7.3454 9.28194 7.50323 8.34099 7.67928 7.40004C7.72785 7.13901 7.67928 6.96903 7.48502 6.78691C6.82332 6.17378 6.19197 5.53029 5.53634 4.90501C5.3178 4.69254 5.17818 4.46793 5.27531 4.15832C5.37851 3.83051 5.6274 3.67267 5.94915 3.62411C6.47729 3.53912 7.01151 3.46627 7.54573 3.38128C7.95246 3.32057 8.35312 3.2538 8.75986 3.19916C8.91769 3.17488 9.01482 3.10203 9.0816 2.95634C9.48226 2.12466 9.89507 1.29298 10.2957 0.461303C10.4354 0.157771 10.6539 -0.012207 10.9817 -0.012207C11.3035 -0.012207 11.5281 0.1517 11.6738 0.455232C12.0684 1.28691 12.4812 2.10645 12.8757 2.93205C12.9607 3.11417 13.0822 3.18095 13.2764 3.2113C14.1991 3.33879 15.1219 3.48448 16.0386 3.63018C16.336 3.67874 16.591 3.80015 16.6942 4.1219C16.7974 4.44364 16.7063 4.71682 16.4696 4.95358C15.8443 5.57885 15.219 6.21627 14.5816 6.83547C14.4238 6.98724 14.3813 7.13294 14.4177 7.33327C14.5816 8.24386 14.7394 9.15446 14.8973 10.0651C15.0065 10.6478 14.7152 11.0242 14.1384 11.0303ZM10.9696 2.34927C10.7025 2.93812 10.4475 3.51483 10.1865 4.08547C10.059 4.36472 9.8465 4.55291 9.5369 4.60148C8.92983 4.68647 8.32277 4.75932 7.70963 4.83823C7.64893 4.8443 7.57001 4.82609 7.54573 4.89287C7.52144 4.95965 7.60036 4.99607 7.63679 5.03857C8.01317 5.43316 8.38955 5.82775 8.76593 6.22234C8.9784 6.44088 9.08767 6.68978 9.00268 7.00545C8.96019 7.17543 8.94197 7.35148 8.91769 7.52146C8.84484 7.99497 8.76593 8.46848 8.68701 8.97841C8.79021 8.92984 8.85699 8.89949 8.92376 8.86914C9.44584 8.6081 9.96791 8.34706 10.49 8.08603C10.7814 7.94033 11.0667 7.93426 11.3581 8.09817C11.8559 8.37135 12.3597 8.63845 12.8636 8.90556C12.9304 8.94199 12.9972 9.01483 13.07 8.97234C13.155 8.9177 13.1064 8.82057 13.0943 8.74166C13.0093 8.1953 12.9182 7.64894 12.8333 7.10258C12.7786 6.77477 12.8697 6.49552 13.1125 6.25876C13.5253 5.8581 13.932 5.4453 14.3388 5.03857C14.3813 4.99607 14.4541 4.96572 14.4298 4.89287C14.4056 4.82002 14.3266 4.85038 14.2659 4.83823C13.6528 4.73503 13.0397 4.62576 12.4265 4.5347C12.1776 4.49828 12.0137 4.38294 11.9044 4.15832C11.6495 3.62411 11.3763 3.09596 11.1153 2.56781C11.0849 2.4889 11.0667 2.40998 10.9696 2.34927Z" fill="#FCB43C"/>
</g>
<defs>
<clipPath id="clip0_1053_40056">
<rect width="21.9757" height="22" fill="white"/>
</clipPath>
</defs>
</svg>
