<svg width="27" height="23" viewBox="0 0 27 23" fill="none" xmlns="http://www.w3.org/2000/svg">
<path fill-rule="evenodd" clip-rule="evenodd" d="M25.9417 6.94278C25.8917 5.87897 25.725 5.14891 25.475 4.51062C25.2208 3.85148 24.8792 3.29246 24.3208 2.73761C23.7667 2.18276 23.2083 1.84067 22.55 1.58202C21.9125 1.33589 21.1875 1.16484 20.1208 1.11895C19.0583 1.07306 18.7167 1.06055 16 1.06055C13.2833 1.06055 12.9417 1.07306 11.875 1.12312C10.8125 1.17319 10.0833 1.34006 9.44583 1.58619C8.79167 1.84067 8.23333 2.18276 7.67917 2.74178C7.12083 3.29663 6.77917 3.85565 6.525 4.5148C6.27917 5.15308 6.10833 5.87897 6.05833 6.94695C6.0125 8.01493 6 8.35285 6 11.0729C6 13.7929 6.0125 14.135 6.05833 15.2029C6.10833 16.2709 6.275 16.9968 6.525 17.6351C6.77917 18.2942 7.12083 18.8533 7.67917 19.4081C8.23333 19.963 8.79166 20.3051 9.45 20.5637C10.0875 20.8098 10.8125 20.9809 11.8792 21.0309C12.9458 21.0727 13.2833 21.0852 16 21.0852C18.7167 21.0852 19.0542 21.0727 20.1208 21.0268C21.1833 20.9767 21.9125 20.8098 22.55 20.5595C23.2083 20.3051 23.7667 19.963 24.3208 19.4039C24.875 18.8491 25.2167 18.2901 25.475 17.6309C25.7208 16.9926 25.8917 16.2668 25.9417 15.1988C25.9875 14.135 26 13.7929 26 11.0729C26 8.35285 25.9875 8.01493 25.9417 6.94278ZM25.1083 15.1654C25.0667 16.0373 24.9417 16.7048 24.7 17.3306C24.4708 17.923 24.1792 18.3693 23.7333 18.8157C23.2875 19.2621 22.8417 19.5541 22.25 19.7836C21.625 20.0255 20.9583 20.1549 20.0875 20.1924C19.0333 20.2383 18.6833 20.2508 16 20.2508C13.3167 20.2508 12.9667 20.2383 11.9167 20.1924C11.0458 20.1507 10.3792 20.0255 9.75416 19.7836C9.1625 19.5541 8.71667 19.2621 8.27083 18.8157C7.82083 18.3693 7.53333 17.923 7.3 17.3306C7.05833 16.7048 6.92917 16.0373 6.89167 15.1654C6.84583 14.1099 6.83333 13.7595 6.83333 11.0729C6.83333 8.38622 6.84583 8.03579 6.89167 6.98033C6.93333 6.10842 7.05833 5.44094 7.3 4.81517C7.52917 4.2186 7.82083 3.77639 8.26667 3.33001C8.7125 2.88362 9.15833 2.59577 9.75 2.36215C10.375 2.12018 11.0417 1.99086 11.9125 1.95331C12.9667 1.90742 13.3167 1.89491 16 1.89491C18.6833 1.89491 19.0333 1.90742 20.0833 1.95331C20.9542 1.99503 21.6208 2.12018 22.2458 2.36215C22.8417 2.5916 23.2833 2.88362 23.7292 3.33001C24.175 3.77639 24.4667 4.22277 24.6958 4.81517C24.9375 5.44094 25.0667 6.10842 25.1042 6.98033C25.1583 8.03579 25.1667 8.38622 25.1667 11.0729C25.1667 13.7595 25.1583 14.1099 25.1083 15.1654ZM16.4167 6.48388H15.5833V10.6557H11.4167V11.49H15.5833V15.6618H16.4167V11.49H20.5833V10.6557H16.4167V6.48388Z" fill="white" stroke="white" stroke-width="0.784109"/>
</svg>
