<svg width="22" height="22" viewBox="0 0 22 22" fill="none" xmlns="http://www.w3.org/2000/svg">
<path d="M15.0501 7.58057C16.6283 7.58057 18.1418 8.23309 19.2577 9.39459C20.3737 10.5561 21.0006 12.1314 21.0006 13.774V20.9997H17.0336V13.774C17.0336 13.2265 16.8246 12.7014 16.4527 12.3142C16.0807 11.927 15.5762 11.7095 15.0501 11.7095C14.524 11.7095 14.0195 11.927 13.6476 12.3142C13.2756 12.7014 13.0666 13.2265 13.0666 13.774V20.9997H9.09961V13.774C9.09961 12.1314 9.72654 10.5561 10.8425 9.39459C11.9584 8.23309 13.4719 7.58057 15.0501 7.58057V7.58057Z" stroke="#001540" stroke-width="2" stroke-linecap="round" stroke-linejoin="round"/>
<path d="M4.967 8.61304H1V20.9999H4.967V8.61304Z" stroke="#001540" stroke-width="2" stroke-linecap="round" stroke-linejoin="round"/>
<path d="M2.9835 5.12897C4.07895 5.12897 4.967 4.20467 4.967 3.06448C4.967 1.9243 4.07895 1 2.9835 1C1.88804 1 1 1.9243 1 3.06448C1 4.20467 1.88804 5.12897 2.9835 5.12897Z" stroke="#001540" stroke-width="2" stroke-linecap="round" stroke-linejoin="round"/>
</svg>
