<svg width="90" height="90" viewBox="0 0 90 90" fill="none" xmlns="http://www.w3.org/2000/svg">
<path d="M45 90C69.8528 90 90 69.8528 90 45C90 20.1472 69.8528 0 45 0C20.1472 0 0 20.1472 0 45C0 69.8528 20.1472 90 45 90Z" fill="#FCB43C"/>
<path d="M45.0001 88.4992C69.024 88.4992 88.4992 69.024 88.4992 45.0001C88.4992 20.9762 69.024 1.50098 45.0001 1.50098C20.9762 1.50098 1.50098 20.9762 1.50098 45.0001C1.50098 69.024 20.9762 88.4992 45.0001 88.4992Z" fill="url(#paint0_linear_1548_20473)"/>
<path opacity="0.58" d="M4.89844 43.3352C4.8848 43.3352 4.8848 43.3352 4.87115 43.3352C4.61191 43.3216 4.42088 43.1033 4.43453 42.8577C4.53004 41.1521 4.72106 39.4328 5.02124 37.7546C5.06218 37.509 5.30778 37.3452 5.55339 37.3862C5.79899 37.4271 5.96272 37.6727 5.92179 37.9183C5.62161 39.5556 5.43058 41.2339 5.34872 42.8986C5.34872 43.1442 5.14405 43.3352 4.89844 43.3352Z" fill="#001540"/>
<path opacity="0.58" d="M9.12826 27.3847C9.06004 27.3847 8.99182 27.3711 8.9236 27.3302C8.69164 27.221 8.60977 26.9345 8.71893 26.7162C15.6777 12.9351 29.5816 4.37988 45 4.37988C47.456 4.37988 49.9257 4.5982 52.3272 5.03483C52.5728 5.07576 52.7365 5.32136 52.6956 5.56697C52.6546 5.81257 52.409 5.98995 52.1634 5.93537C49.8165 5.51239 47.4014 5.29407 45 5.29407C29.9227 5.29407 16.3326 13.6582 9.5376 27.1255C9.45574 27.2892 9.292 27.3847 9.12826 27.3847Z" fill="#001540"/>
<path d="M45.7378 82.5649C66.0767 82.5649 82.5646 66.0769 82.5646 45.738C82.5646 25.3991 66.0767 8.91113 45.7378 8.91113C25.3988 8.91113 8.91089 25.3991 8.91089 45.738C8.91089 66.0769 25.3988 82.5649 45.7378 82.5649Z" fill="#FCB43C"/>
<g clip-path="url(#clip0_1548_20473)">
<path d="M34.4069 48.8341C34.4069 48.2145 33.9049 47.7021 33.2713 47.7021H27.8683C27.2467 47.7021 26.7327 48.2026 26.7327 48.8341V59.4741C26.7327 60.0936 27.2347 60.606 27.8683 60.606H33.2833C33.9049 60.606 34.4189 60.1055 34.4189 59.4741V48.8341H34.4069Z" fill="white"/>
<path d="M44.9262 43.1983C44.9262 42.5787 44.4241 42.0664 43.7906 42.0664H38.3756C37.754 42.0664 37.24 42.5668 37.24 43.1983V59.474C37.24 60.0936 37.742 60.606 38.3756 60.606H43.7906C44.4122 60.606 44.9262 60.1055 44.9262 59.474V43.1983Z" fill="white"/>
<path d="M55.4333 37.1456C55.4333 36.526 54.9312 36.0137 54.2977 36.0137H48.8827C48.2611 36.0137 47.7471 36.5141 47.7471 37.1456V59.069C47.7471 59.6885 48.2491 60.2009 48.8827 60.2009H54.2977C54.9193 60.2009 55.4333 59.7005 55.4333 59.069V37.1456Z" fill="white"/>
<path d="M65.9406 32.3199C65.9406 31.7003 65.4385 31.188 64.805 31.188H59.39C58.7684 31.188 58.2544 31.6884 58.2544 32.3199V59.0688C58.2544 59.6884 58.7564 60.2007 59.39 60.2007H64.805C65.4266 60.2007 65.9406 59.7003 65.9406 59.0688V32.3199Z" fill="white"/>
</g>
<defs>
<linearGradient id="paint0_linear_1548_20473" x1="30.8572" y1="94.5927" x2="-75.7121" y2="468.277" gradientUnits="userSpaceOnUse">
<stop stop-color="#F4EEEE"/>
<stop offset="1" stop-color="#FF928E"/>
</linearGradient>
<clipPath id="clip0_1548_20473">
<rect width="39.2079" height="29.4059" fill="white" transform="translate(26.7327 31.188)"/>
</clipPath>
</defs>
</svg>
