<svg width="70" height="70" viewBox="0 0 70 70" fill="none" xmlns="http://www.w3.org/2000/svg">
<path d="M35 70C54.33 70 70 54.33 70 35C70 15.67 54.33 0 35 0C15.67 0 0 15.67 0 35C0 54.33 15.67 70 35 70Z" fill="#FCB43C"/>
<path d="M35.0001 68.8328C53.6854 68.8328 68.8328 53.6854 68.8328 35.0001C68.8328 16.3149 53.6854 1.16748 35.0001 1.16748C16.3149 1.16748 1.16748 16.3149 1.16748 35.0001C1.16748 53.6854 16.3149 68.8328 35.0001 68.8328Z" fill="url(#paint0_linear_1548_20487)"/>
<path opacity="0.58" d="M3.80985 33.7052C3.79923 33.7052 3.79923 33.7052 3.78862 33.7052C3.58698 33.6946 3.43841 33.5248 3.44902 33.3337C3.52331 32.0072 3.67188 30.67 3.90536 29.3647C3.9372 29.1736 4.12822 29.0463 4.31925 29.0781C4.51027 29.11 4.63762 29.301 4.60578 29.492C4.37231 30.7655 4.22373 32.0708 4.16006 33.3656C4.16006 33.5566 4.00087 33.7052 3.80985 33.7052Z" fill="#001540"/>
<path opacity="0.58" d="M7.09968 21.2994C7.04662 21.2994 6.99355 21.2888 6.94049 21.257C6.76008 21.1721 6.69641 20.9492 6.78131 20.7794C12.1937 10.0608 23.0078 3.40674 34.9999 3.40674C36.9101 3.40674 38.831 3.57654 40.6988 3.91614C40.8898 3.94798 41.0172 4.139 40.9853 4.33003C40.9535 4.52105 40.7625 4.65901 40.5714 4.61656C38.7461 4.28758 36.8677 4.11778 34.9999 4.11778C23.2731 4.11778 12.7031 10.6232 7.41805 21.0978C7.35438 21.2251 7.22703 21.2994 7.09968 21.2994Z" fill="#001540"/>
<path d="M35.5738 64.2169C51.3929 64.2169 64.2169 51.3929 64.2169 35.5738C64.2169 19.7546 51.3929 6.93066 35.5738 6.93066C19.7546 6.93066 6.93066 19.7546 6.93066 35.5738C6.93066 51.3929 19.7546 64.2169 35.5738 64.2169Z" fill="#FCB43C"/>
<g clip-path="url(#clip0_1548_20487)">
<path d="M35.0031 23.6619C31.5341 20.5172 26.1331 20.8291 22.9917 24.3195C19.8586 27.8015 20.0854 33.2311 23.5628 36.3758C26.6203 39.1496 31.3157 39.0737 34.2723 36.9238L36.6074 39.0484C36.6326 39.6808 36.809 40.4396 37.3466 40.9286L45.1414 47.9937C46.1241 48.8874 47.6109 48.567 48.5012 47.5806L48.5516 47.5216C49.442 46.5352 49.4168 45.2284 48.434 44.3347L40.6392 37.2695C40.11 36.7889 39.3289 36.6878 39.0013 36.3927L36.6662 34.2597C38.5057 31.0896 38.0605 26.4357 35.0031 23.6619ZM25.142 35.2039C22.4625 32.7758 22.2525 28.6278 24.6716 25.9383C27.0907 23.2488 31.2233 23.038 33.9027 25.4661C36.5822 27.8943 36.7922 32.0423 34.3731 34.7318C31.954 37.4213 27.8214 37.632 25.142 35.2039Z" fill="white"/>
<path d="M26.6633 33.0948C26.6465 33.1201 26.6213 33.1369 26.5961 33.1622C26.3105 33.3983 25.8905 33.3646 25.6553 33.0863C24.093 31.2315 24.1434 28.4746 25.7645 26.6704C26.0165 26.3921 26.4365 26.3753 26.7137 26.6198C26.9909 26.8727 27.0077 27.2943 26.7641 27.5725C25.5881 28.8793 25.5545 30.8774 26.6801 32.2179C26.8985 32.4709 26.8901 32.8503 26.6633 33.0948Z" fill="white"/>
</g>
<defs>
<linearGradient id="paint0_linear_1548_20487" x1="24.0001" y1="73.5722" x2="-58.8872" y2="364.215" gradientUnits="userSpaceOnUse">
<stop stop-color="#F4EEEE"/>
<stop offset="1" stop-color="#FF928E"/>
</linearGradient>
<clipPath id="clip0_1548_20487">
<rect width="28.4158" height="27.0297" fill="white" transform="translate(20.792 21.4854)"/>
</clipPath>
</defs>
</svg>
