<svg width="101" height="29" viewBox="0 0 101 29" fill="none" xmlns="http://www.w3.org/2000/svg">
<path fill-rule="evenodd" clip-rule="evenodd" d="M5.15124 0.15423C3.10452 1.00225 0.848763 3.39214 0.138976 6.39394C-0.760411 10.1956 2.98785 11.8049 3.29899 11.2797C3.65388 10.6582 2.62323 10.4461 2.40932 8.47546C2.13221 5.92657 3.33788 3.07895 4.84982 1.831C5.13179 1.59972 5.11721 1.92255 5.11721 2.52002C5.11721 3.58969 5.05887 13.1829 5.05887 15.1825C5.05887 17.8904 4.94705 18.7481 4.74287 19.5913C4.53382 20.449 4.20324 21.0272 4.45604 21.2488C4.73801 21.4994 5.93881 20.9067 6.62915 19.9479C7.46048 18.8011 7.75217 17.4231 7.80565 15.9294C7.86885 14.1225 7.86399 11.2653 7.86885 9.63185C7.86885 8.13336 7.89316 3.75351 7.84454 1.11789C7.82509 0.477056 6.01173 -0.197507 5.15124 0.15423ZM99.6939 14.3827C99.3973 14.3827 99.2612 14.6863 99.1494 15.1922C98.7605 16.9605 98.3521 17.3604 97.8222 17.3604C97.2339 17.3604 96.704 16.4835 96.5679 14.7296C96.461 13.3516 96.4755 10.8123 96.6117 8.28754C96.6408 7.76716 96.495 7.25642 95.0851 6.7505C94.4774 6.53368 93.5926 6.21085 93.1551 7.26124C91.9154 10.2149 91.4293 12.5614 91.3126 13.5154C91.3077 13.5636 91.2445 13.5732 91.2348 13.4624C91.1619 12.6963 91.0014 11.3086 90.9771 8.39354C90.9723 7.82498 90.8507 7.33833 90.2139 6.94323C89.8006 6.68786 88.5463 6.23012 88.0942 6.77459C87.7053 7.21788 87.2483 8.408 86.7767 9.81977C86.3927 10.9665 86.1302 11.7423 86.1302 11.7423C86.1302 11.7423 86.135 8.6441 86.1399 7.47325C86.1399 7.02996 85.8336 6.88541 85.7412 6.8565C85.3231 6.73604 84.4967 6.53849 84.1466 6.53849C83.714 6.53849 83.6119 6.77459 83.6119 7.12151C83.6119 7.16487 83.5438 11.1978 83.5438 14.0165V14.4164C83.3056 15.7126 82.5326 17.4712 81.6916 17.4712C80.8456 17.4712 80.4519 16.7389 80.4519 13.3757C80.4519 11.4146 80.5102 10.5618 80.5394 9.1452C80.554 8.33091 80.588 7.69971 80.588 7.55998C80.5831 7.12151 79.815 6.90469 79.4601 6.82277C79.1003 6.74086 78.7892 6.70713 78.5461 6.72159C78.201 6.74086 77.9579 6.96251 77.9579 7.27088C77.9579 7.4347 77.9579 7.74789 77.9579 7.74789C77.5155 7.06369 76.8057 6.58668 76.3293 6.44695C75.0555 6.07594 73.7235 6.40358 72.7171 7.79125C71.9198 8.88983 71.4385 10.1378 71.2489 11.9302C71.1079 13.2408 71.1566 14.5706 71.3996 15.6933C71.1031 16.9605 70.5489 17.4809 69.946 17.4809C69.071 17.4809 68.4341 16.0691 68.507 13.6262C68.5556 12.0217 68.8814 10.8942 69.2363 9.26084C69.387 8.567 69.2654 8.20081 68.9543 7.85389C68.6723 7.53588 68.0646 7.37206 67.1944 7.56961C66.577 7.71416 65.6873 7.86835 64.8803 7.98399C64.8803 7.98399 64.9289 7.79126 64.9678 7.45397C65.1769 5.67602 63.2176 5.82057 62.5905 6.38913C62.2162 6.73123 61.9634 7.13115 61.8661 7.84907C61.7154 8.99101 62.6586 9.53067 62.6586 9.53067C62.3474 10.928 61.589 12.7541 60.8063 14.0743C60.3882 14.7826 60.0625 15.3078 59.6493 15.8619C59.6493 15.6547 59.6493 15.4476 59.6444 15.2404C59.6347 12.3012 59.6736 9.98841 59.693 9.15484C59.7076 8.34054 59.7416 7.72862 59.7416 7.58407C59.7368 7.26606 59.5472 7.1456 59.1534 6.99142C58.8034 6.8565 58.395 6.76495 57.9672 6.73123C57.4324 6.68786 57.1067 6.97214 57.1164 7.30461C57.1164 7.36724 57.1164 7.75271 57.1164 7.75271C56.674 7.06851 55.9642 6.5915 55.4878 6.45176C54.2141 6.08075 52.882 6.4084 51.8756 7.79607C51.0783 8.89465 50.5582 10.4413 50.4075 11.9205C50.2713 13.2986 50.2956 14.4694 50.4852 15.4572C50.2811 16.4449 49.6977 17.4809 49.0414 17.4809C48.2003 17.4809 47.719 16.7485 47.719 13.3853C47.719 11.4243 47.7773 10.5714 47.8065 9.15484C47.826 8.34054 47.8551 7.70934 47.8551 7.56961C47.8503 7.13115 47.0821 6.91432 46.7273 6.83241C46.3529 6.74568 46.0321 6.71677 45.7841 6.73604C45.4584 6.76014 45.2299 7.04923 45.2299 7.26124V7.75753C44.7875 7.07333 44.0728 6.59631 43.6013 6.45658C42.3275 6.08557 41.0052 6.42285 39.994 7.80089C39.3328 8.70192 38.7981 9.69931 38.5258 11.9061C38.4432 12.5421 38.4091 13.1396 38.414 13.6985C38.1515 15.2885 36.9896 17.1147 36.0416 17.1147C35.4873 17.1147 34.9574 16.0498 34.9574 13.7852C34.9574 10.7642 35.147 6.46622 35.1811 6.05184C35.1811 6.05184 36.3819 6.03257 36.6152 6.02775C37.2132 6.02293 37.7577 6.03739 38.555 5.99402C38.9536 5.97475 39.3377 4.55817 38.9293 4.38471C38.7397 4.3028 37.4174 4.23534 36.8923 4.2257C36.4742 4.20161 35.2443 4.11006 35.2443 4.11006C35.2443 4.11006 35.3561 1.25762 35.3804 0.954069C35.3998 0.703517 35.0692 0.573423 34.8845 0.49633C34.4227 0.303597 34.0143 0.212049 33.5281 0.115683C32.8524 -0.024048 32.551 0.110865 32.4878 0.674607C32.3954 1.52263 32.3516 4.01852 32.3516 4.01852C31.8558 4.01852 30.1688 3.92215 29.6778 3.92215C29.2159 3.92215 28.7249 5.86875 29.3569 5.89284C30.0862 5.92175 31.3599 5.94584 32.2058 5.96993C32.2058 5.96993 32.1669 10.3401 32.1669 11.6893C32.1669 11.829 32.1669 11.9687 32.1669 12.1036C31.705 14.4935 30.0667 15.78 30.0667 15.78C30.4167 14.1996 29.7021 13.0143 28.4089 12.0121C27.9325 11.6411 26.9942 10.9424 25.9392 10.1715C25.9392 10.1715 26.5469 9.57885 27.0914 8.38873C27.4755 7.54552 27.4901 6.57704 26.5518 6.36503C25.001 6.0133 23.7175 7.13596 23.3383 8.34054C23.0418 9.27048 23.2022 9.9595 23.7807 10.6774C23.8196 10.7304 23.8682 10.7834 23.9168 10.8364C23.5668 11.5062 23.0855 12.4024 22.6771 13.0962C21.5444 15.0284 20.6888 16.5558 20.0422 16.5558C19.5269 16.5558 19.5317 15.0043 19.5317 13.554C19.5317 12.3012 19.6241 10.4221 19.7019 8.47064C19.7262 7.82498 19.4005 7.45879 18.8511 7.12633C18.5205 6.92396 17.8107 6.52404 17.3975 6.52404C16.7801 6.52404 15.0056 6.60595 13.3284 11.3954C13.1193 11.9976 12.7012 13.101 12.7012 13.101L12.7353 7.34315C12.7353 7.20824 12.6623 7.07815 12.497 6.9866C12.2151 6.83241 11.4567 6.52404 10.7858 6.52404C10.4649 6.52404 10.3045 6.67341 10.3045 6.96732L10.2461 15.9776C10.2461 16.6618 10.2656 17.4616 10.3337 17.8085C10.4017 18.1554 10.5135 18.4445 10.6497 18.6132C10.7858 18.7818 10.9462 18.9119 11.2039 18.9649C11.447 19.0131 12.779 19.1817 12.8471 18.6806C12.9297 18.0784 12.9346 17.4279 13.6347 15.0043C14.7236 11.2267 16.1432 9.38612 16.8092 8.73083C16.9259 8.61519 17.062 8.61037 17.0523 8.79828C17.0232 9.62703 16.9259 11.6989 16.8579 13.4528C16.678 18.1554 17.5433 19.0276 18.783 19.0276C19.731 19.0276 21.068 18.0976 22.5021 15.7463C23.3967 14.2815 24.262 12.8408 24.8892 11.8049C25.3218 12.2 25.8128 12.6288 26.299 13.0818C27.4317 14.1418 27.8012 15.1488 27.5581 16.1028C27.3685 16.8352 26.6588 17.5869 25.3948 16.8545C25.0253 16.6425 24.8697 16.4787 24.5002 16.2329C24.3009 16.1028 23.9946 16.0643 23.8147 16.204C23.3432 16.5558 23.0709 17.0039 22.9154 17.558C22.7647 18.0976 23.314 18.3819 23.8779 18.6325C24.369 18.8493 25.4191 19.042 26.09 19.0661C28.7006 19.1528 30.7911 17.823 32.2495 14.3923C32.5121 17.3556 33.6205 19.0324 35.5457 19.0324C36.834 19.0324 38.1272 17.3893 38.6911 15.7752C38.8515 16.4353 39.0946 17.0087 39.4009 17.4905C40.8885 19.8129 43.7666 19.3118 45.2153 17.3412C45.6626 16.734 45.7306 16.5124 45.7306 16.5124C45.9397 18.3723 47.4613 19.0227 48.3316 19.0227C49.3039 19.0227 50.3102 18.5698 51.0151 17.0039C51.0978 17.1725 51.1902 17.3363 51.2874 17.4905C52.7702 19.8129 55.6531 19.3118 57.097 17.3412C57.165 17.2496 57.2234 17.1677 57.2768 17.0906L57.3206 18.3144C57.3206 18.3144 56.4941 19.0613 55.9885 19.519C53.7571 21.5379 52.0604 23.0701 51.934 24.8529C51.7735 27.1271 53.6452 27.9703 55.06 28.0812C56.5622 28.1968 57.8505 27.3825 58.6381 26.2358C59.3333 25.2287 59.7903 23.0557 59.7562 20.9163C59.7416 20.0587 59.7222 18.9697 59.7027 17.7989C60.4855 16.9027 61.3703 15.7656 62.1821 14.4405C63.0669 12.9902 64.0198 11.0484 64.506 9.53548C64.506 9.53548 65.3324 9.5403 66.2124 9.4873C66.4943 9.47285 66.5721 9.52585 66.5235 9.72822C66.4603 9.97395 65.4102 13.9683 66.3679 16.628C67.0242 18.4494 68.5022 19.0372 69.3772 19.0372C70.403 19.0372 71.3851 18.2759 71.9101 17.1388C71.9733 17.2641 72.0414 17.3845 72.1143 17.5002C73.5971 19.8226 76.4702 19.3167 77.9287 17.3508C78.2593 16.9075 78.444 16.522 78.444 16.522C78.7552 18.4494 80.2768 19.042 81.1471 19.042C82.0513 19.042 82.9118 18.6758 83.6119 17.0472C83.641 17.7652 83.6897 18.353 83.7577 18.5361C83.8015 18.6469 84.0591 18.7915 84.2487 18.8589C85.0801 19.1625 85.9211 19.0179 86.2371 18.9553C86.4559 18.9119 86.6212 18.7385 86.6455 18.3C86.7038 17.1388 86.6698 15.1825 87.0247 13.7322C87.6227 11.2942 88.1817 10.3498 88.4491 9.8824C88.595 9.62221 88.7651 9.57885 88.77 9.85349C88.7846 10.4172 88.8137 12.0603 89.0422 14.2767C89.2124 15.9053 89.4409 16.869 89.6159 17.1725C90.1166 18.0446 90.734 18.0832 91.2348 18.0832C91.5556 18.0832 92.2217 17.9964 92.1633 17.4423C92.1342 17.1725 92.1877 15.5054 92.7759 13.101C93.1648 11.5351 93.8065 10.1185 94.0399 9.60294C94.1274 9.41021 94.1663 9.56439 94.1663 9.5933C94.1177 10.6726 94.0059 14.1996 94.4531 16.1318C95.056 18.7481 96.8061 19.0372 97.4138 19.0372C98.7119 19.0372 99.7765 18.0639 100.136 15.4957C100.204 14.8645 100.078 14.3827 99.6939 14.3827ZM45.2299 12.7975C45.157 14.1562 44.8847 15.2934 44.4569 16.1173C43.6742 17.611 42.1331 18.0832 41.4525 15.9246C40.9614 14.3683 41.1267 12.2482 41.3309 11.1014C41.6323 9.40057 42.3907 8.19599 43.577 8.31163C44.7972 8.43209 45.3855 9.97395 45.2299 12.7975ZM57.1164 12.8168C57.0483 14.0984 56.708 15.3897 56.3434 16.1173C55.585 17.6206 53.9953 18.0928 53.339 15.9246C52.8917 14.4453 52.9987 12.5325 53.2174 11.3279C53.5043 9.76194 54.2043 8.31163 55.4635 8.31163C56.6886 8.31163 57.2914 9.63667 57.1164 12.8168ZM57.4275 21.5716C57.413 23.9133 57.0386 25.9611 56.2365 26.5586C55.0989 27.4018 53.5723 26.7706 53.8883 25.0649C54.1703 23.552 55.4878 22.0101 57.4275 20.1261C57.4324 20.1213 57.4324 20.5501 57.4275 21.5716ZM77.9433 12.8312C77.8752 14.2382 77.5592 15.3416 77.1703 16.1173C76.4119 17.6206 74.8319 18.088 74.1659 15.9246C73.8013 14.7489 73.7867 12.7782 74.0492 11.1352C74.3166 9.46321 75.0604 8.19599 76.2952 8.31163C77.5058 8.42727 78.0746 9.97395 77.9433 12.8312Z" fill="white"/>
</svg>
