<svg width="24" height="22" viewBox="0 0 24 22" fill="none" xmlns="http://www.w3.org/2000/svg">
<path d="M0 6.94613C0.174863 6.55296 0.480874 6.40472 0.886807 6.41116C1.39891 6.41761 1.91725 6.41116 2.42935 6.41116C2.7541 6.41116 2.76034 6.40472 2.76034 6.076C2.76034 5.9342 2.76034 5.78596 2.77283 5.64416C2.81655 5.18654 3.01015 4.96095 3.44106 4.86427C4.4153 4.65157 5.39579 4.43888 6.37002 4.22618C8.84934 3.69121 11.3287 3.15625 13.808 2.62128C13.9641 2.58905 14.039 2.49882 14.1015 2.35702C14.4325 1.58358 15.0133 1.1324 15.8314 1.01638C16.943 0.861694 18.0359 1.73182 18.1733 2.8791C18.1983 3.08535 18.2108 3.29805 18.2108 3.5043C18.2108 7.33285 18.2108 11.155 18.2108 14.9835C18.2108 15.8085 17.936 16.4982 17.2615 16.9751C16.1686 17.7486 14.6573 17.3038 14.1265 16.0534C14.039 15.8472 13.9266 15.757 13.7205 15.7183C13.2022 15.6152 12.6776 15.5056 12.1655 15.3831C12.0031 15.3445 11.9282 15.3831 11.872 15.5507C11.3973 16.8978 10.4668 17.697 9.0929 17.9484C8.96175 17.9742 8.8306 17.9806 8.69945 17.9742C8.53708 17.9677 8.48712 18.0386 8.48712 18.2062C8.48088 18.5736 8.51835 18.9474 8.44965 19.3148C8.26854 20.2945 7.40047 21.0679 6.37002 20.997C5.22717 20.9133 4.44028 20.0431 4.43404 18.9152C4.42779 17.291 4.42779 15.6603 4.43404 14.036C4.43404 13.7976 4.36534 13.688 4.13427 13.6558C3.87198 13.6171 3.61593 13.5526 3.35363 13.4882C3.01639 13.398 2.81655 13.1788 2.77283 12.8179C2.74161 12.5536 2.74785 12.2893 2.7541 12.0186C2.76034 11.8188 2.69165 11.7479 2.49805 11.7544C1.94223 11.7673 1.38642 11.7415 0.836846 11.7608C0.449649 11.7737 0.174863 11.619 0 11.2516C0 9.81432 0 8.38345 0 6.94613ZM13.9454 9.20846C13.9454 7.61645 13.9454 6.01799 13.9516 4.42599C13.9516 4.21329 13.9141 4.14239 13.6831 4.19395C12.1842 4.52911 10.6792 4.84494 9.17408 5.17365C7.60031 5.51525 6.03279 5.85041 4.45902 6.19202C4.32787 6.2178 4.22795 6.25647 4.22795 6.4305C4.23419 8.27388 4.23419 10.1173 4.22795 11.9606C4.22795 12.1089 4.2904 12.1604 4.4153 12.1798C4.64013 12.2249 4.85871 12.2765 5.07728 12.3216C7.9313 12.9403 10.7853 13.5591 13.6331 14.1778C13.9391 14.2423 13.9391 14.2423 13.9391 13.9136C13.9454 12.3474 13.9454 10.7747 13.9454 9.20846ZM15.413 9.19556C15.413 11.1098 15.413 13.0306 15.413 14.9448C15.413 15.0544 15.413 15.1704 15.4255 15.28C15.4692 15.6732 15.8626 15.9439 16.2311 15.8407C16.587 15.7441 16.7619 15.4863 16.7619 15.0351C16.7619 11.1292 16.7619 7.22328 16.7619 3.32383C16.7619 3.25937 16.7619 3.19492 16.7557 3.13047C16.7182 2.82109 16.4746 2.55683 16.1811 2.51816C15.8813 2.47304 15.5816 2.65351 15.4629 2.94355C15.4067 3.08535 15.4192 3.22715 15.4192 3.37539C15.4067 5.31545 15.413 7.25551 15.413 9.19556ZM5.90789 16.6013C5.90789 17.3747 5.90789 18.1482 5.91413 18.9216C5.91413 19.2632 6.16394 19.5082 6.47619 19.5017C6.78845 19.5017 7.02576 19.2761 7.02576 18.9345C7.03201 17.4456 7.03201 15.9568 7.03201 14.4679C7.03201 14.3261 6.9758 14.2681 6.84465 14.2423C6.61983 14.2036 6.40125 14.1456 6.18267 14.1005C5.93911 14.0489 5.91413 14.0618 5.91413 14.3325C5.90789 15.0866 5.90789 15.8407 5.90789 16.6013ZM1.42389 9.10533C1.42389 9.4276 1.43013 9.74987 1.42389 10.0721C1.42389 10.2139 1.4676 10.2784 1.61124 10.2719C1.92974 10.2655 2.24824 10.2655 2.56675 10.2719C2.72287 10.2784 2.76659 10.1946 2.76659 10.0464C2.76659 9.41471 2.76659 8.77661 2.76659 8.14497C2.76659 7.99028 2.71038 7.92583 2.5605 7.93227C2.24824 7.93872 1.93599 7.93872 1.62373 7.93227C1.47385 7.92583 1.41764 7.98383 1.41764 8.14497C1.43013 8.46079 1.42389 8.78306 1.42389 9.10533ZM8.49337 15.5572C8.49337 15.815 8.49337 16.0728 8.49337 16.3306C8.49337 16.4466 8.53084 16.5111 8.65574 16.5046C9.43638 16.4595 10.1233 16.0212 10.4543 15.222C10.5105 15.0866 10.4668 15.0286 10.3419 15.0028C9.78611 14.8868 9.23029 14.7708 8.67447 14.6419C8.51835 14.6032 8.48088 14.6677 8.48712 14.8095C8.49961 15.0609 8.49337 15.3058 8.49337 15.5572Z" fill="#FCB43C"/>
<path d="M21.7891 8.33838C22.2575 8.33838 22.7259 8.33838 23.1943 8.33838C23.6751 8.34482 23.9937 8.64131 23.9999 9.08604C23.9999 9.53077 23.6876 9.8466 23.2068 9.85304C22.2638 9.85949 21.3207 9.85949 20.3715 9.85304C19.9093 9.85304 19.5659 9.51788 19.5721 9.09249C19.5784 8.66709 19.9156 8.34482 20.384 8.34482C20.8524 8.33838 21.3207 8.33838 21.7891 8.33838Z" fill="#FCB43C"/>
<path d="M20.89 4.31006C20.5902 4.30361 20.3716 4.16181 20.2405 3.87822C20.1093 3.58817 20.153 3.25301 20.3966 3.03387C20.89 2.58914 21.3958 2.1573 21.9142 1.7448C22.2139 1.50632 22.6511 1.59655 22.8759 1.89949C23.107 2.20886 23.0882 2.64715 22.801 2.90496C22.3201 3.3368 21.8205 3.74931 21.3209 4.16826C21.2085 4.27138 21.0586 4.3165 20.89 4.31006Z" fill="#FCB43C"/>
<path d="M20.9461 13.8944C21.1085 13.8815 21.2646 13.9653 21.3958 14.0813C21.8454 14.4616 22.3013 14.8418 22.751 15.235C23.082 15.5251 23.1319 15.9698 22.8884 16.2921C22.6261 16.6337 22.2014 16.6981 21.8517 16.4145C21.3646 16.0213 20.8962 15.6153 20.4278 15.2028C20.178 14.9836 20.1155 14.6485 20.2404 14.3456C20.3528 14.0491 20.6089 13.8879 20.9461 13.8944Z" fill="#FCB43C"/>
</svg>
