<svg width="20" height="20" viewBox="0 0 20 20" fill="none" xmlns="http://www.w3.org/2000/svg">
<path d="M20.0005 6.86785C19.7975 7.35172 19.4384 7.57544 19.0064 7.4922C18.5953 7.41415 18.3143 7.06556 18.3143 6.6025C18.3091 5.45786 18.3143 4.31322 18.3143 3.16857C18.3143 3.09573 18.3143 3.0281 18.3143 2.95526C18.2362 2.92924 18.2154 2.99168 18.1842 3.02289C16.6333 4.57336 15.0824 6.12383 13.5316 7.6691C13.4171 7.78356 13.4275 7.8616 13.5211 7.97607C14.2497 8.9334 14.7233 10.0104 14.9211 11.2019C15.2542 13.2466 14.8326 15.1301 13.6356 16.8262C12.6729 18.1894 11.3874 19.1207 9.8001 19.6358C8.64995 20.0104 7.47379 20.0937 6.27681 19.8855C4.42409 19.563 2.89924 18.6733 1.70746 17.2321C0.833144 16.1811 0.297104 14.9636 0.0941376 13.6056C-0.186893 11.7066 0.203427 9.94277 1.25989 8.34547C2.14982 6.99272 3.37283 6.03018 4.89247 5.45265C5.92292 5.06244 6.995 4.90635 8.08789 4.9948C9.50345 5.10406 10.7993 5.57752 11.9495 6.4256C12.2253 6.62851 12.1628 6.63892 12.4178 6.38918C13.9271 4.88033 15.4363 3.37149 16.9404 1.86264C16.9872 1.81582 17.0444 1.7846 17.0653 1.71176C16.9976 1.66493 16.9247 1.69095 16.8571 1.69095C15.7069 1.69095 14.5568 1.69095 13.4015 1.68574C12.8394 1.68574 12.4491 1.27471 12.5063 0.738814C12.5427 0.353798 12.7821 0.12487 13.1308 0C15.2125 0 17.2942 0 19.3759 0C19.683 0.109261 19.8964 0.312175 20.0005 0.62435C20.0005 2.70552 20.0005 4.78668 20.0005 6.86785ZM13.3182 12.487C13.3182 9.2872 10.7213 6.69095 7.52583 6.68574C4.32521 6.68054 1.70746 9.2872 1.70746 12.487C1.70746 15.6764 4.3096 18.2882 7.49981 18.2934C10.7004 18.2934 13.3182 15.6868 13.3182 12.487Z" fill="black"/>
</svg>
