<svg width="22" height="22" viewBox="0 0 22 22" fill="none" xmlns="http://www.w3.org/2000/svg">
<g clip-path="url(#clip0_1548_18489)">
<path d="M5.05665 17.7615L5.82716 17.9068C5.8842 17.6045 5.75918 17.2968 5.50747 17.1199L5.05665 17.7615ZM4.61805 20.0863L3.84753 19.9409C3.79327 20.2286 3.90371 20.5224 4.13396 20.7031C4.3642 20.8838 4.67592 20.9213 4.94239 20.8002L4.61805 20.0863ZM7.2301 18.8996L7.50163 18.164C7.3079 18.0924 7.09377 18.1002 6.90576 18.1857L7.2301 18.8996ZM19.1892 10.7849C19.1892 15.1195 15.4165 18.7211 10.6507 18.7211V20.2894C16.1823 20.2894 20.7574 16.0825 20.7574 10.7849H19.1892ZM10.6507 2.84856C15.4165 2.84856 19.1892 6.45026 19.1892 10.7849H20.7574C20.7574 5.48716 16.1823 1.28034 10.6507 1.28034V2.84856ZM2.11223 10.7849C2.11223 6.45026 5.8849 2.84856 10.6507 2.84856V1.28034C5.11908 1.28034 0.544016 5.48716 0.544016 10.7849H2.11223ZM5.50747 17.1199C3.43198 15.6614 2.11223 13.3584 2.11223 10.7849H0.544016C0.544016 13.9169 2.15318 16.6795 4.60582 18.403L5.50747 17.1199ZM5.38856 20.2317L5.82716 17.9068L4.28613 17.6161L3.84753 19.9409L5.38856 20.2317ZM6.90576 18.1857L4.2937 19.3724L4.94239 20.8002L7.55445 19.6134L6.90576 18.1857ZM10.6507 18.7211C9.53649 18.7211 8.47442 18.523 7.50163 18.164L6.95857 19.6351C8.1039 20.0579 9.34976 20.2894 10.6507 20.2894V18.7211Z" fill="white"/>
<path d="M7.44921 7.45246L4.22568 12.6165C4.17058 12.7047 4.27282 12.8067 4.36094 12.7514L7.66554 10.6766C7.69908 10.6555 7.74198 10.6567 7.7743 10.6796L12.9118 14.3173C12.9591 14.3507 13.0249 14.3361 13.0536 14.2859L16.738 7.83009C16.7919 7.7357 16.675 7.63683 16.5909 7.70563L13.0531 10.5983C13.0212 10.6244 12.9764 10.6278 12.941 10.6067L7.58245 7.42012C7.53663 7.39288 7.47744 7.40724 7.44921 7.45246Z" fill="white"/>
</g>
<defs>
<clipPath id="clip0_1548_18489">
<rect width="21" height="21.0259" fill="white" transform="translate(0.150391 0.0605469)"/>
</clipPath>
</defs>
</svg>
