<svg width="156" height="130" viewBox="0 0 156 130" fill="none" xmlns="http://www.w3.org/2000/svg">
<path d="M26.0087 44.8746C25.9993 44.9565 25.9999 45.037 26.0104 45.1162C26.0294 45.1842 26.031 45.2344 26.0152 45.2667C26.0092 45.2978 25.9739 45.2974 25.9092 45.2656C25.8432 45.224 25.7255 45.1337 25.556 44.9949L25.154 44.9271L25.0122 45.1121C24.9865 45.1458 24.96 45.1745 24.9329 45.1982C24.8629 45.278 24.7899 45.2977 24.714 45.2574C24.6467 45.2058 24.5584 45.147 24.4488 45.0808C24.3605 45.022 24.2951 44.9853 24.2529 44.9707C24.2206 44.9548 24.2008 44.9574 24.1935 44.9785C24.1948 44.9884 24.1994 45.0231 24.2072 45.0825C24.2237 45.1307 24.2315 45.1902 24.2308 45.2608C24.2347 45.2905 24.2172 45.3483 24.1781 45.434C24.1378 45.5099 24.1196 45.5627 24.1235 45.5924C24.1155 45.6842 24.0897 45.7178 24.0461 45.6933C24.0026 45.6688 23.9617 45.6642 23.9234 45.6793C23.9036 45.6819 23.8725 45.676 23.8303 45.6614C23.798 45.6455 23.7544 45.621 23.6997 45.588C23.6548 45.5536 23.6018 45.4951 23.5405 45.4125C23.4877 45.3187 23.4426 45.2441 23.405 45.1886C23.3662 45.1232 23.3273 45.0578 23.2884 44.9924C23.2495 44.927 23.2037 44.8474 23.151 44.7536C23.1082 44.6585 23.0566 44.5343 22.996 44.3811C22.9453 44.2266 22.8671 43.9397 22.7613 43.5204C22.6555 43.101 22.5336 42.5982 22.3956 42.0119C22.2563 41.4156 22.0979 40.7513 21.9205 40.019C21.753 39.2854 21.5759 38.5178 21.3893 37.7162C21.2126 36.9133 21.0297 36.1011 20.8405 35.2797C20.65 34.4483 20.4683 33.6461 20.2956 32.8728C20.1215 32.0897 19.9583 31.3505 19.8059 30.6552C19.6535 29.9599 19.5172 29.3481 19.397 28.8199L15.3134 44.8073C15.2326 45.1102 15.1286 45.391 15.0016 45.6496C14.8732 45.8984 14.7347 46.1081 14.586 46.2789C14.4459 46.4385 14.2998 46.5536 14.1479 46.624C14.0059 46.6932 13.8808 46.6997 13.7726 46.6434C13.611 46.564 13.4715 46.4616 13.3541 46.336C13.2453 46.1992 13.1458 46.0562 13.0555 45.9069C12.9739 45.7464 12.8965 45.5803 12.8234 45.4086C12.7503 45.2369 12.6667 45.0615 12.5725 44.8825C12.4354 44.6084 12.2458 44.1649 12.0036 43.552C11.7712 42.9378 11.5004 42.2229 11.191 41.4073C10.8803 40.5818 10.5499 39.6833 10.1998 38.7118C9.84838 37.7305 9.49069 36.7399 9.12674 35.74C8.76147 34.7302 8.40444 33.7446 8.05563 32.783C7.71541 31.8103 7.39558 30.9154 7.09612 30.0985C7.09242 30.4517 7.07997 30.9672 7.05876 31.6452C7.03623 32.3132 7.00699 33.0829 6.97104 33.9542C6.94368 34.8144 6.90998 35.7409 6.86993 36.7337C6.82988 37.7265 6.78983 38.7193 6.74979 39.7121C6.71964 40.7036 6.68557 41.6654 6.64757 42.5975C6.61947 43.5282 6.5895 44.3686 6.55764 45.1184C6.53568 45.867 6.51222 46.4898 6.48724 46.9869C6.47086 47.4727 6.46558 47.7757 6.47138 47.8959C6.48317 47.985 6.4758 48.0817 6.44928 48.186C6.43004 48.2692 6.3966 48.3592 6.34897 48.4562C6.31254 48.5618 6.25566 48.665 6.17831 48.766C6.10301 48.8061 6.02771 48.8463 5.95241 48.8865C5.8771 48.9267 5.80778 48.9359 5.74443 48.914C5.67118 48.8935 5.62436 48.8442 5.60398 48.7663C5.58491 48.6983 5.52193 48.6411 5.41504 48.5948C5.34907 48.5531 5.27946 48.522 5.20621 48.5015C5.13427 48.4908 5.06138 48.435 4.98756 48.3339C4.97839 48.2646 4.96129 48.2114 4.93625 48.1744C4.92372 48.1559 4.91186 48.1424 4.90064 48.1338C4.88943 48.1252 4.87196 48.1073 4.84822 48.0803C4.82449 48.0532 4.75655 47.9966 4.64442 47.9107C4.56929 47.7997 4.5077 47.6769 4.45966 47.5421C4.42022 47.3962 4.41085 47.211 4.43156 46.9866C4.4422 46.9147 4.45825 46.7311 4.4797 46.4361C4.49984 46.1311 4.52203 45.7654 4.54627 45.339C4.5791 44.9014 4.61165 44.4235 4.64391 43.9053C4.67486 43.3772 4.70516 42.8442 4.7348 42.3062C4.76444 41.7682 4.7868 41.2513 4.80187 40.7556C4.82685 40.2585 4.84417 39.8179 4.85384 39.4337C4.87005 39.099 4.90325 38.6261 4.95344 38.0149C5.01222 37.3924 5.0823 36.703 5.16367 35.9465C5.24505 35.1901 5.33175 34.3977 5.42376 33.5693C5.52568 32.7396 5.62163 31.941 5.7116 31.1733C5.80026 30.3958 5.87762 29.6852 5.94369 29.0417C6.01835 28.3869 6.07042 27.8661 6.09989 27.4793C6.07354 27.4324 6.05214 27.3848 6.03569 27.3366C6.01924 27.2884 6.00774 27.2395 6.00119 27.19C5.94848 27.0962 5.94623 27.0411 5.99444 27.0246C6.05256 27.0069 6.0945 26.9812 6.12029 26.9475C6.11767 26.9277 6.12065 26.9122 6.12925 26.901C6.13784 26.8898 6.14083 26.8743 6.13821 26.8545C6.13036 26.7951 6.13633 26.764 6.15614 26.7614C6.13912 26.6327 6.1478 26.5459 6.18217 26.501C6.21655 26.4562 6.25289 26.4262 6.2912 26.411C6.3394 26.3946 6.38332 26.3837 6.42293 26.3785C6.46255 26.3733 6.48338 26.3403 6.48542 26.2796C6.48821 26.1482 6.49689 26.0614 6.51146 26.0192C6.53462 25.9657 6.56171 25.942 6.59273 25.948C6.63235 25.9427 6.68448 25.956 6.74914 25.9877C6.81249 26.0096 6.89135 26.0344 6.98572 26.0623C7.03786 26.0755 7.07878 26.0802 7.10849 26.0763C7.1468 26.0611 7.18641 26.0559 7.22734 26.0606C7.26695 26.0553 7.31283 26.0593 7.36496 26.0726C7.427 26.0845 7.50156 26.115 7.58865 26.1639C7.65462 26.2056 7.70741 26.2238 7.74702 26.2186C7.79654 26.212 7.83419 26.1919 7.85997 26.1583C7.89566 26.1233 7.92079 26.0848 7.93536 26.0425C7.95983 25.999 7.98001 25.961 7.99589 25.9287C8.01905 25.8753 8.06034 25.8446 8.11977 25.8368C8.17919 25.8289 8.23693 25.8465 8.29299 25.8894C8.36289 25.9608 8.41466 26.0094 8.4483 26.0352C8.49184 26.0596 8.51987 26.0811 8.53239 26.0996C8.55351 26.1069 8.56472 26.1155 8.56603 26.1254C8.56603 26.1254 8.57295 26.1396 8.58678 26.168C8.79425 26.594 8.98454 27.0425 9.15763 27.5134C9.34063 27.9829 9.5328 28.5218 9.73413 29.13C9.94536 29.7369 10.1895 30.4402 10.4665 31.24C10.7423 32.0298 11.0822 32.9623 11.4863 34.0375C12.1609 35.8629 12.7418 37.3983 13.2289 38.6439C13.7148 39.8796 14.1092 40.8049 14.4121 41.4198C14.55 40.938 14.7143 40.352 14.9052 39.6617C15.106 38.9701 15.3145 38.2221 15.5306 37.4176C15.7454 36.6032 15.9717 35.7621 16.2097 34.8943C16.4463 34.0166 16.6793 33.1494 16.9087 32.2928C17.138 31.4362 17.3571 30.6162 17.5659 29.8328C17.7846 29.0482 17.9736 28.343 18.1327 27.7174C18.3017 27.0904 18.4436 26.5628 18.5583 26.1345C18.6729 25.7062 18.7472 25.4293 18.781 25.304C18.8221 25.1574 18.8516 25.0377 18.8695 24.9446C18.8973 24.8502 18.9327 24.775 18.9757 24.719C18.995 24.6358 19.0274 24.5761 19.073 24.5398C19.1271 24.4924 19.1909 24.4789 19.2641 24.4994C19.2865 24.5166 19.3133 24.5282 19.3443 24.5342C19.3667 24.5514 19.3885 24.5636 19.4096 24.5709C19.4393 24.567 19.4654 24.5736 19.4878 24.5908C19.4912 24.54 19.5077 24.5126 19.5374 24.5087C19.5658 24.4948 19.5998 24.4853 19.6394 24.4801C19.6803 24.4847 19.7262 24.4887 19.777 24.4921L19.8216 24.4862L19.881 24.4783C19.9081 24.4546 19.9359 24.4358 19.9643 24.422C19.9914 24.3983 20.0217 24.3993 20.0554 24.4251C20.1511 24.4628 20.2111 24.4599 20.2356 24.4164C20.2687 24.3616 20.3248 24.329 20.404 24.3185C20.4536 24.312 20.4975 24.3011 20.5358 24.286C20.5642 24.2721 20.5926 24.2583 20.621 24.2445C20.6481 24.2207 20.6646 24.1934 20.6706 24.1624C20.7102 24.1571 20.7406 24.1581 20.7617 24.1654C20.7927 24.1714 20.8188 24.178 20.8399 24.1853L20.8903 24.224C20.9253 24.2597 20.9928 24.4271 21.0928 24.7262C21.1915 25.0155 21.305 25.3784 21.4332 25.8149C21.57 26.2402 21.7072 26.7057 21.8446 27.2115C21.9919 27.716 22.126 28.1971 22.247 28.6547C22.2877 28.8106 22.3738 29.1569 22.5053 29.6937C22.6354 30.2207 22.7918 30.8701 22.9744 31.642C23.1558 32.404 23.3588 33.2538 23.5836 34.1915C23.8083 35.1291 24.0343 36.0767 24.2617 37.0341C24.489 37.9916 24.7088 38.9299 24.921 39.8491C25.1319 40.7583 25.3155 41.5754 25.4718 42.3004C25.6381 43.0241 25.7674 43.6217 25.86 44.0932C25.9612 44.5534 26.0107 44.8139 26.0087 44.8746ZM38.1618 37.4486C38.2993 38.4885 38.2695 39.4447 38.0725 40.3171C37.8854 41.1883 37.568 41.9508 37.1204 42.6045C36.6826 43.2569 36.143 43.7867 35.5016 44.1939C34.8601 44.6012 34.1581 44.8552 33.3956 44.9561C33.0786 44.998 32.7268 45.0042 32.34 44.9747C31.9545 44.9551 31.5624 44.886 31.1638 44.7674C30.7652 44.6488 30.3693 44.4744 29.9761 44.2443C29.583 44.0141 29.2209 43.7143 28.8899 43.3449C28.5589 42.9756 28.2732 42.5296 28.0329 42.0072C27.8024 41.4835 27.645 40.8644 27.5606 40.15C27.4532 39.3379 27.4547 38.587 27.5651 37.8973C27.6741 37.1977 27.8474 36.5651 28.0851 35.9996C28.3313 35.423 28.6269 34.9153 28.972 34.4767C29.3171 34.0381 29.6707 33.6638 30.0328 33.354C30.3936 33.0342 30.7487 32.7857 31.0981 32.6085C31.4475 32.4313 31.7546 32.3152 32.0194 32.26C32.1567 32.2318 32.2181 32.2388 32.2035 32.281C32.1988 32.3219 32.1701 32.3711 32.1172 32.4285C32.0643 32.4858 32.0164 32.5425 31.9734 32.5986C31.9404 32.6534 31.9641 32.6805 32.0446 32.6799C32.1166 32.6905 32.1737 32.7031 32.2159 32.7177C32.268 32.731 32.3208 32.7492 32.3743 32.7723L32.4754 32.6229C32.5382 32.5642 32.5993 32.531 32.6587 32.5231C32.7281 32.514 32.7888 32.516 32.8409 32.5293C32.8918 32.5326 32.932 32.5323 32.9617 32.5284C32.9915 32.5245 33.0073 32.4922 33.0094 32.4314C33.0148 32.3199 33.0416 32.2559 33.0898 32.2394C33.1466 32.2117 33.274 32.1848 33.4721 32.1586C33.591 32.1429 33.7738 32.154 34.0207 32.1919C34.2774 32.2285 34.5605 32.312 34.87 32.4424C35.1893 32.5715 35.5166 32.76 35.8516 33.0079C36.1953 33.2446 36.5198 33.5645 36.825 33.9675C37.1387 34.3593 37.4141 34.8419 37.6512 35.4151C37.8882 35.9884 38.0584 36.6662 38.1618 37.4486ZM32.2236 33.805C31.9045 34.0588 31.6001 34.3862 31.3105 34.7872C31.021 35.1883 30.7683 35.6399 30.5525 36.142C30.3467 36.6428 30.1975 37.1916 30.1051 37.7882C30.0127 38.3849 30.0084 39.0001 30.0922 39.634C30.1825 40.3173 30.3238 40.9284 30.5159 41.4673C30.718 42.0049 30.9641 42.4561 31.2541 42.8208C31.5429 43.1756 31.87 43.4397 32.2355 43.613C32.6096 43.7752 33.0146 43.8275 33.4503 43.7698C33.8366 43.7188 34.2035 43.5594 34.551 43.2918C34.9084 43.0229 35.2069 42.6509 35.4464 42.1758C35.6859 41.7008 35.8522 41.1296 35.9454 40.4623C36.0484 39.7937 36.0437 39.0336 35.9311 38.1819C35.8172 37.3202 35.6077 36.6123 35.3027 36.0581C34.9976 35.5039 34.6779 35.0676 34.3436 34.749C34.0179 34.4192 33.7164 34.1971 33.4393 34.0826C33.1608 33.9582 32.9919 33.8999 32.9325 33.9077C32.7938 33.9261 32.6849 33.9405 32.6057 33.951C32.5363 33.9601 32.409 33.9115 32.2236 33.805ZM48.7965 30.5408C48.834 30.5963 48.8567 30.6537 48.8646 30.7131C48.8824 30.7713 48.8965 30.8399 48.9069 30.9192C48.9488 31.2361 48.8243 31.5901 48.5334 31.9812C48.2525 32.3711 47.7744 32.7567 47.0993 33.1382C46.9586 33.2173 46.8289 33.2646 46.71 33.2804C46.5615 33.3 46.4275 33.2774 46.3081 33.2126C46.1972 33.1365 46.1359 33.054 46.1242 32.9648C46.1163 32.9054 46.1418 32.8315 46.2007 32.7431C46.2694 32.6534 46.3382 32.5637 46.4069 32.474C46.4856 32.383 46.555 32.2982 46.6151 32.2197C46.6852 32.1399 46.7176 32.0802 46.7124 32.0406C46.7019 31.9614 46.6323 31.9303 46.5035 31.9473C46.3055 31.9735 46.0608 32.0663 45.7695 32.2257C45.4769 32.3753 45.1697 32.567 44.848 32.801C44.5348 33.0238 44.2144 33.2677 43.8866 33.5327C43.5675 33.7865 43.283 34.0357 43.0332 34.2804C42.7821 34.5151 42.5779 34.7235 42.4206 34.9055C42.2732 35.0862 42.2041 35.2112 42.2132 35.2806C42.2185 35.3202 42.2607 35.3347 42.3399 35.3243L42.7707 35.2673C43.0381 35.232 43.3818 35.2016 43.8016 35.1764C44.2314 35.1498 44.6849 35.1503 45.1622 35.1779C45.6381 35.1956 46.1193 35.2529 46.6057 35.3498C47.1007 35.4355 47.5485 35.5829 47.949 35.7919C48.3593 35.9997 48.7076 36.271 48.9937 36.606C49.2799 36.941 49.4563 37.3611 49.5231 37.8662C49.5571 38.1237 49.5492 38.4069 49.4994 38.7158C49.4581 39.0134 49.3488 39.3302 49.1715 39.666C49.0028 39.9906 48.7562 40.3356 48.4317 40.7009C48.1059 41.0564 47.681 41.4249 47.1571 41.8066C46.3656 42.3747 45.6129 42.8169 44.8989 43.1329C44.1948 43.4477 43.5457 43.6444 42.9515 43.7229C42.179 43.8251 41.547 43.7323 41.0555 43.4446C40.564 43.1569 40.2758 42.6911 40.1906 42.0474C40.1278 41.572 40.1633 41.1542 40.297 40.7939C40.4407 40.4323 40.6219 40.1262 40.8407 39.8756C41.0581 39.6151 41.2841 39.4189 41.5186 39.2872C41.7518 39.1455 41.9321 39.0612 42.0595 39.0343C42.119 39.0264 42.1678 39.0149 42.2061 38.9998C42.2543 38.9833 42.3032 38.9718 42.3527 38.9653C42.4419 38.9535 42.4936 39.0021 42.508 39.111L42.5277 39.2596C42.5355 39.319 42.5576 39.3715 42.5938 39.4171C42.6288 39.4528 42.6495 39.4954 42.6561 39.5449C42.6639 39.6043 42.6014 39.7033 42.4686 39.8418C42.3457 39.9789 42.2105 40.1379 42.0631 40.3186C41.9157 40.4993 41.7795 40.6886 41.6545 40.8865C41.5394 41.0831 41.493 41.2656 41.5152 41.434C41.5414 41.632 41.713 41.7101 42.0299 41.6682C42.426 41.6158 42.8322 41.4866 43.2483 41.2804C43.673 41.063 44.0776 40.808 44.4621 40.5153C44.8566 40.2213 45.2223 39.9009 45.5594 39.5541C45.905 39.196 46.2025 38.8544 46.4517 38.5292C46.7009 38.204 46.8934 37.9065 47.029 37.6367C47.1633 37.3569 47.2207 37.1428 47.201 36.9942C47.1774 36.8159 47.0545 36.6861 46.8321 36.6046C46.6196 36.5219 46.3305 36.4694 45.9648 36.4472C45.6091 36.4237 45.1971 36.4328 44.729 36.4746C44.2596 36.5064 43.7674 36.5564 43.2525 36.6244C42.7177 36.6951 42.2753 36.7788 41.9253 36.8755C41.5852 36.9708 41.3756 37.0237 41.2963 37.0342C41.2369 37.0421 41.1372 37.0502 40.9973 37.0586C40.8659 37.0558 40.7263 37.0289 40.5785 36.978C40.4393 36.9157 40.3103 36.8169 40.1916 36.6814C40.073 36.546 39.9953 36.3396 39.9586 36.0623C39.9338 35.8741 39.9452 35.656 39.993 35.4078C40.0507 35.1583 40.1659 34.8862 40.3385 34.5913C40.5197 34.2852 40.7726 33.9494 41.0972 33.5841C41.4316 33.2174 41.8631 32.8228 42.3917 32.4002C42.9474 31.9539 43.4726 31.5822 43.9674 31.285C44.4707 30.9766 44.9268 30.7299 45.3357 30.5449C45.7544 30.3585 46.1246 30.2239 46.4461 30.1411C46.7664 30.0484 47.0206 29.9896 47.2088 29.9647C47.6545 29.9058 47.9941 29.9213 48.2277 30.0114C48.46 30.0915 48.6496 30.268 48.7965 30.5408ZM54.1212 23.9419C54.1291 24.0014 54.1401 24.1611 54.1543 24.4212C54.1673 24.6715 54.1814 25.0072 54.1968 25.4283C54.2221 25.8482 54.2466 26.3387 54.2704 26.8999C54.2929 27.4511 54.3213 28.0469 54.3556 28.6873C54.969 28.5256 55.5504 28.3883 56.0998 28.2753C56.6578 28.1512 57.1299 28.0636 57.5161 28.0125C57.6448 27.9955 57.762 28.0052 57.8676 28.0416C57.9732 28.078 58.0603 28.127 58.1288 28.1885C58.206 28.2387 58.2697 28.3008 58.3198 28.3748C58.3685 28.4389 58.4011 28.4951 58.4176 28.5433C58.4241 28.5928 58.4356 28.6417 58.4521 28.6899C58.4672 28.7282 58.4781 28.7721 58.4846 28.8216C58.5108 29.0197 58.4479 29.2295 58.2958 29.4512C58.1536 29.6715 57.9125 29.8293 57.5724 29.9247L54.4534 30.6847C54.4981 31.4043 54.5505 32.143 54.6104 32.9009C54.6702 33.6589 54.7301 34.4168 54.79 35.1747C54.8585 35.9214 54.9307 36.6575 55.0064 37.3831C55.0822 38.1087 55.1626 38.7933 55.2477 39.4371C55.3027 39.853 55.3572 40.1884 55.411 40.4433C55.4649 40.6982 55.497 40.8652 55.5075 40.9444C55.5297 41.1128 55.5173 41.2857 55.4703 41.4633C55.4318 41.6296 55.3765 41.783 55.3044 41.9235C55.2435 42.0727 55.1688 42.1934 55.0802 42.2857C55.0029 42.3866 54.9345 42.441 54.8751 42.4489C54.5185 42.496 54.2212 42.4194 53.9831 42.2191C53.7463 42.0288 53.5486 41.7526 53.3899 41.3907C53.2411 41.0274 53.1198 40.6051 53.0259 40.1238C52.9321 39.6424 52.8504 39.1393 52.781 38.6144C52.6174 37.3765 52.4884 36.1339 52.394 34.8868C52.2984 33.6298 52.239 32.4184 52.2159 31.2526L50.3884 31.7209C50.3587 31.7248 50.3296 31.7337 50.3012 31.7475C50.2728 31.7614 50.2388 31.7709 50.1992 31.7761C50.011 31.801 49.8566 31.7761 49.7359 31.7013C49.6052 31.6279 49.5024 31.5357 49.4272 31.4247C49.3521 31.3137 49.3017 31.1995 49.2761 31.082C49.2393 30.9558 49.2163 30.8581 49.2071 30.7888C49.1888 30.6501 49.1916 30.5188 49.2155 30.3947C49.2394 30.2706 49.3038 30.1865 49.4088 30.1424C49.6064 30.0357 49.9567 29.9037 50.4599 29.7465C50.9717 29.578 51.5479 29.4011 52.1884 29.2157C52.1913 28.3991 52.2033 27.6518 52.2246 26.9739C52.2544 26.2847 52.2917 25.6903 52.3365 25.1906C52.3799 24.681 52.4286 24.2866 52.4823 24.0075C52.5447 23.7171 52.6106 23.5673 52.6799 23.5581C52.6997 23.5555 52.7251 23.5572 52.7561 23.5632C52.7871 23.5691 52.8126 23.5708 52.8324 23.5682C52.8918 23.5603 52.9324 23.5247 52.9543 23.4614C52.9847 23.3868 53.0495 23.343 53.1485 23.3299C53.2376 23.3181 53.3357 23.3354 53.4425 23.3817C53.558 23.4168 53.6606 23.4688 53.7503 23.5375C53.8499 23.605 53.9353 23.6793 54.0065 23.7606C54.0764 23.832 54.1147 23.8924 54.1212 23.9419ZM66.9477 27.3249C66.937 27.3968 66.9405 27.5374 66.9581 27.7467C66.9757 27.956 66.9949 28.2154 67.0156 28.5251C67.4258 28.3499 67.8491 28.1982 68.2856 28.07C68.7221 27.9417 69.1731 27.8469 69.6385 27.7853C70.1535 27.7172 70.6764 27.7086 71.2071 27.7593C71.7365 27.8002 72.2423 27.9298 72.7246 28.1482C73.0988 28.3103 73.4348 28.6035 73.7327 29.0276C74.0405 29.4504 74.3083 29.9138 74.5362 30.4178C74.6659 30.713 74.8002 31.0429 74.9391 31.4074C75.0767 31.7621 75.1749 32.1622 75.2338 32.6079C75.2836 32.9842 75.2858 33.382 75.2404 33.8011C75.205 34.219 75.0972 34.6615 74.9172 35.1286C74.7358 35.5859 74.4722 36.0692 74.1263 36.5784C73.7792 37.0778 73.3189 37.5971 72.7453 38.1365C72.1902 38.6633 71.6857 39.0777 71.2318 39.3795C70.7866 39.6701 70.4015 39.8823 70.0765 40.0159C69.7516 40.1496 69.4944 40.2239 69.3049 40.2389C69.1266 40.2624 69.0213 40.2663 68.989 40.2504C68.892 40.2027 68.7878 40.1006 68.6764 39.9441C68.5664 39.7974 68.4197 39.6404 68.2363 39.4732C68.179 39.4203 68.1265 39.3668 68.0791 39.3126C68.0303 39.2485 67.9752 39.1752 67.9139 39.0926C68.0099 40.0473 68.1082 40.9815 68.2089 41.8953C68.3194 42.8077 68.4271 43.6601 68.5318 44.4523C68.5973 44.9475 68.6631 45.4074 68.7293 45.8319C68.7969 46.2664 68.8634 46.6556 68.9291 46.9996C68.9461 47.1284 68.9674 47.2515 68.993 47.369C69.0298 47.4952 69.0499 47.6084 69.053 47.7087C69.0661 47.8078 69.0568 47.8896 69.025 47.9543C68.9933 48.0189 68.9229 48.0585 68.814 48.0729C68.6159 48.0991 68.4683 48.1639 68.3712 48.2675C68.2852 48.3796 68.186 48.5438 68.0735 48.7602C68.0061 48.8599 67.9304 48.9354 67.8465 48.9868C67.764 49.0481 67.6699 49.0605 67.5643 49.0241C67.4699 48.9962 67.3634 48.9146 67.2447 48.7791C67.1373 48.6523 67.0249 48.4505 66.9077 48.1737C66.8623 48.0588 66.8116 47.9043 66.7557 47.7102C66.7111 47.5246 66.6592 47.2846 66.6001 46.9901C66.5522 46.7042 66.4958 46.3539 66.4309 45.9393C66.3773 45.5332 66.3131 45.048 66.2385 44.4835L65.6184 39.3357C65.4666 38.0357 65.3492 36.7664 65.2661 35.5279C65.183 34.2894 65.1245 33.1232 65.0907 32.0293C64.8562 32.161 64.6383 32.2654 64.4369 32.3425C64.2354 32.4195 64.108 32.4464 64.0545 32.4232C63.9503 32.3967 63.88 32.3607 63.8437 32.3151C63.8075 32.2695 63.7818 32.2275 63.7667 32.1892C63.7502 32.141 63.7301 32.1034 63.7064 32.0763C63.6912 32.038 63.6483 32.0184 63.5777 32.0177C63.5071 32.017 63.4437 31.9951 63.3877 31.9521C63.3316 31.9092 63.2904 31.8642 63.264 31.8173C63.2476 31.7691 63.2466 31.7239 63.2612 31.6817C63.2844 31.6282 63.3349 31.5913 63.4128 31.5709C63.4809 31.5519 63.4875 31.5258 63.4327 31.4927C63.3767 31.4498 63.3193 31.3969 63.2606 31.3341C63.2105 31.2601 63.1882 31.1673 63.1936 31.0558C63.1977 30.9343 63.3038 30.7843 63.5119 30.6056C63.6177 30.4908 63.8093 30.3395 64.0868 30.1517C64.3629 29.954 64.6965 29.7335 65.0876 29.4904C65.0944 28.7035 65.1202 28.0602 65.165 27.5605C65.2184 27.0496 65.2824 26.7338 65.3572 26.6131C65.4001 26.557 65.4289 26.5079 65.4435 26.4657C65.458 26.4234 65.4733 26.3862 65.4892 26.3538C65.505 26.3215 65.5265 26.2935 65.5536 26.2697C65.5807 26.246 65.6326 26.219 65.7092 26.1887C65.7772 26.1696 65.8386 26.1766 65.8933 26.2097C65.9481 26.2428 65.9998 26.2913 66.0486 26.3554C66.106 26.4083 66.1634 26.4612 66.2207 26.5141C66.2781 26.5669 66.3421 26.5937 66.4128 26.5945C66.554 26.596 66.6728 26.6558 66.769 26.7741C66.8739 26.8812 66.9334 27.0647 66.9477 27.3249ZM70.1829 29.8446C69.7372 29.9035 69.2684 30.0159 68.7764 30.1817C68.2844 30.3475 67.7464 30.5849 67.1625 30.8938L67.7475 37.3764C67.8406 37.3943 67.9422 37.401 68.0525 37.3965C68.1614 37.3821 68.2852 37.3658 68.4239 37.3474C68.7507 37.3042 69.1211 37.2099 69.5352 37.0645C69.9592 36.9177 70.3822 36.7258 70.8043 36.4886C71.2251 36.2415 71.6363 35.9604 72.038 35.6453C72.4384 35.3203 72.7841 34.9622 73.075 34.5711C73.3758 34.1786 73.602 33.7557 73.7537 33.3024C73.9054 32.849 73.9528 32.3692 73.8959 31.8628C73.8665 31.5644 73.7586 31.2814 73.5721 31.0138C73.3941 30.735 73.1458 30.4958 72.8272 30.2961C72.5185 30.095 72.142 29.9534 71.6979 29.871C71.2524 29.7788 70.7474 29.7699 70.1829 29.8446ZM87.5708 30.9164C87.7083 31.9563 87.6785 32.9125 87.4815 33.785C87.2943 34.6562 86.977 35.4186 86.5293 36.0723C86.0916 36.7247 85.552 37.2545 84.9105 37.6618C84.2691 38.069 83.5671 38.3231 82.8045 38.4239C82.4876 38.4658 82.1357 38.472 81.7489 38.4425C81.3634 38.423 80.9714 38.3539 80.5728 38.2353C80.1742 38.1167 79.7783 37.9423 79.3851 37.7121C78.9919 37.4819 78.6298 37.1822 78.2988 36.8128C77.9679 36.4434 77.6822 35.9975 77.4418 35.475C77.2113 34.9513 77.0539 34.3322 76.9696 33.6179C76.8622 32.8058 76.8637 32.0549 76.974 31.3651C77.0831 30.6655 77.2564 30.033 77.494 29.4675C77.7402 28.8908 78.0359 28.3831 78.381 27.9445C78.726 27.5059 79.0796 27.1317 79.4417 26.8218C79.8025 26.502 80.1576 26.2536 80.507 26.0764C80.8564 25.8992 81.1635 25.783 81.4283 25.7278C81.5657 25.6996 81.627 25.7066 81.6125 25.7488C81.6078 25.7898 81.579 25.8389 81.5262 25.8963C81.4733 25.9537 81.4254 26.0104 81.3824 26.0664C81.3493 26.1212 81.3731 26.1483 81.4536 26.1477C81.5255 26.1584 81.5826 26.171 81.6249 26.1855C81.677 26.1988 81.7298 26.217 81.7832 26.2402L81.8844 26.0908C81.9472 26.0321 82.0083 25.9988 82.0677 25.991C82.137 25.9818 82.1978 25.9838 82.2499 25.9971C82.3007 26.0005 82.341 26.0002 82.3707 25.9962C82.4004 25.9923 82.4163 25.96 82.4183 25.8993C82.4237 25.7877 82.4505 25.7237 82.4988 25.7072C82.5556 25.6796 82.683 25.6527 82.8811 25.6265C82.9999 25.6108 83.1828 25.6218 83.4296 25.6597C83.6864 25.6963 83.9695 25.7798 84.2789 25.9102C84.5983 26.0393 84.9255 26.2278 85.2606 26.4757C85.6043 26.7124 85.9287 27.0323 86.2339 27.4353C86.5477 27.8271 86.8231 28.3097 87.0601 28.883C87.2971 29.4562 87.4674 30.134 87.5708 30.9164ZM81.6326 27.2728C81.3134 27.5266 81.0091 27.854 80.7195 28.2551C80.4299 28.6561 80.1772 29.1077 79.9615 29.6098C79.7556 30.1106 79.6065 30.6594 79.514 31.2561C79.4216 31.8527 79.4173 32.468 79.5011 33.1018C79.5915 33.7851 79.7327 34.3963 79.9249 34.9352C80.1269 35.4727 80.373 35.9239 80.6631 36.2886C80.9518 36.6434 81.2789 36.9075 81.6445 37.0809C82.0186 37.243 82.4235 37.2953 82.8593 37.2377C83.2455 37.1866 83.6124 37.0273 83.9599 36.7596C84.3174 36.4907 84.6158 36.1187 84.8553 35.6437C85.0948 35.1686 85.2612 34.5975 85.3543 33.9302C85.4574 33.2615 85.4526 32.5014 85.34 31.6497C85.2261 30.7881 85.0166 30.0802 84.7116 29.526C84.4066 28.9718 84.0869 28.5354 83.7526 28.2168C83.4268 27.8871 83.1254 27.6649 82.8482 27.5504C82.5698 27.426 82.4009 27.3677 82.3414 27.3756C82.2028 27.3939 82.0939 27.4083 82.0146 27.4188C81.9453 27.4279 81.8179 27.3793 81.6326 27.2728ZM92.1424 23.994C92.1317 24.0659 92.1352 24.2065 92.1528 24.4158C92.1704 24.6251 92.1896 24.8845 92.2103 25.1942C92.6205 25.019 93.0438 24.8673 93.4803 24.7391C93.9168 24.6108 94.3678 24.516 94.8332 24.4544C95.3482 24.3863 95.8711 24.3777 96.4018 24.4284C96.9312 24.4693 97.437 24.5989 97.9193 24.8173C98.2935 24.9794 98.6295 25.2726 98.9274 25.6967C99.2352 26.1196 99.503 26.5829 99.7309 27.0869C99.8606 27.3821 99.9949 27.712 100.134 28.0765C100.271 28.4312 100.37 28.8314 100.429 29.277C100.478 29.6533 100.48 30.0511 100.435 30.4702C100.4 30.8881 100.292 31.3306 100.112 31.7977C99.9305 32.255 99.6669 32.7383 99.321 33.2475C98.9739 33.7469 98.5136 34.2662 97.94 34.8056C97.3849 35.3324 96.8804 35.7468 96.4265 36.0486C95.9813 36.3392 95.5962 36.5514 95.2712 36.685C94.9463 36.8187 94.6891 36.893 94.4996 36.908C94.3213 36.9315 94.216 36.9354 94.1837 36.9195C94.0867 36.8719 93.9825 36.7697 93.8711 36.6132C93.7611 36.4665 93.6144 36.3095 93.431 36.1423C93.3737 36.0895 93.3212 36.0359 93.2738 35.9817C93.225 35.9177 93.1699 35.8443 93.1086 35.7617C93.2046 36.7164 93.3029 37.6506 93.4036 38.5644C93.5141 39.4768 93.6218 40.3292 93.7265 41.1214C93.792 41.6166 93.8578 42.0765 93.924 42.501C93.9916 42.9355 94.0581 43.3247 94.1238 43.6687C94.1408 43.7975 94.1621 43.9206 94.1877 44.0381C94.2245 44.1643 94.2446 44.2775 94.2477 44.3778C94.2608 44.4769 94.2515 44.5587 94.2197 44.6234C94.188 44.688 94.1176 44.7276 94.0087 44.742C93.8106 44.7682 93.663 44.833 93.5659 44.9366C93.4799 45.0487 93.3807 45.213 93.2682 45.4294C93.2008 45.529 93.1251 45.6045 93.0412 45.6559C92.9587 45.7172 92.8646 45.7296 92.759 45.6932C92.6646 45.6653 92.5581 45.5837 92.4394 45.4482C92.332 45.3214 92.2196 45.1196 92.1024 44.8428C92.057 44.7279 92.0063 44.5734 91.9504 44.3793C91.9058 44.1937 91.8539 43.9537 91.7948 43.6592C91.7469 43.3733 91.6905 43.023 91.6256 42.6084C91.572 42.2024 91.5078 41.7171 91.4332 41.1526L90.8131 36.0048C90.6613 34.7048 90.5439 33.4355 90.4608 32.197C90.3777 30.9585 90.3192 29.7923 90.2854 28.6984C90.0509 28.8302 89.833 28.9345 89.6316 29.0116C89.4301 29.0886 89.3027 29.1155 89.2492 29.0923C89.145 29.0658 89.0747 29.0298 89.0384 28.9842C89.0022 28.9386 88.9765 28.8966 88.9614 28.8583C88.9449 28.8101 88.9248 28.7725 88.9011 28.7454C88.8859 28.7071 88.843 28.6875 88.7724 28.6868C88.7018 28.6861 88.6384 28.6642 88.5824 28.6212C88.5263 28.5783 88.4851 28.5333 88.4587 28.4864C88.4423 28.4382 88.4413 28.393 88.4559 28.3508C88.4791 28.2973 88.5296 28.2604 88.6075 28.24C88.6756 28.221 88.6822 28.1949 88.6274 28.1618C88.5714 28.1189 88.514 28.066 88.4553 28.0032C88.4052 27.9292 88.3829 27.8364 88.3883 27.7249C88.3924 27.6034 88.4985 27.4534 88.7066 27.2747C88.8124 27.1599 89.004 27.0087 89.2815 26.8208C89.5576 26.6231 89.8912 26.4026 90.2823 26.1595C90.2891 25.3726 90.3149 24.7293 90.3597 24.2296C90.4131 23.7187 90.4771 23.4029 90.5519 23.2822C90.5948 23.2262 90.6236 23.177 90.6382 23.1348C90.6528 23.0925 90.668 23.0553 90.6839 23.0229C90.6997 22.9906 90.7212 22.9626 90.7483 22.9388C90.7754 22.9151 90.8273 22.8881 90.9039 22.8578C90.9719 22.8387 91.0333 22.8457 91.088 22.8788C91.1428 22.9119 91.1945 22.9604 91.2433 23.0245C91.3007 23.0774 91.3581 23.1303 91.4154 23.1832C91.4728 23.236 91.5368 23.2628 91.6075 23.2636C91.7487 23.2651 91.8675 23.3249 91.9637 23.4432C92.0686 23.5503 92.1281 23.7338 92.1424 23.994ZM95.3776 26.5137C94.9319 26.5726 94.4631 26.685 93.9711 26.8508C93.4791 27.0166 92.9411 27.254 92.3572 27.5629L92.9422 34.0455C93.0353 34.0634 93.1369 34.0701 93.2472 34.0656C93.3561 34.0512 93.4799 34.0349 93.6186 34.0165C93.9454 33.9733 94.3158 33.879 94.7299 33.7336C95.1539 33.5868 95.5769 33.3949 95.999 33.1577C96.4198 32.9106 96.831 32.6295 97.2327 32.3144C97.6331 31.9894 97.9788 31.6313 98.2697 31.2402C98.5705 30.8477 98.7967 30.4248 98.9484 29.9715C99.1001 29.5181 99.1475 29.0383 99.0906 28.5319C99.0612 28.2335 98.9533 27.9505 98.7668 27.6829C98.5888 27.4041 98.3405 27.1649 98.0219 26.9652C97.7132 26.7641 97.3367 26.6225 96.8926 26.5401C96.4471 26.4479 95.9421 26.439 95.3776 26.5137ZM112.453 33.9146C112.465 34.0038 112.405 34.1225 112.274 34.2709C112.142 34.4193 111.963 34.5085 111.735 34.5387C111.666 34.5478 111.532 34.5302 111.335 34.4857C111.147 34.44 110.946 34.3609 110.729 34.2484C110.514 34.1458 110.315 34.0109 110.132 33.8437C109.947 33.6666 109.833 33.4549 109.791 33.2086C109.756 33.1023 109.727 32.9551 109.702 32.7669C109.676 32.5688 109.646 32.341 109.612 32.0835C109.559 31.6874 109.501 31.2467 109.437 30.7614C109.373 30.2761 109.318 29.7846 109.272 29.2868C109.25 29.6525 109.215 30.035 109.167 30.4343C109.118 30.8238 109.044 31.2165 108.945 31.6125C108.846 32.0084 108.722 32.4027 108.572 32.7953C108.422 33.188 108.241 33.5697 108.028 33.9404C107.913 34.137 107.785 34.3102 107.643 34.4599C107.511 34.5983 107.375 34.717 107.237 34.8159C107.1 34.9247 106.97 35.0074 106.847 35.064C106.723 35.1206 106.627 35.1535 106.557 35.1627C106.518 35.1679 106.418 35.1358 106.257 35.0663C106.108 35.0054 105.926 34.9237 105.711 34.8211C105.505 34.7073 105.282 34.5856 105.043 34.456C104.803 34.3164 104.573 34.1805 104.354 34.0482C104.134 33.9061 103.936 33.7761 103.759 33.6584C103.581 33.5308 103.451 33.427 103.37 33.3471C103.287 33.2572 103.201 33.0974 103.11 32.8675C103.029 32.6364 102.946 32.3501 102.86 32.0087C102.775 31.6673 102.689 31.2807 102.601 30.8489C102.524 30.4158 102.452 29.9516 102.387 29.4564C102.352 29.189 102.311 28.8418 102.264 28.4146C102.218 27.9874 102.178 27.5292 102.143 27.04C102.107 26.5409 102.077 26.0412 102.051 25.5408C102.033 25.0291 102.028 24.5713 102.035 24.1673C102.051 23.7521 102.087 23.4148 102.143 23.1554C102.199 22.8862 102.285 22.7437 102.404 22.728C102.484 22.7175 102.625 22.7239 102.83 22.7472C103.033 22.7607 103.239 22.7536 103.447 22.7261C103.754 22.6855 103.964 22.6326 104.076 22.5674C104.197 22.491 104.287 22.4488 104.346 22.441C104.445 22.4279 104.506 22.5055 104.528 22.6739C104.535 22.7234 104.541 22.7729 104.548 22.8224C104.553 22.862 104.55 22.9129 104.538 22.9749C104.536 23.0356 104.531 23.1924 104.525 23.4452C104.528 23.6968 104.53 24.0189 104.531 24.4117C104.533 24.8045 104.541 25.2468 104.556 25.7386C104.569 26.2205 104.586 26.7272 104.606 27.2586C104.635 27.7888 104.671 28.3232 104.712 28.8619C104.753 29.4006 104.805 29.9126 104.869 30.3979C104.913 30.7247 104.961 31.0509 105.014 31.3764C105.077 31.7006 105.146 31.9938 105.221 32.2559C105.296 32.5181 105.379 32.7288 105.471 32.888C105.561 33.0373 105.656 33.1054 105.755 33.0923C105.844 33.0805 105.962 33.0245 106.11 32.9243C106.267 32.8129 106.437 32.6141 106.621 32.3278C106.815 32.0402 107.014 31.641 107.218 31.1303C107.423 30.6196 107.627 29.9527 107.831 29.1297C108.043 28.2956 108.242 27.2868 108.428 26.1033C108.623 24.9087 108.794 23.4955 108.941 21.8638C108.937 21.8341 108.949 21.8123 108.977 21.7985C109.014 21.7734 109.058 21.7577 109.107 21.7511C109.236 21.7341 109.401 21.7273 109.603 21.7309C109.804 21.7245 109.997 21.7343 110.182 21.7602C110.375 21.775 110.54 21.8035 110.677 21.8459C110.823 21.887 110.901 21.9422 110.91 22.0115C110.969 22.4572 111.013 22.9451 111.043 23.4752C111.073 24.0054 111.1 24.5559 111.125 25.127C111.149 25.6881 111.18 26.2635 111.218 26.853C111.255 27.4426 111.312 28.0246 111.388 28.599C111.524 29.6289 111.684 30.6104 111.868 31.5434C112.06 32.4652 112.256 33.2556 112.453 33.9146ZM115.399 13.4373C115.418 13.576 115.444 13.8496 115.478 14.2583C115.511 14.667 115.552 15.1605 115.598 15.7388C115.643 16.3072 115.691 16.9357 115.741 17.6243C115.801 18.3017 115.856 18.9847 115.906 19.6732C115.956 20.3519 116.007 21.0101 116.062 21.6479C116.116 22.2857 116.169 22.8429 116.222 23.3196C116.24 23.6094 116.267 23.9283 116.303 24.2762C116.349 24.6228 116.398 24.9942 116.451 25.3903C116.52 25.9152 116.593 26.4649 116.669 27.0393C116.753 27.6025 116.837 28.1607 116.92 28.714C117.003 29.2673 117.084 29.8008 117.162 30.3145C117.249 30.8169 117.324 31.2705 117.387 31.6753C117.451 32.08 117.501 32.421 117.538 32.6983C117.583 32.9644 117.61 33.1321 117.619 33.2015C117.638 33.3401 117.627 33.4474 117.586 33.5232C117.557 33.6077 117.509 33.6644 117.442 33.6934C117.387 33.731 117.323 33.7444 117.251 33.7338C117.181 33.733 117.119 33.7211 117.065 33.6979C117.002 33.6761 116.948 33.648 116.903 33.6136C116.868 33.5779 116.839 33.5515 116.817 33.5343C116.794 33.5171 116.774 33.5147 116.755 33.5273C116.747 33.5385 116.742 33.5794 116.741 33.65C116.746 33.9115 116.712 34.1124 116.64 34.253C116.578 34.3922 116.5 34.4881 116.406 34.5409C116.323 34.6022 116.241 34.6281 116.159 34.6188C116.077 34.6095 116.023 34.5814 115.997 34.5345C115.97 34.4876 115.932 34.4624 115.881 34.4591C115.84 34.4544 115.794 34.4504 115.743 34.447C115.694 34.4536 115.642 34.4453 115.589 34.4221C115.547 34.4075 115.515 34.3613 115.495 34.2834C115.371 33.9571 115.265 33.5378 115.178 33.0255C115.088 32.5032 115.001 31.9152 114.914 31.2616C114.84 30.6971 114.764 30.0874 114.687 29.4324C114.611 28.7775 114.528 28.1083 114.437 27.425C114.385 27.0288 114.333 26.6377 114.282 26.2514C114.23 25.8553 114.167 25.4555 114.093 25.0521L113.969 24.1162C113.863 23.314 113.777 22.5092 113.711 21.7017C113.643 20.8844 113.59 20.1004 113.551 19.3498C113.512 18.5992 113.484 17.8925 113.467 17.2297C113.45 16.5669 113.433 15.9797 113.416 15.468C113.398 14.9564 113.384 14.5402 113.371 14.2193C113.359 13.8985 113.343 13.6991 113.323 13.6212C113.304 13.5532 113.302 13.503 113.318 13.4707C113.344 13.437 113.376 13.4176 113.416 13.4123C113.464 13.3959 113.513 13.3844 113.563 13.3778C113.611 13.3614 113.653 13.3407 113.69 13.3156C113.754 13.2668 113.808 13.2497 113.85 13.2643C113.901 13.2676 113.943 13.2822 113.977 13.308C114.01 13.3338 114.039 13.3652 114.065 13.4022C114.098 13.428 114.14 13.4376 114.189 13.431C114.247 13.4133 114.29 13.3925 114.317 13.3688C114.353 13.3338 114.379 13.3051 114.396 13.2827C114.422 13.2491 114.444 13.221 114.461 13.1986C114.488 13.1749 114.522 13.1654 114.563 13.17C114.645 13.1794 114.721 13.1844 114.792 13.1851C114.871 13.1747 114.908 13.1546 114.905 13.1248C114.914 13.043 114.939 13.0044 114.98 13.0091C115.02 13.0038 115.072 13.0221 115.138 13.0637C115.204 13.1054 115.261 13.1533 115.308 13.2075C115.355 13.2518 115.385 13.3284 115.399 13.4373ZM127.982 23.0949C128.038 23.4403 128.064 23.87 128.062 24.3843C128.058 24.8886 128.05 25.4339 128.036 26.0201C128.022 26.5964 128.014 27.1869 128.014 27.7915C128.013 28.3962 128.047 28.961 128.117 29.4859C128.162 29.8325 128.231 30.161 128.323 30.4714C128.413 30.7719 128.532 31.0281 128.681 31.2402C128.767 31.3598 128.817 31.4691 128.83 31.5681C128.853 31.6659 128.86 31.7556 128.851 31.8375C128.84 31.9094 128.828 31.9715 128.815 32.0236C128.803 32.0857 128.81 32.1401 128.837 32.187C128.863 32.2339 128.865 32.289 128.843 32.3524C128.823 32.4257 128.786 32.491 128.733 32.5483C128.682 32.6156 128.617 32.6644 128.541 32.6947C128.475 32.7336 128.41 32.7371 128.346 32.7054C128.228 32.6504 128.133 32.6226 128.063 32.6219C128.002 32.6198 127.947 32.627 127.899 32.6435C127.862 32.6685 127.825 32.6936 127.788 32.7186C127.761 32.7423 127.722 32.7476 127.669 32.7343C127.489 32.6674 127.292 32.5877 127.079 32.495C126.865 32.4024 126.719 32.2906 126.641 32.1598C126.594 32.1057 126.541 32.0119 126.483 31.8784C126.435 31.7437 126.384 31.5842 126.329 31.4C126.284 31.2144 126.238 31.014 126.189 30.7988C126.141 30.5835 126.098 30.3726 126.06 30.1659C125.815 30.8231 125.53 31.3796 125.208 31.8354C124.895 32.2899 124.566 32.6609 124.221 32.9483C123.888 33.2444 123.544 33.4661 123.191 33.6136C122.847 33.7598 122.527 33.8525 122.23 33.8918C121.923 33.9324 121.645 33.9288 121.397 33.881C121.159 33.8318 120.968 33.7613 120.825 33.6694C120.276 33.2483 119.877 32.9029 119.63 32.6333C119.391 32.3525 119.269 32.1167 119.264 31.9259C119.23 31.2855 119.306 30.6809 119.493 30.1121C119.68 29.5432 119.937 29.0105 120.264 28.5137C120.59 28.0071 120.967 27.5441 121.396 27.1247C121.833 26.6941 122.28 26.3075 122.739 25.9647C123.206 25.6107 123.67 25.3076 124.13 25.0552C124.589 24.793 125.009 24.5763 125.389 24.4051C125.299 23.8729 125.212 23.4107 125.13 23.0185C125.057 22.6151 124.983 22.3225 124.909 22.1409C124.679 21.5465 124.391 21.1211 124.045 20.8646C123.697 20.5982 123.305 20.4937 122.869 20.5514C122.592 20.588 122.324 20.7293 122.064 20.9753C121.814 21.2199 121.599 21.5355 121.418 21.9222C121.238 22.3088 121.104 22.7447 121.017 23.2298C120.94 23.7136 120.93 24.2137 120.988 24.73C121.005 24.8587 121.027 24.9818 121.052 25.0994C121.078 25.2169 121.109 25.3387 121.146 25.4649C121.165 25.5329 121.147 25.5857 121.091 25.6232C121.046 25.6595 120.985 25.6928 120.908 25.723C120.83 25.7434 120.747 25.7645 120.659 25.7861C120.572 25.8078 120.499 25.8325 120.443 25.8602C120.396 25.8865 120.358 25.9066 120.33 25.9204C120.3 25.9244 120.27 25.9234 120.238 25.9174C120.206 25.9015 120.163 25.877 120.108 25.844C120.063 25.8096 119.997 25.7679 119.91 25.719C119.823 25.67 119.732 25.6316 119.638 25.6038C119.553 25.5747 119.474 25.5498 119.401 25.5293C119.338 25.5074 119.28 25.4899 119.228 25.4766C119.184 25.4521 119.16 25.4201 119.155 25.3805C119.074 24.7664 119.124 24.1149 119.305 23.426C119.495 22.7357 119.783 22.093 120.168 21.498C120.562 20.8917 121.037 20.3754 121.596 19.9489C122.164 19.5211 122.79 19.262 123.473 19.1717C124.028 19.0983 124.519 19.119 124.947 19.2337C125.376 19.3484 125.751 19.5204 126.074 19.7499C126.396 19.9793 126.668 20.2456 126.89 20.5489C127.121 20.8508 127.309 21.1636 127.452 21.4872C127.604 21.7996 127.72 22.1018 127.799 22.3937C127.886 22.6743 127.947 22.9081 127.982 23.0949ZM125.643 26.0947C125.36 26.2429 125.052 26.4297 124.719 26.6551C124.386 26.8805 124.053 27.1412 123.719 27.4372C123.384 27.7234 123.055 28.0491 122.73 28.4145C122.406 28.7798 122.11 29.1766 121.845 29.6047C121.527 30.1001 121.307 30.5323 121.185 30.9012C121.062 31.2701 120.997 31.5809 120.99 31.8337C120.982 32.0767 121.017 32.2635 121.095 32.3943C121.173 32.5251 121.253 32.6001 121.336 32.6194C121.659 32.6976 121.978 32.6706 122.293 32.5382C122.616 32.3947 122.926 32.1825 123.221 31.9016C123.525 31.6095 123.809 31.2748 124.071 30.8974C124.342 30.5089 124.593 30.1181 124.823 29.7249C125.052 29.3218 125.252 28.9325 125.424 28.5571C125.595 28.1718 125.733 27.8412 125.837 27.5654L125.643 26.0947ZM137.332 19.8485C137.36 20.137 137.369 20.4281 137.357 20.7219C137.354 21.0044 137.33 21.2797 137.285 21.5476C137.238 21.8057 137.169 22.0416 137.076 22.2554C136.993 22.4679 136.891 22.6427 136.768 22.7799C136.662 22.8946 136.574 22.9566 136.505 22.9657C136.436 22.9749 136.374 22.963 136.319 22.9299C136.274 22.8955 136.233 22.8555 136.197 22.8099C136.161 22.7644 136.117 22.7399 136.067 22.7365C136.026 22.7319 135.972 22.744 135.905 22.773C135.847 22.7907 135.783 22.7992 135.712 22.7985C135.651 22.7965 135.587 22.7697 135.52 22.7181C135.461 22.6553 135.411 22.5411 135.369 22.3753C135.324 22.1898 135.297 21.9465 135.288 21.6454C135.287 21.3332 135.267 21.0335 135.229 20.7463C135.195 20.4888 135.137 20.2798 135.056 20.1193C134.982 19.9475 134.877 19.8708 134.738 19.8892C134.669 19.8983 134.552 19.9692 134.388 20.1017C134.233 20.223 134.074 20.4657 133.91 20.83C133.747 21.1942 133.603 21.7119 133.481 22.3831C133.356 23.0444 133.3 23.9135 133.311 24.9902C133.492 26.3569 133.647 27.4548 133.777 28.2841C133.907 29.1134 134.002 29.7608 134.064 30.2263C134.116 30.6224 134.144 30.906 134.146 31.0769C134.149 31.2479 134.114 31.3634 134.041 31.4234C133.995 31.4597 133.901 31.5074 133.758 31.5667C133.625 31.6345 133.478 31.6994 133.315 31.7612C133.161 31.8218 133.013 31.8768 132.868 31.9261C132.723 31.9755 132.631 31.9978 132.59 31.9931C132.559 31.9872 132.5 31.9597 132.412 31.9108C132.327 31.8717 132.234 31.8185 132.134 31.751C132.045 31.6823 131.959 31.6079 131.878 31.5279C131.798 31.4579 131.75 31.3938 131.732 31.3357C131.699 31.2393 131.66 31.0177 131.614 30.6711C131.577 30.3133 131.525 29.8868 131.46 29.3916C131.404 28.8951 131.343 28.354 131.275 27.7684C131.207 27.1729 131.134 26.583 131.056 25.9987C131.007 25.6223 130.962 25.2051 130.921 24.7469C130.889 24.2775 130.857 23.8032 130.824 23.3239C130.801 22.8432 130.779 22.3725 130.758 21.9117C130.737 21.4509 130.718 21.0403 130.701 20.6798C130.692 20.3082 130.682 20.0022 130.67 19.7619C130.667 19.5104 130.667 19.3592 130.671 19.3084C130.67 19.2278 130.701 19.1935 130.763 19.2055C130.835 19.2161 130.909 19.2416 130.985 19.282C131.07 19.321 131.146 19.3564 131.21 19.3882C131.275 19.4199 131.315 19.4147 131.329 19.3725C131.337 19.2807 131.41 19.261 131.548 19.3133C131.685 19.3557 131.813 19.4093 131.932 19.4741C131.978 19.5184 132.029 19.5571 132.084 19.5902C132.147 19.612 132.207 19.6494 132.265 19.7023C132.321 19.7452 132.369 19.8093 132.411 19.8945C132.462 19.9784 132.498 20.0946 132.517 20.2432C132.536 20.3818 132.573 20.5885 132.63 20.8632C132.686 21.1379 132.754 21.4614 132.834 21.8338C132.895 21.4629 132.974 21.0695 133.071 20.6538C133.177 20.2367 133.317 19.8503 133.492 19.4947C133.665 19.1292 133.886 18.8178 134.154 18.5607C134.422 18.3035 134.765 18.1474 135.181 18.0924C135.408 18.0623 135.642 18.0768 135.882 18.1358C136.121 18.1948 136.342 18.3017 136.544 18.4564C136.754 18.5998 136.93 18.7882 137.072 19.0214C137.214 19.2546 137.3 19.5303 137.332 19.8485ZM140.091 9.73453C140.078 10.089 140.08 10.527 140.099 11.0486C140.117 11.5701 140.154 12.1497 140.208 12.7875C140.262 13.4252 140.327 14.1069 140.403 14.8325C140.478 15.5581 140.567 16.3021 140.667 17.0647C140.742 17.6292 140.817 18.1987 140.893 18.7731C140.978 19.3363 141.072 19.8982 141.177 20.4587C141.199 20.6271 141.241 20.9038 141.301 21.2887C141.361 21.6637 141.428 22.1335 141.503 22.698C141.546 23.0248 141.584 23.3523 141.618 23.6804C141.66 23.9973 141.693 24.2852 141.717 24.544C141.741 24.8028 141.755 25.0276 141.761 25.2184C141.774 25.3979 141.774 25.5088 141.759 25.5511C141.686 25.7622 141.606 25.914 141.517 26.0063C141.437 26.0874 141.366 26.122 141.304 26.11C141.264 26.1153 141.219 26.0759 141.168 25.992C141.164 25.9623 141.113 25.9639 141.017 25.9968C140.919 26.0198 140.815 26.0286 140.703 26.0232C140.644 26.0311 140.591 26.0129 140.545 25.9686C140.499 25.9243 140.422 25.9193 140.316 25.9535C140.257 25.9613 140.197 25.9289 140.137 25.8562C140.077 25.7836 140.028 25.6792 139.99 25.5432C139.971 25.4752 139.93 25.279 139.867 24.9548C139.813 24.6293 139.741 24.2309 139.648 23.7594C139.565 23.2867 139.471 22.765 139.366 22.1946C139.259 21.6142 139.152 21.0388 139.047 20.4683C138.95 19.8866 138.857 19.3346 138.767 18.8123C138.688 18.2887 138.623 17.8388 138.574 17.4625C138.519 17.0465 138.447 16.5823 138.359 16.07C138.27 15.5477 138.18 15.0155 138.088 14.4735C137.995 13.9215 137.902 13.3744 137.81 12.8324C137.717 12.2804 137.639 11.7618 137.575 11.2765C137.533 10.9596 137.493 10.6625 137.457 10.3852C137.43 10.1065 137.416 9.85138 137.416 9.61967C137.419 9.56885 137.419 9.52858 137.415 9.49887C137.41 9.45925 137.415 9.42328 137.431 9.39095C137.457 9.35731 137.502 9.3161 137.566 9.26732C137.63 9.21855 137.732 9.15462 137.873 9.07556C138.058 8.95034 138.212 8.85941 138.336 8.80278C138.458 8.73624 138.574 8.69577 138.682 8.68137C138.801 8.66565 138.92 8.69021 139.04 8.75504C139.116 8.79539 139.184 8.81659 139.245 8.81864C139.304 8.81078 139.358 8.79863 139.406 8.78218C139.464 8.76442 139.517 8.74731 139.566 8.73086C139.613 8.70451 139.661 8.69301 139.712 8.69637C139.794 8.7057 139.87 8.74605 139.94 8.81743C140.008 8.8789 140.056 9.00867 140.082 9.20674C140.093 9.28597 140.098 9.36585 140.099 9.44639C140.099 9.52693 140.097 9.62297 140.091 9.73453ZM142.681 28.4069C142.709 28.5442 142.726 28.7083 142.731 28.8991C142.735 29.0799 142.718 29.2585 142.681 29.4347C142.653 29.6096 142.604 29.7723 142.534 29.9227C142.462 30.0633 142.364 30.1618 142.24 30.2185C142.08 30.3002 141.927 30.3657 141.783 30.415C141.649 30.473 141.528 30.5091 141.419 30.5235C141.221 30.5497 141.048 30.5373 140.9 30.4863C140.762 30.434 140.618 30.3725 140.468 30.3017C140.255 30.2189 140.067 30.0926 139.904 29.9228C139.75 29.7516 139.661 29.572 139.636 29.3838C139.618 29.2452 139.625 29.0729 139.658 28.8669C139.701 28.6597 139.755 28.4561 139.819 28.2562C139.892 28.045 139.973 27.853 140.061 27.6801C140.159 27.506 140.253 27.3826 140.344 27.3101C140.501 27.1987 140.629 27.1365 140.728 27.1234C140.835 27.0991 140.934 27.081 141.023 27.0692C141.488 27.0077 141.856 27.0801 142.125 27.2863C142.402 27.4814 142.588 27.8549 142.681 28.4069Z" fill="#E74C3C"/>
<path d="M152.125 128.357C151.928 128.978 151.265 129.322 150.643 129.125L140.517 125.916C139.895 125.719 139.551 125.056 139.748 124.434C139.945 123.813 140.608 123.469 141.23 123.666L150.231 126.518L153.084 117.517C153.28 116.895 153.944 116.551 154.565 116.748C155.187 116.945 155.531 117.608 155.334 118.23L152.125 128.357ZM149.952 128.544C139.725 108.828 130.172 101.17 121.633 98.7378C113.024 96.2862 105.171 99.0215 97.8119 100.945C94.1996 101.889 90.6447 102.646 87.3196 102.27C83.9089 101.883 80.8165 100.316 78.1284 96.8219C75.4823 93.3822 73.2431 88.0975 71.3737 80.2821C69.5004 72.4506 67.9771 61.9828 66.8235 48.0977L69.176 47.9023C70.3248 61.7292 71.8355 72.065 73.6696 79.7329C75.5075 87.4169 77.6492 92.3273 79.9995 95.3826C82.3076 98.3831 84.8269 99.6114 87.5854 99.9239C90.4295 100.246 93.6013 99.6059 97.215 98.6613C104.308 96.8074 112.905 93.7979 122.279 96.4674C131.723 99.1568 141.688 107.485 152.048 127.456L149.952 128.544Z" fill="#E74C3C"/>
</svg>
