<svg width="10" height="11" viewBox="0 0 10 11" fill="none" xmlns="http://www.w3.org/2000/svg">
<path d="M9.35045 0.412236C9.35041 0.347976 9.33535 0.284615 9.30648 0.227204C9.27762 0.169793 9.23573 0.11992 9.18418 0.0815605C9.13262 0.0432013 9.07282 0.0174167 9.00954 0.00626233C8.94625 -0.00489207 8.88124 -0.00110771 8.81967 0.0173136L3.31936 1.66741C3.23436 1.69284 3.15983 1.745 3.10683 1.81614C3.05382 1.88728 3.02515 1.97361 3.02509 2.06233V7.49499C2.66828 7.24656 2.23789 7.12624 1.80397 7.1536C1.37006 7.18095 0.958188 7.35439 0.635405 7.64566C0.312623 7.93693 0.0979409 8.32889 0.0263103 8.75772C-0.0453204 9.18655 0.0303186 9.627 0.240913 10.0074C0.451508 10.3877 0.784656 10.6856 1.18612 10.8525C1.58758 11.0194 2.03372 11.0455 2.4519 10.9265C2.87008 10.8075 3.23567 10.5505 3.48916 10.1973C3.74265 9.84407 3.86911 9.41543 3.84794 8.98117C3.84943 8.96674 3.85017 8.95223 3.85014 8.93772V4.56937L8.52541 3.16679V6.39548C8.1686 6.14705 7.7382 6.02672 7.30429 6.05408C6.87038 6.08144 6.4585 6.25487 6.13572 6.54615C5.81294 6.83742 5.59825 7.22938 5.52662 7.65821C5.45499 8.08704 5.53063 8.52749 5.74123 8.90786C5.95182 9.28822 6.28497 9.5861 6.68643 9.753C7.0879 9.9199 7.53404 9.94598 7.95221 9.82701C8.37039 9.70804 8.73599 9.45101 8.98947 9.09778C9.24296 8.74455 9.36942 8.31592 9.34825 7.88166C9.34975 7.86704 9.35049 7.85235 9.35045 7.83766V0.412236Z" fill="white"/>
</svg>
