<svg width="20" height="22" viewBox="0 0 20 22" fill="none" xmlns="http://www.w3.org/2000/svg">
<path d="M8.41976 18.7351L5.33227 19.87M2.36234 20.3239L3.01154 15.3666L1.39622 10.9046C0.900114 9.53982 0.869013 8.04713 1.30784 6.66256C1.74666 5.27799 2.63037 4.08057 3.81919 3.25967C3.78245 3.19742 3.75164 3.13178 3.72718 3.06365C3.62708 2.66607 3.67677 2.24514 3.86665 1.88243C4.05652 1.51971 4.37305 1.24103 4.75491 1.10038C5.13676 0.959725 5.55676 0.967115 5.93353 1.12112C6.31029 1.27512 6.617 1.56477 6.79423 1.93394C6.81835 2.00111 6.83715 2.07011 6.85046 2.14028C8.2816 1.99912 9.71869 2.34145 10.9362 3.11356C12.1537 3.88566 13.0827 5.04384 13.5775 6.40635L15.1928 10.9046L18.8631 14.2782C18.9033 14.3131 18.9361 14.3559 18.9596 14.404C18.983 14.4521 18.9966 14.5044 18.9994 14.5579C19.0023 14.6114 18.9944 14.6649 18.9762 14.7152C18.9581 14.7656 18.93 14.8117 18.8937 14.8508C18.8507 14.9032 18.7941 14.9425 18.7302 14.9643L16.9104 15.6297L8.41976 18.7248C8.58042 19.1353 8.57292 19.5933 8.39893 19.9981C8.22494 20.403 7.8987 20.7215 7.49198 20.8836C7.08527 21.0458 6.63139 21.0382 6.2302 20.8626C5.82901 20.687 5.51337 20.3578 5.35272 19.9474L5.32205 19.8597L4.72397 20.0815L2.91441 20.7469C2.81664 20.7829 2.70891 20.7793 2.61368 20.737C2.51845 20.6947 2.44306 20.617 2.40324 20.52C2.37345 20.4592 2.35938 20.3917 2.36234 20.3239V20.3239Z" stroke="#999999" stroke-linecap="round" stroke-linejoin="round"/>
</svg>
