<svg width="24" height="24" viewBox="0 0 24 24" fill="none" xmlns="http://www.w3.org/2000/svg">
<path fill-rule="evenodd" clip-rule="evenodd" d="M11.1435 0.016191C11.0532 0.0268418 10.7786 0.0572926 10.5333 0.083896C8.98457 0.251868 7.26953 0.832733 5.88562 1.6581C4.1243 2.70849 2.69274 4.13939 1.64187 5.89991C0.822887 7.27189 0.278935 8.86626 0.0569981 10.5455C-0.0189994 11.1204 -0.0189994 12.8796 0.0569981 13.4545C0.278935 15.1337 0.822887 16.7281 1.64187 18.1C2.69274 19.8606 4.1243 21.2915 5.88562 22.3419C7.24573 23.153 8.88665 23.7148 10.4864 23.917C11.1123 23.9961 12.2447 24.0249 12.8012 23.9759C13.2462 23.9367 13.3324 23.9145 13.5011 23.7953C13.9975 23.4448 14.0373 22.7602 13.585 22.3519C13.3257 22.1177 13.1536 22.0847 12.3649 22.1182C7.90089 22.308 3.76703 19.4304 2.36992 15.1606C1.91891 13.7822 1.76204 12.4192 1.89741 11.0548C2.01369 9.88315 2.37387 8.60145 2.87604 7.5725C3.84861 5.57968 5.56285 3.86501 7.55254 2.89485C10.014 1.6946 12.8856 1.54769 15.4621 2.49017C17.474 3.22615 19.2287 4.60132 20.4121 6.36962L20.7104 6.81536L19.2637 6.83882L17.817 6.86228L17.6172 7.00304C17.066 7.3913 17.066 8.16317 17.6172 8.55138L17.8171 8.69214L19.507 8.70608C21.4194 8.72189 21.6951 8.69327 22.2761 8.41879C23.1312 8.01477 23.7461 7.23604 23.936 6.31665C23.9969 6.02157 24.0074 5.66649 23.9959 4.29559L23.9819 2.63248L23.8559 2.44236C23.662 2.14953 23.4325 2.02956 23.0665 2.02956C22.7005 2.02956 22.4711 2.14953 22.2771 2.44236L22.1512 2.63243L22.1369 4.08253L22.1227 5.53262L21.882 5.18866C21.4714 4.60183 21.1429 4.20874 20.5807 3.63135C18.7298 1.7304 16.4116 0.541128 13.7488 0.126358C13.1661 0.0356157 11.5565 -0.0324646 11.1435 0.016191ZM11.6698 3.6047C11.4588 3.66921 11.1602 3.9793 11.0999 4.19654C11.0669 4.31539 11.0501 5.58935 11.0499 7.98755L11.0496 11.5996L9.268 13.3833C8.06368 14.589 7.46283 15.2236 7.41383 15.3415C7.27653 15.6718 7.35018 16.0966 7.59 16.3573C7.83212 16.6206 8.29998 16.716 8.64542 16.5726C8.84022 16.4917 12.4965 12.8826 12.7549 12.5161L12.9038 12.305V8.24641V4.18786L12.7924 4.00877C12.571 3.65284 12.0847 3.47778 11.6698 3.6047ZM22.6871 13.4555C22.4581 13.4944 22.1988 13.6625 22.0858 13.8452C21.955 14.0567 21.7053 15.0031 21.7053 15.287C21.7053 15.7412 21.9885 16.0799 22.4512 16.1791C22.6595 16.2238 22.7322 16.2198 22.9037 16.1543C23.3473 15.985 23.4566 15.8168 23.6673 14.9789C23.8144 14.3941 23.8167 14.1877 23.679 13.9237C23.4956 13.5722 23.0999 13.3854 22.6871 13.4555ZM20.5787 17.7272C20.4151 17.7955 20.2008 18.0099 19.8308 18.4749C19.3887 19.0306 19.3102 19.3204 19.4939 19.7183C19.6493 20.0549 19.9717 20.2578 20.3511 20.2578C20.6899 20.2578 20.9113 20.1097 21.3196 19.61C21.8141 19.005 21.8607 18.9084 21.8372 18.5384C21.8163 18.2108 21.7446 18.0814 21.454 17.8463C21.3084 17.7284 21.2308 17.7027 20.9877 17.6916C20.8273 17.6842 20.6432 17.7002 20.5787 17.7272ZM17.1989 20.7712C16.9812 20.8382 16.0498 21.3274 15.9374 21.4337C15.4904 21.8567 15.6066 22.6239 16.1618 22.9169C16.5179 23.1048 16.7236 23.0728 17.4289 22.7199C18.0658 22.4013 18.2101 22.2767 18.319 21.9517C18.4298 21.6208 18.3437 21.2959 18.0735 21.0258C17.8169 20.7694 17.5024 20.6778 17.1989 20.7712Z" fill="#3C94FC"/>
</svg>
