<svg width="24" height="24" viewBox="0 0 24 24" fill="none" xmlns="http://www.w3.org/2000/svg">
<path fill-rule="evenodd" clip-rule="evenodd" d="M4.62576 0.0531863C3.75539 0.219721 3.12263 0.477093 2.42651 0.947547C0.993535 1.91605 0.0990394 3.51483 0.00781024 5.27058C-0.108611 7.51145 1.08348 9.53779 3.1185 10.5581C3.40891 10.7038 3.68324 10.8229 3.72816 10.8229C3.81976 10.8229 3.81939 10.8266 3.6462 11.6282C2.85698 15.2806 4.20515 19.1816 7.0941 21.6046C8.52519 22.8049 10.1526 23.5518 12.1058 23.9048C12.7395 24.0193 14.5459 24.034 15.1879 23.9299C18.6632 23.3661 21.4648 21.3025 22.9604 18.2048C24.1725 15.694 24.3277 12.9687 23.4102 10.3035C21.7453 5.46772 16.6404 2.57923 11.6234 3.63428C11.3433 3.69317 11.0478 3.75534 10.9668 3.77241C10.8603 3.7948 10.8194 3.78213 10.8194 3.72678C10.8194 3.6025 10.4024 2.77535 10.1417 2.38269C9.43137 1.3124 8.1458 0.438493 6.79929 0.11047C6.31897 -0.00656647 5.10517 -0.0385636 4.62576 0.0531863ZM6.70104 1.87299C6.92702 1.94509 7.27677 2.09579 7.47826 2.20783C7.91854 2.45275 8.62344 3.14557 8.8825 3.58811C9.62664 4.85908 9.58901 6.45034 8.78607 7.66655C8.00419 8.85087 6.68651 9.50756 5.29111 9.40835C4.34329 9.34097 3.56108 8.97575 2.85944 8.27299C2.36878 7.78155 2.08694 7.33117 1.88519 6.71593C1.76512 6.34989 1.74363 6.18733 1.73972 5.61536C1.7343 4.82171 1.81508 4.4589 2.14344 3.80173C2.65201 2.78399 3.65998 2.01886 4.81605 1.77303C5.33132 1.6634 6.18641 1.70876 6.70104 1.87299ZM5.21538 2.62777C4.99893 2.72612 4.77451 2.99987 4.73436 3.21445C4.71656 3.30958 4.7096 3.85074 4.71881 4.41708C4.73725 5.54395 4.74894 5.5876 5.10469 5.85362C5.31223 6.00882 5.82069 6.00882 6.02824 5.85362C6.39353 5.58046 6.39728 5.56446 6.39728 4.2732C6.39728 3.17199 6.39047 3.09087 6.28676 2.95171C6.22597 2.87016 6.11319 2.75629 6.03617 2.69869C5.85875 2.56603 5.43235 2.5292 5.21538 2.62777ZM15.3379 5.29088C18.3835 5.89404 20.8152 8.00504 21.8308 10.9272C22.1878 11.9546 22.2593 12.4208 22.2593 13.722C22.2593 14.713 22.2425 14.9533 22.1407 15.4211C21.3829 18.9042 18.7878 21.4654 15.3127 22.1599C14.5086 22.3206 12.9924 22.3316 12.213 22.1824C7.30732 21.2432 4.24825 16.5559 5.38631 11.7222L5.52219 11.145H5.75171C6.07814 11.145 6.8724 11.0011 7.2817 10.8677C7.68885 10.7349 8.38492 10.3955 8.72893 10.1619C9.07921 9.92406 9.76992 9.24004 10.0673 8.83654C10.3685 8.42788 10.7039 7.77242 10.864 7.27963C10.997 6.87033 11.141 6.07432 11.141 5.74855V5.52001L11.6367 5.39734C12.452 5.19553 13.0302 5.13476 13.9282 5.15629C14.4875 5.16971 14.9483 5.21373 15.3379 5.29088ZM5.21538 6.92568C4.67459 7.16158 4.54686 7.88162 4.97053 8.30601C5.31824 8.65422 5.81469 8.65422 6.1624 8.30601C6.82764 7.63965 6.07921 6.5488 5.21538 6.92568ZM13.3628 7.78165C13.1457 7.88028 12.9216 8.15429 12.8827 8.36834C12.8655 8.46347 12.8585 9.77766 12.8672 11.2888C12.8826 13.9673 12.8858 14.04 12.9935 14.1846C13.0543 14.266 13.1706 14.3825 13.2521 14.4434C13.3973 14.552 13.4548 14.5541 16.2867 14.5541C19.1185 14.5541 19.1761 14.552 19.3213 14.4434C19.6026 14.2331 19.6904 14.0615 19.6904 13.722C19.6904 13.3825 19.6026 13.211 19.3214 13.0006C19.1781 12.8933 19.1006 12.8894 16.8741 12.8748L14.5748 12.8597L14.5597 10.5567C14.5451 8.32668 14.5412 8.24905 14.4341 8.10554C14.3733 8.02405 14.2606 7.91018 14.1835 7.85257C14.0061 7.71991 13.5797 7.68309 13.3628 7.78165Z" fill="#6200EA"/>
</svg>
