<svg width="20" height="20" viewBox="0 0 20 20" fill="none" xmlns="http://www.w3.org/2000/svg">
<path fill-rule="evenodd" clip-rule="evenodd" d="M3.8548 0.0443219C3.12949 0.183101 2.60219 0.397578 2.02209 0.789622C0.827946 1.59671 0.0825328 2.92902 0.00650853 4.39215C-0.0905095 6.25954 0.902898 7.94816 2.59875 8.79846C2.84076 8.91983 3.06937 9.01911 3.1068 9.01911C3.18314 9.01911 3.18282 9.02219 3.0385 9.69019C2.38082 12.7338 3.5043 15.9846 5.91175 18.0038C7.10433 19.0041 8.46053 19.6265 10.0882 19.9206C10.6163 20.0161 12.1216 20.0283 12.6566 19.9416C15.5526 19.4718 17.8874 17.7521 19.1336 15.1707C20.1438 13.0784 20.2731 10.8072 19.5085 8.58626C18.1211 4.55643 13.867 2.14936 9.68616 3.02856C9.45277 3.07764 9.20652 3.12945 9.13898 3.14368C9.05027 3.16233 9.01615 3.15178 9.01615 3.10565C9.01615 3.00208 8.66863 2.31279 8.45146 1.98557C7.85948 1.09367 6.78817 0.365411 5.66607 0.0920581C5.26581 -0.00547206 4.25431 -0.0321363 3.8548 0.0443219ZM5.5842 1.56083C5.77252 1.62091 6.06397 1.74649 6.23188 1.83986C6.59878 2.04396 7.1862 2.62131 7.40208 2.99009C8.0222 4.04923 7.99084 5.37528 7.32172 6.38879C6.67016 7.37572 5.57209 7.92297 4.40926 7.84029C3.6194 7.78414 2.96757 7.47979 2.38287 6.89416C1.97398 6.48462 1.73912 6.10931 1.57099 5.59661C1.47094 5.29158 1.45302 5.15611 1.44976 4.67946C1.44525 4.01809 1.51257 3.71575 1.7862 3.1681C2.21001 2.32 3.04998 1.68238 4.01337 1.47752C4.44276 1.38617 5.15535 1.42397 5.5842 1.56083ZM4.34615 2.18981C4.16578 2.27177 3.97875 2.49989 3.9453 2.67871C3.93047 2.75799 3.92466 3.20895 3.93235 3.6809C3.94771 4.61996 3.95745 4.65633 4.25391 4.87801C4.42686 5.00735 4.85058 5.00735 5.02353 4.87801C5.32794 4.65038 5.33107 4.63705 5.33107 3.561C5.33107 2.64332 5.32539 2.57572 5.23896 2.45976C5.18831 2.3918 5.09433 2.29691 5.03014 2.24891C4.88229 2.13836 4.52696 2.10767 4.34615 2.18981ZM12.7816 4.40906C15.3196 4.9117 17.346 6.67087 18.1923 9.10603C18.4898 9.96215 18.5494 10.3507 18.5494 11.435C18.5494 12.2608 18.5354 12.4611 18.4506 12.8509C17.8191 15.7535 15.6565 17.8878 12.7605 18.4666C12.0905 18.6005 10.827 18.6096 10.1775 18.4853C6.08943 17.7027 3.54021 13.7966 4.48859 9.76848L4.60182 9.28754H4.79309C5.06512 9.28754 5.727 9.16755 6.06808 9.05637C6.40738 8.94578 6.98743 8.6629 7.27411 8.46824C7.56601 8.27005 8.1416 7.70003 8.38941 7.36378C8.64045 7.02323 8.91993 6.47702 9.05335 6.06636C9.16417 5.72527 9.28415 5.06193 9.28415 4.79046V4.60001L9.69728 4.49778C10.3766 4.32961 10.8585 4.27896 11.6069 4.2969C12.0729 4.30809 12.4569 4.34477 12.7816 4.40906ZM4.34615 5.7714C3.89549 5.96798 3.78905 6.56801 4.1421 6.92167C4.43186 7.21185 4.84557 7.21185 5.13533 6.92167C5.6897 6.36638 5.06601 5.45733 4.34615 5.7714ZM11.1356 6.48471C10.9548 6.5669 10.768 6.79524 10.7356 6.97361C10.7212 7.05289 10.7154 8.14805 10.7227 9.40735C10.7355 11.6394 10.7382 11.7 10.828 11.8205C10.8786 11.8884 10.9755 11.9855 11.0434 12.0362C11.1644 12.1267 11.2124 12.1284 13.5722 12.1284C15.9321 12.1284 15.9801 12.1267 16.1011 12.0362C16.3355 11.8609 16.4086 11.7179 16.4086 11.435C16.4086 11.1521 16.3355 11.0091 16.1011 10.8338C15.9817 10.7445 15.9172 10.7411 14.0618 10.729L12.1456 10.7164L12.1331 8.79725C12.1209 6.9389 12.1176 6.87421 12.0284 6.75462C11.9778 6.68671 11.8838 6.59182 11.8196 6.54381C11.6718 6.43326 11.3164 6.40257 11.1356 6.48471Z" fill="#FF7A00"/>
</svg>
