<svg width="16" height="20" viewBox="0 0 16 20" fill="none" xmlns="http://www.w3.org/2000/svg">
<path fill-rule="evenodd" clip-rule="evenodd" d="M2.39888 0.0605476C1.82631 0.182604 1.35962 0.445148 0.914758 0.895384C0.456736 1.35897 0.167409 1.92615 0.0558061 2.57915C-0.0182765 3.01264 -0.0182765 16.983 0.0558061 17.4165C0.160959 18.0318 0.406205 18.5377 0.82667 19.0066C1.2684 19.4993 1.80589 19.8122 2.42597 19.9379C2.8332 20.0205 13.1688 20.0208 13.5725 19.9382C14.2104 19.8079 14.7309 19.5059 15.1748 19.0088C15.6036 18.5286 15.8617 17.9791 15.9597 17.3384C16.0137 16.9854 16.0137 3.01029 15.9597 2.65724C15.8617 2.01654 15.6036 1.46709 15.1748 0.986907C14.7309 0.489738 14.2104 0.187798 13.5725 0.0574239C13.1885 -0.021097 2.76804 -0.0181686 2.39888 0.0605476ZM4.36325 2.12036C4.39277 2.89874 4.49118 3.23653 4.82587 3.70839C5.10168 4.09725 5.53334 4.40676 6.01252 4.5592C6.30642 4.65271 9.3162 4.68184 9.78716 4.59575C10.6415 4.43956 11.3252 3.78227 11.5617 2.88976C11.5932 2.77094 11.6275 2.42937 11.6392 2.11732L11.6603 1.55787L12.5305 1.57068L13.4007 1.58349L13.6491 1.70816C14.0806 1.92467 14.3879 2.32899 14.4834 2.80558C14.5423 3.09955 14.5423 16.8961 14.4834 17.1901C14.3879 17.6667 14.0806 18.071 13.6491 18.2875L13.4007 18.4122H8.00114H2.60159L2.35314 18.2875C1.92169 18.071 1.61434 17.6667 1.51888 17.1901C1.46002 16.8961 1.46002 3.09955 1.51888 2.80558C1.63332 2.23434 2.08567 1.73744 2.61066 1.60637C2.68677 1.58735 3.10745 1.57005 3.54557 1.56787L4.34213 1.56396L4.36325 2.12036ZM10.1757 1.93712C10.1757 2.14239 10.1564 2.39177 10.1327 2.49134C10.0744 2.73643 9.84502 2.97945 9.61367 3.04114C9.37657 3.10439 6.62571 3.10439 6.38861 3.04114C6.15726 2.97945 5.92786 2.73643 5.86963 2.49134C5.84593 2.39177 5.82658 2.14239 5.82658 1.93712V1.56396H8.00114H10.1757V1.93712ZM4.7543 7.78488C4.31799 8.02868 4.23697 8.62827 4.58988 9.00209C4.69448 9.11294 4.7979 9.17932 4.91433 9.21036C5.15685 9.27506 10.8454 9.27506 11.088 9.21036C11.2044 9.17932 11.3078 9.11294 11.4124 9.00209C11.7653 8.62827 11.6843 8.02868 11.248 7.78488L11.0855 7.69414H8.00114H4.91676L4.7543 7.78488ZM4.7543 12.3923C4.31799 12.6361 4.23697 13.2357 4.58988 13.6095C4.69448 13.7203 4.7979 13.7867 4.91433 13.8178C5.15685 13.8825 10.8454 13.8825 11.088 13.8178C11.2044 13.7867 11.3078 13.7203 11.4124 13.6095C11.7653 13.2357 11.6843 12.6361 11.248 12.3923L11.0855 12.3015H8.00114H4.91676L4.7543 12.3923Z" fill="#001540"/>
</svg>
