<svg width="17" height="20" viewBox="0 0 17 20" fill="none" xmlns="http://www.w3.org/2000/svg">
<path fill-rule="evenodd" clip-rule="evenodd" d="M2.59088 0.0605476C1.9843 0.182604 1.48991 0.445148 1.01863 0.895384C0.533405 1.35897 0.226896 1.92615 0.108666 2.57915C0.0301842 3.01264 0.0301842 16.983 0.108666 17.4165C0.220063 18.0318 0.479874 18.5377 0.925307 19.0066C1.39327 19.4993 1.96267 19.8122 2.61958 19.9379C3.05099 20.0205 14.0003 20.0208 14.4281 19.9382C15.1039 19.8079 15.6553 19.5059 16.1255 19.0088C16.5797 18.5286 16.8532 17.9791 16.957 17.3384C17.0142 16.9854 17.0142 3.01029 16.957 2.65724C16.8532 2.01654 16.5797 1.46709 16.1255 0.986907C15.6553 0.489738 15.1039 0.187798 14.4281 0.0574239C14.0212 -0.021097 2.98196 -0.0181686 2.59088 0.0605476ZM4.6719 2.12036C4.70317 2.89874 4.80743 3.23653 5.162 3.70839C5.45418 4.09725 5.91148 4.40676 6.41912 4.5592C6.73047 4.65271 9.91898 4.68184 10.4179 4.59575C11.3229 4.43956 12.0473 3.78227 12.2978 2.88976C12.3311 2.77094 12.3675 2.42937 12.38 2.11732L12.4023 1.55787L13.3242 1.57068L14.246 1.58349L14.5092 1.70816C14.9663 1.92467 15.2919 2.32899 15.393 2.80558C15.4554 3.09955 15.4554 16.8961 15.393 17.1901C15.2919 17.6667 14.9663 18.071 14.5092 18.2875L14.246 18.4122H8.52583H2.80563L2.54242 18.2875C2.08536 18.071 1.75975 17.6667 1.65862 17.1901C1.59627 16.8961 1.59627 3.09955 1.65862 2.80558C1.77986 2.23434 2.25907 1.73744 2.81524 1.60637C2.89587 1.58735 3.34153 1.57005 3.80567 1.56787L4.64953 1.56396L4.6719 2.12036ZM10.8295 1.93712C10.8295 2.14239 10.809 2.39177 10.7839 2.49134C10.7222 2.73643 10.4792 2.97945 10.2341 3.04114C9.98293 3.10439 7.06872 3.10439 6.81754 3.04114C6.57245 2.97945 6.32943 2.73643 6.26774 2.49134C6.24263 2.39177 6.22213 2.14239 6.22213 1.93712V1.56396H8.52583H10.8295V1.93712ZM5.08617 7.78488C4.62395 8.02868 4.53813 8.62827 4.91199 9.00209C5.0228 9.11294 5.13236 9.17932 5.25571 9.21036C5.51263 9.27506 11.539 9.27506 11.7959 9.21036C11.9193 9.17932 12.0289 9.11294 12.1397 9.00209C12.5135 8.62827 12.4277 8.02868 11.9655 7.78488L11.7934 7.69414H8.52583H5.25829L5.08617 7.78488ZM5.08617 12.3923C4.62395 12.6361 4.53813 13.2357 4.91199 13.6095C5.0228 13.7203 5.13236 13.7867 5.25571 13.8178C5.51263 13.8825 11.539 13.8825 11.7959 13.8178C11.9193 13.7867 12.0289 13.7203 12.1397 13.6095C12.5135 13.2357 12.4277 12.6361 11.9655 12.3923L11.7934 12.3015H8.52583H5.25829L5.08617 12.3923Z" fill="#001540"/>
</svg>
