<svg width="71" height="70" viewBox="0 0 71 70" fill="none" xmlns="http://www.w3.org/2000/svg">
<path d="M70.5263 32.4191C70.4777 31.1571 70.3562 29.8846 70.0994 28.6504C69.7766 27.0902 69.3323 25.5474 68.8463 24.0288C68.4125 22.6766 67.93 21.328 67.3261 20.0486C66.1633 17.5835 64.7194 15.2814 63.0117 13.1423C61.0125 10.6321 58.7182 8.4444 56.115 6.56526C54.4698 5.37952 52.7691 4.28393 50.9121 3.46224C49.319 2.75843 47.698 2.10664 46.0771 1.46524C45.5808 1.26762 45.0428 1.16707 44.5187 1.04919C43.7967 0.889703 43.0574 0.792622 42.339 0.612335C41.086 0.300301 39.8225 0.0506686 38.5348 0.0229322C36.4557 -0.0221394 34.3767 0.0125243 32.2941 0.0159914C32.006 0.0159914 31.711 0.0159998 31.4299 0.0680056C30.4198 0.255226 29.4133 0.452842 28.4102 0.667799C27.2717 0.913959 26.1124 1.09773 25.0121 1.46177C23.5231 1.95409 22.0341 2.50187 20.6249 3.18488C18.1467 4.38448 15.8003 5.80598 13.6449 7.54644C11.5901 9.20715 9.7262 11.0447 8.0671 13.1041C6.11992 15.5276 4.51982 18.1625 3.29459 21.0125C2.71147 22.3681 2.2672 23.7861 1.82986 25.1972C1.51748 26.2061 1.27452 27.2393 1.07668 28.2759C0.840655 29.5137 0.566447 30.7653 0.517854 32.0169C0.417197 34.69 0.254068 37.377 0.781647 40.0362C0.965606 40.9654 1.00031 41.9292 1.24675 42.8375C1.70144 44.5156 2.16308 46.1867 2.82602 47.8058C3.68681 49.9173 4.69685 51.9316 5.92555 53.8524C7.67836 56.5913 9.74009 59.0564 12.1836 61.2025C14.2766 63.0435 16.5153 64.68 19.0144 65.9316C20.3923 66.6215 21.7876 67.2976 23.2246 67.8523C24.4325 68.3204 25.7063 68.6151 26.9558 68.9653C27.5285 69.1247 28.1186 69.2426 28.7052 69.3536C29.8263 69.5616 30.9439 69.832 32.0789 69.9291C33.2243 70.0296 34.3871 69.9499 35.5429 69.9499C37.622 70.0851 39.6906 69.943 41.7315 69.5685C42.9568 69.3432 44.1438 68.9306 45.3552 68.6394C46.7331 68.31 48.0243 67.7656 49.3329 67.2386C52.2033 66.0807 54.803 64.465 57.2361 62.5928C59.343 60.9737 61.2173 59.0911 62.8798 57.0108C64.8166 54.5839 66.4375 51.9594 67.694 49.1198C68.2216 47.9272 68.6867 46.6964 69.0754 45.4517C69.4295 44.3076 69.6863 43.1288 69.9015 41.9465C70.1584 40.5354 70.4256 39.1174 70.5124 37.6925C70.6235 35.9416 70.5957 34.1769 70.5263 32.4191ZM49.8778 41.5097C52.0714 43.7009 51.9117 47.1402 49.8778 49.3556C47.8473 51.5641 44.0814 51.4116 42.0231 49.3556C39.8503 47.1852 37.6775 45.0149 35.5047 42.8445C33.3319 45.0149 31.1591 47.1852 28.9863 49.3556C26.7927 51.5468 23.3496 51.3873 21.1316 49.3556C18.9207 47.3274 19.0734 43.5656 21.1316 41.5097C23.3044 39.3393 25.4772 37.1689 27.65 34.9985C25.4772 32.8282 23.3044 30.6578 21.1316 28.4874C18.938 26.2963 19.0977 22.8569 21.1316 20.6415C23.1621 18.433 26.9281 18.5855 28.9863 20.6415C31.1591 22.8119 33.3319 24.9822 35.5047 27.1526C37.6775 24.9822 39.8503 22.8119 42.0231 20.6415C44.2167 18.4503 47.6599 18.6098 49.8778 20.6415C52.0888 22.6697 51.936 26.4315 49.8778 28.4874C47.705 30.6578 45.5322 32.8282 43.3594 34.9985C45.5322 37.1724 47.705 39.3393 49.8778 41.5097Z" fill="#E74C3C"/>
</svg>
