<svg width="20" height="20" viewBox="0 0 20 20" fill="none" xmlns="http://www.w3.org/2000/svg">
<circle cx="10" cy="10" r="10" fill="white" fill-opacity="0.6"/>
<path d="M7.4215 6.07395C7.54871 6.01781 7.69151 5.99284 7.83421 6.00177C7.97691 6.01071 8.11396 6.05322 8.23029 6.12461L13.674 9.45746C13.7749 9.51912 13.857 9.60052 13.9137 9.6949C13.9704 9.78928 14 9.89389 14 10C14 10.1062 13.9704 10.2108 13.9137 10.3052C13.857 10.3996 13.7749 10.481 13.674 10.5426L8.23029 13.8755C8.114 13.9468 7.97701 13.9893 7.83439 13.9982C7.69177 14.0072 7.54903 13.9822 7.42187 13.9261C7.29471 13.8701 7.18806 13.785 7.11363 13.6804C7.0392 13.5757 6.99988 13.4555 7 13.3329V6.6672C6.99985 6.54466 7.03911 6.42446 7.11347 6.3198C7.18783 6.21514 7.29441 6.13008 7.4215 6.07395Z" fill="#001540"/>
</svg>
