<svg width="19" height="16" viewBox="0 0 19 16" fill="none" xmlns="http://www.w3.org/2000/svg">
<path d="M6.7112 15.457C6.12342 15.457 5.56671 15.2328 5.20999 14.8464L0.382085 9.63357C0.23282 9.47258 0.123847 9.28913 0.0613963 9.09371C-0.00105478 8.89829 -0.0157593 8.69473 0.0181231 8.49466C0.0520055 8.29459 0.13381 8.10194 0.258861 7.92772C0.383912 7.7535 0.549757 7.60113 0.746915 7.47933C0.944001 7.35701 1.16869 7.26768 1.4081 7.21645C1.64752 7.16523 1.89695 7.15312 2.1421 7.18081C2.38725 7.20851 2.62331 7.27547 2.83673 7.37785C3.05016 7.48023 3.23676 7.61603 3.38585 7.77745L6.56256 11.2048L14.5496 0.723999C14.8145 0.377951 15.2365 0.131883 15.7231 0.0397696C16.2098 -0.0523437 16.7212 0.0170189 17.1453 0.232643C18.0277 0.680936 18.2993 1.63052 17.748 2.35265L8.31104 14.7304C8.14994 14.9427 7.9279 15.1196 7.66417 15.2458C7.40045 15.372 7.10301 15.4438 6.79767 15.4548C6.76795 15.457 6.74092 15.457 6.7112 15.457Z" fill="#8D77A3"/>
</svg>
