<svg width="100" height="100" viewBox="0 0 100 100" fill="none" xmlns="http://www.w3.org/2000/svg">
<g filter="url(#filter0_d_426_5854)">
<rect x="8" width="84" height="84" rx="26" fill="#7F13EC"/>
<g clip-path="url(#clip0_426_5854)">
<path d="M43.0043 50.8065C43.1778 49.6915 43.373 48.5332 43.5574 47.3748C43.7201 46.3573 43.8828 45.3505 44.0563 44.3329C44.0997 44.0839 43.9696 43.954 43.8286 43.8133C42.4728 42.4276 41.1171 41.0528 39.7613 39.6671C39.6962 39.6022 39.6203 39.5372 39.5661 39.4614C39.3058 39.1692 39.1648 38.8552 39.2841 38.4655C39.4143 38.0541 39.7396 37.9026 40.1192 37.8485C40.9327 37.7294 41.757 37.6211 42.5704 37.502C43.7418 37.3397 44.9023 37.1665 46.0737 37.0149C46.334 36.9824 46.4316 36.82 46.5292 36.6144C47.3644 34.8065 48.2103 33.0095 49.0563 31.2125C49.0997 31.115 49.1539 31.0176 49.1973 30.9202C49.36 30.6062 49.5986 30.4006 49.9566 30.4006C50.3362 30.3897 50.5965 30.5954 50.7592 30.931C51.1171 31.6888 51.475 32.4466 51.8329 33.2043C52.3644 34.3302 52.8958 35.456 53.4056 36.5927C53.5357 36.885 53.731 37.0041 54.0455 37.0365C55.9652 37.2964 57.8741 37.5778 59.7939 37.8485C60.2277 37.9134 60.5531 38.1083 60.6941 38.5521C60.8242 38.9743 60.6073 39.2449 60.3362 39.5156C58.9262 40.9445 57.5271 42.3735 56.1171 43.7916C55.9218 43.9973 55.8459 44.1705 55.9002 44.4736C56.2364 46.4547 56.5618 48.4466 56.8763 50.4276C56.898 50.59 56.9305 50.7524 56.9305 50.9148C56.9088 51.5968 56.1496 51.9865 55.5205 51.6292C53.8286 50.6874 52.1366 49.7564 50.4555 48.793C50.1084 48.5981 49.8372 48.5873 49.4902 48.7822C47.809 49.7456 46.1171 50.6766 44.4143 51.6184C43.7418 51.9973 42.9826 51.5859 43.0043 50.8065ZM50.0325 33.3126C49.9674 33.4209 49.9023 33.5399 49.8481 33.659C49.1865 35.0555 48.514 36.4411 47.8524 37.8376C47.6572 38.2598 47.3535 38.5305 46.8763 38.5954C45.9544 38.7253 45.0325 38.8769 44.1106 39.0176C43.4056 39.1259 42.7114 39.2449 41.9522 39.364C42.0824 39.5047 42.1474 39.5914 42.2234 39.6671C43.373 40.793 44.5227 41.9296 45.6724 43.0447C45.9761 43.3478 46.1821 43.6509 46.0845 44.1164C45.911 44.9932 45.77 45.8701 45.629 46.747C45.488 47.5697 45.3579 48.3816 45.2169 49.2152C45.4012 49.2368 45.488 49.1394 45.5965 49.0853C46.8654 48.3924 48.1453 47.7104 49.4143 46.996C49.9132 46.7145 50.3687 46.7145 50.8676 46.996C51.8654 47.5697 52.885 48.1001 53.8936 48.6522C54.2624 48.8471 54.6203 49.042 55.0433 49.2693C55.0325 49.1394 55.0325 49.0744 55.0216 49.0095C54.7505 47.429 54.4902 45.8376 54.219 44.2571C54.1431 43.7916 54.2299 43.4127 54.5769 43.0771C55.6507 41.9946 56.7244 40.9012 57.7874 39.797C57.9067 39.678 58.1453 39.5697 58.0802 39.4073C58.026 39.2558 57.7765 39.2882 57.603 39.2666C56.1713 39.0393 54.7396 38.8119 53.308 38.5954C52.7982 38.5196 52.4511 38.2923 52.2342 37.8052C51.5943 36.387 50.9002 34.9905 50.2385 33.5941C50.1843 33.4858 50.1735 33.3667 50.0325 33.3126Z" fill="white"/>
<path d="M43.6767 53.7943C43.6767 54.0325 43.5682 54.1948 43.4055 54.3572C42.6246 55.1583 41.8437 55.9702 41.052 56.7713C40.835 56.9878 40.7808 57.1935 40.835 57.4966C41.0411 58.6116 41.2147 59.7375 41.4207 60.8525C41.4858 61.253 41.399 61.5778 41.0628 61.8159C40.7374 62.0649 40.3904 62.0649 40.0324 61.8592C39.0997 61.3396 38.1452 60.8417 37.2233 60.3112C36.9088 60.1272 36.6702 60.138 36.3665 60.3112C35.5097 60.7983 34.6311 61.2638 33.7743 61.7402C33.5899 61.8376 33.4055 61.9134 33.2103 61.9458C32.5812 62.0433 32.0823 61.5561 32.1799 60.9283C32.3643 59.8241 32.5379 58.7199 32.7548 57.6157C32.8307 57.2043 32.7548 56.912 32.4403 56.6197C31.7136 55.9269 31.0411 55.1799 30.3361 54.4763C30.0324 54.1624 29.9131 53.8159 30.0324 53.4046C30.1517 53.0257 30.4771 52.885 30.8459 52.82C31.8329 52.6684 32.8199 52.4952 33.8177 52.3545C34.1973 52.3004 34.4359 52.1488 34.5986 51.7808C35.0216 50.8281 35.488 49.8971 35.9327 48.9553C36.1062 48.5764 36.334 48.2841 36.8003 48.2733C37.2667 48.2733 37.4945 48.5656 37.6789 48.9445C38.1452 49.9296 38.6225 50.9255 39.0888 51.9107C39.1973 52.138 39.3275 52.2679 39.5986 52.3004C40.5856 52.4411 41.5726 52.6143 42.5704 52.7659C43.2862 52.885 43.6658 53.2205 43.6767 53.7943ZM36.8112 51.2503C36.4641 51.9756 36.1604 52.5927 35.8567 53.2205C35.6507 53.6536 35.3361 53.9134 34.8372 53.9783C34.2298 54.0541 33.6333 54.1732 33.0368 54.2814C32.9392 54.3031 32.7982 54.2598 32.7656 54.4005C32.7439 54.4979 32.8524 54.5629 32.9175 54.6278C33.373 55.1042 33.8394 55.5805 34.3058 56.0568C34.642 56.3924 34.7613 56.7496 34.6528 57.2368C34.5227 57.843 34.4576 58.4601 34.3708 59.0771C34.36 59.1962 34.219 59.3586 34.3708 59.4452C34.4901 59.5101 34.6203 59.3694 34.7288 59.3044C35.2277 59.023 35.7266 58.7523 36.2038 58.4492C36.616 58.1894 36.9956 58.1786 37.4186 58.4492C37.9175 58.774 38.4489 59.0446 38.9695 59.3369C39.0563 59.391 39.1539 59.5101 39.2515 59.4235C39.3383 59.3477 39.2841 59.2178 39.2732 59.1096C39.1756 58.525 39.0888 57.9404 38.9804 57.345C38.8828 56.8038 38.9804 56.3383 39.4251 55.9486C39.8589 55.5697 40.2602 55.1366 40.6615 54.7253C40.7374 54.6495 40.8676 54.5845 40.835 54.4655C40.8025 54.3356 40.6615 54.3789 40.5531 54.3572C39.9348 54.249 39.3275 54.1407 38.7092 54.0433C38.2645 53.9675 37.9392 53.7618 37.7548 53.3288C37.4836 52.6576 37.1583 51.9973 36.8112 51.2503Z" fill="white"/>
<path d="M66.8436 62C66.6701 62.0108 66.5074 61.9242 66.3339 61.8376C65.3903 61.318 64.425 60.7984 63.4814 60.2679C63.2319 60.1272 63.0259 60.1272 62.7656 60.2788C61.9196 60.7659 61.0627 61.2206 60.2059 61.6969C60.0107 61.8052 59.8263 61.9026 59.6094 61.9459C58.9261 62.0758 58.3946 61.5886 58.5031 60.8958C58.6875 59.7591 58.8827 58.6333 59.0888 57.4966C59.143 57.1935 59.0888 56.9878 58.8827 56.7713C58.1885 56.0677 57.5052 55.3532 56.8219 54.6495C56.746 54.5738 56.6701 54.498 56.5942 54.4114C56.0519 53.7727 56.2905 53.0041 57.1148 52.8525C58.1126 52.6685 59.1105 52.5061 60.1191 52.3654C60.5096 52.3112 60.7699 52.1597 60.9326 51.77C61.3339 50.8498 61.7786 49.9621 62.2124 49.0528C62.2558 48.9662 62.2883 48.8796 62.3317 48.793C62.5052 48.4682 62.7547 48.2625 63.1343 48.2734C63.5139 48.2842 63.7634 48.4899 63.9261 48.8146C64.4033 49.8106 64.8914 50.8065 65.3469 51.8241C65.4879 52.1489 65.694 52.2896 66.041 52.3437C66.9738 52.4736 67.9174 52.6252 68.8502 52.7767C69.284 52.8417 69.707 52.9283 69.9022 53.4154C70.0432 53.7619 70.0107 54.0541 69.7287 54.3356C68.9695 55.0934 68.2536 55.8836 67.4836 56.6198C67.1582 56.9337 67.1039 57.2368 67.1799 57.659C67.3968 58.7416 67.5595 59.8458 67.7439 60.9391C67.8523 61.502 67.4293 61.9892 66.8436 62ZM63.1452 51.207C63.0692 51.3261 63.0367 51.3803 63.0042 51.4344C62.7222 52.0298 62.451 52.636 62.1582 53.2314C61.9629 53.6428 61.6593 53.9026 61.1712 53.9675C60.5638 54.0325 59.9673 54.1624 59.3708 54.2707C59.2731 54.2923 59.1321 54.2382 59.0996 54.3789C59.0779 54.4763 59.1864 54.5413 59.2515 54.6062C59.7504 55.1259 60.2384 55.6455 60.7373 56.1651C60.976 56.4141 61.0736 56.6847 61.0085 57.0528C60.8783 57.724 60.7807 58.4168 60.6831 59.088C60.6723 59.1962 60.6072 59.3261 60.7048 59.4019C60.8241 59.4993 60.9217 59.3586 61.0193 59.3045C61.4315 59.0771 61.8653 58.8715 62.2449 58.59C62.874 58.1353 63.4597 58.1786 64.0779 58.6117C64.5551 58.9364 65.0757 59.1962 65.6506 59.5318C65.5313 58.6983 65.4445 57.9621 65.3035 57.2476C65.2059 56.7605 65.336 56.3708 65.6723 56.0244C66.1387 55.5481 66.5942 55.0717 67.0606 54.5954C67.1256 54.5305 67.2341 54.4763 67.1799 54.3681C67.1473 54.2815 67.0389 54.3031 66.9629 54.2815C66.4315 54.1949 65.9 54.0758 65.3577 54.0217C64.6528 53.9459 64.1972 53.6211 63.9478 52.9391C63.7417 52.3545 63.438 51.8133 63.1452 51.207Z" fill="white"/>
<path d="M49.078 25.1935C49.078 24.5331 49.078 23.8728 49.078 23.2124C49.078 23.0068 49.0997 22.8011 49.1431 22.6062C49.2407 22.2273 49.5877 21.9892 49.9999 22C50.4012 22.0108 50.7157 22.2381 50.8025 22.617C50.8459 22.8119 50.8676 23.0176 50.8676 23.2233C50.8784 24.5331 50.8676 25.843 50.8676 27.1529C50.8676 27.3586 50.8459 27.5643 50.8025 27.7591C50.7157 28.1705 50.4229 28.387 49.9782 28.387C49.5227 28.387 49.2407 28.203 49.1322 27.7916C49.0888 27.6076 49.0671 27.4127 49.0671 27.2287C49.0671 26.5467 49.078 25.8647 49.078 25.1935Z" fill="white"/>
<path d="M39.4468 25.0961C39.4576 24.6847 39.6095 24.4249 39.9131 24.2733C40.1951 24.1326 40.488 24.1326 40.7591 24.3166C40.9001 24.4141 41.0303 24.5332 41.1604 24.6522C42.18 25.6482 43.1995 26.6333 44.219 27.6292C44.6745 28.0731 44.7071 28.5602 44.3383 28.9499C43.9587 29.3505 43.4815 29.3288 43.0151 28.8742C41.9413 27.8349 40.8784 26.7957 39.8155 25.7564C39.6095 25.5507 39.4359 25.3342 39.4468 25.0961Z" fill="white"/>
<path d="M60.553 25.0636C60.553 25.3018 60.4662 25.4858 60.3252 25.6374C59.3383 26.7307 58.3621 27.8349 57.3534 28.9175C56.9738 29.3288 56.4315 29.3505 56.0845 29.0149C55.7157 28.6685 55.7049 28.1922 56.0953 27.7483C57.0606 26.6658 58.0259 25.5941 59.0129 24.5223C59.2732 24.2301 59.6094 24.0785 59.9999 24.2517C60.3469 24.4141 60.4988 24.728 60.553 25.0636Z" fill="white"/>
</g>
</g>
<defs>
<filter id="filter0_d_426_5854" x="0" y="0" width="100" height="100" filterUnits="userSpaceOnUse" color-interpolation-filters="sRGB">
<feFlood flood-opacity="0" result="BackgroundImageFix"/>
<feColorMatrix in="SourceAlpha" type="matrix" values="0 0 0 0 0 0 0 0 0 0 0 0 0 0 0 0 0 0 127 0" result="hardAlpha"/>
<feMorphology radius="3" operator="erode" in="SourceAlpha" result="effect1_dropShadow_426_5854"/>
<feOffset dy="8"/>
<feGaussianBlur stdDeviation="5.5"/>
<feColorMatrix type="matrix" values="0 0 0 0 0 0 0 0 0 0 0 0 0 0 0 0 0 0 0.08 0"/>
<feBlend mode="normal" in2="BackgroundImageFix" result="effect1_dropShadow_426_5854"/>
<feBlend mode="normal" in="SourceGraphic" in2="effect1_dropShadow_426_5854" result="shape"/>
</filter>
<clipPath id="clip0_426_5854">
<rect width="40" height="40" fill="white" transform="translate(30 22)"/>
</clipPath>
</defs>
</svg>
