<svg width="26" height="22" viewBox="0 0 26 22" fill="none" xmlns="http://www.w3.org/2000/svg">
<path fill-rule="evenodd" clip-rule="evenodd" d="M24.7951 1.01226C24.6174 0.692096 24.2778 0.5 23.912 0.5L2.33569 0.516008C1.90197 0.516008 1.52573 0.788145 1.37419 1.19902C1.26445 1.49783 1.29058 1.81799 1.43689 2.07946C1.49437 2.17551 1.56753 2.26622 1.65637 2.34626L9.97022 9.66727L11.9977 20.6648C12.0761 21.097 12.4001 21.4172 12.8286 21.4865C13.2519 21.5559 13.6699 21.3531 13.8894 20.9743L24.7899 2.05278C24.978 1.72728 24.978 1.33242 24.7951 1.01226ZM3.80407 2.1008H21.3724L10.7959 8.2639L3.80407 2.1008ZM13.2728 18.8826L11.5692 9.64059L22.1614 3.47216L13.2728 18.8826Z" fill="white" stroke="white"/>
</svg>
