<svg width="23" height="20" viewBox="0 0 23 20" fill="none" xmlns="http://www.w3.org/2000/svg">
<path fill-rule="evenodd" clip-rule="evenodd" d="M21.8555 0.919355C21.6977 0.640778 21.3962 0.473633 21.0714 0.473633L1.91369 0.487562C1.52859 0.487562 1.19453 0.724351 1.05997 1.08186C0.962538 1.34186 0.985737 1.62044 1.11565 1.84794C1.16669 1.93151 1.23165 2.01044 1.31052 2.08009L8.69242 8.4502L10.4927 18.0193C10.5623 18.3954 10.8499 18.6739 11.2304 18.7343C11.6062 18.7947 11.9774 18.6182 12.1723 18.2886L21.8509 1.82473C22.0179 1.54151 22.0179 1.19793 21.8555 0.919355ZM3.21747 1.86651H18.8164L9.42551 7.2291L3.21747 1.86651ZM11.6248 16.4685L10.1122 8.42698L19.517 3.05975L11.6248 16.4685Z" fill="black" stroke="black" stroke-width="0.588081"/>
</svg>
