<svg width="30" height="24" viewBox="0 0 30 24" fill="none" xmlns="http://www.w3.org/2000/svg">
<path d="M0 7.12344C0.216565 6.65164 0.595553 6.47375 1.09829 6.48148C1.73252 6.48922 2.37448 6.48148 3.0087 6.48148C3.41089 6.48148 3.41863 6.47375 3.41863 6.07929C3.41863 5.90913 3.41863 5.73124 3.4341 5.56108C3.48824 5.01194 3.72801 4.74123 4.26168 4.62521C5.46826 4.36998 6.68257 4.11474 7.88914 3.8595C10.9597 3.21754 14.0303 2.57558 17.1009 1.93362C17.2942 1.89495 17.387 1.78667 17.4644 1.61651C17.8743 0.688377 18.5936 0.146965 19.6068 0.00774504C20.9836 -0.177882 22.3371 0.866269 22.5073 2.243C22.5382 2.4905 22.5537 2.74574 22.5537 2.99324C22.5537 7.58751 22.5537 12.174 22.5537 16.7683C22.5537 17.7583 22.2133 18.5859 21.378 19.1582C20.0245 20.0864 18.1528 19.5527 17.4953 18.0522C17.387 17.8047 17.2478 17.6964 16.9926 17.65C16.3506 17.5263 15.7009 17.3948 15.0667 17.2478C14.8656 17.2014 14.7728 17.2478 14.7032 17.4489C14.1154 19.0654 12.9629 20.0245 11.2614 20.3261C11.0989 20.3571 10.9365 20.3648 10.7741 20.3571C10.573 20.3494 10.5111 20.4344 10.5111 20.6355C10.5034 21.0764 10.5498 21.525 10.4647 21.9659C10.2404 23.1415 9.16532 24.0696 7.88914 23.9845C6.47374 23.884 5.49919 22.8398 5.49146 21.4863C5.48373 19.5372 5.48373 17.5804 5.49146 15.6313C5.49146 15.3452 5.40638 15.2137 5.12021 15.175C4.79536 15.1286 4.47825 15.0513 4.1534 14.9739C3.73574 14.8656 3.48824 14.6027 3.4341 14.1695C3.39542 13.8524 3.40316 13.5353 3.41089 13.2105C3.41863 12.9707 3.33355 12.8856 3.09378 12.8933C2.40541 12.9088 1.71705 12.8779 1.03642 12.9011C0.55688 12.9165 0.216565 12.7309 0 12.2901C0 10.5653 0 8.84822 0 7.12344ZM17.271 9.8537C17.271 7.94329 17.271 6.02515 17.271 4.11474C17.271 3.75895 17.271 3.75895 16.9384 3.82856C16.1727 3.98325 15.407 4.14568 14.6413 4.3081C11.6017 4.94233 8.5543 5.58428 5.51466 6.21851C5.3213 6.25718 5.23622 6.33453 5.23622 6.54336C5.24396 8.72447 5.24396 10.9133 5.23622 13.0944C5.23622 13.3033 5.31357 13.3883 5.50693 13.4193C5.7699 13.4657 6.03287 13.5276 6.30358 13.5817C9.83049 14.3242 13.3497 15.0667 16.8766 15.8015C17.271 15.8866 17.2788 15.8788 17.2788 15.4766C17.271 13.6049 17.271 11.7332 17.271 9.8537ZM19.0886 9.82276C19.0886 12.1199 19.0886 14.4248 19.0886 16.7219C19.0886 16.8534 19.0886 16.9926 19.1041 17.1241C19.1582 17.5959 19.6378 17.9207 20.1018 17.8047C20.5427 17.6887 20.7593 17.3793 20.7593 16.8456C20.7593 12.1586 20.7593 7.47149 20.7593 2.79215C20.7593 2.7148 20.7593 2.63746 20.7515 2.56011C20.7051 2.18886 20.4035 1.87175 20.04 1.81761C19.6687 1.76347 19.2975 1.9723 19.1505 2.32808C19.0809 2.49824 19.0964 2.6684 19.0886 2.83855C19.0809 5.16662 19.0886 7.49469 19.0886 9.82276ZM7.31679 18.7329C7.31679 19.6533 7.31679 20.5659 7.32452 21.4863C7.32452 21.8962 7.62617 22.1902 8.01289 22.1902C8.40735 22.1902 8.70126 21.9117 8.70126 21.4941C8.70899 19.7151 8.70126 17.9362 8.70899 16.1573C8.70899 15.9949 8.64712 15.9098 8.48469 15.8788C8.20625 15.8324 7.93555 15.7628 7.66484 15.7087C7.35546 15.6391 7.32452 15.6623 7.32452 15.9717C7.31679 16.8921 7.31679 17.8125 7.31679 18.7329ZM1.76345 9.69901C1.76345 10.0857 1.76345 10.4725 1.76345 10.8592C1.76345 11.0216 1.80213 11.1144 1.98775 11.1144C2.38995 11.1067 2.79987 11.1067 3.20206 11.1144C3.36449 11.1144 3.42636 11.0448 3.42636 10.8901C3.42636 10.1089 3.42636 9.32776 3.42636 8.54658C3.42636 8.37642 3.34902 8.30681 3.17886 8.30681C2.7844 8.31455 2.38995 8.31455 1.99549 8.30681C1.8176 8.30681 1.75572 8.37642 1.76345 8.54658C1.76345 8.9333 1.76345 9.32002 1.76345 9.69901ZM10.5189 17.4412C10.5189 17.7506 10.5189 18.06 10.5189 18.3693C10.5189 18.524 10.5653 18.5936 10.7354 18.6014C11.6403 18.6014 12.669 17.8898 12.9629 17.0467C13.0171 16.8998 12.9861 16.8302 12.8392 16.7992C12.1354 16.6523 11.4238 16.5053 10.7199 16.3584C10.573 16.3274 10.5266 16.3816 10.5266 16.5208C10.5189 16.8224 10.5189 17.1318 10.5189 17.4412Z" fill="#001540"/>
<path d="M29.7 9.9696C29.5066 10.4259 29.1586 10.6193 28.6713 10.6193C27.5189 10.6116 26.3742 10.627 25.2217 10.6116C24.5102 10.6038 24.0538 10.0005 24.3013 9.38952C24.456 9.01053 24.7499 8.80943 25.1521 8.8017C26.3819 8.79396 27.604 8.79396 28.8337 8.8017C29.2437 8.8017 29.5066 9.0492 29.7 9.38952C29.7 9.58288 29.7 9.77624 29.7 9.9696Z" fill="#001540"/>
<path d="M25.8795 3.95234C25.5083 3.94461 25.2298 3.77445 25.0751 3.43413C24.9127 3.08608 24.9669 2.68389 25.2685 2.42092C25.8795 1.88724 26.506 1.36903 27.148 0.87403C27.5192 0.587855 28.0606 0.696137 28.3468 1.05966C28.633 1.43091 28.6175 1.95685 28.2617 2.26623C27.6662 2.78444 27.0474 3.27944 26.4287 3.78218C26.2663 3.91367 26.0806 3.96781 25.8795 3.95234Z" fill="#001540"/>
<path d="M25.9262 15.4613C26.1273 15.4458 26.3129 15.5309 26.483 15.6701C27.0477 16.1342 27.62 16.5982 28.1846 17.07C28.5946 17.4181 28.6487 17.9518 28.3393 18.3385C28.0222 18.7407 27.4963 18.818 27.0709 18.4855C26.4598 18.0136 25.872 17.5109 25.2842 17.0082C24.9826 16.7529 24.913 16.3585 25.0522 16.0027C25.1914 15.6624 25.5085 15.4535 25.9262 15.4613Z" fill="#001540"/>
</svg>
