<svg width="20" height="20" viewBox="0 0 20 20" fill="none" xmlns="http://www.w3.org/2000/svg">
<path d="M19.9841 3.17463C19.8748 3.66383 19.6926 4.1114 19.37 4.50692C18.6049 5.43848 17.2518 5.76635 16.1537 5.26154C16.008 5.19388 15.9195 5.20429 15.805 5.31879C14.5456 6.58863 13.281 7.85326 12.0111 9.1127C11.8966 9.22719 11.9018 9.28964 11.9955 9.41454C14.8995 13.3177 12.6825 18.9852 7.89455 19.8907C7.7124 19.9272 7.52505 19.9584 7.3429 19.9896C6.87452 19.9896 6.40613 19.9896 5.93775 19.9896C5.88571 19.9792 5.83887 19.9636 5.78682 19.9584C3.09101 19.5108 1.26432 18.0068 0.322343 15.4411C0.155807 14.9935 0.0933554 14.5251 0.00488281 14.0568C0.00488281 13.5884 0.00488281 13.12 0.00488281 12.6516C0.0933554 12.1572 0.166215 11.6628 0.348365 11.1944C1.32677 8.6339 3.16387 7.11946 5.88571 6.75516C7.61873 6.52097 9.20082 6.98415 10.606 8.0198C10.7257 8.10827 10.7829 8.08746 10.8766 7.99378C12.1464 6.71873 13.4215 5.44369 14.7017 4.17385C14.8058 4.07497 14.8058 3.9969 14.7538 3.872C13.9263 2.06612 15.2482 0.00522808 17.2258 2.38124e-05C18.5321 -0.00518046 19.6146 0.843115 19.9268 2.10775C19.9424 2.17541 19.9633 2.24306 19.9841 2.31592C19.9841 2.60216 19.9841 2.88839 19.9841 3.17463ZM6.62992 8.30083C3.79879 8.34767 1.58178 10.5543 1.58178 13.3646C1.58698 16.2009 3.82482 18.4127 6.63512 18.4127C9.47145 18.4075 11.6833 16.1697 11.6781 13.3594C11.6833 10.5178 9.44022 8.34247 6.62992 8.30083ZM17.2414 3.89802C17.8503 3.90843 18.3812 3.39321 18.402 2.76349C18.4228 2.14939 17.8867 1.60294 17.257 1.59253C16.6481 1.58212 16.1173 2.09734 16.0965 2.72706C16.0757 3.33596 16.6117 3.88761 17.2414 3.89802Z" fill="black"/>
</svg>
