<svg width="25" height="24" viewBox="0 0 25 24" fill="none" xmlns="http://www.w3.org/2000/svg">
<path d="M12.4754 23.9997C9.3236 23.9997 6.17185 23.9997 3.02009 23.9997C1.66551 23.9997 0.833984 23.1447 0.833984 21.7449C0.833984 18.5109 0.833984 15.2838 0.833984 12.0499C0.833984 11.1741 1.58504 10.5742 2.37633 10.8156C2.9061 10.9742 3.24139 11.4499 3.24139 12.0636C3.24139 13.9185 3.24139 15.7665 3.24139 17.6214C3.24139 18.8419 3.24809 20.0693 3.23468 21.2898C3.23468 21.4691 3.27492 21.5242 3.45598 21.5173C9.48454 21.5105 15.5064 21.5105 21.535 21.5173C21.7496 21.5173 21.7496 21.4208 21.7496 21.2553C21.7496 18.1868 21.7496 15.1183 21.7496 12.0499C21.7496 11.3327 22.2391 10.788 22.8896 10.7535C23.5803 10.719 24.157 11.2638 24.1637 11.9878C24.1704 12.9945 24.1637 14.0013 24.1637 15.0149C24.1637 17.2628 24.1637 19.5108 24.1637 21.7656C24.1637 23.1309 23.3254 23.9928 21.9977 23.9928C18.8325 23.9997 15.6539 23.9997 12.4754 23.9997Z" fill="#001540"/>
<path d="M11.2942 4.2321C10.4426 5.10782 9.65801 5.92839 8.86001 6.74205C8.43084 7.17647 7.90108 7.2799 7.41155 7.03856C6.72084 6.68689 6.51967 5.76289 7.0092 5.1492C7.06955 5.07335 7.1299 5.01129 7.19696 4.94233C8.63872 3.45981 10.0738 1.97728 11.5155 0.501646C12.166 -0.167215 12.8299 -0.167215 13.4804 0.501646C14.9288 1.99107 16.3706 3.48049 17.8191 4.96302C18.1879 5.34227 18.3555 5.77669 18.2013 6.30074C17.9398 7.19715 16.8601 7.47297 16.1962 6.80411C15.4251 6.03182 14.6807 5.24573 13.9162 4.46655C13.8626 4.41138 13.8156 4.32864 13.7016 4.30105C13.7016 4.40449 13.7016 4.49413 13.7016 4.58377C13.7016 8.9624 13.7016 13.341 13.7016 17.7128C13.7016 18.4919 13.1652 19.0505 12.4611 19.0367C11.8441 19.0229 11.3278 18.5057 11.2942 17.8714C11.2875 17.7679 11.2942 17.6645 11.2942 17.5611C11.2942 13.2376 11.2942 8.90723 11.2942 4.58377C11.2942 4.49413 11.2942 4.39759 11.2942 4.2321Z" fill="#001540"/>
</svg>
