<svg width="14" height="18" viewBox="0 0 14 18" fill="none" xmlns="http://www.w3.org/2000/svg">
<path d="M0 18H14V14.7857C13.9985 13.5927 13.4818 12.4489 12.5632 11.6052C11.6446 10.7616 10.3991 10.2871 9.1 10.2857H4.9C3.60089 10.2871 2.35542 10.7616 1.43681 11.6052C0.518207 12.4489 0.00148215 13.5927 0 14.7857V18ZM2.1 4.5C2.1 5.39002 2.38738 6.26004 2.9258 7.00007C3.46422 7.74009 4.22949 8.31686 5.12485 8.65746C6.02021 8.99805 7.00544 9.08717 7.95594 8.91353C8.90645 8.7399 9.77955 8.31132 10.4648 7.68198C11.1501 7.05264 11.6168 6.25082 11.8058 5.37791C11.9949 4.50499 11.8979 3.60019 11.527 2.77792C11.1561 1.95566 10.5281 1.25285 9.72229 0.758387C8.91649 0.26392 7.96913 0 7 0C5.70044 0 4.45411 0.474106 3.53518 1.31802C2.61625 2.16193 2.1 3.30653 2.1 4.5Z" fill="white"/>
</svg>
