<svg width="30" height="18" viewBox="0 0 30 18" fill="none" xmlns="http://www.w3.org/2000/svg">
<path d="M29.25 0.00864138C29.25 5.99712 29.25 11.9942 29.25 17.9827C29.1043 17.9914 28.9672 17.9914 28.8215 17.9914C19.3515 17.9914 9.89001 17.9914 0.419964 17.9914C0.274271 17.9914 0.137148 17.9827 -0.00854492 17.9827C-0.00854492 11.9942 -0.00854492 5.99712 -0.00854492 0.00864138C0.145718 0.00864138 0.282841 0 0.428534 0C9.89858 0 19.36 0 28.8301 0C28.9672 0 29.1129 0.00864138 29.25 0.00864138ZM23.8337 5.33173C23.6451 5.33173 23.4566 5.33173 23.2595 5.33173C22.8138 5.33173 22.4967 5.52184 22.3253 5.94527C21.434 8.09698 20.5427 10.24 19.6514 12.3917C19.5743 12.5819 19.5914 12.6855 19.8228 12.6855C20.2856 12.6855 20.757 12.6855 21.2198 12.6855C21.3826 12.6855 21.4855 12.6164 21.5369 12.4609C21.6054 12.2448 21.6911 12.0288 21.7683 11.8128C21.8197 11.6572 21.914 11.5795 22.0854 11.5795C22.7624 11.5881 23.4394 11.5881 24.1079 11.5795C24.2622 11.5795 24.3565 11.6486 24.3907 11.8041C24.425 11.9856 24.4764 12.1584 24.5022 12.3399C24.5364 12.5991 24.6564 12.7028 24.9135 12.6942C25.2563 12.6769 25.5991 12.6769 25.9419 12.6942C26.2248 12.7115 26.259 12.5905 26.2076 12.3485C25.7448 10.1277 25.282 7.90686 24.8278 5.67739C24.7764 5.42679 24.6736 5.30581 24.4079 5.33173C24.2108 5.34902 24.0222 5.33173 23.8337 5.33173ZM3.08529 5.33173C3.07672 5.35766 3.06815 5.38358 3.05958 5.40951C3.54808 5.77244 4.01944 6.16131 4.52508 6.49832C4.9193 6.75756 5.11642 7.09457 5.22783 7.55257C5.62206 9.15122 6.05914 10.7412 6.47051 12.3399C6.53907 12.5991 6.65905 12.7028 6.92473 12.6942C7.3618 12.6769 7.79888 12.6769 8.23596 12.6942C8.45879 12.7028 8.57877 12.6078 8.6559 12.4004C8.78445 12.0374 8.93872 11.6918 9.08441 11.3289C9.84715 9.44503 10.6099 7.56121 11.3641 5.67739C11.5012 5.34037 11.5012 5.34037 11.1241 5.34037C10.7127 5.34037 10.3014 5.35766 9.89858 5.33173C9.6329 5.31445 9.51292 5.42679 9.42722 5.66875C8.90444 7.1205 8.36451 8.56361 7.83316 10.0154C7.79888 10.1191 7.79031 10.24 7.67033 10.3092C7.5932 10.2314 7.58463 10.1363 7.56749 10.0413C7.28467 8.58089 6.99329 7.12914 6.71904 5.66875C6.67619 5.42679 6.58192 5.33173 6.32481 5.33173C5.64777 5.34902 4.97073 5.34037 4.29368 5.34037C3.89945 5.33173 3.48809 5.33173 3.08529 5.33173ZM16.2405 12.7892C17.2604 12.7979 18.1174 12.6251 18.8544 12.0288C19.72 11.3202 20.1656 9.60922 18.6916 8.66731C18.3916 8.4772 18.0831 8.31301 17.7746 8.14882C17.5775 8.03649 17.3718 7.92415 17.2004 7.7686C16.8918 7.49208 16.9175 7.13778 17.2604 6.89582C17.4746 6.74028 17.7317 6.69707 17.9888 6.67979C18.4773 6.65386 18.9572 6.723 19.4115 6.92175C19.6257 7.0168 19.6943 6.95631 19.72 6.74028C19.7628 6.42055 19.8057 6.09218 19.8743 5.77244C19.9171 5.55641 19.84 5.46135 19.6429 5.40086C18.9487 5.19347 18.2374 5.15891 17.526 5.25396C16.7976 5.35766 16.1462 5.62554 15.632 6.17859C14.9207 6.94767 14.7493 8.24388 15.8463 9.08209C16.1634 9.32405 16.5062 9.50552 16.849 9.68699C17.0804 9.79933 17.3032 9.92895 17.4918 10.1104C17.8174 10.4388 17.7746 10.8622 17.3889 11.1042C17.1489 11.2597 16.8833 11.3116 16.6005 11.3289C15.9663 11.3548 15.3663 11.2338 14.8007 10.9659C14.5865 10.8709 14.5093 10.9313 14.475 11.1474C14.4322 11.4671 14.3893 11.7955 14.3208 12.1152C14.2694 12.3658 14.3551 12.4868 14.595 12.5559C15.1607 12.7028 15.7434 12.8065 16.2405 12.7892ZM13.2752 5.33173C13.0781 5.33173 12.8724 5.34037 12.6753 5.33173C12.4353 5.31445 12.3325 5.41815 12.2982 5.65146C12.204 6.31685 12.0925 6.9736 11.9811 7.63898C11.7326 9.21171 11.4755 10.7844 11.2184 12.3485C11.1755 12.5905 11.2612 12.6855 11.5012 12.6855C11.8954 12.6769 12.2811 12.6769 12.6753 12.6855C12.9238 12.6942 13.0267 12.5991 13.061 12.3485C13.2752 10.9659 13.5066 9.58329 13.7294 8.20067C13.8666 7.36246 14.0037 6.5156 14.1322 5.67739C14.1837 5.35766 14.1665 5.33173 13.8323 5.33173C13.6523 5.33173 13.4638 5.33173 13.2752 5.33173Z" fill="#001540"/>
<path d="M23.1909 10.1102C22.9937 10.1102 22.7881 10.1102 22.5909 10.1102C22.4453 10.1102 22.4024 10.0411 22.4453 9.91147C22.7366 9.09918 23.0366 8.29553 23.328 7.48324C23.3451 7.44003 23.3537 7.38818 23.4223 7.38818C23.4822 7.39682 23.4908 7.44867 23.4994 7.49188C23.6622 8.29553 23.8336 9.09918 23.9965 9.91147C24.0222 10.0497 23.9536 10.1016 23.8251 10.1016C23.6108 10.1102 23.4051 10.1102 23.1909 10.1102Z" fill="#001540"/>
</svg>
