<svg width="16" height="12" viewBox="0 0 16 12" fill="none" xmlns="http://www.w3.org/2000/svg">
<path fill-rule="evenodd" clip-rule="evenodd" d="M7.66706 2.63983C9.8918 2.63993 12.0315 3.49509 13.6438 5.02857C13.7652 5.14696 13.9593 5.14546 14.0789 5.02522L15.2395 3.85345C15.3 3.79246 15.3338 3.70985 15.3333 3.62389C15.3328 3.53794 15.2981 3.45573 15.2368 3.39545C11.0049 -0.661766 4.32857 -0.661766 0.0966565 3.39545C0.0353544 3.45568 0.000572273 3.53787 6.99858e-06 3.62382C-0.000558276 3.70978 0.0331399 3.79242 0.0936445 3.85345L1.25459 5.02522C1.37409 5.14565 1.56831 5.14714 1.68965 5.02857C3.30221 3.49499 5.44212 2.63982 7.66706 2.63983ZM7.66767 6.45241C8.89002 6.45233 10.0687 6.90685 10.9748 7.72763C11.0974 7.84412 11.2904 7.84159 11.4099 7.72194L12.5691 6.55017C12.6302 6.4887 12.6641 6.40532 12.6632 6.31868C12.6623 6.23204 12.6267 6.14937 12.5645 6.08916C9.8053 3.52159 5.53239 3.52159 2.77323 6.08916C2.7109 6.14937 2.67534 6.23208 2.67452 6.31875C2.67371 6.40542 2.7077 6.48879 2.76888 6.55017L3.92781 7.72194C4.04728 7.84159 4.24032 7.84412 4.36287 7.72763C5.26834 6.90739 6.44613 6.45291 7.66767 6.45241ZM9.98882 9.01753C9.99059 9.10442 9.95645 9.18818 9.89445 9.24906L7.88915 11.2735C7.83037 11.333 7.75022 11.3665 7.6666 11.3665C7.58298 11.3665 7.50284 11.333 7.44405 11.2735L5.43842 9.24906C5.37646 9.18814 5.34238 9.10435 5.34422 9.01746C5.34606 8.93057 5.38365 8.8483 5.44813 8.79006C6.72878 7.70645 8.60442 7.70645 9.88508 8.79006C9.94951 8.84834 9.98704 8.93065 9.98882 9.01753Z" fill="white"/>
</svg>
