<svg width="24" height="19" viewBox="0 0 24 19" fill="none" xmlns="http://www.w3.org/2000/svg">
<path d="M22.5395 3.58279C22.4207 3.07628 22.1788 2.61219 21.8381 2.2374C21.4975 1.86261 21.0703 1.5904 20.5996 1.44825C18.8796 1 12 1 12 1C12 1 5.12036 1 3.40045 1.49094C2.92972 1.63309 2.50247 1.9053 2.16186 2.28009C1.82124 2.65488 1.57933 3.11897 1.46055 3.62549C1.14578 5.48846 0.991808 7.37834 1.00057 9.27135C0.989351 11.1786 1.14333 13.0829 1.46055 14.9599C1.5915 15.4507 1.83883 15.8971 2.17865 16.2561C2.51847 16.615 2.93929 16.8744 3.40045 17.0091C5.12036 17.5 12 17.5 12 17.5C12 17.5 18.8796 17.5 20.5996 17.0091C21.0703 16.8669 21.4975 16.5947 21.8381 16.2199C22.1788 15.8451 22.4207 15.381 22.5395 14.8745C22.8518 13.0256 23.0058 11.1501 22.9994 9.27135C23.0107 7.36409 22.8567 5.4598 22.5395 3.58279V3.58279Z" stroke="#001540" stroke-width="2" stroke-linecap="round" stroke-linejoin="round"/>
<path d="M9.75 12.7612L15.4997 9.27122L9.75 5.78125V12.7612Z" stroke="#001540" stroke-width="1.5" stroke-linecap="round" stroke-linejoin="round"/>
</svg>
